G04 #@! TF.GenerationSoftware,KiCad,Pcbnew,5.1.5-52549c5~84~ubuntu19.10.1*
G04 #@! TF.CreationDate,2020-01-03T09:39:47-08:00*
G04 #@! TF.ProjectId,bsidessd,62736964-6573-4736-942e-6b696361645f,2*
G04 #@! TF.SameCoordinates,Original*
G04 #@! TF.FileFunction,Soldermask,Top*
G04 #@! TF.FilePolarity,Negative*
%FSLAX46Y46*%
G04 Gerber Fmt 4.6, Leading zero omitted, Abs format (unit mm)*
G04 Created by KiCad (PCBNEW 5.1.5-52549c5~84~ubuntu19.10.1) date 2020-01-03 09:39:47*
%MOMM*%
%LPD*%
G04 APERTURE LIST*
%ADD10C,0.100000*%
G04 APERTURE END LIST*
D10*
G36*
X122001000Y-148951000D02*
G01*
X120849000Y-148951000D01*
X120849000Y-148199000D01*
X122001000Y-148199000D01*
X122001000Y-148951000D01*
G37*
G36*
X126151000Y-148951000D02*
G01*
X124999000Y-148951000D01*
X124999000Y-148199000D01*
X126151000Y-148199000D01*
X126151000Y-148951000D01*
G37*
G36*
X119151000Y-148951000D02*
G01*
X117999000Y-148951000D01*
X117999000Y-148199000D01*
X119151000Y-148199000D01*
X119151000Y-148951000D01*
G37*
G36*
X115001000Y-148951000D02*
G01*
X113849000Y-148951000D01*
X113849000Y-148199000D01*
X115001000Y-148199000D01*
X115001000Y-148951000D01*
G37*
G36*
X105193512Y-147103927D02*
G01*
X105342812Y-147133624D01*
X105506784Y-147201544D01*
X105654354Y-147300147D01*
X105779853Y-147425646D01*
X105878456Y-147573216D01*
X105946376Y-147737188D01*
X105981000Y-147911259D01*
X105981000Y-148088741D01*
X105946376Y-148262812D01*
X105878456Y-148426784D01*
X105779853Y-148574354D01*
X105654354Y-148699853D01*
X105506784Y-148798456D01*
X105342812Y-148866376D01*
X105193512Y-148896073D01*
X105168742Y-148901000D01*
X104991258Y-148901000D01*
X104966488Y-148896073D01*
X104817188Y-148866376D01*
X104653216Y-148798456D01*
X104505646Y-148699853D01*
X104380147Y-148574354D01*
X104281544Y-148426784D01*
X104213624Y-148262812D01*
X104179000Y-148088741D01*
X104179000Y-147911259D01*
X104213624Y-147737188D01*
X104281544Y-147573216D01*
X104380147Y-147425646D01*
X104505646Y-147300147D01*
X104653216Y-147201544D01*
X104817188Y-147133624D01*
X104966488Y-147103927D01*
X104991258Y-147099000D01*
X105168742Y-147099000D01*
X105193512Y-147103927D01*
G37*
G36*
X110273512Y-147103927D02*
G01*
X110422812Y-147133624D01*
X110586784Y-147201544D01*
X110734354Y-147300147D01*
X110859853Y-147425646D01*
X110958456Y-147573216D01*
X111026376Y-147737188D01*
X111061000Y-147911259D01*
X111061000Y-148088741D01*
X111026376Y-148262812D01*
X110958456Y-148426784D01*
X110859853Y-148574354D01*
X110734354Y-148699853D01*
X110586784Y-148798456D01*
X110422812Y-148866376D01*
X110273512Y-148896073D01*
X110248742Y-148901000D01*
X110071258Y-148901000D01*
X110046488Y-148896073D01*
X109897188Y-148866376D01*
X109733216Y-148798456D01*
X109585646Y-148699853D01*
X109460147Y-148574354D01*
X109361544Y-148426784D01*
X109293624Y-148262812D01*
X109259000Y-148088741D01*
X109259000Y-147911259D01*
X109293624Y-147737188D01*
X109361544Y-147573216D01*
X109460147Y-147425646D01*
X109585646Y-147300147D01*
X109733216Y-147201544D01*
X109897188Y-147133624D01*
X110046488Y-147103927D01*
X110071258Y-147099000D01*
X110248742Y-147099000D01*
X110273512Y-147103927D01*
G37*
G36*
X107733512Y-147103927D02*
G01*
X107882812Y-147133624D01*
X108046784Y-147201544D01*
X108194354Y-147300147D01*
X108319853Y-147425646D01*
X108418456Y-147573216D01*
X108486376Y-147737188D01*
X108521000Y-147911259D01*
X108521000Y-148088741D01*
X108486376Y-148262812D01*
X108418456Y-148426784D01*
X108319853Y-148574354D01*
X108194354Y-148699853D01*
X108046784Y-148798456D01*
X107882812Y-148866376D01*
X107733512Y-148896073D01*
X107708742Y-148901000D01*
X107531258Y-148901000D01*
X107506488Y-148896073D01*
X107357188Y-148866376D01*
X107193216Y-148798456D01*
X107045646Y-148699853D01*
X106920147Y-148574354D01*
X106821544Y-148426784D01*
X106753624Y-148262812D01*
X106719000Y-148088741D01*
X106719000Y-147911259D01*
X106753624Y-147737188D01*
X106821544Y-147573216D01*
X106920147Y-147425646D01*
X107045646Y-147300147D01*
X107193216Y-147201544D01*
X107357188Y-147133624D01*
X107506488Y-147103927D01*
X107531258Y-147099000D01*
X107708742Y-147099000D01*
X107733512Y-147103927D01*
G37*
G36*
X102653512Y-147103927D02*
G01*
X102802812Y-147133624D01*
X102966784Y-147201544D01*
X103114354Y-147300147D01*
X103239853Y-147425646D01*
X103338456Y-147573216D01*
X103406376Y-147737188D01*
X103441000Y-147911259D01*
X103441000Y-148088741D01*
X103406376Y-148262812D01*
X103338456Y-148426784D01*
X103239853Y-148574354D01*
X103114354Y-148699853D01*
X102966784Y-148798456D01*
X102802812Y-148866376D01*
X102653512Y-148896073D01*
X102628742Y-148901000D01*
X102451258Y-148901000D01*
X102426488Y-148896073D01*
X102277188Y-148866376D01*
X102113216Y-148798456D01*
X101965646Y-148699853D01*
X101840147Y-148574354D01*
X101741544Y-148426784D01*
X101673624Y-148262812D01*
X101639000Y-148088741D01*
X101639000Y-147911259D01*
X101673624Y-147737188D01*
X101741544Y-147573216D01*
X101840147Y-147425646D01*
X101965646Y-147300147D01*
X102113216Y-147201544D01*
X102277188Y-147133624D01*
X102426488Y-147103927D01*
X102451258Y-147099000D01*
X102628742Y-147099000D01*
X102653512Y-147103927D01*
G37*
G36*
X100113512Y-147103927D02*
G01*
X100262812Y-147133624D01*
X100426784Y-147201544D01*
X100574354Y-147300147D01*
X100699853Y-147425646D01*
X100798456Y-147573216D01*
X100866376Y-147737188D01*
X100901000Y-147911259D01*
X100901000Y-148088741D01*
X100866376Y-148262812D01*
X100798456Y-148426784D01*
X100699853Y-148574354D01*
X100574354Y-148699853D01*
X100426784Y-148798456D01*
X100262812Y-148866376D01*
X100113512Y-148896073D01*
X100088742Y-148901000D01*
X99911258Y-148901000D01*
X99886488Y-148896073D01*
X99737188Y-148866376D01*
X99573216Y-148798456D01*
X99425646Y-148699853D01*
X99300147Y-148574354D01*
X99201544Y-148426784D01*
X99133624Y-148262812D01*
X99099000Y-148088741D01*
X99099000Y-147911259D01*
X99133624Y-147737188D01*
X99201544Y-147573216D01*
X99300147Y-147425646D01*
X99425646Y-147300147D01*
X99573216Y-147201544D01*
X99737188Y-147133624D01*
X99886488Y-147103927D01*
X99911258Y-147099000D01*
X100088742Y-147099000D01*
X100113512Y-147103927D01*
G37*
G36*
X97573512Y-147103927D02*
G01*
X97722812Y-147133624D01*
X97886784Y-147201544D01*
X98034354Y-147300147D01*
X98159853Y-147425646D01*
X98258456Y-147573216D01*
X98326376Y-147737188D01*
X98361000Y-147911259D01*
X98361000Y-148088741D01*
X98326376Y-148262812D01*
X98258456Y-148426784D01*
X98159853Y-148574354D01*
X98034354Y-148699853D01*
X97886784Y-148798456D01*
X97722812Y-148866376D01*
X97573512Y-148896073D01*
X97548742Y-148901000D01*
X97371258Y-148901000D01*
X97346488Y-148896073D01*
X97197188Y-148866376D01*
X97033216Y-148798456D01*
X96885646Y-148699853D01*
X96760147Y-148574354D01*
X96661544Y-148426784D01*
X96593624Y-148262812D01*
X96559000Y-148088741D01*
X96559000Y-147911259D01*
X96593624Y-147737188D01*
X96661544Y-147573216D01*
X96760147Y-147425646D01*
X96885646Y-147300147D01*
X97033216Y-147201544D01*
X97197188Y-147133624D01*
X97346488Y-147103927D01*
X97371258Y-147099000D01*
X97548742Y-147099000D01*
X97573512Y-147103927D01*
G37*
G36*
X95033512Y-147103927D02*
G01*
X95182812Y-147133624D01*
X95346784Y-147201544D01*
X95494354Y-147300147D01*
X95619853Y-147425646D01*
X95718456Y-147573216D01*
X95786376Y-147737188D01*
X95821000Y-147911259D01*
X95821000Y-148088741D01*
X95786376Y-148262812D01*
X95718456Y-148426784D01*
X95619853Y-148574354D01*
X95494354Y-148699853D01*
X95346784Y-148798456D01*
X95182812Y-148866376D01*
X95033512Y-148896073D01*
X95008742Y-148901000D01*
X94831258Y-148901000D01*
X94806488Y-148896073D01*
X94657188Y-148866376D01*
X94493216Y-148798456D01*
X94345646Y-148699853D01*
X94220147Y-148574354D01*
X94121544Y-148426784D01*
X94053624Y-148262812D01*
X94019000Y-148088741D01*
X94019000Y-147911259D01*
X94053624Y-147737188D01*
X94121544Y-147573216D01*
X94220147Y-147425646D01*
X94345646Y-147300147D01*
X94493216Y-147201544D01*
X94657188Y-147133624D01*
X94806488Y-147103927D01*
X94831258Y-147099000D01*
X95008742Y-147099000D01*
X95033512Y-147103927D01*
G37*
G36*
X92493512Y-147103927D02*
G01*
X92642812Y-147133624D01*
X92806784Y-147201544D01*
X92954354Y-147300147D01*
X93079853Y-147425646D01*
X93178456Y-147573216D01*
X93246376Y-147737188D01*
X93281000Y-147911259D01*
X93281000Y-148088741D01*
X93246376Y-148262812D01*
X93178456Y-148426784D01*
X93079853Y-148574354D01*
X92954354Y-148699853D01*
X92806784Y-148798456D01*
X92642812Y-148866376D01*
X92493512Y-148896073D01*
X92468742Y-148901000D01*
X92291258Y-148901000D01*
X92266488Y-148896073D01*
X92117188Y-148866376D01*
X91953216Y-148798456D01*
X91805646Y-148699853D01*
X91680147Y-148574354D01*
X91581544Y-148426784D01*
X91513624Y-148262812D01*
X91479000Y-148088741D01*
X91479000Y-147911259D01*
X91513624Y-147737188D01*
X91581544Y-147573216D01*
X91680147Y-147425646D01*
X91805646Y-147300147D01*
X91953216Y-147201544D01*
X92117188Y-147133624D01*
X92266488Y-147103927D01*
X92291258Y-147099000D01*
X92468742Y-147099000D01*
X92493512Y-147103927D01*
G37*
G36*
X90741000Y-148901000D02*
G01*
X88939000Y-148901000D01*
X88939000Y-147099000D01*
X90741000Y-147099000D01*
X90741000Y-148901000D01*
G37*
G36*
X83434468Y-147253565D02*
G01*
X83473138Y-147265296D01*
X83508777Y-147284346D01*
X83540017Y-147309983D01*
X83565654Y-147341223D01*
X83584704Y-147376862D01*
X83596435Y-147415532D01*
X83601000Y-147461888D01*
X83601000Y-148538112D01*
X83596435Y-148584468D01*
X83584704Y-148623138D01*
X83565654Y-148658777D01*
X83540017Y-148690017D01*
X83508777Y-148715654D01*
X83473138Y-148734704D01*
X83434468Y-148746435D01*
X83388112Y-148751000D01*
X82736888Y-148751000D01*
X82690532Y-148746435D01*
X82651862Y-148734704D01*
X82616223Y-148715654D01*
X82584983Y-148690017D01*
X82559346Y-148658777D01*
X82540296Y-148623138D01*
X82528565Y-148584468D01*
X82524000Y-148538112D01*
X82524000Y-147461888D01*
X82528565Y-147415532D01*
X82540296Y-147376862D01*
X82559346Y-147341223D01*
X82584983Y-147309983D01*
X82616223Y-147284346D01*
X82651862Y-147265296D01*
X82690532Y-147253565D01*
X82736888Y-147249000D01*
X83388112Y-147249000D01*
X83434468Y-147253565D01*
G37*
G36*
X85309468Y-147253565D02*
G01*
X85348138Y-147265296D01*
X85383777Y-147284346D01*
X85415017Y-147309983D01*
X85440654Y-147341223D01*
X85459704Y-147376862D01*
X85471435Y-147415532D01*
X85476000Y-147461888D01*
X85476000Y-148538112D01*
X85471435Y-148584468D01*
X85459704Y-148623138D01*
X85440654Y-148658777D01*
X85415017Y-148690017D01*
X85383777Y-148715654D01*
X85348138Y-148734704D01*
X85309468Y-148746435D01*
X85263112Y-148751000D01*
X84611888Y-148751000D01*
X84565532Y-148746435D01*
X84526862Y-148734704D01*
X84491223Y-148715654D01*
X84459983Y-148690017D01*
X84434346Y-148658777D01*
X84415296Y-148623138D01*
X84403565Y-148584468D01*
X84399000Y-148538112D01*
X84399000Y-147461888D01*
X84403565Y-147415532D01*
X84415296Y-147376862D01*
X84434346Y-147341223D01*
X84459983Y-147309983D01*
X84491223Y-147284346D01*
X84526862Y-147265296D01*
X84565532Y-147253565D01*
X84611888Y-147249000D01*
X85263112Y-147249000D01*
X85309468Y-147253565D01*
G37*
G36*
X72934468Y-147253565D02*
G01*
X72973138Y-147265296D01*
X73008777Y-147284346D01*
X73040017Y-147309983D01*
X73065654Y-147341223D01*
X73084704Y-147376862D01*
X73096435Y-147415532D01*
X73101000Y-147461888D01*
X73101000Y-148538112D01*
X73096435Y-148584468D01*
X73084704Y-148623138D01*
X73065654Y-148658777D01*
X73040017Y-148690017D01*
X73008777Y-148715654D01*
X72973138Y-148734704D01*
X72934468Y-148746435D01*
X72888112Y-148751000D01*
X72236888Y-148751000D01*
X72190532Y-148746435D01*
X72151862Y-148734704D01*
X72116223Y-148715654D01*
X72084983Y-148690017D01*
X72059346Y-148658777D01*
X72040296Y-148623138D01*
X72028565Y-148584468D01*
X72024000Y-148538112D01*
X72024000Y-147461888D01*
X72028565Y-147415532D01*
X72040296Y-147376862D01*
X72059346Y-147341223D01*
X72084983Y-147309983D01*
X72116223Y-147284346D01*
X72151862Y-147265296D01*
X72190532Y-147253565D01*
X72236888Y-147249000D01*
X72888112Y-147249000D01*
X72934468Y-147253565D01*
G37*
G36*
X74809468Y-147253565D02*
G01*
X74848138Y-147265296D01*
X74883777Y-147284346D01*
X74915017Y-147309983D01*
X74940654Y-147341223D01*
X74959704Y-147376862D01*
X74971435Y-147415532D01*
X74976000Y-147461888D01*
X74976000Y-148538112D01*
X74971435Y-148584468D01*
X74959704Y-148623138D01*
X74940654Y-148658777D01*
X74915017Y-148690017D01*
X74883777Y-148715654D01*
X74848138Y-148734704D01*
X74809468Y-148746435D01*
X74763112Y-148751000D01*
X74111888Y-148751000D01*
X74065532Y-148746435D01*
X74026862Y-148734704D01*
X73991223Y-148715654D01*
X73959983Y-148690017D01*
X73934346Y-148658777D01*
X73915296Y-148623138D01*
X73903565Y-148584468D01*
X73899000Y-148538112D01*
X73899000Y-147461888D01*
X73903565Y-147415532D01*
X73915296Y-147376862D01*
X73934346Y-147341223D01*
X73959983Y-147309983D01*
X73991223Y-147284346D01*
X74026862Y-147265296D01*
X74065532Y-147253565D01*
X74111888Y-147249000D01*
X74763112Y-147249000D01*
X74809468Y-147253565D01*
G37*
G36*
X80054591Y-147478085D02*
G01*
X80088569Y-147488393D01*
X80119890Y-147505134D01*
X80147339Y-147527661D01*
X80169866Y-147555110D01*
X80186607Y-147586431D01*
X80196915Y-147620409D01*
X80201000Y-147661890D01*
X80201000Y-148338110D01*
X80196915Y-148379591D01*
X80186607Y-148413569D01*
X80169866Y-148444890D01*
X80147339Y-148472339D01*
X80119890Y-148494866D01*
X80088569Y-148511607D01*
X80054591Y-148521915D01*
X80013110Y-148526000D01*
X79411890Y-148526000D01*
X79370409Y-148521915D01*
X79336431Y-148511607D01*
X79305110Y-148494866D01*
X79277661Y-148472339D01*
X79255134Y-148444890D01*
X79238393Y-148413569D01*
X79228085Y-148379591D01*
X79224000Y-148338110D01*
X79224000Y-147661890D01*
X79228085Y-147620409D01*
X79238393Y-147586431D01*
X79255134Y-147555110D01*
X79277661Y-147527661D01*
X79305110Y-147505134D01*
X79336431Y-147488393D01*
X79370409Y-147478085D01*
X79411890Y-147474000D01*
X80013110Y-147474000D01*
X80054591Y-147478085D01*
G37*
G36*
X76554591Y-147478085D02*
G01*
X76588569Y-147488393D01*
X76619890Y-147505134D01*
X76647339Y-147527661D01*
X76669866Y-147555110D01*
X76686607Y-147586431D01*
X76696915Y-147620409D01*
X76701000Y-147661890D01*
X76701000Y-148338110D01*
X76696915Y-148379591D01*
X76686607Y-148413569D01*
X76669866Y-148444890D01*
X76647339Y-148472339D01*
X76619890Y-148494866D01*
X76588569Y-148511607D01*
X76554591Y-148521915D01*
X76513110Y-148526000D01*
X75911890Y-148526000D01*
X75870409Y-148521915D01*
X75836431Y-148511607D01*
X75805110Y-148494866D01*
X75777661Y-148472339D01*
X75755134Y-148444890D01*
X75738393Y-148413569D01*
X75728085Y-148379591D01*
X75724000Y-148338110D01*
X75724000Y-147661890D01*
X75728085Y-147620409D01*
X75738393Y-147586431D01*
X75755134Y-147555110D01*
X75777661Y-147527661D01*
X75805110Y-147505134D01*
X75836431Y-147488393D01*
X75870409Y-147478085D01*
X75911890Y-147474000D01*
X76513110Y-147474000D01*
X76554591Y-147478085D01*
G37*
G36*
X81629591Y-147478085D02*
G01*
X81663569Y-147488393D01*
X81694890Y-147505134D01*
X81722339Y-147527661D01*
X81744866Y-147555110D01*
X81761607Y-147586431D01*
X81771915Y-147620409D01*
X81776000Y-147661890D01*
X81776000Y-148338110D01*
X81771915Y-148379591D01*
X81761607Y-148413569D01*
X81744866Y-148444890D01*
X81722339Y-148472339D01*
X81694890Y-148494866D01*
X81663569Y-148511607D01*
X81629591Y-148521915D01*
X81588110Y-148526000D01*
X80986890Y-148526000D01*
X80945409Y-148521915D01*
X80911431Y-148511607D01*
X80880110Y-148494866D01*
X80852661Y-148472339D01*
X80830134Y-148444890D01*
X80813393Y-148413569D01*
X80803085Y-148379591D01*
X80799000Y-148338110D01*
X80799000Y-147661890D01*
X80803085Y-147620409D01*
X80813393Y-147586431D01*
X80830134Y-147555110D01*
X80852661Y-147527661D01*
X80880110Y-147505134D01*
X80911431Y-147488393D01*
X80945409Y-147478085D01*
X80986890Y-147474000D01*
X81588110Y-147474000D01*
X81629591Y-147478085D01*
G37*
G36*
X78129591Y-147478085D02*
G01*
X78163569Y-147488393D01*
X78194890Y-147505134D01*
X78222339Y-147527661D01*
X78244866Y-147555110D01*
X78261607Y-147586431D01*
X78271915Y-147620409D01*
X78276000Y-147661890D01*
X78276000Y-148338110D01*
X78271915Y-148379591D01*
X78261607Y-148413569D01*
X78244866Y-148444890D01*
X78222339Y-148472339D01*
X78194890Y-148494866D01*
X78163569Y-148511607D01*
X78129591Y-148521915D01*
X78088110Y-148526000D01*
X77486890Y-148526000D01*
X77445409Y-148521915D01*
X77411431Y-148511607D01*
X77380110Y-148494866D01*
X77352661Y-148472339D01*
X77330134Y-148444890D01*
X77313393Y-148413569D01*
X77303085Y-148379591D01*
X77299000Y-148338110D01*
X77299000Y-147661890D01*
X77303085Y-147620409D01*
X77313393Y-147586431D01*
X77330134Y-147555110D01*
X77352661Y-147527661D01*
X77380110Y-147505134D01*
X77411431Y-147488393D01*
X77445409Y-147478085D01*
X77486890Y-147474000D01*
X78088110Y-147474000D01*
X78129591Y-147478085D01*
G37*
G36*
X115001000Y-146801000D02*
G01*
X113849000Y-146801000D01*
X113849000Y-146049000D01*
X115001000Y-146049000D01*
X115001000Y-146801000D01*
G37*
G36*
X126151000Y-146801000D02*
G01*
X124999000Y-146801000D01*
X124999000Y-146049000D01*
X126151000Y-146049000D01*
X126151000Y-146801000D01*
G37*
G36*
X122001000Y-146801000D02*
G01*
X120849000Y-146801000D01*
X120849000Y-146049000D01*
X122001000Y-146049000D01*
X122001000Y-146801000D01*
G37*
G36*
X119151000Y-146801000D02*
G01*
X117999000Y-146801000D01*
X117999000Y-146049000D01*
X119151000Y-146049000D01*
X119151000Y-146801000D01*
G37*
G36*
X145113512Y-140303927D02*
G01*
X145262812Y-140333624D01*
X145426784Y-140401544D01*
X145574354Y-140500147D01*
X145699853Y-140625646D01*
X145798456Y-140773216D01*
X145866376Y-140937188D01*
X145901000Y-141111259D01*
X145901000Y-141288741D01*
X145866376Y-141462812D01*
X145798456Y-141626784D01*
X145699853Y-141774354D01*
X145574354Y-141899853D01*
X145426784Y-141998456D01*
X145262812Y-142066376D01*
X145113512Y-142096073D01*
X145088742Y-142101000D01*
X144911258Y-142101000D01*
X144886488Y-142096073D01*
X144737188Y-142066376D01*
X144573216Y-141998456D01*
X144425646Y-141899853D01*
X144300147Y-141774354D01*
X144201544Y-141626784D01*
X144133624Y-141462812D01*
X144099000Y-141288741D01*
X144099000Y-141111259D01*
X144133624Y-140937188D01*
X144201544Y-140773216D01*
X144300147Y-140625646D01*
X144425646Y-140500147D01*
X144573216Y-140401544D01*
X144737188Y-140333624D01*
X144886488Y-140303927D01*
X144911258Y-140299000D01*
X145088742Y-140299000D01*
X145113512Y-140303927D01*
G37*
G36*
X101748931Y-137268211D02*
G01*
X102076692Y-137403974D01*
X102371670Y-137601072D01*
X102622528Y-137851930D01*
X102819626Y-138146908D01*
X102955389Y-138474669D01*
X103024600Y-138822616D01*
X103024600Y-139177384D01*
X102955389Y-139525331D01*
X102819626Y-139853092D01*
X102622528Y-140148070D01*
X102371670Y-140398928D01*
X102076692Y-140596026D01*
X101748931Y-140731789D01*
X101400984Y-140801000D01*
X101046216Y-140801000D01*
X100698269Y-140731789D01*
X100370508Y-140596026D01*
X100075530Y-140398928D01*
X99824672Y-140148070D01*
X99627574Y-139853092D01*
X99491811Y-139525331D01*
X99422600Y-139177384D01*
X99422600Y-138822616D01*
X99491811Y-138474669D01*
X99627574Y-138146908D01*
X99824672Y-137851930D01*
X100075530Y-137601072D01*
X100370508Y-137403974D01*
X100698269Y-137268211D01*
X101046216Y-137199000D01*
X101400984Y-137199000D01*
X101748931Y-137268211D01*
G37*
G36*
X78551000Y-140051000D02*
G01*
X76449000Y-140051000D01*
X76449000Y-137949000D01*
X78551000Y-137949000D01*
X78551000Y-140051000D01*
G37*
G36*
X145112370Y-137763700D02*
G01*
X145262812Y-137793624D01*
X145426784Y-137861544D01*
X145574354Y-137960147D01*
X145699853Y-138085646D01*
X145798456Y-138233216D01*
X145866376Y-138397188D01*
X145901000Y-138571259D01*
X145901000Y-138748741D01*
X145866376Y-138922812D01*
X145798456Y-139086784D01*
X145699853Y-139234354D01*
X145574354Y-139359853D01*
X145426784Y-139458456D01*
X145262812Y-139526376D01*
X145113512Y-139556073D01*
X145088742Y-139561000D01*
X144911258Y-139561000D01*
X144886488Y-139556073D01*
X144737188Y-139526376D01*
X144573216Y-139458456D01*
X144425646Y-139359853D01*
X144300147Y-139234354D01*
X144201544Y-139086784D01*
X144133624Y-138922812D01*
X144099000Y-138748741D01*
X144099000Y-138571259D01*
X144133624Y-138397188D01*
X144201544Y-138233216D01*
X144300147Y-138085646D01*
X144425646Y-137960147D01*
X144573216Y-137861544D01*
X144737188Y-137793624D01*
X144887630Y-137763700D01*
X144911258Y-137759000D01*
X145088742Y-137759000D01*
X145112370Y-137763700D01*
G37*
G36*
X140122578Y-137774197D02*
G01*
X140175350Y-137784694D01*
X140274770Y-137825875D01*
X140364246Y-137885661D01*
X140440339Y-137961754D01*
X140500125Y-138051230D01*
X140539756Y-138146908D01*
X140541306Y-138150651D01*
X140557730Y-138233216D01*
X140562300Y-138256194D01*
X140562300Y-138363806D01*
X140541306Y-138469350D01*
X140500125Y-138568770D01*
X140440339Y-138658246D01*
X140364246Y-138734339D01*
X140274770Y-138794125D01*
X140175350Y-138835306D01*
X140122578Y-138845803D01*
X140069807Y-138856300D01*
X139962193Y-138856300D01*
X139909422Y-138845803D01*
X139856650Y-138835306D01*
X139757230Y-138794125D01*
X139667754Y-138734339D01*
X139591661Y-138658246D01*
X139531875Y-138568770D01*
X139490694Y-138469350D01*
X139469700Y-138363806D01*
X139469700Y-138256194D01*
X139474271Y-138233216D01*
X139490694Y-138150651D01*
X139492244Y-138146908D01*
X139531875Y-138051230D01*
X139591661Y-137961754D01*
X139667754Y-137885661D01*
X139757230Y-137825875D01*
X139856650Y-137784694D01*
X139909422Y-137774197D01*
X139962193Y-137763700D01*
X140069807Y-137763700D01*
X140122578Y-137774197D01*
G37*
G36*
X138090578Y-137774197D02*
G01*
X138143350Y-137784694D01*
X138242770Y-137825875D01*
X138332246Y-137885661D01*
X138408339Y-137961754D01*
X138468125Y-138051230D01*
X138507756Y-138146908D01*
X138509306Y-138150651D01*
X138525730Y-138233216D01*
X138530300Y-138256194D01*
X138530300Y-138363806D01*
X138509306Y-138469350D01*
X138468125Y-138568770D01*
X138408339Y-138658246D01*
X138332246Y-138734339D01*
X138242770Y-138794125D01*
X138143350Y-138835306D01*
X138090578Y-138845803D01*
X138037807Y-138856300D01*
X137930193Y-138856300D01*
X137877422Y-138845803D01*
X137824650Y-138835306D01*
X137725230Y-138794125D01*
X137635754Y-138734339D01*
X137559661Y-138658246D01*
X137499875Y-138568770D01*
X137458694Y-138469350D01*
X137437700Y-138363806D01*
X137437700Y-138256194D01*
X137442271Y-138233216D01*
X137458694Y-138150651D01*
X137460244Y-138146908D01*
X137499875Y-138051230D01*
X137559661Y-137961754D01*
X137635754Y-137885661D01*
X137725230Y-137825875D01*
X137824650Y-137784694D01*
X137877422Y-137774197D01*
X137930193Y-137763700D01*
X138037807Y-137763700D01*
X138090578Y-137774197D01*
G37*
G36*
X141696031Y-135173273D02*
G01*
X141901257Y-135214094D01*
X142126650Y-135307455D01*
X142329498Y-135442994D01*
X142502006Y-135615502D01*
X142637545Y-135818350D01*
X142730906Y-136043743D01*
X142778500Y-136283018D01*
X142778500Y-136526982D01*
X142730906Y-136766257D01*
X142637545Y-136991650D01*
X142502006Y-137194498D01*
X142329498Y-137367006D01*
X142126650Y-137502545D01*
X141901257Y-137595906D01*
X141696031Y-137636727D01*
X141661983Y-137643500D01*
X141418017Y-137643500D01*
X141383969Y-137636727D01*
X141178743Y-137595906D01*
X140953350Y-137502545D01*
X140750502Y-137367006D01*
X140577994Y-137194498D01*
X140442455Y-136991650D01*
X140349094Y-136766257D01*
X140301500Y-136526982D01*
X140301500Y-136283018D01*
X140349094Y-136043743D01*
X140442455Y-135818350D01*
X140577994Y-135615502D01*
X140750502Y-135442994D01*
X140953350Y-135307455D01*
X141178743Y-135214094D01*
X141383969Y-135173273D01*
X141418017Y-135166500D01*
X141661983Y-135166500D01*
X141696031Y-135173273D01*
G37*
G36*
X136616031Y-135173273D02*
G01*
X136821257Y-135214094D01*
X137046650Y-135307455D01*
X137249498Y-135442994D01*
X137422006Y-135615502D01*
X137557545Y-135818350D01*
X137650906Y-136043743D01*
X137698500Y-136283018D01*
X137698500Y-136526982D01*
X137650906Y-136766257D01*
X137557545Y-136991650D01*
X137422006Y-137194498D01*
X137249498Y-137367006D01*
X137046650Y-137502545D01*
X136821257Y-137595906D01*
X136616031Y-137636727D01*
X136581983Y-137643500D01*
X136338017Y-137643500D01*
X136303969Y-137636727D01*
X136098743Y-137595906D01*
X135873350Y-137502545D01*
X135670502Y-137367006D01*
X135497994Y-137194498D01*
X135362455Y-136991650D01*
X135269094Y-136766257D01*
X135221500Y-136526982D01*
X135221500Y-136283018D01*
X135269094Y-136043743D01*
X135362455Y-135818350D01*
X135497994Y-135615502D01*
X135670502Y-135442994D01*
X135873350Y-135307455D01*
X136098743Y-135214094D01*
X136303969Y-135173273D01*
X136338017Y-135166500D01*
X136581983Y-135166500D01*
X136616031Y-135173273D01*
G37*
G36*
X145113512Y-135223927D02*
G01*
X145262812Y-135253624D01*
X145426784Y-135321544D01*
X145574354Y-135420147D01*
X145699853Y-135545646D01*
X145798456Y-135693216D01*
X145866376Y-135857188D01*
X145901000Y-136031259D01*
X145901000Y-136208741D01*
X145866376Y-136382812D01*
X145798456Y-136546784D01*
X145699853Y-136694354D01*
X145574354Y-136819853D01*
X145426784Y-136918456D01*
X145262812Y-136986376D01*
X145113512Y-137016073D01*
X145088742Y-137021000D01*
X144911258Y-137021000D01*
X144886488Y-137016073D01*
X144737188Y-136986376D01*
X144573216Y-136918456D01*
X144425646Y-136819853D01*
X144300147Y-136694354D01*
X144201544Y-136546784D01*
X144133624Y-136382812D01*
X144099000Y-136208741D01*
X144099000Y-136031259D01*
X144133624Y-135857188D01*
X144201544Y-135693216D01*
X144300147Y-135545646D01*
X144425646Y-135420147D01*
X144573216Y-135321544D01*
X144737188Y-135253624D01*
X144886488Y-135223927D01*
X144911258Y-135219000D01*
X145088742Y-135219000D01*
X145113512Y-135223927D01*
G37*
G36*
X51931213Y-134732502D02*
G01*
X52002321Y-134739505D01*
X52139172Y-134781019D01*
X52139175Y-134781020D01*
X52265294Y-134848432D01*
X52375843Y-134939157D01*
X52466568Y-135049706D01*
X52533980Y-135175825D01*
X52533981Y-135175828D01*
X52575495Y-135312679D01*
X52589512Y-135455000D01*
X52575495Y-135597321D01*
X52569979Y-135615503D01*
X52533980Y-135734175D01*
X52466568Y-135860294D01*
X52375843Y-135970843D01*
X52265294Y-136061568D01*
X52139175Y-136128980D01*
X52139172Y-136128981D01*
X52002321Y-136170495D01*
X51931213Y-136177498D01*
X51895660Y-136181000D01*
X51474340Y-136181000D01*
X51438787Y-136177498D01*
X51367679Y-136170495D01*
X51230828Y-136128981D01*
X51230825Y-136128980D01*
X51104706Y-136061568D01*
X50994157Y-135970843D01*
X50903432Y-135860294D01*
X50836020Y-135734175D01*
X50800021Y-135615503D01*
X50794505Y-135597321D01*
X50780488Y-135455000D01*
X50794505Y-135312679D01*
X50836019Y-135175828D01*
X50836020Y-135175825D01*
X50903432Y-135049706D01*
X50994157Y-134939157D01*
X51104706Y-134848432D01*
X51230825Y-134781020D01*
X51230828Y-134781019D01*
X51367679Y-134739505D01*
X51438787Y-134732502D01*
X51474340Y-134729000D01*
X51895660Y-134729000D01*
X51931213Y-134732502D01*
G37*
G36*
X103126000Y-136101000D02*
G01*
X96874000Y-136101000D01*
X96874000Y-134399000D01*
X103126000Y-134399000D01*
X103126000Y-136101000D01*
G37*
G36*
X55002818Y-134552696D02*
G01*
X55116105Y-134587062D01*
X55220512Y-134642869D01*
X55312027Y-134717973D01*
X55387131Y-134809488D01*
X55442938Y-134913895D01*
X55477304Y-135027182D01*
X55488907Y-135145000D01*
X55477304Y-135262818D01*
X55442938Y-135376105D01*
X55387131Y-135480512D01*
X55312027Y-135572027D01*
X55220512Y-135647131D01*
X55116105Y-135702938D01*
X55002818Y-135737304D01*
X54914519Y-135746000D01*
X54455481Y-135746000D01*
X54367182Y-135737304D01*
X54253895Y-135702938D01*
X54149488Y-135647131D01*
X54057973Y-135572027D01*
X53982869Y-135480512D01*
X53927062Y-135376105D01*
X53892696Y-135262818D01*
X53881093Y-135145000D01*
X53892696Y-135027182D01*
X53927062Y-134913895D01*
X53982869Y-134809488D01*
X54057973Y-134717973D01*
X54149488Y-134642869D01*
X54253895Y-134587062D01*
X54367182Y-134552696D01*
X54455481Y-134544000D01*
X54914519Y-134544000D01*
X55002818Y-134552696D01*
G37*
G36*
X145113512Y-132683927D02*
G01*
X145262812Y-132713624D01*
X145426784Y-132781544D01*
X145574354Y-132880147D01*
X145699853Y-133005646D01*
X145798456Y-133153216D01*
X145866376Y-133317188D01*
X145901000Y-133491259D01*
X145901000Y-133668741D01*
X145866376Y-133842812D01*
X145798456Y-134006784D01*
X145699853Y-134154354D01*
X145574354Y-134279853D01*
X145426784Y-134378456D01*
X145262812Y-134446376D01*
X145113512Y-134476073D01*
X145088742Y-134481000D01*
X144911258Y-134481000D01*
X144886488Y-134476073D01*
X144737188Y-134446376D01*
X144573216Y-134378456D01*
X144425646Y-134279853D01*
X144300147Y-134154354D01*
X144201544Y-134006784D01*
X144133624Y-133842812D01*
X144099000Y-133668741D01*
X144099000Y-133491259D01*
X144133624Y-133317188D01*
X144201544Y-133153216D01*
X144300147Y-133005646D01*
X144425646Y-132880147D01*
X144573216Y-132781544D01*
X144737188Y-132713624D01*
X144886488Y-132683927D01*
X144911258Y-132679000D01*
X145088742Y-132679000D01*
X145113512Y-132683927D01*
G37*
G36*
X96601000Y-134126000D02*
G01*
X94899000Y-134126000D01*
X94899000Y-127874000D01*
X96601000Y-127874000D01*
X96601000Y-134126000D01*
G37*
G36*
X105101000Y-134126000D02*
G01*
X103399000Y-134126000D01*
X103399000Y-127874000D01*
X105101000Y-127874000D01*
X105101000Y-134126000D01*
G37*
G36*
X145112370Y-130143700D02*
G01*
X145262812Y-130173624D01*
X145426784Y-130241544D01*
X145574354Y-130340147D01*
X145699853Y-130465646D01*
X145798456Y-130613216D01*
X145866376Y-130777188D01*
X145901000Y-130951259D01*
X145901000Y-131128741D01*
X145866376Y-131302812D01*
X145798456Y-131466784D01*
X145699853Y-131614354D01*
X145574354Y-131739853D01*
X145426784Y-131838456D01*
X145262812Y-131906376D01*
X145113512Y-131936073D01*
X145088742Y-131941000D01*
X144911258Y-131941000D01*
X144886488Y-131936073D01*
X144737188Y-131906376D01*
X144573216Y-131838456D01*
X144425646Y-131739853D01*
X144300147Y-131614354D01*
X144201544Y-131466784D01*
X144133624Y-131302812D01*
X144099000Y-131128741D01*
X144099000Y-130951259D01*
X144133624Y-130777188D01*
X144201544Y-130613216D01*
X144300147Y-130465646D01*
X144425646Y-130340147D01*
X144573216Y-130241544D01*
X144737188Y-130173624D01*
X144887630Y-130143700D01*
X144911258Y-130139000D01*
X145088742Y-130139000D01*
X145112370Y-130143700D01*
G37*
G36*
X136616031Y-129458273D02*
G01*
X136821257Y-129499094D01*
X137046650Y-129592455D01*
X137249498Y-129727994D01*
X137422006Y-129900502D01*
X137557545Y-130103350D01*
X137650906Y-130328743D01*
X137698500Y-130568018D01*
X137698500Y-130811982D01*
X137650906Y-131051257D01*
X137557545Y-131276650D01*
X137422006Y-131479498D01*
X137249498Y-131652006D01*
X137046650Y-131787545D01*
X136821257Y-131880906D01*
X136616031Y-131921727D01*
X136581983Y-131928500D01*
X136338017Y-131928500D01*
X136303969Y-131921727D01*
X136098743Y-131880906D01*
X135873350Y-131787545D01*
X135670502Y-131652006D01*
X135497994Y-131479498D01*
X135362455Y-131276650D01*
X135269094Y-131051257D01*
X135221500Y-130811982D01*
X135221500Y-130568018D01*
X135269094Y-130328743D01*
X135362455Y-130103350D01*
X135497994Y-129900502D01*
X135670502Y-129727994D01*
X135873350Y-129592455D01*
X136098743Y-129499094D01*
X136303969Y-129458273D01*
X136338017Y-129451500D01*
X136581983Y-129451500D01*
X136616031Y-129458273D01*
G37*
G36*
X141696031Y-129458273D02*
G01*
X141901257Y-129499094D01*
X142126650Y-129592455D01*
X142329498Y-129727994D01*
X142502006Y-129900502D01*
X142637545Y-130103350D01*
X142730906Y-130328743D01*
X142778500Y-130568018D01*
X142778500Y-130811982D01*
X142730906Y-131051257D01*
X142637545Y-131276650D01*
X142502006Y-131479498D01*
X142329498Y-131652006D01*
X142126650Y-131787545D01*
X141901257Y-131880906D01*
X141696031Y-131921727D01*
X141661983Y-131928500D01*
X141418017Y-131928500D01*
X141383969Y-131921727D01*
X141178743Y-131880906D01*
X140953350Y-131787545D01*
X140750502Y-131652006D01*
X140577994Y-131479498D01*
X140442455Y-131276650D01*
X140349094Y-131051257D01*
X140301500Y-130811982D01*
X140301500Y-130568018D01*
X140349094Y-130328743D01*
X140442455Y-130103350D01*
X140577994Y-129900502D01*
X140750502Y-129727994D01*
X140953350Y-129592455D01*
X141178743Y-129499094D01*
X141383969Y-129458273D01*
X141418017Y-129451500D01*
X141661983Y-129451500D01*
X141696031Y-129458273D01*
G37*
G36*
X139106578Y-130154197D02*
G01*
X139159350Y-130164694D01*
X139258770Y-130205875D01*
X139348246Y-130265661D01*
X139424339Y-130341754D01*
X139484125Y-130431230D01*
X139525306Y-130530650D01*
X139525306Y-130530651D01*
X139541730Y-130613216D01*
X139546300Y-130636194D01*
X139546300Y-130743806D01*
X139525306Y-130849350D01*
X139484125Y-130948770D01*
X139424339Y-131038246D01*
X139348246Y-131114339D01*
X139258770Y-131174125D01*
X139159350Y-131215306D01*
X139106578Y-131225803D01*
X139053807Y-131236300D01*
X138946193Y-131236300D01*
X138893422Y-131225803D01*
X138840650Y-131215306D01*
X138741230Y-131174125D01*
X138651754Y-131114339D01*
X138575661Y-131038246D01*
X138515875Y-130948770D01*
X138474694Y-130849350D01*
X138453700Y-130743806D01*
X138453700Y-130636194D01*
X138458271Y-130613216D01*
X138474694Y-130530651D01*
X138474694Y-130530650D01*
X138515875Y-130431230D01*
X138575661Y-130341754D01*
X138651754Y-130265661D01*
X138741230Y-130205875D01*
X138840650Y-130164694D01*
X138893422Y-130154197D01*
X138946193Y-130143700D01*
X139053807Y-130143700D01*
X139106578Y-130154197D01*
G37*
G36*
X55002818Y-129712696D02*
G01*
X55116105Y-129747062D01*
X55220512Y-129802869D01*
X55312027Y-129877973D01*
X55387131Y-129969488D01*
X55442938Y-130073895D01*
X55477304Y-130187182D01*
X55488907Y-130305000D01*
X55477304Y-130422818D01*
X55442938Y-130536105D01*
X55387131Y-130640512D01*
X55312027Y-130732027D01*
X55220512Y-130807131D01*
X55116105Y-130862938D01*
X55002818Y-130897304D01*
X54914519Y-130906000D01*
X54455481Y-130906000D01*
X54367182Y-130897304D01*
X54253895Y-130862938D01*
X54149488Y-130807131D01*
X54057973Y-130732027D01*
X53982869Y-130640512D01*
X53927062Y-130536105D01*
X53892696Y-130422818D01*
X53881093Y-130305000D01*
X53892696Y-130187182D01*
X53927062Y-130073895D01*
X53982869Y-129969488D01*
X54057973Y-129877973D01*
X54149488Y-129802869D01*
X54253895Y-129747062D01*
X54367182Y-129712696D01*
X54455481Y-129704000D01*
X54914519Y-129704000D01*
X55002818Y-129712696D01*
G37*
G36*
X51931213Y-129272502D02*
G01*
X52002321Y-129279505D01*
X52139172Y-129321019D01*
X52139175Y-129321020D01*
X52265294Y-129388432D01*
X52375843Y-129479157D01*
X52466568Y-129589706D01*
X52533980Y-129715825D01*
X52533981Y-129715828D01*
X52575495Y-129852679D01*
X52589512Y-129995000D01*
X52575495Y-130137321D01*
X52543879Y-130241544D01*
X52533980Y-130274175D01*
X52466568Y-130400294D01*
X52375843Y-130510843D01*
X52265294Y-130601568D01*
X52139175Y-130668980D01*
X52139172Y-130668981D01*
X52002321Y-130710495D01*
X51931213Y-130717498D01*
X51895660Y-130721000D01*
X51474340Y-130721000D01*
X51438787Y-130717498D01*
X51367679Y-130710495D01*
X51230828Y-130668981D01*
X51230825Y-130668980D01*
X51104706Y-130601568D01*
X50994157Y-130510843D01*
X50903432Y-130400294D01*
X50836020Y-130274175D01*
X50826121Y-130241544D01*
X50794505Y-130137321D01*
X50780488Y-129995000D01*
X50794505Y-129852679D01*
X50836019Y-129715828D01*
X50836020Y-129715825D01*
X50903432Y-129589706D01*
X50994157Y-129479157D01*
X51104706Y-129388432D01*
X51230825Y-129321020D01*
X51230828Y-129321019D01*
X51367679Y-129279505D01*
X51438787Y-129272502D01*
X51474340Y-129269000D01*
X51895660Y-129269000D01*
X51931213Y-129272502D01*
G37*
G36*
X145901000Y-129401000D02*
G01*
X144099000Y-129401000D01*
X144099000Y-127599000D01*
X145901000Y-127599000D01*
X145901000Y-129401000D01*
G37*
G36*
X103126000Y-127601000D02*
G01*
X96874000Y-127601000D01*
X96874000Y-125899000D01*
X103126000Y-125899000D01*
X103126000Y-127601000D01*
G37*
G36*
X77806564Y-125289389D02*
G01*
X77997833Y-125368615D01*
X77997835Y-125368616D01*
X78169973Y-125483635D01*
X78316365Y-125630027D01*
X78431385Y-125802167D01*
X78510611Y-125993436D01*
X78551000Y-126196484D01*
X78551000Y-126403516D01*
X78510611Y-126606564D01*
X78431385Y-126797833D01*
X78431384Y-126797835D01*
X78316365Y-126969973D01*
X78169973Y-127116365D01*
X77997835Y-127231384D01*
X77997834Y-127231385D01*
X77997833Y-127231385D01*
X77806564Y-127310611D01*
X77603516Y-127351000D01*
X77396484Y-127351000D01*
X77193436Y-127310611D01*
X77002167Y-127231385D01*
X77002166Y-127231385D01*
X77002165Y-127231384D01*
X76830027Y-127116365D01*
X76683635Y-126969973D01*
X76568616Y-126797835D01*
X76568615Y-126797833D01*
X76489389Y-126606564D01*
X76449000Y-126403516D01*
X76449000Y-126196484D01*
X76489389Y-125993436D01*
X76568615Y-125802167D01*
X76683635Y-125630027D01*
X76830027Y-125483635D01*
X77002165Y-125368616D01*
X77002167Y-125368615D01*
X77193436Y-125289389D01*
X77396484Y-125249000D01*
X77603516Y-125249000D01*
X77806564Y-125289389D01*
G37*
G36*
X93309468Y-121753565D02*
G01*
X93348138Y-121765296D01*
X93383777Y-121784346D01*
X93415017Y-121809983D01*
X93440654Y-121841223D01*
X93459704Y-121876862D01*
X93471435Y-121915532D01*
X93476000Y-121961888D01*
X93476000Y-123038112D01*
X93471435Y-123084468D01*
X93459704Y-123123138D01*
X93440654Y-123158777D01*
X93415017Y-123190017D01*
X93383777Y-123215654D01*
X93348138Y-123234704D01*
X93309468Y-123246435D01*
X93263112Y-123251000D01*
X92611888Y-123251000D01*
X92565532Y-123246435D01*
X92526862Y-123234704D01*
X92491223Y-123215654D01*
X92459983Y-123190017D01*
X92434346Y-123158777D01*
X92415296Y-123123138D01*
X92403565Y-123084468D01*
X92399000Y-123038112D01*
X92399000Y-121961888D01*
X92403565Y-121915532D01*
X92415296Y-121876862D01*
X92434346Y-121841223D01*
X92459983Y-121809983D01*
X92491223Y-121784346D01*
X92526862Y-121765296D01*
X92565532Y-121753565D01*
X92611888Y-121749000D01*
X93263112Y-121749000D01*
X93309468Y-121753565D01*
G37*
G36*
X91434468Y-121753565D02*
G01*
X91473138Y-121765296D01*
X91508777Y-121784346D01*
X91540017Y-121809983D01*
X91565654Y-121841223D01*
X91584704Y-121876862D01*
X91596435Y-121915532D01*
X91601000Y-121961888D01*
X91601000Y-123038112D01*
X91596435Y-123084468D01*
X91584704Y-123123138D01*
X91565654Y-123158777D01*
X91540017Y-123190017D01*
X91508777Y-123215654D01*
X91473138Y-123234704D01*
X91434468Y-123246435D01*
X91388112Y-123251000D01*
X90736888Y-123251000D01*
X90690532Y-123246435D01*
X90651862Y-123234704D01*
X90616223Y-123215654D01*
X90584983Y-123190017D01*
X90559346Y-123158777D01*
X90540296Y-123123138D01*
X90528565Y-123084468D01*
X90524000Y-123038112D01*
X90524000Y-121961888D01*
X90528565Y-121915532D01*
X90540296Y-121876862D01*
X90559346Y-121841223D01*
X90584983Y-121809983D01*
X90616223Y-121784346D01*
X90651862Y-121765296D01*
X90690532Y-121753565D01*
X90736888Y-121749000D01*
X91388112Y-121749000D01*
X91434468Y-121753565D01*
G37*
G36*
X106934468Y-121753565D02*
G01*
X106973138Y-121765296D01*
X107008777Y-121784346D01*
X107040017Y-121809983D01*
X107065654Y-121841223D01*
X107084704Y-121876862D01*
X107096435Y-121915532D01*
X107101000Y-121961888D01*
X107101000Y-123038112D01*
X107096435Y-123084468D01*
X107084704Y-123123138D01*
X107065654Y-123158777D01*
X107040017Y-123190017D01*
X107008777Y-123215654D01*
X106973138Y-123234704D01*
X106934468Y-123246435D01*
X106888112Y-123251000D01*
X106236888Y-123251000D01*
X106190532Y-123246435D01*
X106151862Y-123234704D01*
X106116223Y-123215654D01*
X106084983Y-123190017D01*
X106059346Y-123158777D01*
X106040296Y-123123138D01*
X106028565Y-123084468D01*
X106024000Y-123038112D01*
X106024000Y-121961888D01*
X106028565Y-121915532D01*
X106040296Y-121876862D01*
X106059346Y-121841223D01*
X106084983Y-121809983D01*
X106116223Y-121784346D01*
X106151862Y-121765296D01*
X106190532Y-121753565D01*
X106236888Y-121749000D01*
X106888112Y-121749000D01*
X106934468Y-121753565D01*
G37*
G36*
X108809468Y-121753565D02*
G01*
X108848138Y-121765296D01*
X108883777Y-121784346D01*
X108915017Y-121809983D01*
X108940654Y-121841223D01*
X108959704Y-121876862D01*
X108971435Y-121915532D01*
X108976000Y-121961888D01*
X108976000Y-123038112D01*
X108971435Y-123084468D01*
X108959704Y-123123138D01*
X108940654Y-123158777D01*
X108915017Y-123190017D01*
X108883777Y-123215654D01*
X108848138Y-123234704D01*
X108809468Y-123246435D01*
X108763112Y-123251000D01*
X108111888Y-123251000D01*
X108065532Y-123246435D01*
X108026862Y-123234704D01*
X107991223Y-123215654D01*
X107959983Y-123190017D01*
X107934346Y-123158777D01*
X107915296Y-123123138D01*
X107903565Y-123084468D01*
X107899000Y-123038112D01*
X107899000Y-121961888D01*
X107903565Y-121915532D01*
X107915296Y-121876862D01*
X107934346Y-121841223D01*
X107959983Y-121809983D01*
X107991223Y-121784346D01*
X108026862Y-121765296D01*
X108065532Y-121753565D01*
X108111888Y-121749000D01*
X108763112Y-121749000D01*
X108809468Y-121753565D01*
G37*
G36*
X118951000Y-123151000D02*
G01*
X118149000Y-123151000D01*
X118149000Y-121849000D01*
X118951000Y-121849000D01*
X118951000Y-123151000D01*
G37*
G36*
X63451000Y-123151000D02*
G01*
X62349000Y-123151000D01*
X62349000Y-121849000D01*
X63451000Y-121849000D01*
X63451000Y-123151000D01*
G37*
G36*
X61951000Y-123151000D02*
G01*
X61149000Y-123151000D01*
X61149000Y-121849000D01*
X61951000Y-121849000D01*
X61951000Y-123151000D01*
G37*
G36*
X59851000Y-123151000D02*
G01*
X58749000Y-123151000D01*
X58749000Y-121849000D01*
X59851000Y-121849000D01*
X59851000Y-123151000D01*
G37*
G36*
X79351000Y-123151000D02*
G01*
X78249000Y-123151000D01*
X78249000Y-121849000D01*
X79351000Y-121849000D01*
X79351000Y-123151000D01*
G37*
G36*
X140951000Y-123151000D02*
G01*
X139849000Y-123151000D01*
X139849000Y-121849000D01*
X140951000Y-121849000D01*
X140951000Y-123151000D01*
G37*
G36*
X139451000Y-123151000D02*
G01*
X138649000Y-123151000D01*
X138649000Y-121849000D01*
X139451000Y-121849000D01*
X139451000Y-123151000D01*
G37*
G36*
X60801000Y-123151000D02*
G01*
X60249000Y-123151000D01*
X60249000Y-121849000D01*
X60801000Y-121849000D01*
X60801000Y-123151000D01*
G37*
G36*
X82951000Y-123151000D02*
G01*
X81849000Y-123151000D01*
X81849000Y-121849000D01*
X82951000Y-121849000D01*
X82951000Y-123151000D01*
G37*
G36*
X81451000Y-123151000D02*
G01*
X80649000Y-123151000D01*
X80649000Y-121849000D01*
X81451000Y-121849000D01*
X81451000Y-123151000D01*
G37*
G36*
X98851000Y-123151000D02*
G01*
X97749000Y-123151000D01*
X97749000Y-121849000D01*
X98851000Y-121849000D01*
X98851000Y-123151000D01*
G37*
G36*
X99801000Y-123151000D02*
G01*
X99249000Y-123151000D01*
X99249000Y-121849000D01*
X99801000Y-121849000D01*
X99801000Y-123151000D01*
G37*
G36*
X100951000Y-123151000D02*
G01*
X100149000Y-123151000D01*
X100149000Y-121849000D01*
X100951000Y-121849000D01*
X100951000Y-123151000D01*
G37*
G36*
X102451000Y-123151000D02*
G01*
X101349000Y-123151000D01*
X101349000Y-121849000D01*
X102451000Y-121849000D01*
X102451000Y-123151000D01*
G37*
G36*
X116851000Y-123151000D02*
G01*
X115749000Y-123151000D01*
X115749000Y-121849000D01*
X116851000Y-121849000D01*
X116851000Y-123151000D01*
G37*
G36*
X117801000Y-123151000D02*
G01*
X117249000Y-123151000D01*
X117249000Y-121849000D01*
X117801000Y-121849000D01*
X117801000Y-123151000D01*
G37*
G36*
X80301000Y-123151000D02*
G01*
X79749000Y-123151000D01*
X79749000Y-121849000D01*
X80301000Y-121849000D01*
X80301000Y-123151000D01*
G37*
G36*
X120451000Y-123151000D02*
G01*
X119349000Y-123151000D01*
X119349000Y-121849000D01*
X120451000Y-121849000D01*
X120451000Y-123151000D01*
G37*
G36*
X138301000Y-123151000D02*
G01*
X137749000Y-123151000D01*
X137749000Y-121849000D01*
X138301000Y-121849000D01*
X138301000Y-123151000D01*
G37*
G36*
X137351000Y-123151000D02*
G01*
X136249000Y-123151000D01*
X136249000Y-121849000D01*
X137351000Y-121849000D01*
X137351000Y-123151000D01*
G37*
G36*
X101748931Y-113773211D02*
G01*
X102076692Y-113908974D01*
X102371670Y-114106072D01*
X102622528Y-114356930D01*
X102819626Y-114651908D01*
X102955389Y-114979669D01*
X103024600Y-115327616D01*
X103024600Y-115682384D01*
X102955389Y-116030331D01*
X102819626Y-116358092D01*
X102622528Y-116653070D01*
X102371670Y-116903928D01*
X102076692Y-117101026D01*
X101748931Y-117236789D01*
X101400984Y-117306000D01*
X101046216Y-117306000D01*
X100698269Y-117236789D01*
X100370508Y-117101026D01*
X100075530Y-116903928D01*
X99824672Y-116653070D01*
X99627574Y-116358092D01*
X99491811Y-116030331D01*
X99422600Y-115682384D01*
X99422600Y-115327616D01*
X99491811Y-114979669D01*
X99627574Y-114651908D01*
X99824672Y-114356930D01*
X100075530Y-114106072D01*
X100370508Y-113908974D01*
X100698269Y-113773211D01*
X101046216Y-113704000D01*
X101400984Y-113704000D01*
X101748931Y-113773211D01*
G37*
G36*
X61629487Y-112498996D02*
G01*
X61866253Y-112597068D01*
X61866255Y-112597069D01*
X62079339Y-112739447D01*
X62260553Y-112920661D01*
X62402932Y-113133747D01*
X62501004Y-113370513D01*
X62551000Y-113621861D01*
X62551000Y-113878139D01*
X62501004Y-114129487D01*
X62406794Y-114356930D01*
X62402931Y-114366255D01*
X62260553Y-114579339D01*
X62079339Y-114760553D01*
X61866255Y-114902931D01*
X61866254Y-114902932D01*
X61866253Y-114902932D01*
X61629487Y-115001004D01*
X61378139Y-115051000D01*
X61121861Y-115051000D01*
X60870513Y-115001004D01*
X60633747Y-114902932D01*
X60633746Y-114902932D01*
X60633745Y-114902931D01*
X60420661Y-114760553D01*
X60239447Y-114579339D01*
X60097069Y-114366255D01*
X60093206Y-114356930D01*
X59998996Y-114129487D01*
X59949000Y-113878139D01*
X59949000Y-113621861D01*
X59998996Y-113370513D01*
X60097068Y-113133747D01*
X60239447Y-112920661D01*
X60420661Y-112739447D01*
X60633745Y-112597069D01*
X60633747Y-112597068D01*
X60870513Y-112498996D01*
X61121861Y-112449000D01*
X61378139Y-112449000D01*
X61629487Y-112498996D01*
G37*
G36*
X138629487Y-112498996D02*
G01*
X138866253Y-112597068D01*
X138866255Y-112597069D01*
X139079339Y-112739447D01*
X139260553Y-112920661D01*
X139402932Y-113133747D01*
X139501004Y-113370513D01*
X139551000Y-113621861D01*
X139551000Y-113878139D01*
X139501004Y-114129487D01*
X139406794Y-114356930D01*
X139402931Y-114366255D01*
X139260553Y-114579339D01*
X139079339Y-114760553D01*
X138866255Y-114902931D01*
X138866254Y-114902932D01*
X138866253Y-114902932D01*
X138629487Y-115001004D01*
X138378139Y-115051000D01*
X138121861Y-115051000D01*
X137870513Y-115001004D01*
X137633747Y-114902932D01*
X137633746Y-114902932D01*
X137633745Y-114902931D01*
X137420661Y-114760553D01*
X137239447Y-114579339D01*
X137097069Y-114366255D01*
X137093206Y-114356930D01*
X136998996Y-114129487D01*
X136949000Y-113878139D01*
X136949000Y-113621861D01*
X136998996Y-113370513D01*
X137097068Y-113133747D01*
X137239447Y-112920661D01*
X137420661Y-112739447D01*
X137633745Y-112597069D01*
X137633747Y-112597068D01*
X137870513Y-112498996D01*
X138121861Y-112449000D01*
X138378139Y-112449000D01*
X138629487Y-112498996D01*
G37*
M02*
