G04 #@! TF.GenerationSoftware,KiCad,Pcbnew,5.1.5-52549c5~84~ubuntu19.10.1*
G04 #@! TF.CreationDate,2020-01-03T09:39:47-08:00*
G04 #@! TF.ProjectId,bsidessd,62736964-6573-4736-942e-6b696361645f,2*
G04 #@! TF.SameCoordinates,Original*
G04 #@! TF.FileFunction,Soldermask,Bot*
G04 #@! TF.FilePolarity,Negative*
%FSLAX46Y46*%
G04 Gerber Fmt 4.6, Leading zero omitted, Abs format (unit mm)*
G04 Created by KiCad (PCBNEW 5.1.5-52549c5~84~ubuntu19.10.1) date 2020-01-03 09:39:47*
%MOMM*%
%LPD*%
G04 APERTURE LIST*
%ADD10C,0.100000*%
G04 APERTURE END LIST*
D10*
G36*
X110273512Y-147103927D02*
G01*
X110422812Y-147133624D01*
X110586784Y-147201544D01*
X110734354Y-147300147D01*
X110859853Y-147425646D01*
X110958456Y-147573216D01*
X111026376Y-147737188D01*
X111061000Y-147911259D01*
X111061000Y-148088741D01*
X111026376Y-148262812D01*
X110958456Y-148426784D01*
X110859853Y-148574354D01*
X110734354Y-148699853D01*
X110586784Y-148798456D01*
X110422812Y-148866376D01*
X110273512Y-148896073D01*
X110248742Y-148901000D01*
X110071258Y-148901000D01*
X110046488Y-148896073D01*
X109897188Y-148866376D01*
X109733216Y-148798456D01*
X109585646Y-148699853D01*
X109460147Y-148574354D01*
X109361544Y-148426784D01*
X109293624Y-148262812D01*
X109259000Y-148088741D01*
X109259000Y-147911259D01*
X109293624Y-147737188D01*
X109361544Y-147573216D01*
X109460147Y-147425646D01*
X109585646Y-147300147D01*
X109733216Y-147201544D01*
X109897188Y-147133624D01*
X110046488Y-147103927D01*
X110071258Y-147099000D01*
X110248742Y-147099000D01*
X110273512Y-147103927D01*
G37*
G36*
X107733512Y-147103927D02*
G01*
X107882812Y-147133624D01*
X108046784Y-147201544D01*
X108194354Y-147300147D01*
X108319853Y-147425646D01*
X108418456Y-147573216D01*
X108486376Y-147737188D01*
X108521000Y-147911259D01*
X108521000Y-148088741D01*
X108486376Y-148262812D01*
X108418456Y-148426784D01*
X108319853Y-148574354D01*
X108194354Y-148699853D01*
X108046784Y-148798456D01*
X107882812Y-148866376D01*
X107733512Y-148896073D01*
X107708742Y-148901000D01*
X107531258Y-148901000D01*
X107506488Y-148896073D01*
X107357188Y-148866376D01*
X107193216Y-148798456D01*
X107045646Y-148699853D01*
X106920147Y-148574354D01*
X106821544Y-148426784D01*
X106753624Y-148262812D01*
X106719000Y-148088741D01*
X106719000Y-147911259D01*
X106753624Y-147737188D01*
X106821544Y-147573216D01*
X106920147Y-147425646D01*
X107045646Y-147300147D01*
X107193216Y-147201544D01*
X107357188Y-147133624D01*
X107506488Y-147103927D01*
X107531258Y-147099000D01*
X107708742Y-147099000D01*
X107733512Y-147103927D01*
G37*
G36*
X90741000Y-148901000D02*
G01*
X88939000Y-148901000D01*
X88939000Y-147099000D01*
X90741000Y-147099000D01*
X90741000Y-148901000D01*
G37*
G36*
X92493512Y-147103927D02*
G01*
X92642812Y-147133624D01*
X92806784Y-147201544D01*
X92954354Y-147300147D01*
X93079853Y-147425646D01*
X93178456Y-147573216D01*
X93246376Y-147737188D01*
X93281000Y-147911259D01*
X93281000Y-148088741D01*
X93246376Y-148262812D01*
X93178456Y-148426784D01*
X93079853Y-148574354D01*
X92954354Y-148699853D01*
X92806784Y-148798456D01*
X92642812Y-148866376D01*
X92493512Y-148896073D01*
X92468742Y-148901000D01*
X92291258Y-148901000D01*
X92266488Y-148896073D01*
X92117188Y-148866376D01*
X91953216Y-148798456D01*
X91805646Y-148699853D01*
X91680147Y-148574354D01*
X91581544Y-148426784D01*
X91513624Y-148262812D01*
X91479000Y-148088741D01*
X91479000Y-147911259D01*
X91513624Y-147737188D01*
X91581544Y-147573216D01*
X91680147Y-147425646D01*
X91805646Y-147300147D01*
X91953216Y-147201544D01*
X92117188Y-147133624D01*
X92266488Y-147103927D01*
X92291258Y-147099000D01*
X92468742Y-147099000D01*
X92493512Y-147103927D01*
G37*
G36*
X95033512Y-147103927D02*
G01*
X95182812Y-147133624D01*
X95346784Y-147201544D01*
X95494354Y-147300147D01*
X95619853Y-147425646D01*
X95718456Y-147573216D01*
X95786376Y-147737188D01*
X95821000Y-147911259D01*
X95821000Y-148088741D01*
X95786376Y-148262812D01*
X95718456Y-148426784D01*
X95619853Y-148574354D01*
X95494354Y-148699853D01*
X95346784Y-148798456D01*
X95182812Y-148866376D01*
X95033512Y-148896073D01*
X95008742Y-148901000D01*
X94831258Y-148901000D01*
X94806488Y-148896073D01*
X94657188Y-148866376D01*
X94493216Y-148798456D01*
X94345646Y-148699853D01*
X94220147Y-148574354D01*
X94121544Y-148426784D01*
X94053624Y-148262812D01*
X94019000Y-148088741D01*
X94019000Y-147911259D01*
X94053624Y-147737188D01*
X94121544Y-147573216D01*
X94220147Y-147425646D01*
X94345646Y-147300147D01*
X94493216Y-147201544D01*
X94657188Y-147133624D01*
X94806488Y-147103927D01*
X94831258Y-147099000D01*
X95008742Y-147099000D01*
X95033512Y-147103927D01*
G37*
G36*
X100113512Y-147103927D02*
G01*
X100262812Y-147133624D01*
X100426784Y-147201544D01*
X100574354Y-147300147D01*
X100699853Y-147425646D01*
X100798456Y-147573216D01*
X100866376Y-147737188D01*
X100901000Y-147911259D01*
X100901000Y-148088741D01*
X100866376Y-148262812D01*
X100798456Y-148426784D01*
X100699853Y-148574354D01*
X100574354Y-148699853D01*
X100426784Y-148798456D01*
X100262812Y-148866376D01*
X100113512Y-148896073D01*
X100088742Y-148901000D01*
X99911258Y-148901000D01*
X99886488Y-148896073D01*
X99737188Y-148866376D01*
X99573216Y-148798456D01*
X99425646Y-148699853D01*
X99300147Y-148574354D01*
X99201544Y-148426784D01*
X99133624Y-148262812D01*
X99099000Y-148088741D01*
X99099000Y-147911259D01*
X99133624Y-147737188D01*
X99201544Y-147573216D01*
X99300147Y-147425646D01*
X99425646Y-147300147D01*
X99573216Y-147201544D01*
X99737188Y-147133624D01*
X99886488Y-147103927D01*
X99911258Y-147099000D01*
X100088742Y-147099000D01*
X100113512Y-147103927D01*
G37*
G36*
X102653512Y-147103927D02*
G01*
X102802812Y-147133624D01*
X102966784Y-147201544D01*
X103114354Y-147300147D01*
X103239853Y-147425646D01*
X103338456Y-147573216D01*
X103406376Y-147737188D01*
X103441000Y-147911259D01*
X103441000Y-148088741D01*
X103406376Y-148262812D01*
X103338456Y-148426784D01*
X103239853Y-148574354D01*
X103114354Y-148699853D01*
X102966784Y-148798456D01*
X102802812Y-148866376D01*
X102653512Y-148896073D01*
X102628742Y-148901000D01*
X102451258Y-148901000D01*
X102426488Y-148896073D01*
X102277188Y-148866376D01*
X102113216Y-148798456D01*
X101965646Y-148699853D01*
X101840147Y-148574354D01*
X101741544Y-148426784D01*
X101673624Y-148262812D01*
X101639000Y-148088741D01*
X101639000Y-147911259D01*
X101673624Y-147737188D01*
X101741544Y-147573216D01*
X101840147Y-147425646D01*
X101965646Y-147300147D01*
X102113216Y-147201544D01*
X102277188Y-147133624D01*
X102426488Y-147103927D01*
X102451258Y-147099000D01*
X102628742Y-147099000D01*
X102653512Y-147103927D01*
G37*
G36*
X105193512Y-147103927D02*
G01*
X105342812Y-147133624D01*
X105506784Y-147201544D01*
X105654354Y-147300147D01*
X105779853Y-147425646D01*
X105878456Y-147573216D01*
X105946376Y-147737188D01*
X105981000Y-147911259D01*
X105981000Y-148088741D01*
X105946376Y-148262812D01*
X105878456Y-148426784D01*
X105779853Y-148574354D01*
X105654354Y-148699853D01*
X105506784Y-148798456D01*
X105342812Y-148866376D01*
X105193512Y-148896073D01*
X105168742Y-148901000D01*
X104991258Y-148901000D01*
X104966488Y-148896073D01*
X104817188Y-148866376D01*
X104653216Y-148798456D01*
X104505646Y-148699853D01*
X104380147Y-148574354D01*
X104281544Y-148426784D01*
X104213624Y-148262812D01*
X104179000Y-148088741D01*
X104179000Y-147911259D01*
X104213624Y-147737188D01*
X104281544Y-147573216D01*
X104380147Y-147425646D01*
X104505646Y-147300147D01*
X104653216Y-147201544D01*
X104817188Y-147133624D01*
X104966488Y-147103927D01*
X104991258Y-147099000D01*
X105168742Y-147099000D01*
X105193512Y-147103927D01*
G37*
G36*
X97573512Y-147103927D02*
G01*
X97722812Y-147133624D01*
X97886784Y-147201544D01*
X98034354Y-147300147D01*
X98159853Y-147425646D01*
X98258456Y-147573216D01*
X98326376Y-147737188D01*
X98361000Y-147911259D01*
X98361000Y-148088741D01*
X98326376Y-148262812D01*
X98258456Y-148426784D01*
X98159853Y-148574354D01*
X98034354Y-148699853D01*
X97886784Y-148798456D01*
X97722812Y-148866376D01*
X97573512Y-148896073D01*
X97548742Y-148901000D01*
X97371258Y-148901000D01*
X97346488Y-148896073D01*
X97197188Y-148866376D01*
X97033216Y-148798456D01*
X96885646Y-148699853D01*
X96760147Y-148574354D01*
X96661544Y-148426784D01*
X96593624Y-148262812D01*
X96559000Y-148088741D01*
X96559000Y-147911259D01*
X96593624Y-147737188D01*
X96661544Y-147573216D01*
X96760147Y-147425646D01*
X96885646Y-147300147D01*
X97033216Y-147201544D01*
X97197188Y-147133624D01*
X97346488Y-147103927D01*
X97371258Y-147099000D01*
X97548742Y-147099000D01*
X97573512Y-147103927D01*
G37*
G36*
X145113512Y-140303927D02*
G01*
X145262812Y-140333624D01*
X145426784Y-140401544D01*
X145574354Y-140500147D01*
X145699853Y-140625646D01*
X145798456Y-140773216D01*
X145866376Y-140937188D01*
X145901000Y-141111259D01*
X145901000Y-141288741D01*
X145866376Y-141462812D01*
X145798456Y-141626784D01*
X145699853Y-141774354D01*
X145574354Y-141899853D01*
X145426784Y-141998456D01*
X145262812Y-142066376D01*
X145113512Y-142096073D01*
X145088742Y-142101000D01*
X144911258Y-142101000D01*
X144886488Y-142096073D01*
X144737188Y-142066376D01*
X144573216Y-141998456D01*
X144425646Y-141899853D01*
X144300147Y-141774354D01*
X144201544Y-141626784D01*
X144133624Y-141462812D01*
X144099000Y-141288741D01*
X144099000Y-141111259D01*
X144133624Y-140937188D01*
X144201544Y-140773216D01*
X144300147Y-140625646D01*
X144425646Y-140500147D01*
X144573216Y-140401544D01*
X144737188Y-140333624D01*
X144886488Y-140303927D01*
X144911258Y-140299000D01*
X145088742Y-140299000D01*
X145113512Y-140303927D01*
G37*
G36*
X101748931Y-137268211D02*
G01*
X102076692Y-137403974D01*
X102371670Y-137601072D01*
X102622528Y-137851930D01*
X102819626Y-138146908D01*
X102955389Y-138474669D01*
X103024600Y-138822616D01*
X103024600Y-139177384D01*
X102955389Y-139525331D01*
X102819626Y-139853092D01*
X102622528Y-140148070D01*
X102371670Y-140398928D01*
X102076692Y-140596026D01*
X101748931Y-140731789D01*
X101400984Y-140801000D01*
X101046216Y-140801000D01*
X100698269Y-140731789D01*
X100370508Y-140596026D01*
X100075530Y-140398928D01*
X99824672Y-140148070D01*
X99627574Y-139853092D01*
X99491811Y-139525331D01*
X99422600Y-139177384D01*
X99422600Y-138822616D01*
X99491811Y-138474669D01*
X99627574Y-138146908D01*
X99824672Y-137851930D01*
X100075530Y-137601072D01*
X100370508Y-137403974D01*
X100698269Y-137268211D01*
X101046216Y-137199000D01*
X101400984Y-137199000D01*
X101748931Y-137268211D01*
G37*
G36*
X78551000Y-140051000D02*
G01*
X76449000Y-140051000D01*
X76449000Y-137949000D01*
X78551000Y-137949000D01*
X78551000Y-140051000D01*
G37*
G36*
X145112370Y-137763700D02*
G01*
X145262812Y-137793624D01*
X145426784Y-137861544D01*
X145574354Y-137960147D01*
X145699853Y-138085646D01*
X145798456Y-138233216D01*
X145866376Y-138397188D01*
X145901000Y-138571259D01*
X145901000Y-138748741D01*
X145866376Y-138922812D01*
X145798456Y-139086784D01*
X145699853Y-139234354D01*
X145574354Y-139359853D01*
X145426784Y-139458456D01*
X145262812Y-139526376D01*
X145113512Y-139556073D01*
X145088742Y-139561000D01*
X144911258Y-139561000D01*
X144886488Y-139556073D01*
X144737188Y-139526376D01*
X144573216Y-139458456D01*
X144425646Y-139359853D01*
X144300147Y-139234354D01*
X144201544Y-139086784D01*
X144133624Y-138922812D01*
X144099000Y-138748741D01*
X144099000Y-138571259D01*
X144133624Y-138397188D01*
X144201544Y-138233216D01*
X144300147Y-138085646D01*
X144425646Y-137960147D01*
X144573216Y-137861544D01*
X144737188Y-137793624D01*
X144887630Y-137763700D01*
X144911258Y-137759000D01*
X145088742Y-137759000D01*
X145112370Y-137763700D01*
G37*
G36*
X140122578Y-137774197D02*
G01*
X140175350Y-137784694D01*
X140274770Y-137825875D01*
X140364246Y-137885661D01*
X140440339Y-137961754D01*
X140500125Y-138051230D01*
X140539756Y-138146908D01*
X140541306Y-138150651D01*
X140557730Y-138233216D01*
X140562300Y-138256194D01*
X140562300Y-138363806D01*
X140541306Y-138469350D01*
X140500125Y-138568770D01*
X140440339Y-138658246D01*
X140364246Y-138734339D01*
X140274770Y-138794125D01*
X140175350Y-138835306D01*
X140122578Y-138845803D01*
X140069807Y-138856300D01*
X139962193Y-138856300D01*
X139909422Y-138845803D01*
X139856650Y-138835306D01*
X139757230Y-138794125D01*
X139667754Y-138734339D01*
X139591661Y-138658246D01*
X139531875Y-138568770D01*
X139490694Y-138469350D01*
X139469700Y-138363806D01*
X139469700Y-138256194D01*
X139474271Y-138233216D01*
X139490694Y-138150651D01*
X139492244Y-138146908D01*
X139531875Y-138051230D01*
X139591661Y-137961754D01*
X139667754Y-137885661D01*
X139757230Y-137825875D01*
X139856650Y-137784694D01*
X139909422Y-137774197D01*
X139962193Y-137763700D01*
X140069807Y-137763700D01*
X140122578Y-137774197D01*
G37*
G36*
X138090578Y-137774197D02*
G01*
X138143350Y-137784694D01*
X138242770Y-137825875D01*
X138332246Y-137885661D01*
X138408339Y-137961754D01*
X138468125Y-138051230D01*
X138507756Y-138146908D01*
X138509306Y-138150651D01*
X138525730Y-138233216D01*
X138530300Y-138256194D01*
X138530300Y-138363806D01*
X138509306Y-138469350D01*
X138468125Y-138568770D01*
X138408339Y-138658246D01*
X138332246Y-138734339D01*
X138242770Y-138794125D01*
X138143350Y-138835306D01*
X138090578Y-138845803D01*
X138037807Y-138856300D01*
X137930193Y-138856300D01*
X137877422Y-138845803D01*
X137824650Y-138835306D01*
X137725230Y-138794125D01*
X137635754Y-138734339D01*
X137559661Y-138658246D01*
X137499875Y-138568770D01*
X137458694Y-138469350D01*
X137437700Y-138363806D01*
X137437700Y-138256194D01*
X137442271Y-138233216D01*
X137458694Y-138150651D01*
X137460244Y-138146908D01*
X137499875Y-138051230D01*
X137559661Y-137961754D01*
X137635754Y-137885661D01*
X137725230Y-137825875D01*
X137824650Y-137784694D01*
X137877422Y-137774197D01*
X137930193Y-137763700D01*
X138037807Y-137763700D01*
X138090578Y-137774197D01*
G37*
G36*
X141696031Y-135173273D02*
G01*
X141901257Y-135214094D01*
X142126650Y-135307455D01*
X142329498Y-135442994D01*
X142502006Y-135615502D01*
X142637545Y-135818350D01*
X142730906Y-136043743D01*
X142778500Y-136283018D01*
X142778500Y-136526982D01*
X142730906Y-136766257D01*
X142637545Y-136991650D01*
X142502006Y-137194498D01*
X142329498Y-137367006D01*
X142126650Y-137502545D01*
X141901257Y-137595906D01*
X141696031Y-137636727D01*
X141661983Y-137643500D01*
X141418017Y-137643500D01*
X141383969Y-137636727D01*
X141178743Y-137595906D01*
X140953350Y-137502545D01*
X140750502Y-137367006D01*
X140577994Y-137194498D01*
X140442455Y-136991650D01*
X140349094Y-136766257D01*
X140301500Y-136526982D01*
X140301500Y-136283018D01*
X140349094Y-136043743D01*
X140442455Y-135818350D01*
X140577994Y-135615502D01*
X140750502Y-135442994D01*
X140953350Y-135307455D01*
X141178743Y-135214094D01*
X141383969Y-135173273D01*
X141418017Y-135166500D01*
X141661983Y-135166500D01*
X141696031Y-135173273D01*
G37*
G36*
X136616031Y-135173273D02*
G01*
X136821257Y-135214094D01*
X137046650Y-135307455D01*
X137249498Y-135442994D01*
X137422006Y-135615502D01*
X137557545Y-135818350D01*
X137650906Y-136043743D01*
X137698500Y-136283018D01*
X137698500Y-136526982D01*
X137650906Y-136766257D01*
X137557545Y-136991650D01*
X137422006Y-137194498D01*
X137249498Y-137367006D01*
X137046650Y-137502545D01*
X136821257Y-137595906D01*
X136616031Y-137636727D01*
X136581983Y-137643500D01*
X136338017Y-137643500D01*
X136303969Y-137636727D01*
X136098743Y-137595906D01*
X135873350Y-137502545D01*
X135670502Y-137367006D01*
X135497994Y-137194498D01*
X135362455Y-136991650D01*
X135269094Y-136766257D01*
X135221500Y-136526982D01*
X135221500Y-136283018D01*
X135269094Y-136043743D01*
X135362455Y-135818350D01*
X135497994Y-135615502D01*
X135670502Y-135442994D01*
X135873350Y-135307455D01*
X136098743Y-135214094D01*
X136303969Y-135173273D01*
X136338017Y-135166500D01*
X136581983Y-135166500D01*
X136616031Y-135173273D01*
G37*
G36*
X139764714Y-136612389D02*
G01*
X139803373Y-136628402D01*
X139845645Y-136645912D01*
X139918480Y-136694579D01*
X139980421Y-136756520D01*
X139980422Y-136756522D01*
X140029089Y-136829357D01*
X140062611Y-136910286D01*
X140079700Y-136996199D01*
X140079700Y-137083801D01*
X140062611Y-137169714D01*
X140052346Y-137194497D01*
X140029088Y-137250645D01*
X139980421Y-137323480D01*
X139918480Y-137385421D01*
X139845645Y-137434088D01*
X139845644Y-137434089D01*
X139845643Y-137434089D01*
X139764714Y-137467611D01*
X139678801Y-137484700D01*
X139591199Y-137484700D01*
X139505286Y-137467611D01*
X139424357Y-137434089D01*
X139424356Y-137434089D01*
X139424355Y-137434088D01*
X139351520Y-137385421D01*
X139289579Y-137323480D01*
X139240912Y-137250645D01*
X139217655Y-137194497D01*
X139207389Y-137169714D01*
X139190300Y-137083801D01*
X139190300Y-136996199D01*
X139207389Y-136910286D01*
X139240911Y-136829357D01*
X139289578Y-136756522D01*
X139289579Y-136756520D01*
X139351520Y-136694579D01*
X139424355Y-136645912D01*
X139466628Y-136628402D01*
X139505286Y-136612389D01*
X139591199Y-136595300D01*
X139678801Y-136595300D01*
X139764714Y-136612389D01*
G37*
G36*
X138494714Y-136612389D02*
G01*
X138533373Y-136628402D01*
X138575645Y-136645912D01*
X138648480Y-136694579D01*
X138710421Y-136756520D01*
X138710422Y-136756522D01*
X138759089Y-136829357D01*
X138792611Y-136910286D01*
X138809700Y-136996199D01*
X138809700Y-137083801D01*
X138792611Y-137169714D01*
X138782346Y-137194497D01*
X138759088Y-137250645D01*
X138710421Y-137323480D01*
X138648480Y-137385421D01*
X138575645Y-137434088D01*
X138575644Y-137434089D01*
X138575643Y-137434089D01*
X138494714Y-137467611D01*
X138408801Y-137484700D01*
X138321199Y-137484700D01*
X138235286Y-137467611D01*
X138154357Y-137434089D01*
X138154356Y-137434089D01*
X138154355Y-137434088D01*
X138081520Y-137385421D01*
X138019579Y-137323480D01*
X137970912Y-137250645D01*
X137947655Y-137194497D01*
X137937389Y-137169714D01*
X137920300Y-137083801D01*
X137920300Y-136996199D01*
X137937389Y-136910286D01*
X137970911Y-136829357D01*
X138019578Y-136756522D01*
X138019579Y-136756520D01*
X138081520Y-136694579D01*
X138154355Y-136645912D01*
X138196628Y-136628402D01*
X138235286Y-136612389D01*
X138321199Y-136595300D01*
X138408801Y-136595300D01*
X138494714Y-136612389D01*
G37*
G36*
X66051000Y-137151000D02*
G01*
X62949000Y-137151000D01*
X62949000Y-135849000D01*
X66051000Y-135849000D01*
X66051000Y-137151000D01*
G37*
G36*
X71051000Y-137151000D02*
G01*
X67949000Y-137151000D01*
X67949000Y-135849000D01*
X71051000Y-135849000D01*
X71051000Y-137151000D01*
G37*
G36*
X145113512Y-135223927D02*
G01*
X145262812Y-135253624D01*
X145426784Y-135321544D01*
X145574354Y-135420147D01*
X145699853Y-135545646D01*
X145798456Y-135693216D01*
X145866376Y-135857188D01*
X145901000Y-136031259D01*
X145901000Y-136208741D01*
X145866376Y-136382812D01*
X145798456Y-136546784D01*
X145699853Y-136694354D01*
X145574354Y-136819853D01*
X145426784Y-136918456D01*
X145262812Y-136986376D01*
X145113512Y-137016073D01*
X145088742Y-137021000D01*
X144911258Y-137021000D01*
X144886488Y-137016073D01*
X144737188Y-136986376D01*
X144573216Y-136918456D01*
X144425646Y-136819853D01*
X144300147Y-136694354D01*
X144201544Y-136546784D01*
X144133624Y-136382812D01*
X144099000Y-136208741D01*
X144099000Y-136031259D01*
X144133624Y-135857188D01*
X144201544Y-135693216D01*
X144300147Y-135545646D01*
X144425646Y-135420147D01*
X144573216Y-135321544D01*
X144737188Y-135253624D01*
X144886488Y-135223927D01*
X144911258Y-135219000D01*
X145088742Y-135219000D01*
X145113512Y-135223927D01*
G37*
G36*
X55441000Y-134399001D02*
G01*
X55443402Y-134423387D01*
X55450515Y-134446836D01*
X55462066Y-134468447D01*
X55466000Y-134473241D01*
X55466000Y-134971379D01*
X55468402Y-134995765D01*
X55471383Y-135007665D01*
X55477304Y-135027182D01*
X55488907Y-135145000D01*
X55477304Y-135262818D01*
X55471383Y-135282335D01*
X55466602Y-135306368D01*
X55466000Y-135318621D01*
X55466000Y-136626000D01*
X53890999Y-136626000D01*
X53866613Y-136628402D01*
X53843164Y-136635515D01*
X53837579Y-136638500D01*
X52964000Y-136638500D01*
X52964000Y-136305999D01*
X52961598Y-136281613D01*
X52954485Y-136258164D01*
X52942934Y-136236553D01*
X52927389Y-136217611D01*
X52908447Y-136202066D01*
X52886836Y-136190515D01*
X52863387Y-136183402D01*
X52839001Y-136181000D01*
X51464950Y-136181000D01*
X51463387Y-136180526D01*
X51451255Y-136178726D01*
X51367679Y-136170495D01*
X51230828Y-136128981D01*
X51230825Y-136128980D01*
X51104706Y-136061568D01*
X50994157Y-135970843D01*
X50903432Y-135860294D01*
X50836020Y-135734175D01*
X50800021Y-135615503D01*
X50794505Y-135597321D01*
X50780488Y-135455000D01*
X50794505Y-135312679D01*
X50836019Y-135175828D01*
X50836020Y-135175825D01*
X50903432Y-135049706D01*
X50994157Y-134939157D01*
X51104706Y-134848432D01*
X51230825Y-134781020D01*
X51230828Y-134781019D01*
X51367679Y-134739505D01*
X51451254Y-134731274D01*
X51462686Y-134729000D01*
X52839001Y-134729000D01*
X52863387Y-134726598D01*
X52886836Y-134719485D01*
X52901775Y-134711500D01*
X53739001Y-134711500D01*
X53763387Y-134709098D01*
X53786836Y-134701985D01*
X53808447Y-134690434D01*
X53827389Y-134674889D01*
X53842934Y-134655947D01*
X53854485Y-134634336D01*
X53861598Y-134610887D01*
X53864000Y-134586501D01*
X53864000Y-134400999D01*
X53861598Y-134376613D01*
X53854485Y-134353164D01*
X53842934Y-134331553D01*
X53827389Y-134312611D01*
X53808447Y-134297066D01*
X53786836Y-134285515D01*
X53763387Y-134278402D01*
X53739001Y-134276000D01*
X53689000Y-134276000D01*
X53689000Y-131174000D01*
X55441000Y-131174000D01*
X55441000Y-134399001D01*
G37*
G36*
X138494714Y-135342389D02*
G01*
X138575645Y-135375912D01*
X138648480Y-135424579D01*
X138710421Y-135486520D01*
X138759088Y-135559355D01*
X138759089Y-135559357D01*
X138792611Y-135640286D01*
X138809700Y-135726199D01*
X138809700Y-135813801D01*
X138800452Y-135860294D01*
X138792611Y-135899714D01*
X138759088Y-135980645D01*
X138710421Y-136053480D01*
X138648480Y-136115421D01*
X138575645Y-136164088D01*
X138575644Y-136164089D01*
X138575643Y-136164089D01*
X138494714Y-136197611D01*
X138408801Y-136214700D01*
X138321199Y-136214700D01*
X138235286Y-136197611D01*
X138154357Y-136164089D01*
X138154356Y-136164089D01*
X138154355Y-136164088D01*
X138081520Y-136115421D01*
X138019579Y-136053480D01*
X137970912Y-135980645D01*
X137937389Y-135899714D01*
X137929548Y-135860294D01*
X137920300Y-135813801D01*
X137920300Y-135726199D01*
X137937389Y-135640286D01*
X137970911Y-135559357D01*
X137970912Y-135559355D01*
X138019579Y-135486520D01*
X138081520Y-135424579D01*
X138154355Y-135375912D01*
X138235286Y-135342389D01*
X138321199Y-135325300D01*
X138408801Y-135325300D01*
X138494714Y-135342389D01*
G37*
G36*
X139764714Y-135342389D02*
G01*
X139845645Y-135375912D01*
X139918480Y-135424579D01*
X139980421Y-135486520D01*
X140029088Y-135559355D01*
X140029089Y-135559357D01*
X140062611Y-135640286D01*
X140079700Y-135726199D01*
X140079700Y-135813801D01*
X140070452Y-135860294D01*
X140062611Y-135899714D01*
X140029088Y-135980645D01*
X139980421Y-136053480D01*
X139918480Y-136115421D01*
X139845645Y-136164088D01*
X139845644Y-136164089D01*
X139845643Y-136164089D01*
X139764714Y-136197611D01*
X139678801Y-136214700D01*
X139591199Y-136214700D01*
X139505286Y-136197611D01*
X139424357Y-136164089D01*
X139424356Y-136164089D01*
X139424355Y-136164088D01*
X139351520Y-136115421D01*
X139289579Y-136053480D01*
X139240912Y-135980645D01*
X139207389Y-135899714D01*
X139199548Y-135860294D01*
X139190300Y-135813801D01*
X139190300Y-135726199D01*
X139207389Y-135640286D01*
X139240911Y-135559357D01*
X139240912Y-135559355D01*
X139289579Y-135486520D01*
X139351520Y-135424579D01*
X139424355Y-135375912D01*
X139505286Y-135342389D01*
X139591199Y-135325300D01*
X139678801Y-135325300D01*
X139764714Y-135342389D01*
G37*
G36*
X138494714Y-134072389D02*
G01*
X138575645Y-134105912D01*
X138648480Y-134154579D01*
X138710421Y-134216520D01*
X138710422Y-134216522D01*
X138759089Y-134289357D01*
X138792611Y-134370286D01*
X138809700Y-134456199D01*
X138809700Y-134543801D01*
X138801095Y-134587063D01*
X138792611Y-134629714D01*
X138759088Y-134710645D01*
X138710421Y-134783480D01*
X138648480Y-134845421D01*
X138575645Y-134894088D01*
X138575644Y-134894089D01*
X138575643Y-134894089D01*
X138494714Y-134927611D01*
X138408801Y-134944700D01*
X138321199Y-134944700D01*
X138235286Y-134927611D01*
X138154357Y-134894089D01*
X138154356Y-134894089D01*
X138154355Y-134894088D01*
X138081520Y-134845421D01*
X138019579Y-134783480D01*
X137970912Y-134710645D01*
X137937389Y-134629714D01*
X137928905Y-134587063D01*
X137920300Y-134543801D01*
X137920300Y-134456199D01*
X137937389Y-134370286D01*
X137970911Y-134289357D01*
X138019578Y-134216522D01*
X138019579Y-134216520D01*
X138081520Y-134154579D01*
X138154355Y-134105912D01*
X138235286Y-134072389D01*
X138321199Y-134055300D01*
X138408801Y-134055300D01*
X138494714Y-134072389D01*
G37*
G36*
X139764714Y-134072389D02*
G01*
X139845645Y-134105912D01*
X139918480Y-134154579D01*
X139980421Y-134216520D01*
X139980422Y-134216522D01*
X140029089Y-134289357D01*
X140062611Y-134370286D01*
X140079700Y-134456199D01*
X140079700Y-134543801D01*
X140071095Y-134587063D01*
X140062611Y-134629714D01*
X140029088Y-134710645D01*
X139980421Y-134783480D01*
X139918480Y-134845421D01*
X139845645Y-134894088D01*
X139845644Y-134894089D01*
X139845643Y-134894089D01*
X139764714Y-134927611D01*
X139678801Y-134944700D01*
X139591199Y-134944700D01*
X139505286Y-134927611D01*
X139424357Y-134894089D01*
X139424356Y-134894089D01*
X139424355Y-134894088D01*
X139351520Y-134845421D01*
X139289579Y-134783480D01*
X139240912Y-134710645D01*
X139207389Y-134629714D01*
X139198905Y-134587063D01*
X139190300Y-134543801D01*
X139190300Y-134456199D01*
X139207389Y-134370286D01*
X139240911Y-134289357D01*
X139289578Y-134216522D01*
X139289579Y-134216520D01*
X139351520Y-134154579D01*
X139424355Y-134105912D01*
X139505286Y-134072389D01*
X139591199Y-134055300D01*
X139678801Y-134055300D01*
X139764714Y-134072389D01*
G37*
G36*
X66051000Y-134651000D02*
G01*
X62949000Y-134651000D01*
X62949000Y-133349000D01*
X66051000Y-133349000D01*
X66051000Y-134651000D01*
G37*
G36*
X71051000Y-134651000D02*
G01*
X67949000Y-134651000D01*
X67949000Y-133349000D01*
X71051000Y-133349000D01*
X71051000Y-134651000D01*
G37*
G36*
X145113512Y-132683927D02*
G01*
X145262812Y-132713624D01*
X145426784Y-132781544D01*
X145574354Y-132880147D01*
X145699853Y-133005646D01*
X145798456Y-133153216D01*
X145866376Y-133317188D01*
X145901000Y-133491259D01*
X145901000Y-133668741D01*
X145866376Y-133842812D01*
X145798456Y-134006784D01*
X145699853Y-134154354D01*
X145574354Y-134279853D01*
X145426784Y-134378456D01*
X145262812Y-134446376D01*
X145127749Y-134473241D01*
X145088742Y-134481000D01*
X144911258Y-134481000D01*
X144872251Y-134473241D01*
X144737188Y-134446376D01*
X144573216Y-134378456D01*
X144425646Y-134279853D01*
X144300147Y-134154354D01*
X144201544Y-134006784D01*
X144133624Y-133842812D01*
X144099000Y-133668741D01*
X144099000Y-133491259D01*
X144133624Y-133317188D01*
X144201544Y-133153216D01*
X144300147Y-133005646D01*
X144425646Y-132880147D01*
X144573216Y-132781544D01*
X144737188Y-132713624D01*
X144886488Y-132683927D01*
X144911258Y-132679000D01*
X145088742Y-132679000D01*
X145113512Y-132683927D01*
G37*
G36*
X52716000Y-134451000D02*
G01*
X50114000Y-134451000D01*
X50114000Y-132919000D01*
X52716000Y-132919000D01*
X52716000Y-134451000D01*
G37*
G36*
X139764714Y-132802389D02*
G01*
X139845645Y-132835912D01*
X139918480Y-132884579D01*
X139980421Y-132946520D01*
X140029088Y-133019355D01*
X140029089Y-133019357D01*
X140062611Y-133100286D01*
X140079700Y-133186199D01*
X140079700Y-133273801D01*
X140064742Y-133349000D01*
X140062611Y-133359714D01*
X140029088Y-133440645D01*
X139980421Y-133513480D01*
X139918480Y-133575421D01*
X139845645Y-133624088D01*
X139845644Y-133624089D01*
X139845643Y-133624089D01*
X139764714Y-133657611D01*
X139678801Y-133674700D01*
X139591199Y-133674700D01*
X139505286Y-133657611D01*
X139424357Y-133624089D01*
X139424356Y-133624089D01*
X139424355Y-133624088D01*
X139351520Y-133575421D01*
X139289579Y-133513480D01*
X139240912Y-133440645D01*
X139207389Y-133359714D01*
X139205258Y-133349000D01*
X139190300Y-133273801D01*
X139190300Y-133186199D01*
X139207389Y-133100286D01*
X139240911Y-133019357D01*
X139240912Y-133019355D01*
X139289579Y-132946520D01*
X139351520Y-132884579D01*
X139424355Y-132835912D01*
X139505286Y-132802389D01*
X139591199Y-132785300D01*
X139678801Y-132785300D01*
X139764714Y-132802389D01*
G37*
G36*
X138494714Y-132802389D02*
G01*
X138575645Y-132835912D01*
X138648480Y-132884579D01*
X138710421Y-132946520D01*
X138759088Y-133019355D01*
X138759089Y-133019357D01*
X138792611Y-133100286D01*
X138809700Y-133186199D01*
X138809700Y-133273801D01*
X138794742Y-133349000D01*
X138792611Y-133359714D01*
X138759088Y-133440645D01*
X138710421Y-133513480D01*
X138648480Y-133575421D01*
X138575645Y-133624088D01*
X138575644Y-133624089D01*
X138575643Y-133624089D01*
X138494714Y-133657611D01*
X138408801Y-133674700D01*
X138321199Y-133674700D01*
X138235286Y-133657611D01*
X138154357Y-133624089D01*
X138154356Y-133624089D01*
X138154355Y-133624088D01*
X138081520Y-133575421D01*
X138019579Y-133513480D01*
X137970912Y-133440645D01*
X137937389Y-133359714D01*
X137935258Y-133349000D01*
X137920300Y-133273801D01*
X137920300Y-133186199D01*
X137937389Y-133100286D01*
X137970911Y-133019357D01*
X137970912Y-133019355D01*
X138019579Y-132946520D01*
X138081520Y-132884579D01*
X138154355Y-132835912D01*
X138235286Y-132802389D01*
X138321199Y-132785300D01*
X138408801Y-132785300D01*
X138494714Y-132802389D01*
G37*
G36*
X52716000Y-132531000D02*
G01*
X50114000Y-132531000D01*
X50114000Y-130999000D01*
X52716000Y-130999000D01*
X52716000Y-132531000D01*
G37*
G36*
X138494714Y-131532389D02*
G01*
X138575645Y-131565912D01*
X138648480Y-131614579D01*
X138710421Y-131676520D01*
X138710422Y-131676522D01*
X138759089Y-131749357D01*
X138792611Y-131830286D01*
X138802680Y-131880905D01*
X138809700Y-131916201D01*
X138809700Y-132003799D01*
X138792611Y-132089714D01*
X138759088Y-132170645D01*
X138710421Y-132243480D01*
X138648480Y-132305421D01*
X138575645Y-132354088D01*
X138575644Y-132354089D01*
X138575643Y-132354089D01*
X138494714Y-132387611D01*
X138408801Y-132404700D01*
X138321199Y-132404700D01*
X138235286Y-132387611D01*
X138154357Y-132354089D01*
X138154356Y-132354089D01*
X138154355Y-132354088D01*
X138081520Y-132305421D01*
X138019579Y-132243480D01*
X137970912Y-132170645D01*
X137937389Y-132089714D01*
X137920300Y-132003799D01*
X137920300Y-131916201D01*
X137927321Y-131880905D01*
X137937389Y-131830286D01*
X137970911Y-131749357D01*
X138019578Y-131676522D01*
X138019579Y-131676520D01*
X138081520Y-131614579D01*
X138154355Y-131565912D01*
X138235286Y-131532389D01*
X138321199Y-131515300D01*
X138408801Y-131515300D01*
X138494714Y-131532389D01*
G37*
G36*
X139764714Y-131532389D02*
G01*
X139845645Y-131565912D01*
X139918480Y-131614579D01*
X139980421Y-131676520D01*
X139980422Y-131676522D01*
X140029089Y-131749357D01*
X140062611Y-131830286D01*
X140072680Y-131880905D01*
X140079700Y-131916201D01*
X140079700Y-132003799D01*
X140062611Y-132089714D01*
X140029088Y-132170645D01*
X139980421Y-132243480D01*
X139918480Y-132305421D01*
X139845645Y-132354088D01*
X139845644Y-132354089D01*
X139845643Y-132354089D01*
X139764714Y-132387611D01*
X139678801Y-132404700D01*
X139591199Y-132404700D01*
X139505286Y-132387611D01*
X139424357Y-132354089D01*
X139424356Y-132354089D01*
X139424355Y-132354088D01*
X139351520Y-132305421D01*
X139289579Y-132243480D01*
X139240912Y-132170645D01*
X139207389Y-132089714D01*
X139190300Y-132003799D01*
X139190300Y-131916201D01*
X139197321Y-131880905D01*
X139207389Y-131830286D01*
X139240911Y-131749357D01*
X139289578Y-131676522D01*
X139289579Y-131676520D01*
X139351520Y-131614579D01*
X139424355Y-131565912D01*
X139505286Y-131532389D01*
X139591199Y-131515300D01*
X139678801Y-131515300D01*
X139764714Y-131532389D01*
G37*
G36*
X71051000Y-132151000D02*
G01*
X67949000Y-132151000D01*
X67949000Y-130849000D01*
X71051000Y-130849000D01*
X71051000Y-132151000D01*
G37*
G36*
X66051000Y-132151000D02*
G01*
X62949000Y-132151000D01*
X62949000Y-130849000D01*
X66051000Y-130849000D01*
X66051000Y-132151000D01*
G37*
G36*
X145112370Y-130143700D02*
G01*
X145262812Y-130173624D01*
X145426784Y-130241544D01*
X145574354Y-130340147D01*
X145699853Y-130465646D01*
X145798456Y-130613216D01*
X145866376Y-130777188D01*
X145901000Y-130951259D01*
X145901000Y-131128741D01*
X145866376Y-131302812D01*
X145798456Y-131466784D01*
X145699853Y-131614354D01*
X145574354Y-131739853D01*
X145426784Y-131838456D01*
X145262812Y-131906376D01*
X145113512Y-131936073D01*
X145088742Y-131941000D01*
X144911258Y-131941000D01*
X144886488Y-131936073D01*
X144737188Y-131906376D01*
X144573216Y-131838456D01*
X144425646Y-131739853D01*
X144300147Y-131614354D01*
X144201544Y-131466784D01*
X144133624Y-131302812D01*
X144099000Y-131128741D01*
X144099000Y-130951259D01*
X144133624Y-130777188D01*
X144201544Y-130613216D01*
X144300147Y-130465646D01*
X144425646Y-130340147D01*
X144573216Y-130241544D01*
X144737188Y-130173624D01*
X144887630Y-130143700D01*
X144911258Y-130139000D01*
X145088742Y-130139000D01*
X145112370Y-130143700D01*
G37*
G36*
X141696031Y-129458273D02*
G01*
X141901257Y-129499094D01*
X142126650Y-129592455D01*
X142329498Y-129727994D01*
X142502006Y-129900502D01*
X142637545Y-130103350D01*
X142730906Y-130328743D01*
X142778500Y-130568018D01*
X142778500Y-130811982D01*
X142730906Y-131051257D01*
X142637545Y-131276650D01*
X142502006Y-131479498D01*
X142329498Y-131652006D01*
X142126650Y-131787545D01*
X141901257Y-131880906D01*
X141696031Y-131921727D01*
X141661983Y-131928500D01*
X141418017Y-131928500D01*
X141383969Y-131921727D01*
X141178743Y-131880906D01*
X140953350Y-131787545D01*
X140750502Y-131652006D01*
X140577994Y-131479498D01*
X140442455Y-131276650D01*
X140349094Y-131051257D01*
X140301500Y-130811982D01*
X140301500Y-130568018D01*
X140349094Y-130328743D01*
X140442455Y-130103350D01*
X140577994Y-129900502D01*
X140750502Y-129727994D01*
X140953350Y-129592455D01*
X141178743Y-129499094D01*
X141383969Y-129458273D01*
X141418017Y-129451500D01*
X141661983Y-129451500D01*
X141696031Y-129458273D01*
G37*
G36*
X136616031Y-129458273D02*
G01*
X136821257Y-129499094D01*
X137046650Y-129592455D01*
X137249498Y-129727994D01*
X137422006Y-129900502D01*
X137557545Y-130103350D01*
X137650906Y-130328743D01*
X137698500Y-130568018D01*
X137698500Y-130811982D01*
X137650906Y-131051257D01*
X137557545Y-131276650D01*
X137422006Y-131479498D01*
X137249498Y-131652006D01*
X137046650Y-131787545D01*
X136821257Y-131880906D01*
X136616031Y-131921727D01*
X136581983Y-131928500D01*
X136338017Y-131928500D01*
X136303969Y-131921727D01*
X136098743Y-131880906D01*
X135873350Y-131787545D01*
X135670502Y-131652006D01*
X135497994Y-131479498D01*
X135362455Y-131276650D01*
X135269094Y-131051257D01*
X135221500Y-130811982D01*
X135221500Y-130568018D01*
X135269094Y-130328743D01*
X135362455Y-130103350D01*
X135497994Y-129900502D01*
X135670502Y-129727994D01*
X135873350Y-129592455D01*
X136098743Y-129499094D01*
X136303969Y-129458273D01*
X136338017Y-129451500D01*
X136581983Y-129451500D01*
X136616031Y-129458273D01*
G37*
G36*
X139106578Y-130154197D02*
G01*
X139159350Y-130164694D01*
X139258770Y-130205875D01*
X139348246Y-130265661D01*
X139424339Y-130341754D01*
X139484125Y-130431230D01*
X139525306Y-130530650D01*
X139525306Y-130530651D01*
X139546300Y-130636193D01*
X139546300Y-130743807D01*
X139539660Y-130777188D01*
X139525306Y-130849350D01*
X139484125Y-130948770D01*
X139424339Y-131038246D01*
X139348246Y-131114339D01*
X139258770Y-131174125D01*
X139159350Y-131215306D01*
X139106578Y-131225803D01*
X139053807Y-131236300D01*
X138946193Y-131236300D01*
X138893422Y-131225803D01*
X138840650Y-131215306D01*
X138741230Y-131174125D01*
X138651754Y-131114339D01*
X138575661Y-131038246D01*
X138515875Y-130948770D01*
X138474694Y-130849350D01*
X138460340Y-130777188D01*
X138453700Y-130743807D01*
X138453700Y-130636193D01*
X138474694Y-130530651D01*
X138474694Y-130530650D01*
X138515875Y-130431230D01*
X138575661Y-130341754D01*
X138651754Y-130265661D01*
X138741230Y-130205875D01*
X138840650Y-130164694D01*
X138893422Y-130154197D01*
X138946193Y-130143700D01*
X139053807Y-130143700D01*
X139106578Y-130154197D01*
G37*
G36*
X53843164Y-128764485D02*
G01*
X53866613Y-128771598D01*
X53890999Y-128774000D01*
X55486000Y-128774000D01*
X55486000Y-130269341D01*
X55486602Y-130281593D01*
X55488907Y-130305000D01*
X55486602Y-130328407D01*
X55486000Y-130340659D01*
X55486000Y-130876000D01*
X55091586Y-130876000D01*
X55067200Y-130878402D01*
X55055300Y-130881383D01*
X55002818Y-130897304D01*
X54914519Y-130906000D01*
X54455481Y-130906000D01*
X54367182Y-130897304D01*
X54314700Y-130881383D01*
X54290667Y-130876602D01*
X54278414Y-130876000D01*
X53884000Y-130876000D01*
X53884000Y-130825999D01*
X53881598Y-130801613D01*
X53874485Y-130778164D01*
X53862934Y-130756553D01*
X53847389Y-130737611D01*
X53828447Y-130722066D01*
X53806836Y-130710515D01*
X53783387Y-130703402D01*
X53759001Y-130701000D01*
X52052162Y-130701000D01*
X52027776Y-130703402D01*
X52015876Y-130706383D01*
X52002322Y-130710495D01*
X51895660Y-130721000D01*
X51474340Y-130721000D01*
X51438787Y-130717498D01*
X51367679Y-130710495D01*
X51230828Y-130668981D01*
X51230825Y-130668980D01*
X51104706Y-130601568D01*
X50994157Y-130510843D01*
X50903432Y-130400294D01*
X50836020Y-130274175D01*
X50826121Y-130241544D01*
X50794505Y-130137321D01*
X50780488Y-129995000D01*
X50794505Y-129852679D01*
X50836019Y-129715828D01*
X50836020Y-129715825D01*
X50903432Y-129589706D01*
X50994157Y-129479157D01*
X51104706Y-129388432D01*
X51230825Y-129321020D01*
X51230828Y-129321019D01*
X51367679Y-129279505D01*
X51451254Y-129271274D01*
X51475286Y-129266494D01*
X51497925Y-129257116D01*
X51510072Y-129249000D01*
X52839001Y-129249000D01*
X52863387Y-129246598D01*
X52886836Y-129239485D01*
X52908447Y-129227934D01*
X52927389Y-129212389D01*
X52942934Y-129193447D01*
X52954485Y-129171836D01*
X52961598Y-129148387D01*
X52964000Y-129124001D01*
X52964000Y-128761500D01*
X53837579Y-128761500D01*
X53843164Y-128764485D01*
G37*
G36*
X145901000Y-129401000D02*
G01*
X144099000Y-129401000D01*
X144099000Y-127599000D01*
X145901000Y-127599000D01*
X145901000Y-129401000D01*
G37*
G36*
X77806564Y-125289389D02*
G01*
X77997833Y-125368615D01*
X77997835Y-125368616D01*
X78169973Y-125483635D01*
X78316365Y-125630027D01*
X78431385Y-125802167D01*
X78510611Y-125993436D01*
X78551000Y-126196484D01*
X78551000Y-126403516D01*
X78510611Y-126606564D01*
X78431385Y-126797833D01*
X78431384Y-126797835D01*
X78316365Y-126969973D01*
X78169973Y-127116365D01*
X77997835Y-127231384D01*
X77997834Y-127231385D01*
X77997833Y-127231385D01*
X77806564Y-127310611D01*
X77603516Y-127351000D01*
X77396484Y-127351000D01*
X77193436Y-127310611D01*
X77002167Y-127231385D01*
X77002166Y-127231385D01*
X77002165Y-127231384D01*
X76830027Y-127116365D01*
X76683635Y-126969973D01*
X76568616Y-126797835D01*
X76568615Y-126797833D01*
X76489389Y-126606564D01*
X76449000Y-126403516D01*
X76449000Y-126196484D01*
X76489389Y-125993436D01*
X76568615Y-125802167D01*
X76683635Y-125630027D01*
X76830027Y-125483635D01*
X77002165Y-125368616D01*
X77002167Y-125368615D01*
X77193436Y-125289389D01*
X77396484Y-125249000D01*
X77603516Y-125249000D01*
X77806564Y-125289389D01*
G37*
G36*
X70984468Y-124303565D02*
G01*
X71023138Y-124315296D01*
X71058777Y-124334346D01*
X71090017Y-124359983D01*
X71115654Y-124391223D01*
X71134704Y-124426862D01*
X71146435Y-124465532D01*
X71151000Y-124511888D01*
X71151000Y-125163112D01*
X71146435Y-125209468D01*
X71134704Y-125248138D01*
X71115654Y-125283777D01*
X71090017Y-125315017D01*
X71058777Y-125340654D01*
X71023138Y-125359704D01*
X70984468Y-125371435D01*
X70938112Y-125376000D01*
X69861888Y-125376000D01*
X69815532Y-125371435D01*
X69776862Y-125359704D01*
X69741223Y-125340654D01*
X69709983Y-125315017D01*
X69684346Y-125283777D01*
X69665296Y-125248138D01*
X69653565Y-125209468D01*
X69649000Y-125163112D01*
X69649000Y-124511888D01*
X69653565Y-124465532D01*
X69665296Y-124426862D01*
X69684346Y-124391223D01*
X69709983Y-124359983D01*
X69741223Y-124334346D01*
X69776862Y-124315296D01*
X69815532Y-124303565D01*
X69861888Y-124299000D01*
X70938112Y-124299000D01*
X70984468Y-124303565D01*
G37*
G36*
X70984468Y-122428565D02*
G01*
X71023138Y-122440296D01*
X71058777Y-122459346D01*
X71090017Y-122484983D01*
X71115654Y-122516223D01*
X71134704Y-122551862D01*
X71146435Y-122590532D01*
X71151000Y-122636888D01*
X71151000Y-123288112D01*
X71146435Y-123334468D01*
X71134704Y-123373138D01*
X71115654Y-123408777D01*
X71090017Y-123440017D01*
X71058777Y-123465654D01*
X71023138Y-123484704D01*
X70984468Y-123496435D01*
X70938112Y-123501000D01*
X69861888Y-123501000D01*
X69815532Y-123496435D01*
X69776862Y-123484704D01*
X69741223Y-123465654D01*
X69709983Y-123440017D01*
X69684346Y-123408777D01*
X69665296Y-123373138D01*
X69653565Y-123334468D01*
X69649000Y-123288112D01*
X69649000Y-122636888D01*
X69653565Y-122590532D01*
X69665296Y-122551862D01*
X69684346Y-122516223D01*
X69709983Y-122484983D01*
X69741223Y-122459346D01*
X69776862Y-122440296D01*
X69815532Y-122428565D01*
X69861888Y-122424000D01*
X70938112Y-122424000D01*
X70984468Y-122428565D01*
G37*
G36*
X66481000Y-123326000D02*
G01*
X65319000Y-123326000D01*
X65319000Y-120674000D01*
X66481000Y-120674000D01*
X66481000Y-123326000D01*
G37*
G36*
X68681000Y-123326000D02*
G01*
X67519000Y-123326000D01*
X67519000Y-122574000D01*
X68681000Y-122574000D01*
X68681000Y-123326000D01*
G37*
G36*
X61401000Y-123276000D02*
G01*
X60699000Y-123276000D01*
X60699000Y-122724000D01*
X61401000Y-122724000D01*
X61401000Y-123276000D01*
G37*
G36*
X59301000Y-123276000D02*
G01*
X58599000Y-123276000D01*
X58599000Y-122724000D01*
X59301000Y-122724000D01*
X59301000Y-123276000D01*
G37*
G36*
X64284468Y-120466065D02*
G01*
X64323138Y-120477796D01*
X64358777Y-120496846D01*
X64390017Y-120522483D01*
X64415654Y-120553723D01*
X64434704Y-120589362D01*
X64446435Y-120628032D01*
X64451000Y-120674388D01*
X64451000Y-121325612D01*
X64446435Y-121371968D01*
X64434704Y-121410638D01*
X64415654Y-121446277D01*
X64390017Y-121477517D01*
X64358777Y-121503154D01*
X64323138Y-121522204D01*
X64284468Y-121533935D01*
X64238112Y-121538500D01*
X63161888Y-121538500D01*
X63115532Y-121533935D01*
X63076862Y-121522204D01*
X63041223Y-121503154D01*
X63009983Y-121477517D01*
X62984346Y-121446277D01*
X62965296Y-121410638D01*
X62953565Y-121371968D01*
X62949000Y-121325612D01*
X62949000Y-120674388D01*
X62953565Y-120628032D01*
X62965296Y-120589362D01*
X62984346Y-120553723D01*
X63009983Y-120522483D01*
X63041223Y-120496846D01*
X63076862Y-120477796D01*
X63115532Y-120466065D01*
X63161888Y-120461500D01*
X64238112Y-120461500D01*
X64284468Y-120466065D01*
G37*
G36*
X68681000Y-121426000D02*
G01*
X67519000Y-121426000D01*
X67519000Y-120674000D01*
X68681000Y-120674000D01*
X68681000Y-121426000D01*
G37*
G36*
X59301000Y-121276000D02*
G01*
X58599000Y-121276000D01*
X58599000Y-120724000D01*
X59301000Y-120724000D01*
X59301000Y-121276000D01*
G37*
G36*
X61401000Y-121276000D02*
G01*
X60699000Y-121276000D01*
X60699000Y-120724000D01*
X61401000Y-120724000D01*
X61401000Y-121276000D01*
G37*
G36*
X64284468Y-118591065D02*
G01*
X64323138Y-118602796D01*
X64358777Y-118621846D01*
X64390017Y-118647483D01*
X64415654Y-118678723D01*
X64434704Y-118714362D01*
X64446435Y-118753032D01*
X64451000Y-118799388D01*
X64451000Y-119450612D01*
X64446435Y-119496968D01*
X64434704Y-119535638D01*
X64415654Y-119571277D01*
X64390017Y-119602517D01*
X64358777Y-119628154D01*
X64323138Y-119647204D01*
X64284468Y-119658935D01*
X64238112Y-119663500D01*
X63161888Y-119663500D01*
X63115532Y-119658935D01*
X63076862Y-119647204D01*
X63041223Y-119628154D01*
X63009983Y-119602517D01*
X62984346Y-119571277D01*
X62965296Y-119535638D01*
X62953565Y-119496968D01*
X62949000Y-119450612D01*
X62949000Y-118799388D01*
X62953565Y-118753032D01*
X62965296Y-118714362D01*
X62984346Y-118678723D01*
X63009983Y-118647483D01*
X63041223Y-118621846D01*
X63076862Y-118602796D01*
X63115532Y-118591065D01*
X63161888Y-118586500D01*
X64238112Y-118586500D01*
X64284468Y-118591065D01*
G37*
G36*
X101748931Y-113773211D02*
G01*
X102076692Y-113908974D01*
X102371670Y-114106072D01*
X102622528Y-114356930D01*
X102819626Y-114651908D01*
X102955389Y-114979669D01*
X103024600Y-115327616D01*
X103024600Y-115682384D01*
X102955389Y-116030331D01*
X102819626Y-116358092D01*
X102622528Y-116653070D01*
X102371670Y-116903928D01*
X102076692Y-117101026D01*
X101748931Y-117236789D01*
X101400984Y-117306000D01*
X101046216Y-117306000D01*
X100698269Y-117236789D01*
X100370508Y-117101026D01*
X100075530Y-116903928D01*
X99824672Y-116653070D01*
X99627574Y-116358092D01*
X99491811Y-116030331D01*
X99422600Y-115682384D01*
X99422600Y-115327616D01*
X99491811Y-114979669D01*
X99627574Y-114651908D01*
X99824672Y-114356930D01*
X100075530Y-114106072D01*
X100370508Y-113908974D01*
X100698269Y-113773211D01*
X101046216Y-113704000D01*
X101400984Y-113704000D01*
X101748931Y-113773211D01*
G37*
G36*
X61629487Y-112498996D02*
G01*
X61866253Y-112597068D01*
X61866255Y-112597069D01*
X62079339Y-112739447D01*
X62260553Y-112920661D01*
X62402932Y-113133747D01*
X62501004Y-113370513D01*
X62551000Y-113621861D01*
X62551000Y-113878139D01*
X62501004Y-114129487D01*
X62406794Y-114356930D01*
X62402931Y-114366255D01*
X62260553Y-114579339D01*
X62079339Y-114760553D01*
X61866255Y-114902931D01*
X61866254Y-114902932D01*
X61866253Y-114902932D01*
X61629487Y-115001004D01*
X61378139Y-115051000D01*
X61121861Y-115051000D01*
X60870513Y-115001004D01*
X60633747Y-114902932D01*
X60633746Y-114902932D01*
X60633745Y-114902931D01*
X60420661Y-114760553D01*
X60239447Y-114579339D01*
X60097069Y-114366255D01*
X60093206Y-114356930D01*
X59998996Y-114129487D01*
X59949000Y-113878139D01*
X59949000Y-113621861D01*
X59998996Y-113370513D01*
X60097068Y-113133747D01*
X60239447Y-112920661D01*
X60420661Y-112739447D01*
X60633745Y-112597069D01*
X60633747Y-112597068D01*
X60870513Y-112498996D01*
X61121861Y-112449000D01*
X61378139Y-112449000D01*
X61629487Y-112498996D01*
G37*
G36*
X138629487Y-112498996D02*
G01*
X138866253Y-112597068D01*
X138866255Y-112597069D01*
X139079339Y-112739447D01*
X139260553Y-112920661D01*
X139402932Y-113133747D01*
X139501004Y-113370513D01*
X139551000Y-113621861D01*
X139551000Y-113878139D01*
X139501004Y-114129487D01*
X139406794Y-114356930D01*
X139402931Y-114366255D01*
X139260553Y-114579339D01*
X139079339Y-114760553D01*
X138866255Y-114902931D01*
X138866254Y-114902932D01*
X138866253Y-114902932D01*
X138629487Y-115001004D01*
X138378139Y-115051000D01*
X138121861Y-115051000D01*
X137870513Y-115001004D01*
X137633747Y-114902932D01*
X137633746Y-114902932D01*
X137633745Y-114902931D01*
X137420661Y-114760553D01*
X137239447Y-114579339D01*
X137097069Y-114366255D01*
X137093206Y-114356930D01*
X136998996Y-114129487D01*
X136949000Y-113878139D01*
X136949000Y-113621861D01*
X136998996Y-113370513D01*
X137097068Y-113133747D01*
X137239447Y-112920661D01*
X137420661Y-112739447D01*
X137633745Y-112597069D01*
X137633747Y-112597068D01*
X137870513Y-112498996D01*
X138121861Y-112449000D01*
X138378139Y-112449000D01*
X138629487Y-112498996D01*
G37*
M02*
