M48
; DRILL file {KiCad 5.1.5-52549c5~84~ubuntu19.10.1} date Fri 03 Jan 2020 09:39:53 AM PST
; FORMAT={-:-/ absolute / inch / decimal}
; #@! TF.CreationDate,2020-01-03T09:39:53-08:00
; #@! TF.GenerationSoftware,Kicad,Pcbnew,5.1.5-52549c5~84~ubuntu19.10.1
FMAT,2
INCH
T1C0.0130
T2C0.0256
T3C0.0276
T4C0.0390
T5C0.0394
T6C0.0402
T7C0.0935
T8C0.0984
T9C0.1378
%
G90
G05
T1
X2.2717Y-4.7638
X2.2835Y-4.8425
X2.2874Y-4.8031
X2.3386Y-5.2756
X2.4764Y-4.878
X2.5079Y-4.6496
X2.6457Y-5.1772
X2.6457Y-5.2756
X2.8268Y-4.8386
X3.1024Y-4.7598
X3.1024Y-5.8268
X3.1496Y-4.6575
X3.1496Y-4.7441
X3.4865Y-5.1457
X3.4998Y-5.5553
X3.5394Y-4.878
X3.5539Y-4.8201
X3.5827Y-5.7165
X3.5831Y-4.9921
X3.6468Y-5.5257
X3.6575Y-5.0118
X3.6807Y-5.5177
X3.7193Y-5.518
X3.8425Y-5.5276
X3.8553Y-5.4025
X3.8701Y-4.7598
X3.878Y-5.5276
X3.8963Y-5.4884
X4.0079Y-4.6575
X4.0079Y-4.7638
X4.1378Y-5.6929
X4.2244Y-5.0787
X4.2441Y-5.0472
X4.311Y-4.8228
X4.4961Y-5.5079
X4.4961Y-5.6434
X4.5787Y-4.7598
X4.7205Y-4.7559
X4.7205Y-4.9094
X4.7231Y-5.7912
X4.7302Y-5.5495
X4.7325Y-5.6474
X5.2126Y-5.2953
X5.3268Y-5.4803
X5.3898Y-4.7677
X5.4961Y-5.2953
T4
X5.4324Y-5.4453
X5.4724Y-5.1453
X5.5124Y-5.4453
T5
X3.537Y-5.8268
X3.637Y-5.8268
X3.737Y-5.8268
X3.837Y-5.8268
X3.937Y-5.8268
X4.037Y-5.8268
X4.137Y-5.8268
X4.237Y-5.8268
X4.337Y-5.8268
X5.7087Y-5.0591
X5.7087Y-5.1591
X5.7087Y-5.2591
X5.7087Y-5.3591
X5.7087Y-5.4591
X5.7087Y-5.5591
T6
X3.0512Y-4.9724
X3.0512Y-5.4724
T7
X5.3724Y-5.1453
X5.3724Y-5.3703
X5.5724Y-5.1453
X5.5724Y-5.3703
T8
X2.4114Y-4.4783
X5.4429Y-4.4783
T9
X3.9852Y-4.5474
X3.9852Y-5.4724
T2
G00X2.1451Y-5.1301
M15
G01X2.1608Y-5.1301
M16
G05
G00X2.1451Y-5.3207
M15
G01X2.1608Y-5.3207
M16
G05
T3
G00X2.025Y-5.1179
M15
G01X2.0447Y-5.1179
M16
G05
G00X2.025Y-5.3329
M15
G01X2.0447Y-5.3329
M16
G05
T0
M30
