G04 #@! TF.GenerationSoftware,KiCad,Pcbnew,5.1.5-52549c5~84~ubuntu19.10.1*
G04 #@! TF.CreationDate,2020-01-03T09:39:47-08:00*
G04 #@! TF.ProjectId,bsidessd,62736964-6573-4736-942e-6b696361645f,2*
G04 #@! TF.SameCoordinates,Original*
G04 #@! TF.FileFunction,Legend,Top*
G04 #@! TF.FilePolarity,Positive*
%FSLAX46Y46*%
G04 Gerber Fmt 4.6, Leading zero omitted, Abs format (unit mm)*
G04 Created by KiCad (PCBNEW 5.1.5-52549c5~84~ubuntu19.10.1) date 2020-01-03 09:39:47*
%MOMM*%
%LPD*%
G04 APERTURE LIST*
%ADD10C,0.100000*%
%ADD11C,0.010000*%
%ADD12C,0.150000*%
%ADD13C,0.120000*%
G04 APERTURE END LIST*
D10*
X109590476Y-145400000D02*
X109514285Y-145361904D01*
X109400000Y-145361904D01*
X109285714Y-145400000D01*
X109209523Y-145476190D01*
X109171428Y-145552380D01*
X109133333Y-145704761D01*
X109133333Y-145819047D01*
X109171428Y-145971428D01*
X109209523Y-146047619D01*
X109285714Y-146123809D01*
X109400000Y-146161904D01*
X109476190Y-146161904D01*
X109590476Y-146123809D01*
X109628571Y-146085714D01*
X109628571Y-145819047D01*
X109476190Y-145819047D01*
X109971428Y-146161904D02*
X109971428Y-145361904D01*
X110428571Y-146161904D01*
X110428571Y-145361904D01*
X110809523Y-146161904D02*
X110809523Y-145361904D01*
X111000000Y-145361904D01*
X111114285Y-145400000D01*
X111190476Y-145476190D01*
X111228571Y-145552380D01*
X111266666Y-145704761D01*
X111266666Y-145819047D01*
X111228571Y-145971428D01*
X111190476Y-146047619D01*
X111114285Y-146123809D01*
X111000000Y-146161904D01*
X110809523Y-146161904D01*
X107161904Y-146161904D02*
X106895238Y-145780952D01*
X106704761Y-146161904D02*
X106704761Y-145361904D01*
X107009523Y-145361904D01*
X107085714Y-145400000D01*
X107123809Y-145438095D01*
X107161904Y-145514285D01*
X107161904Y-145628571D01*
X107123809Y-145704761D01*
X107085714Y-145742857D01*
X107009523Y-145780952D01*
X106704761Y-145780952D01*
X107466666Y-146123809D02*
X107580952Y-146161904D01*
X107771428Y-146161904D01*
X107847619Y-146123809D01*
X107885714Y-146085714D01*
X107923809Y-146009523D01*
X107923809Y-145933333D01*
X107885714Y-145857142D01*
X107847619Y-145819047D01*
X107771428Y-145780952D01*
X107619047Y-145742857D01*
X107542857Y-145704761D01*
X107504761Y-145666666D01*
X107466666Y-145590476D01*
X107466666Y-145514285D01*
X107504761Y-145438095D01*
X107542857Y-145400000D01*
X107619047Y-145361904D01*
X107809523Y-145361904D01*
X107923809Y-145400000D01*
X108152380Y-145361904D02*
X108609523Y-145361904D01*
X108380952Y-146161904D02*
X108380952Y-145361904D01*
X104871428Y-145438095D02*
X104909523Y-145400000D01*
X104985714Y-145361904D01*
X105176190Y-145361904D01*
X105252380Y-145400000D01*
X105290476Y-145438095D01*
X105328571Y-145514285D01*
X105328571Y-145590476D01*
X105290476Y-145704761D01*
X104833333Y-146161904D01*
X105328571Y-146161904D01*
X102361904Y-145361904D02*
X102438095Y-145361904D01*
X102514285Y-145400000D01*
X102552380Y-145438095D01*
X102590476Y-145514285D01*
X102628571Y-145666666D01*
X102628571Y-145857142D01*
X102590476Y-146009523D01*
X102552380Y-146085714D01*
X102514285Y-146123809D01*
X102438095Y-146161904D01*
X102361904Y-146161904D01*
X102285714Y-146123809D01*
X102247619Y-146085714D01*
X102209523Y-146009523D01*
X102171428Y-145857142D01*
X102171428Y-145666666D01*
X102209523Y-145514285D01*
X102247619Y-145438095D01*
X102285714Y-145400000D01*
X102361904Y-145361904D01*
X99733333Y-145361904D02*
X100228571Y-145361904D01*
X99961904Y-145666666D01*
X100076190Y-145666666D01*
X100152380Y-145704761D01*
X100190476Y-145742857D01*
X100228571Y-145819047D01*
X100228571Y-146009523D01*
X100190476Y-146085714D01*
X100152380Y-146123809D01*
X100076190Y-146161904D01*
X99847619Y-146161904D01*
X99771428Y-146123809D01*
X99733333Y-146085714D01*
X97652380Y-145628571D02*
X97652380Y-146161904D01*
X97461904Y-145323809D02*
X97271428Y-145895238D01*
X97766666Y-145895238D01*
X94290476Y-145300000D02*
X94214285Y-145261904D01*
X94100000Y-145261904D01*
X93985714Y-145300000D01*
X93909523Y-145376190D01*
X93871428Y-145452380D01*
X93833333Y-145604761D01*
X93833333Y-145719047D01*
X93871428Y-145871428D01*
X93909523Y-145947619D01*
X93985714Y-146023809D01*
X94100000Y-146061904D01*
X94176190Y-146061904D01*
X94290476Y-146023809D01*
X94328571Y-145985714D01*
X94328571Y-145719047D01*
X94176190Y-145719047D01*
X94671428Y-146061904D02*
X94671428Y-145261904D01*
X95128571Y-146061904D01*
X95128571Y-145261904D01*
X95509523Y-146061904D02*
X95509523Y-145261904D01*
X95700000Y-145261904D01*
X95814285Y-145300000D01*
X95890476Y-145376190D01*
X95928571Y-145452380D01*
X95966666Y-145604761D01*
X95966666Y-145719047D01*
X95928571Y-145871428D01*
X95890476Y-145947619D01*
X95814285Y-146023809D01*
X95700000Y-146061904D01*
X95509523Y-146061904D01*
X91147619Y-145161904D02*
X91642857Y-145161904D01*
X91376190Y-145466666D01*
X91490476Y-145466666D01*
X91566666Y-145504761D01*
X91604761Y-145542857D01*
X91642857Y-145619047D01*
X91642857Y-145809523D01*
X91604761Y-145885714D01*
X91566666Y-145923809D01*
X91490476Y-145961904D01*
X91261904Y-145961904D01*
X91185714Y-145923809D01*
X91147619Y-145885714D01*
X91909523Y-145428571D02*
X92100000Y-145961904D01*
X92290476Y-145428571D01*
X92519047Y-145161904D02*
X93014285Y-145161904D01*
X92747619Y-145466666D01*
X92861904Y-145466666D01*
X92938095Y-145504761D01*
X92976190Y-145542857D01*
X93014285Y-145619047D01*
X93014285Y-145809523D01*
X92976190Y-145885714D01*
X92938095Y-145923809D01*
X92861904Y-145961904D01*
X92633333Y-145961904D01*
X92557142Y-145923809D01*
X92519047Y-145885714D01*
X89080952Y-145428571D02*
X88471428Y-145657142D01*
X89080952Y-145885714D01*
X89804761Y-145161904D02*
X89652380Y-145161904D01*
X89576190Y-145200000D01*
X89538095Y-145238095D01*
X89461904Y-145352380D01*
X89423809Y-145504761D01*
X89423809Y-145809523D01*
X89461904Y-145885714D01*
X89500000Y-145923809D01*
X89576190Y-145961904D01*
X89728571Y-145961904D01*
X89804761Y-145923809D01*
X89842857Y-145885714D01*
X89880952Y-145809523D01*
X89880952Y-145619047D01*
X89842857Y-145542857D01*
X89804761Y-145504761D01*
X89728571Y-145466666D01*
X89576190Y-145466666D01*
X89500000Y-145504761D01*
X89461904Y-145542857D01*
X89423809Y-145619047D01*
X90109523Y-145161904D02*
X90376190Y-145961904D01*
X90642857Y-145161904D01*
D11*
G36*
X88484310Y-139757100D02*
G01*
X88548975Y-139798442D01*
X88568629Y-139909590D01*
X88570000Y-140036750D01*
X88565255Y-140212327D01*
X88533100Y-140295468D01*
X88446652Y-140320737D01*
X88347750Y-140322500D01*
X88211189Y-140316399D01*
X88146524Y-140275057D01*
X88126870Y-140163909D01*
X88125500Y-140036750D01*
X88130244Y-139861172D01*
X88162399Y-139778031D01*
X88248847Y-139752762D01*
X88347750Y-139751000D01*
X88484310Y-139757100D01*
G37*
X88484310Y-139757100D02*
X88548975Y-139798442D01*
X88568629Y-139909590D01*
X88570000Y-140036750D01*
X88565255Y-140212327D01*
X88533100Y-140295468D01*
X88446652Y-140320737D01*
X88347750Y-140322500D01*
X88211189Y-140316399D01*
X88146524Y-140275057D01*
X88126870Y-140163909D01*
X88125500Y-140036750D01*
X88130244Y-139861172D01*
X88162399Y-139778031D01*
X88248847Y-139752762D01*
X88347750Y-139751000D01*
X88484310Y-139757100D01*
G36*
X61582500Y-140322500D02*
G01*
X61074500Y-140322500D01*
X61074500Y-139751000D01*
X61582500Y-139751000D01*
X61582500Y-140322500D01*
G37*
X61582500Y-140322500D02*
X61074500Y-140322500D01*
X61074500Y-139751000D01*
X61582500Y-139751000D01*
X61582500Y-140322500D01*
G36*
X124780875Y-141987153D02*
G01*
X125431750Y-142005250D01*
X125471546Y-142418000D01*
X124130000Y-142418000D01*
X124130000Y-141969057D01*
X124780875Y-141987153D01*
G37*
X124780875Y-141987153D02*
X125431750Y-142005250D01*
X125471546Y-142418000D01*
X124130000Y-142418000D01*
X124130000Y-141969057D01*
X124780875Y-141987153D01*
G36*
X101031875Y-141987153D02*
G01*
X101682750Y-142005250D01*
X101722546Y-142418000D01*
X100381000Y-142418000D01*
X100381000Y-141969057D01*
X101031875Y-141987153D01*
G37*
X101031875Y-141987153D02*
X101682750Y-142005250D01*
X101722546Y-142418000D01*
X100381000Y-142418000D01*
X100381000Y-141969057D01*
X101031875Y-141987153D01*
G36*
X138583308Y-139845398D02*
G01*
X138761251Y-139876858D01*
X139130027Y-140007321D01*
X139408903Y-140216254D01*
X139591289Y-140486272D01*
X139670597Y-140799992D01*
X139640240Y-141140030D01*
X139493628Y-141489001D01*
X139416562Y-141605998D01*
X139298374Y-141753287D01*
X139113812Y-141964504D01*
X138886218Y-142213690D01*
X138638938Y-142474886D01*
X138586410Y-142529125D01*
X137953336Y-143180000D01*
X139687500Y-143180000D01*
X139687500Y-143624500D01*
X138555083Y-143624500D01*
X138188049Y-143622233D01*
X137865830Y-143615941D01*
X137609575Y-143606386D01*
X137440427Y-143594330D01*
X137380333Y-143582166D01*
X137348946Y-143493035D01*
X137338000Y-143365235D01*
X137356716Y-143281280D01*
X137419685Y-143168074D01*
X137537141Y-143012769D01*
X137719315Y-142802520D01*
X137976440Y-142524480D01*
X138169630Y-142321150D01*
X138515843Y-141952362D01*
X138777592Y-141655168D01*
X138964046Y-141415356D01*
X139084373Y-141218719D01*
X139147741Y-141051045D01*
X139163317Y-140898126D01*
X139151919Y-140798640D01*
X139048546Y-140548534D01*
X138856308Y-140375691D01*
X138590346Y-140284491D01*
X138265800Y-140279313D01*
X137897812Y-140364538D01*
X137790253Y-140404712D01*
X137394786Y-140564448D01*
X137433250Y-140036750D01*
X137916054Y-139919188D01*
X138189732Y-139859037D01*
X138394752Y-139835311D01*
X138583308Y-139845398D01*
G37*
X138583308Y-139845398D02*
X138761251Y-139876858D01*
X139130027Y-140007321D01*
X139408903Y-140216254D01*
X139591289Y-140486272D01*
X139670597Y-140799992D01*
X139640240Y-141140030D01*
X139493628Y-141489001D01*
X139416562Y-141605998D01*
X139298374Y-141753287D01*
X139113812Y-141964504D01*
X138886218Y-142213690D01*
X138638938Y-142474886D01*
X138586410Y-142529125D01*
X137953336Y-143180000D01*
X139687500Y-143180000D01*
X139687500Y-143624500D01*
X138555083Y-143624500D01*
X138188049Y-143622233D01*
X137865830Y-143615941D01*
X137609575Y-143606386D01*
X137440427Y-143594330D01*
X137380333Y-143582166D01*
X137348946Y-143493035D01*
X137338000Y-143365235D01*
X137356716Y-143281280D01*
X137419685Y-143168074D01*
X137537141Y-143012769D01*
X137719315Y-142802520D01*
X137976440Y-142524480D01*
X138169630Y-142321150D01*
X138515843Y-141952362D01*
X138777592Y-141655168D01*
X138964046Y-141415356D01*
X139084373Y-141218719D01*
X139147741Y-141051045D01*
X139163317Y-140898126D01*
X139151919Y-140798640D01*
X139048546Y-140548534D01*
X138856308Y-140375691D01*
X138590346Y-140284491D01*
X138265800Y-140279313D01*
X137897812Y-140364538D01*
X137790253Y-140404712D01*
X137394786Y-140564448D01*
X137433250Y-140036750D01*
X137916054Y-139919188D01*
X138189732Y-139859037D01*
X138394752Y-139835311D01*
X138583308Y-139845398D01*
G36*
X132456730Y-139920548D02*
G01*
X132761036Y-140064492D01*
X132997199Y-140271293D01*
X133152929Y-140531106D01*
X133215935Y-140834083D01*
X133173924Y-141170377D01*
X133075414Y-141420404D01*
X132982869Y-141560440D01*
X132819290Y-141765554D01*
X132604673Y-142012268D01*
X132359017Y-142277102D01*
X132249914Y-142389595D01*
X132012540Y-142633612D01*
X131810403Y-142846579D01*
X131658807Y-143011960D01*
X131573055Y-143113213D01*
X131559500Y-143135720D01*
X131619148Y-143151870D01*
X131782707Y-143165383D01*
X132027095Y-143175072D01*
X132329229Y-143179749D01*
X132420773Y-143180000D01*
X133282046Y-143180000D01*
X133242250Y-143592750D01*
X130924500Y-143627364D01*
X130924500Y-143396218D01*
X130932251Y-143300657D01*
X130964026Y-143205261D01*
X131032601Y-143092567D01*
X131150756Y-142945112D01*
X131331268Y-142745431D01*
X131586916Y-142476062D01*
X131632557Y-142428542D01*
X131977294Y-142066030D01*
X132240997Y-141777626D01*
X132433908Y-141549135D01*
X132566270Y-141366362D01*
X132648326Y-141215112D01*
X132690317Y-141081190D01*
X132702488Y-140950400D01*
X132702500Y-140945738D01*
X132651349Y-140661309D01*
X132506490Y-140450258D01*
X132280813Y-140316929D01*
X131987206Y-140265666D01*
X131638562Y-140300811D01*
X131247767Y-140426709D01*
X131210312Y-140442930D01*
X130924500Y-140569358D01*
X130924500Y-140324032D01*
X130931062Y-140181647D01*
X130970529Y-140095064D01*
X131072570Y-140032270D01*
X131257875Y-139964332D01*
X131692858Y-139860621D01*
X132096574Y-139849309D01*
X132456730Y-139920548D01*
G37*
X132456730Y-139920548D02*
X132761036Y-140064492D01*
X132997199Y-140271293D01*
X133152929Y-140531106D01*
X133215935Y-140834083D01*
X133173924Y-141170377D01*
X133075414Y-141420404D01*
X132982869Y-141560440D01*
X132819290Y-141765554D01*
X132604673Y-142012268D01*
X132359017Y-142277102D01*
X132249914Y-142389595D01*
X132012540Y-142633612D01*
X131810403Y-142846579D01*
X131658807Y-143011960D01*
X131573055Y-143113213D01*
X131559500Y-143135720D01*
X131619148Y-143151870D01*
X131782707Y-143165383D01*
X132027095Y-143175072D01*
X132329229Y-143179749D01*
X132420773Y-143180000D01*
X133282046Y-143180000D01*
X133242250Y-143592750D01*
X130924500Y-143627364D01*
X130924500Y-143396218D01*
X130932251Y-143300657D01*
X130964026Y-143205261D01*
X131032601Y-143092567D01*
X131150756Y-142945112D01*
X131331268Y-142745431D01*
X131586916Y-142476062D01*
X131632557Y-142428542D01*
X131977294Y-142066030D01*
X132240997Y-141777626D01*
X132433908Y-141549135D01*
X132566270Y-141366362D01*
X132648326Y-141215112D01*
X132690317Y-141081190D01*
X132702488Y-140950400D01*
X132702500Y-140945738D01*
X132651349Y-140661309D01*
X132506490Y-140450258D01*
X132280813Y-140316929D01*
X131987206Y-140265666D01*
X131638562Y-140300811D01*
X131247767Y-140426709D01*
X131210312Y-140442930D01*
X130924500Y-140569358D01*
X130924500Y-140324032D01*
X130931062Y-140181647D01*
X130970529Y-140095064D01*
X131072570Y-140032270D01*
X131257875Y-139964332D01*
X131692858Y-139860621D01*
X132096574Y-139849309D01*
X132456730Y-139920548D01*
G36*
X123179941Y-139891262D02*
G01*
X123316707Y-139902948D01*
X123393082Y-139922786D01*
X123425710Y-139952039D01*
X123431500Y-139982899D01*
X123409389Y-140067571D01*
X123347750Y-140251850D01*
X123253626Y-140517190D01*
X123134057Y-140845042D01*
X122996087Y-141216861D01*
X122846755Y-141614100D01*
X122693104Y-142018211D01*
X122542175Y-142410648D01*
X122401011Y-142772864D01*
X122276652Y-143086312D01*
X122176141Y-143332446D01*
X122106519Y-143492718D01*
X122079034Y-143545125D01*
X121990435Y-143594228D01*
X121848729Y-143620122D01*
X121703885Y-143620565D01*
X121605873Y-143593316D01*
X121590000Y-143567060D01*
X121612064Y-143494646D01*
X121674232Y-143320104D01*
X121770461Y-143059627D01*
X121894711Y-142729406D01*
X122040942Y-142345635D01*
X122193250Y-141949998D01*
X122354425Y-141532064D01*
X122499362Y-141153861D01*
X122622046Y-140831277D01*
X122716464Y-140580200D01*
X122776600Y-140416517D01*
X122796500Y-140356438D01*
X122736780Y-140344266D01*
X122572733Y-140334029D01*
X122327029Y-140326586D01*
X122022334Y-140322801D01*
X121903476Y-140322500D01*
X121010453Y-140322500D01*
X121030351Y-140116125D01*
X121050250Y-139909750D01*
X122240875Y-139892473D01*
X122658668Y-139887289D01*
X122966143Y-139886464D01*
X123179941Y-139891262D01*
G37*
X123179941Y-139891262D02*
X123316707Y-139902948D01*
X123393082Y-139922786D01*
X123425710Y-139952039D01*
X123431500Y-139982899D01*
X123409389Y-140067571D01*
X123347750Y-140251850D01*
X123253626Y-140517190D01*
X123134057Y-140845042D01*
X122996087Y-141216861D01*
X122846755Y-141614100D01*
X122693104Y-142018211D01*
X122542175Y-142410648D01*
X122401011Y-142772864D01*
X122276652Y-143086312D01*
X122176141Y-143332446D01*
X122106519Y-143492718D01*
X122079034Y-143545125D01*
X121990435Y-143594228D01*
X121848729Y-143620122D01*
X121703885Y-143620565D01*
X121605873Y-143593316D01*
X121590000Y-143567060D01*
X121612064Y-143494646D01*
X121674232Y-143320104D01*
X121770461Y-143059627D01*
X121894711Y-142729406D01*
X122040942Y-142345635D01*
X122193250Y-141949998D01*
X122354425Y-141532064D01*
X122499362Y-141153861D01*
X122622046Y-140831277D01*
X122716464Y-140580200D01*
X122776600Y-140416517D01*
X122796500Y-140356438D01*
X122736780Y-140344266D01*
X122572733Y-140334029D01*
X122327029Y-140326586D01*
X122022334Y-140322801D01*
X121903476Y-140322500D01*
X121010453Y-140322500D01*
X121030351Y-140116125D01*
X121050250Y-139909750D01*
X122240875Y-139892473D01*
X122658668Y-139887289D01*
X122966143Y-139886464D01*
X123179941Y-139891262D01*
G36*
X116700500Y-141235260D02*
G01*
X116875125Y-141068670D01*
X117152558Y-140875492D01*
X117460255Y-140777713D01*
X117772101Y-140772180D01*
X118061981Y-140855740D01*
X118303777Y-141025240D01*
X118464068Y-141260515D01*
X118505757Y-141381328D01*
X118535531Y-141540246D01*
X118555163Y-141758489D01*
X118566425Y-142057277D01*
X118571090Y-142457829D01*
X118571372Y-142545000D01*
X118573750Y-143592750D01*
X118161000Y-143632546D01*
X118157214Y-142850648D01*
X118149500Y-142374389D01*
X118129478Y-142007323D01*
X118094033Y-141731972D01*
X118040053Y-141530863D01*
X117964422Y-141386519D01*
X117879944Y-141294680D01*
X117646648Y-141171361D01*
X117382441Y-141163403D01*
X117109616Y-141270852D01*
X117075015Y-141293073D01*
X116942378Y-141401877D01*
X116844832Y-141537353D01*
X116777303Y-141719441D01*
X116734722Y-141968080D01*
X116712015Y-142303210D01*
X116704112Y-142744770D01*
X116704084Y-142751375D01*
X116700500Y-143624500D01*
X116520583Y-143624500D01*
X116375152Y-143610900D01*
X116298333Y-143582166D01*
X116287674Y-143510305D01*
X116278000Y-143327477D01*
X116269660Y-143049714D01*
X116263006Y-142693046D01*
X116258386Y-142273507D01*
X116256153Y-141807126D01*
X116256000Y-141645416D01*
X116256000Y-139751000D01*
X116700500Y-139751000D01*
X116700500Y-141235260D01*
G37*
X116700500Y-141235260D02*
X116875125Y-141068670D01*
X117152558Y-140875492D01*
X117460255Y-140777713D01*
X117772101Y-140772180D01*
X118061981Y-140855740D01*
X118303777Y-141025240D01*
X118464068Y-141260515D01*
X118505757Y-141381328D01*
X118535531Y-141540246D01*
X118555163Y-141758489D01*
X118566425Y-142057277D01*
X118571090Y-142457829D01*
X118571372Y-142545000D01*
X118573750Y-143592750D01*
X118161000Y-143632546D01*
X118157214Y-142850648D01*
X118149500Y-142374389D01*
X118129478Y-142007323D01*
X118094033Y-141731972D01*
X118040053Y-141530863D01*
X117964422Y-141386519D01*
X117879944Y-141294680D01*
X117646648Y-141171361D01*
X117382441Y-141163403D01*
X117109616Y-141270852D01*
X117075015Y-141293073D01*
X116942378Y-141401877D01*
X116844832Y-141537353D01*
X116777303Y-141719441D01*
X116734722Y-141968080D01*
X116712015Y-142303210D01*
X116704112Y-142744770D01*
X116704084Y-142751375D01*
X116700500Y-143624500D01*
X116520583Y-143624500D01*
X116375152Y-143610900D01*
X116298333Y-143582166D01*
X116287674Y-143510305D01*
X116278000Y-143327477D01*
X116269660Y-143049714D01*
X116263006Y-142693046D01*
X116258386Y-142273507D01*
X116256153Y-141807126D01*
X116256000Y-141645416D01*
X116256000Y-139751000D01*
X116700500Y-139751000D01*
X116700500Y-141235260D01*
G36*
X113046599Y-140807363D02*
G01*
X113111858Y-140883574D01*
X113132753Y-141006535D01*
X113152756Y-141214321D01*
X112907201Y-141175055D01*
X112603469Y-141180452D01*
X112332050Y-141285414D01*
X112126548Y-141475010D01*
X112086128Y-141539872D01*
X112038194Y-141653055D01*
X112003197Y-141803185D01*
X111978428Y-142012949D01*
X111961180Y-142305032D01*
X111949087Y-142687875D01*
X111926351Y-143624500D01*
X111493500Y-143624500D01*
X111493500Y-140830500D01*
X111715750Y-140830500D01*
X111864964Y-140840929D01*
X111926168Y-140895059D01*
X111937999Y-141027151D01*
X111938000Y-141027578D01*
X111938000Y-141224656D01*
X112161414Y-141028495D01*
X112400730Y-140855565D01*
X112636560Y-140778871D01*
X112897588Y-140778196D01*
X113046599Y-140807363D01*
G37*
X113046599Y-140807363D02*
X113111858Y-140883574D01*
X113132753Y-141006535D01*
X113152756Y-141214321D01*
X112907201Y-141175055D01*
X112603469Y-141180452D01*
X112332050Y-141285414D01*
X112126548Y-141475010D01*
X112086128Y-141539872D01*
X112038194Y-141653055D01*
X112003197Y-141803185D01*
X111978428Y-142012949D01*
X111961180Y-142305032D01*
X111949087Y-142687875D01*
X111926351Y-143624500D01*
X111493500Y-143624500D01*
X111493500Y-140830500D01*
X111715750Y-140830500D01*
X111864964Y-140840929D01*
X111926168Y-140895059D01*
X111937999Y-141027151D01*
X111938000Y-141027578D01*
X111938000Y-141224656D01*
X112161414Y-141028495D01*
X112400730Y-140855565D01*
X112636560Y-140778871D01*
X112897588Y-140778196D01*
X113046599Y-140807363D01*
G36*
X104794250Y-139909750D02*
G01*
X105242438Y-141098772D01*
X105380855Y-141463159D01*
X105505509Y-141785981D01*
X105609075Y-142048698D01*
X105684227Y-142232769D01*
X105723641Y-142319654D01*
X105726337Y-142323503D01*
X105758016Y-142277740D01*
X105826234Y-142129512D01*
X105924011Y-141895668D01*
X106044372Y-141593056D01*
X106180337Y-141238523D01*
X106225350Y-141118606D01*
X106688653Y-139878000D01*
X107429500Y-139878000D01*
X107429500Y-143632166D01*
X106953250Y-143592750D01*
X106889750Y-140481250D01*
X106003812Y-142862500D01*
X105481787Y-142862500D01*
X105048171Y-141703625D01*
X104911268Y-141341757D01*
X104786603Y-141019773D01*
X104681906Y-140757040D01*
X104604909Y-140572924D01*
X104563340Y-140486792D01*
X104561528Y-140484425D01*
X104547145Y-140528247D01*
X104534245Y-140682972D01*
X104523380Y-140932506D01*
X104515105Y-141260757D01*
X104509974Y-141651630D01*
X104508500Y-142024300D01*
X104508500Y-143624500D01*
X104064000Y-143624500D01*
X104064000Y-139871662D01*
X104794250Y-139909750D01*
G37*
X104794250Y-139909750D02*
X105242438Y-141098772D01*
X105380855Y-141463159D01*
X105505509Y-141785981D01*
X105609075Y-142048698D01*
X105684227Y-142232769D01*
X105723641Y-142319654D01*
X105726337Y-142323503D01*
X105758016Y-142277740D01*
X105826234Y-142129512D01*
X105924011Y-141895668D01*
X106044372Y-141593056D01*
X106180337Y-141238523D01*
X106225350Y-141118606D01*
X106688653Y-139878000D01*
X107429500Y-139878000D01*
X107429500Y-143632166D01*
X106953250Y-143592750D01*
X106889750Y-140481250D01*
X106003812Y-142862500D01*
X105481787Y-142862500D01*
X105048171Y-141703625D01*
X104911268Y-141341757D01*
X104786603Y-141019773D01*
X104681906Y-140757040D01*
X104604909Y-140572924D01*
X104563340Y-140486792D01*
X104561528Y-140484425D01*
X104547145Y-140528247D01*
X104534245Y-140682972D01*
X104523380Y-140932506D01*
X104515105Y-141260757D01*
X104509974Y-141651630D01*
X104508500Y-142024300D01*
X104508500Y-143624500D01*
X104064000Y-143624500D01*
X104064000Y-139871662D01*
X104794250Y-139909750D01*
G36*
X88570000Y-143624500D02*
G01*
X88390083Y-143624500D01*
X88244652Y-143610900D01*
X88167833Y-143582166D01*
X88155313Y-143508803D01*
X88144262Y-143327624D01*
X88135262Y-143057807D01*
X88128893Y-142718534D01*
X88125737Y-142328985D01*
X88125500Y-142185166D01*
X88125500Y-140830500D01*
X88570000Y-140830500D01*
X88570000Y-143624500D01*
G37*
X88570000Y-143624500D02*
X88390083Y-143624500D01*
X88244652Y-143610900D01*
X88167833Y-143582166D01*
X88155313Y-143508803D01*
X88144262Y-143327624D01*
X88135262Y-143057807D01*
X88128893Y-142718534D01*
X88125737Y-142328985D01*
X88125500Y-142185166D01*
X88125500Y-140830500D01*
X88570000Y-140830500D01*
X88570000Y-143624500D01*
G36*
X85093375Y-139895621D02*
G01*
X85597015Y-139926831D01*
X85995700Y-139976824D01*
X86310840Y-140051702D01*
X86563846Y-140157571D01*
X86776129Y-140300532D01*
X86895605Y-140409394D01*
X87147050Y-140750406D01*
X87302804Y-141174714D01*
X87362749Y-141681977D01*
X87363500Y-141751250D01*
X87315509Y-142261763D01*
X87173539Y-142693805D01*
X86940591Y-143042663D01*
X86619669Y-143303621D01*
X86279970Y-143452799D01*
X86100193Y-143493665D01*
X85847057Y-143531828D01*
X85547825Y-143565402D01*
X85229761Y-143592501D01*
X84920128Y-143611238D01*
X84646191Y-143619727D01*
X84435214Y-143616082D01*
X84314461Y-143598416D01*
X84299625Y-143589814D01*
X84287458Y-143515817D01*
X84276440Y-143331193D01*
X84271312Y-143180000D01*
X84760000Y-143180000D01*
X85224724Y-143180000D01*
X85513900Y-143165906D01*
X85805640Y-143129177D01*
X86012498Y-143084064D01*
X86344805Y-142929973D01*
X86525688Y-142771570D01*
X86709970Y-142474548D01*
X86816961Y-142113983D01*
X86847387Y-141723102D01*
X86801972Y-141335129D01*
X86681442Y-140983293D01*
X86486521Y-140700818D01*
X86480366Y-140694597D01*
X86268171Y-140522510D01*
X86020868Y-140408913D01*
X85710321Y-140345292D01*
X85308394Y-140323132D01*
X85252125Y-140322854D01*
X84760000Y-140322500D01*
X84760000Y-143180000D01*
X84271312Y-143180000D01*
X84266981Y-143052312D01*
X84259495Y-142695543D01*
X84254394Y-142277257D01*
X84252090Y-141813824D01*
X84252000Y-141699911D01*
X84252000Y-139859989D01*
X85093375Y-139895621D01*
G37*
X85093375Y-139895621D02*
X85597015Y-139926831D01*
X85995700Y-139976824D01*
X86310840Y-140051702D01*
X86563846Y-140157571D01*
X86776129Y-140300532D01*
X86895605Y-140409394D01*
X87147050Y-140750406D01*
X87302804Y-141174714D01*
X87362749Y-141681977D01*
X87363500Y-141751250D01*
X87315509Y-142261763D01*
X87173539Y-142693805D01*
X86940591Y-143042663D01*
X86619669Y-143303621D01*
X86279970Y-143452799D01*
X86100193Y-143493665D01*
X85847057Y-143531828D01*
X85547825Y-143565402D01*
X85229761Y-143592501D01*
X84920128Y-143611238D01*
X84646191Y-143619727D01*
X84435214Y-143616082D01*
X84314461Y-143598416D01*
X84299625Y-143589814D01*
X84287458Y-143515817D01*
X84276440Y-143331193D01*
X84271312Y-143180000D01*
X84760000Y-143180000D01*
X85224724Y-143180000D01*
X85513900Y-143165906D01*
X85805640Y-143129177D01*
X86012498Y-143084064D01*
X86344805Y-142929973D01*
X86525688Y-142771570D01*
X86709970Y-142474548D01*
X86816961Y-142113983D01*
X86847387Y-141723102D01*
X86801972Y-141335129D01*
X86681442Y-140983293D01*
X86486521Y-140700818D01*
X86480366Y-140694597D01*
X86268171Y-140522510D01*
X86020868Y-140408913D01*
X85710321Y-140345292D01*
X85308394Y-140323132D01*
X85252125Y-140322854D01*
X84760000Y-140322500D01*
X84760000Y-143180000D01*
X84271312Y-143180000D01*
X84266981Y-143052312D01*
X84259495Y-142695543D01*
X84254394Y-142277257D01*
X84252090Y-141813824D01*
X84252000Y-141699911D01*
X84252000Y-139859989D01*
X85093375Y-139895621D01*
G36*
X80949554Y-140782443D02*
G01*
X81239449Y-140879569D01*
X81401987Y-140996423D01*
X81508942Y-141116193D01*
X81588703Y-141255260D01*
X81645021Y-141433336D01*
X81681644Y-141670135D01*
X81702322Y-141985369D01*
X81710806Y-142398753D01*
X81711645Y-142624375D01*
X81712000Y-143624500D01*
X81267500Y-143624500D01*
X81267500Y-142669960D01*
X81261335Y-142205052D01*
X81240269Y-141850599D01*
X81200446Y-141590540D01*
X81138008Y-141408811D01*
X81049097Y-141289350D01*
X80929858Y-141216093D01*
X80917187Y-141211096D01*
X80660083Y-141152409D01*
X80413655Y-141192736D01*
X80292258Y-141243231D01*
X80156046Y-141317413D01*
X80055139Y-141405183D01*
X79983428Y-141526311D01*
X79934807Y-141700569D01*
X79903166Y-141947729D01*
X79882399Y-142287560D01*
X79870500Y-142608500D01*
X79838750Y-143592750D01*
X79426000Y-143632546D01*
X79426000Y-140830500D01*
X79648250Y-140830500D01*
X79797695Y-140841317D01*
X79858985Y-140894972D01*
X79870500Y-141014726D01*
X79870500Y-141198953D01*
X80065548Y-141016750D01*
X80325015Y-140851606D01*
X80632213Y-140773313D01*
X80949554Y-140782443D01*
G37*
X80949554Y-140782443D02*
X81239449Y-140879569D01*
X81401987Y-140996423D01*
X81508942Y-141116193D01*
X81588703Y-141255260D01*
X81645021Y-141433336D01*
X81681644Y-141670135D01*
X81702322Y-141985369D01*
X81710806Y-142398753D01*
X81711645Y-142624375D01*
X81712000Y-143624500D01*
X81267500Y-143624500D01*
X81267500Y-142669960D01*
X81261335Y-142205052D01*
X81240269Y-141850599D01*
X81200446Y-141590540D01*
X81138008Y-141408811D01*
X81049097Y-141289350D01*
X80929858Y-141216093D01*
X80917187Y-141211096D01*
X80660083Y-141152409D01*
X80413655Y-141192736D01*
X80292258Y-141243231D01*
X80156046Y-141317413D01*
X80055139Y-141405183D01*
X79983428Y-141526311D01*
X79934807Y-141700569D01*
X79903166Y-141947729D01*
X79882399Y-142287560D01*
X79870500Y-142608500D01*
X79838750Y-143592750D01*
X79426000Y-143632546D01*
X79426000Y-140830500D01*
X79648250Y-140830500D01*
X79797695Y-140841317D01*
X79858985Y-140894972D01*
X79870500Y-141014726D01*
X79870500Y-141198953D01*
X80065548Y-141016750D01*
X80325015Y-140851606D01*
X80632213Y-140773313D01*
X80949554Y-140782443D01*
G36*
X61550750Y-143592750D02*
G01*
X61357967Y-143611634D01*
X61207396Y-143611528D01*
X61119842Y-143585176D01*
X61106429Y-143510890D01*
X61094590Y-143328844D01*
X61084949Y-143058273D01*
X61078129Y-142718412D01*
X61074752Y-142328498D01*
X61074500Y-142185166D01*
X61074500Y-140830500D01*
X61584976Y-140830500D01*
X61550750Y-143592750D01*
G37*
X61550750Y-143592750D02*
X61357967Y-143611634D01*
X61207396Y-143611528D01*
X61119842Y-143585176D01*
X61106429Y-143510890D01*
X61094590Y-143328844D01*
X61084949Y-143058273D01*
X61078129Y-142718412D01*
X61074752Y-142328498D01*
X61074500Y-142185166D01*
X61074500Y-140830500D01*
X61584976Y-140830500D01*
X61550750Y-143592750D01*
G36*
X55407125Y-139890151D02*
G01*
X55803479Y-139906969D01*
X56098049Y-139931839D01*
X56316034Y-139970902D01*
X56482634Y-140030295D01*
X56623051Y-140116159D01*
X56741338Y-140215174D01*
X56901995Y-140436404D01*
X56976904Y-140704505D01*
X56968433Y-140984481D01*
X56878946Y-141241332D01*
X56710811Y-141440059D01*
X56656029Y-141476994D01*
X56435749Y-141606962D01*
X56639235Y-141710856D01*
X56894461Y-141900180D01*
X57052824Y-142163253D01*
X57120089Y-142494741D01*
X57100230Y-142845482D01*
X56977819Y-143124919D01*
X56746500Y-143344667D01*
X56611601Y-143423888D01*
X56476677Y-143485597D01*
X56332535Y-143530046D01*
X56152138Y-143561439D01*
X55908450Y-143583983D01*
X55574436Y-143601882D01*
X55428468Y-143607936D01*
X54534000Y-143643346D01*
X54534000Y-141846500D01*
X55042000Y-141846500D01*
X55042000Y-143180000D01*
X55552039Y-143180000D01*
X55848003Y-143167906D01*
X56106541Y-143135389D01*
X56275336Y-143090895D01*
X56473924Y-142944765D01*
X56586825Y-142722101D01*
X56604974Y-142447651D01*
X56571173Y-142283227D01*
X56488244Y-142097280D01*
X56356621Y-141969717D01*
X56155983Y-141891541D01*
X55866007Y-141853753D01*
X55584903Y-141846500D01*
X55042000Y-141846500D01*
X54534000Y-141846500D01*
X54534000Y-140322500D01*
X55042000Y-140322500D01*
X55042000Y-141402000D01*
X55547012Y-141402000D01*
X55808813Y-141393271D01*
X56038339Y-141370202D01*
X56191849Y-141337467D01*
X56206759Y-141331497D01*
X56393500Y-141186910D01*
X56482938Y-140987211D01*
X56470895Y-140763642D01*
X56353193Y-140547443D01*
X56316884Y-140508115D01*
X56218619Y-140417735D01*
X56122861Y-140362728D01*
X55995224Y-140334355D01*
X55801325Y-140323875D01*
X55586634Y-140322500D01*
X55042000Y-140322500D01*
X54534000Y-140322500D01*
X54534000Y-139861720D01*
X55407125Y-139890151D01*
G37*
X55407125Y-139890151D02*
X55803479Y-139906969D01*
X56098049Y-139931839D01*
X56316034Y-139970902D01*
X56482634Y-140030295D01*
X56623051Y-140116159D01*
X56741338Y-140215174D01*
X56901995Y-140436404D01*
X56976904Y-140704505D01*
X56968433Y-140984481D01*
X56878946Y-141241332D01*
X56710811Y-141440059D01*
X56656029Y-141476994D01*
X56435749Y-141606962D01*
X56639235Y-141710856D01*
X56894461Y-141900180D01*
X57052824Y-142163253D01*
X57120089Y-142494741D01*
X57100230Y-142845482D01*
X56977819Y-143124919D01*
X56746500Y-143344667D01*
X56611601Y-143423888D01*
X56476677Y-143485597D01*
X56332535Y-143530046D01*
X56152138Y-143561439D01*
X55908450Y-143583983D01*
X55574436Y-143601882D01*
X55428468Y-143607936D01*
X54534000Y-143643346D01*
X54534000Y-141846500D01*
X55042000Y-141846500D01*
X55042000Y-143180000D01*
X55552039Y-143180000D01*
X55848003Y-143167906D01*
X56106541Y-143135389D01*
X56275336Y-143090895D01*
X56473924Y-142944765D01*
X56586825Y-142722101D01*
X56604974Y-142447651D01*
X56571173Y-142283227D01*
X56488244Y-142097280D01*
X56356621Y-141969717D01*
X56155983Y-141891541D01*
X55866007Y-141853753D01*
X55584903Y-141846500D01*
X55042000Y-141846500D01*
X54534000Y-141846500D01*
X54534000Y-140322500D01*
X55042000Y-140322500D01*
X55042000Y-141402000D01*
X55547012Y-141402000D01*
X55808813Y-141393271D01*
X56038339Y-141370202D01*
X56191849Y-141337467D01*
X56206759Y-141331497D01*
X56393500Y-141186910D01*
X56482938Y-140987211D01*
X56470895Y-140763642D01*
X56353193Y-140547443D01*
X56316884Y-140508115D01*
X56218619Y-140417735D01*
X56122861Y-140362728D01*
X55995224Y-140334355D01*
X55801325Y-140323875D01*
X55586634Y-140322500D01*
X55042000Y-140322500D01*
X54534000Y-140322500D01*
X54534000Y-139861720D01*
X55407125Y-139890151D01*
G36*
X142106003Y-139879320D02*
G01*
X142435765Y-140020311D01*
X142698863Y-140267225D01*
X142893660Y-140616896D01*
X143018519Y-141066158D01*
X143071805Y-141611846D01*
X143073764Y-141751250D01*
X143036663Y-142314593D01*
X142926754Y-142785472D01*
X142746129Y-143159745D01*
X142496880Y-143433275D01*
X142181097Y-143601923D01*
X142130818Y-143617173D01*
X141910480Y-143669853D01*
X141743868Y-143677076D01*
X141565332Y-143636725D01*
X141442466Y-143594984D01*
X141125479Y-143429793D01*
X140882193Y-143182520D01*
X140709160Y-142845969D01*
X140602929Y-142412940D01*
X140560050Y-141876238D01*
X140558771Y-141751250D01*
X141059874Y-141751250D01*
X141084602Y-142269904D01*
X141162776Y-142675380D01*
X141295728Y-142970313D01*
X141484795Y-143157342D01*
X141731308Y-143239102D01*
X141814750Y-143243500D01*
X142026772Y-143217871D01*
X142185303Y-143122821D01*
X142239709Y-143068875D01*
X142391956Y-142855601D01*
X142494533Y-142584814D01*
X142553071Y-142234798D01*
X142573205Y-141783835D01*
X142573210Y-141783000D01*
X142550974Y-141259886D01*
X142476862Y-140850071D01*
X142349205Y-140550201D01*
X142166332Y-140356918D01*
X141926574Y-140266867D01*
X141814750Y-140259000D01*
X141558699Y-140301237D01*
X141359477Y-140432461D01*
X141213659Y-140659442D01*
X141117820Y-140988947D01*
X141068537Y-141427747D01*
X141059874Y-141751250D01*
X140558771Y-141751250D01*
X140564347Y-141397519D01*
X140584308Y-141132856D01*
X140623507Y-140919686D01*
X140686796Y-140720434D01*
X140694481Y-140700230D01*
X140892731Y-140326705D01*
X141155254Y-140055204D01*
X141471700Y-139891747D01*
X141831718Y-139842352D01*
X142106003Y-139879320D01*
G37*
X142106003Y-139879320D02*
X142435765Y-140020311D01*
X142698863Y-140267225D01*
X142893660Y-140616896D01*
X143018519Y-141066158D01*
X143071805Y-141611846D01*
X143073764Y-141751250D01*
X143036663Y-142314593D01*
X142926754Y-142785472D01*
X142746129Y-143159745D01*
X142496880Y-143433275D01*
X142181097Y-143601923D01*
X142130818Y-143617173D01*
X141910480Y-143669853D01*
X141743868Y-143677076D01*
X141565332Y-143636725D01*
X141442466Y-143594984D01*
X141125479Y-143429793D01*
X140882193Y-143182520D01*
X140709160Y-142845969D01*
X140602929Y-142412940D01*
X140560050Y-141876238D01*
X140558771Y-141751250D01*
X141059874Y-141751250D01*
X141084602Y-142269904D01*
X141162776Y-142675380D01*
X141295728Y-142970313D01*
X141484795Y-143157342D01*
X141731308Y-143239102D01*
X141814750Y-143243500D01*
X142026772Y-143217871D01*
X142185303Y-143122821D01*
X142239709Y-143068875D01*
X142391956Y-142855601D01*
X142494533Y-142584814D01*
X142553071Y-142234798D01*
X142573205Y-141783835D01*
X142573210Y-141783000D01*
X142550974Y-141259886D01*
X142476862Y-140850071D01*
X142349205Y-140550201D01*
X142166332Y-140356918D01*
X141926574Y-140266867D01*
X141814750Y-140259000D01*
X141558699Y-140301237D01*
X141359477Y-140432461D01*
X141213659Y-140659442D01*
X141117820Y-140988947D01*
X141068537Y-141427747D01*
X141059874Y-141751250D01*
X140558771Y-141751250D01*
X140564347Y-141397519D01*
X140584308Y-141132856D01*
X140623507Y-140919686D01*
X140686796Y-140720434D01*
X140694481Y-140700230D01*
X140892731Y-140326705D01*
X141155254Y-140055204D01*
X141471700Y-139891747D01*
X141831718Y-139842352D01*
X142106003Y-139879320D01*
G36*
X135535429Y-139846077D02*
G01*
X135694171Y-139879931D01*
X136011888Y-140025598D01*
X136262944Y-140274592D01*
X136448355Y-140628759D01*
X136569141Y-141089944D01*
X136621365Y-141560750D01*
X136618059Y-142099248D01*
X136544823Y-142577584D01*
X136406409Y-142981353D01*
X136207568Y-143296152D01*
X135985424Y-143488724D01*
X135678705Y-143614233D01*
X135333668Y-143657223D01*
X135007317Y-143611586D01*
X134966604Y-143597865D01*
X134690911Y-143457847D01*
X134478286Y-143251100D01*
X134300662Y-142949268D01*
X134279719Y-142903877D01*
X134217311Y-142751322D01*
X134175205Y-142601005D01*
X134149526Y-142422733D01*
X134136394Y-142186314D01*
X134131934Y-141861554D01*
X134131712Y-141751250D01*
X134607500Y-141751250D01*
X134632597Y-142247865D01*
X134706402Y-142648983D01*
X134826684Y-142946145D01*
X134966737Y-143113011D01*
X135183506Y-143214675D01*
X135441330Y-143240741D01*
X135676072Y-143185466D01*
X135690967Y-143177876D01*
X135794089Y-143083730D01*
X135911302Y-142922714D01*
X135956667Y-142844501D01*
X136016639Y-142719385D01*
X136057229Y-142590618D01*
X136082113Y-142430117D01*
X136094967Y-142209796D01*
X136099466Y-141901570D01*
X136099750Y-141751250D01*
X136097515Y-141401067D01*
X136088362Y-141149758D01*
X136068614Y-140969237D01*
X136034595Y-140831419D01*
X135982630Y-140708220D01*
X135956667Y-140657998D01*
X135805792Y-140430231D01*
X135636490Y-140305383D01*
X135413815Y-140260449D01*
X135350488Y-140259000D01*
X135090030Y-140313592D01*
X134886183Y-140478150D01*
X134738362Y-140753843D01*
X134645987Y-141141843D01*
X134608473Y-141643318D01*
X134607500Y-141751250D01*
X134131712Y-141751250D01*
X134133016Y-141408427D01*
X134140593Y-141161997D01*
X134159262Y-140981363D01*
X134193841Y-140835925D01*
X134249151Y-140695086D01*
X134321750Y-140544750D01*
X134551497Y-140197203D01*
X134833794Y-139963245D01*
X135163489Y-139845371D01*
X135535429Y-139846077D01*
G37*
X135535429Y-139846077D02*
X135694171Y-139879931D01*
X136011888Y-140025598D01*
X136262944Y-140274592D01*
X136448355Y-140628759D01*
X136569141Y-141089944D01*
X136621365Y-141560750D01*
X136618059Y-142099248D01*
X136544823Y-142577584D01*
X136406409Y-142981353D01*
X136207568Y-143296152D01*
X135985424Y-143488724D01*
X135678705Y-143614233D01*
X135333668Y-143657223D01*
X135007317Y-143611586D01*
X134966604Y-143597865D01*
X134690911Y-143457847D01*
X134478286Y-143251100D01*
X134300662Y-142949268D01*
X134279719Y-142903877D01*
X134217311Y-142751322D01*
X134175205Y-142601005D01*
X134149526Y-142422733D01*
X134136394Y-142186314D01*
X134131934Y-141861554D01*
X134131712Y-141751250D01*
X134607500Y-141751250D01*
X134632597Y-142247865D01*
X134706402Y-142648983D01*
X134826684Y-142946145D01*
X134966737Y-143113011D01*
X135183506Y-143214675D01*
X135441330Y-143240741D01*
X135676072Y-143185466D01*
X135690967Y-143177876D01*
X135794089Y-143083730D01*
X135911302Y-142922714D01*
X135956667Y-142844501D01*
X136016639Y-142719385D01*
X136057229Y-142590618D01*
X136082113Y-142430117D01*
X136094967Y-142209796D01*
X136099466Y-141901570D01*
X136099750Y-141751250D01*
X136097515Y-141401067D01*
X136088362Y-141149758D01*
X136068614Y-140969237D01*
X136034595Y-140831419D01*
X135982630Y-140708220D01*
X135956667Y-140657998D01*
X135805792Y-140430231D01*
X135636490Y-140305383D01*
X135413815Y-140260449D01*
X135350488Y-140259000D01*
X135090030Y-140313592D01*
X134886183Y-140478150D01*
X134738362Y-140753843D01*
X134645987Y-141141843D01*
X134608473Y-141643318D01*
X134607500Y-141751250D01*
X134131712Y-141751250D01*
X134133016Y-141408427D01*
X134140593Y-141161997D01*
X134159262Y-140981363D01*
X134193841Y-140835925D01*
X134249151Y-140695086D01*
X134321750Y-140544750D01*
X134551497Y-140197203D01*
X134833794Y-139963245D01*
X135163489Y-139845371D01*
X135535429Y-139846077D01*
G36*
X127626100Y-139872840D02*
G01*
X127984317Y-139987359D01*
X128234039Y-140159838D01*
X128384682Y-140401048D01*
X128445660Y-140721760D01*
X128448000Y-140813217D01*
X128408301Y-141116136D01*
X128277349Y-141347178D01*
X128043713Y-141534203D01*
X127935314Y-141611050D01*
X127910272Y-141653092D01*
X127921915Y-141655762D01*
X128042830Y-141704995D01*
X128196252Y-141829728D01*
X128349650Y-141996374D01*
X128470496Y-142171350D01*
X128514118Y-142267185D01*
X128567540Y-142612717D01*
X128506599Y-142939649D01*
X128343911Y-143227113D01*
X128092094Y-143454239D01*
X127763762Y-143600157D01*
X127698749Y-143615923D01*
X127459235Y-143662131D01*
X127280721Y-143676989D01*
X127101424Y-143661588D01*
X126923086Y-143629625D01*
X126574725Y-143506594D01*
X126304281Y-143295431D01*
X126160651Y-143081963D01*
X126052987Y-142740957D01*
X126052357Y-142522775D01*
X126545250Y-142522775D01*
X126596724Y-142828888D01*
X126740221Y-143059033D01*
X126867489Y-143154885D01*
X127083746Y-143222090D01*
X127353703Y-143236755D01*
X127615558Y-143199135D01*
X127743709Y-143151244D01*
X127925422Y-142992183D01*
X128029261Y-142765612D01*
X128051796Y-142506914D01*
X127989598Y-142251472D01*
X127850843Y-142045979D01*
X127702315Y-141938483D01*
X127500530Y-141879079D01*
X127342270Y-141860193D01*
X127133568Y-141849040D01*
X126998058Y-141871095D01*
X126882863Y-141944223D01*
X126766647Y-142054652D01*
X126620984Y-142223950D01*
X126556210Y-142378768D01*
X126545250Y-142522775D01*
X126052357Y-142522775D01*
X126052024Y-142407656D01*
X126151822Y-142106545D01*
X126346444Y-141862104D01*
X126479444Y-141767640D01*
X126715956Y-141631521D01*
X126518353Y-141500047D01*
X126286592Y-141277634D01*
X126154505Y-141002821D01*
X126143559Y-140891768D01*
X126614293Y-140891768D01*
X126684335Y-141122355D01*
X126828617Y-141299345D01*
X127045770Y-141406261D01*
X127300380Y-141439390D01*
X127557036Y-141395016D01*
X127780323Y-141269426D01*
X127811556Y-141240586D01*
X127944481Y-141029448D01*
X127976521Y-140787493D01*
X127908621Y-140555135D01*
X127792140Y-140411010D01*
X127553079Y-140281971D01*
X127275903Y-140247496D01*
X127003975Y-140306128D01*
X126792115Y-140444615D01*
X126642868Y-140658617D01*
X126614293Y-140891768D01*
X126143559Y-140891768D01*
X126125065Y-140704148D01*
X126201239Y-140410156D01*
X126378562Y-140156737D01*
X126638646Y-139978211D01*
X126972986Y-139869560D01*
X127344714Y-139839172D01*
X127626100Y-139872840D01*
G37*
X127626100Y-139872840D02*
X127984317Y-139987359D01*
X128234039Y-140159838D01*
X128384682Y-140401048D01*
X128445660Y-140721760D01*
X128448000Y-140813217D01*
X128408301Y-141116136D01*
X128277349Y-141347178D01*
X128043713Y-141534203D01*
X127935314Y-141611050D01*
X127910272Y-141653092D01*
X127921915Y-141655762D01*
X128042830Y-141704995D01*
X128196252Y-141829728D01*
X128349650Y-141996374D01*
X128470496Y-142171350D01*
X128514118Y-142267185D01*
X128567540Y-142612717D01*
X128506599Y-142939649D01*
X128343911Y-143227113D01*
X128092094Y-143454239D01*
X127763762Y-143600157D01*
X127698749Y-143615923D01*
X127459235Y-143662131D01*
X127280721Y-143676989D01*
X127101424Y-143661588D01*
X126923086Y-143629625D01*
X126574725Y-143506594D01*
X126304281Y-143295431D01*
X126160651Y-143081963D01*
X126052987Y-142740957D01*
X126052357Y-142522775D01*
X126545250Y-142522775D01*
X126596724Y-142828888D01*
X126740221Y-143059033D01*
X126867489Y-143154885D01*
X127083746Y-143222090D01*
X127353703Y-143236755D01*
X127615558Y-143199135D01*
X127743709Y-143151244D01*
X127925422Y-142992183D01*
X128029261Y-142765612D01*
X128051796Y-142506914D01*
X127989598Y-142251472D01*
X127850843Y-142045979D01*
X127702315Y-141938483D01*
X127500530Y-141879079D01*
X127342270Y-141860193D01*
X127133568Y-141849040D01*
X126998058Y-141871095D01*
X126882863Y-141944223D01*
X126766647Y-142054652D01*
X126620984Y-142223950D01*
X126556210Y-142378768D01*
X126545250Y-142522775D01*
X126052357Y-142522775D01*
X126052024Y-142407656D01*
X126151822Y-142106545D01*
X126346444Y-141862104D01*
X126479444Y-141767640D01*
X126715956Y-141631521D01*
X126518353Y-141500047D01*
X126286592Y-141277634D01*
X126154505Y-141002821D01*
X126143559Y-140891768D01*
X126614293Y-140891768D01*
X126684335Y-141122355D01*
X126828617Y-141299345D01*
X127045770Y-141406261D01*
X127300380Y-141439390D01*
X127557036Y-141395016D01*
X127780323Y-141269426D01*
X127811556Y-141240586D01*
X127944481Y-141029448D01*
X127976521Y-140787493D01*
X127908621Y-140555135D01*
X127792140Y-140411010D01*
X127553079Y-140281971D01*
X127275903Y-140247496D01*
X127003975Y-140306128D01*
X126792115Y-140444615D01*
X126642868Y-140658617D01*
X126614293Y-140891768D01*
X126143559Y-140891768D01*
X126125065Y-140704148D01*
X126201239Y-140410156D01*
X126378562Y-140156737D01*
X126638646Y-139978211D01*
X126972986Y-139869560D01*
X127344714Y-139839172D01*
X127626100Y-139872840D01*
G36*
X115198199Y-140826166D02*
G01*
X115248507Y-140840551D01*
X115407368Y-140899559D01*
X115477307Y-140975912D01*
X115493903Y-141112007D01*
X115494000Y-141133095D01*
X115483855Y-141276968D01*
X115442048Y-141321330D01*
X115382875Y-141306657D01*
X114970138Y-141183547D01*
X114600975Y-141164369D01*
X114286249Y-141245860D01*
X114036826Y-141424758D01*
X113863568Y-141697800D01*
X113836487Y-141770981D01*
X113794583Y-142009730D01*
X113795235Y-142298994D01*
X113833644Y-142587180D01*
X113905009Y-142822699D01*
X113940489Y-142888755D01*
X114156051Y-143107673D01*
X114445695Y-143231503D01*
X114795028Y-143256267D01*
X115090957Y-143206553D01*
X115284617Y-143157333D01*
X115422300Y-143124623D01*
X115465348Y-143116500D01*
X115485740Y-143171652D01*
X115494000Y-143300788D01*
X115468018Y-143442977D01*
X115365746Y-143526683D01*
X115298331Y-143553286D01*
X115027735Y-143620372D01*
X114724222Y-143654956D01*
X114446497Y-143652339D01*
X114319250Y-143631638D01*
X113939831Y-143473833D01*
X113641340Y-143225529D01*
X113431034Y-142899681D01*
X113316176Y-142509242D01*
X113304025Y-142067165D01*
X113331328Y-141869038D01*
X113460892Y-141482194D01*
X113683602Y-141169558D01*
X113984072Y-140939384D01*
X114346919Y-140799925D01*
X114756756Y-140759435D01*
X115198199Y-140826166D01*
G37*
X115198199Y-140826166D02*
X115248507Y-140840551D01*
X115407368Y-140899559D01*
X115477307Y-140975912D01*
X115493903Y-141112007D01*
X115494000Y-141133095D01*
X115483855Y-141276968D01*
X115442048Y-141321330D01*
X115382875Y-141306657D01*
X114970138Y-141183547D01*
X114600975Y-141164369D01*
X114286249Y-141245860D01*
X114036826Y-141424758D01*
X113863568Y-141697800D01*
X113836487Y-141770981D01*
X113794583Y-142009730D01*
X113795235Y-142298994D01*
X113833644Y-142587180D01*
X113905009Y-142822699D01*
X113940489Y-142888755D01*
X114156051Y-143107673D01*
X114445695Y-143231503D01*
X114795028Y-143256267D01*
X115090957Y-143206553D01*
X115284617Y-143157333D01*
X115422300Y-143124623D01*
X115465348Y-143116500D01*
X115485740Y-143171652D01*
X115494000Y-143300788D01*
X115468018Y-143442977D01*
X115365746Y-143526683D01*
X115298331Y-143553286D01*
X115027735Y-143620372D01*
X114724222Y-143654956D01*
X114446497Y-143652339D01*
X114319250Y-143631638D01*
X113939831Y-143473833D01*
X113641340Y-143225529D01*
X113431034Y-142899681D01*
X113316176Y-142509242D01*
X113304025Y-142067165D01*
X113331328Y-141869038D01*
X113460892Y-141482194D01*
X113683602Y-141169558D01*
X113984072Y-140939384D01*
X114346919Y-140799925D01*
X114756756Y-140759435D01*
X115198199Y-140826166D01*
G36*
X109824522Y-140830961D02*
G01*
X110009134Y-140897816D01*
X110225755Y-141039285D01*
X110379867Y-141241702D01*
X110420242Y-141319645D01*
X110474821Y-141444252D01*
X110513562Y-141572521D01*
X110539309Y-141729315D01*
X110554908Y-141939495D01*
X110563202Y-142227923D01*
X110566934Y-142601703D01*
X110572750Y-143592750D01*
X110350500Y-143592750D01*
X110198459Y-143579982D01*
X110130480Y-143520711D01*
X110107464Y-143410949D01*
X110086679Y-143229148D01*
X109916964Y-143389157D01*
X109728074Y-143516425D01*
X109480846Y-143620711D01*
X109238237Y-143678148D01*
X109144000Y-143682187D01*
X109011628Y-143660340D01*
X108886291Y-143627787D01*
X108586712Y-143497023D01*
X108389818Y-143308645D01*
X108283431Y-143045378D01*
X108268156Y-142877166D01*
X108705266Y-142877166D01*
X108740753Y-143023117D01*
X108855529Y-143160024D01*
X109051303Y-143243427D01*
X109292046Y-143269163D01*
X109541732Y-143233066D01*
X109751062Y-143139912D01*
X109910923Y-142974141D01*
X110033706Y-142734825D01*
X110094097Y-142474876D01*
X110096500Y-142417960D01*
X110096500Y-142214863D01*
X109519349Y-142237056D01*
X109239057Y-142251094D01*
X109055805Y-142272072D01*
X108939633Y-142307371D01*
X108860581Y-142364375D01*
X108820849Y-142409159D01*
X108720156Y-142623336D01*
X108705266Y-142877166D01*
X108268156Y-142877166D01*
X108255000Y-142732303D01*
X108266678Y-142518915D01*
X108317303Y-142371664D01*
X108430257Y-142230644D01*
X108464354Y-142195945D01*
X108681974Y-142026767D01*
X108948682Y-141917401D01*
X109290150Y-141860199D01*
X109636125Y-141846854D01*
X109874389Y-141843632D01*
X110012551Y-141829309D01*
X110077462Y-141796214D01*
X110095973Y-141736675D01*
X110096500Y-141715325D01*
X110040142Y-141491744D01*
X109884702Y-141318121D01*
X109650625Y-141201497D01*
X109358357Y-141148915D01*
X109028345Y-141167418D01*
X108731250Y-141245081D01*
X108570801Y-141301562D01*
X108470649Y-141334323D01*
X108457351Y-141337543D01*
X108449160Y-141283000D01*
X108455936Y-141148904D01*
X108457351Y-141133789D01*
X108487537Y-140995628D01*
X108568475Y-140914288D01*
X108731250Y-140852919D01*
X109095424Y-140783167D01*
X109476143Y-140776420D01*
X109824522Y-140830961D01*
G37*
X109824522Y-140830961D02*
X110009134Y-140897816D01*
X110225755Y-141039285D01*
X110379867Y-141241702D01*
X110420242Y-141319645D01*
X110474821Y-141444252D01*
X110513562Y-141572521D01*
X110539309Y-141729315D01*
X110554908Y-141939495D01*
X110563202Y-142227923D01*
X110566934Y-142601703D01*
X110572750Y-143592750D01*
X110350500Y-143592750D01*
X110198459Y-143579982D01*
X110130480Y-143520711D01*
X110107464Y-143410949D01*
X110086679Y-143229148D01*
X109916964Y-143389157D01*
X109728074Y-143516425D01*
X109480846Y-143620711D01*
X109238237Y-143678148D01*
X109144000Y-143682187D01*
X109011628Y-143660340D01*
X108886291Y-143627787D01*
X108586712Y-143497023D01*
X108389818Y-143308645D01*
X108283431Y-143045378D01*
X108268156Y-142877166D01*
X108705266Y-142877166D01*
X108740753Y-143023117D01*
X108855529Y-143160024D01*
X109051303Y-143243427D01*
X109292046Y-143269163D01*
X109541732Y-143233066D01*
X109751062Y-143139912D01*
X109910923Y-142974141D01*
X110033706Y-142734825D01*
X110094097Y-142474876D01*
X110096500Y-142417960D01*
X110096500Y-142214863D01*
X109519349Y-142237056D01*
X109239057Y-142251094D01*
X109055805Y-142272072D01*
X108939633Y-142307371D01*
X108860581Y-142364375D01*
X108820849Y-142409159D01*
X108720156Y-142623336D01*
X108705266Y-142877166D01*
X108268156Y-142877166D01*
X108255000Y-142732303D01*
X108266678Y-142518915D01*
X108317303Y-142371664D01*
X108430257Y-142230644D01*
X108464354Y-142195945D01*
X108681974Y-142026767D01*
X108948682Y-141917401D01*
X109290150Y-141860199D01*
X109636125Y-141846854D01*
X109874389Y-141843632D01*
X110012551Y-141829309D01*
X110077462Y-141796214D01*
X110095973Y-141736675D01*
X110096500Y-141715325D01*
X110040142Y-141491744D01*
X109884702Y-141318121D01*
X109650625Y-141201497D01*
X109358357Y-141148915D01*
X109028345Y-141167418D01*
X108731250Y-141245081D01*
X108570801Y-141301562D01*
X108470649Y-141334323D01*
X108457351Y-141337543D01*
X108449160Y-141283000D01*
X108455936Y-141148904D01*
X108457351Y-141133789D01*
X108487537Y-140995628D01*
X108568475Y-140914288D01*
X108731250Y-140852919D01*
X109095424Y-140783167D01*
X109476143Y-140776420D01*
X109824522Y-140830961D01*
G36*
X97328022Y-140808917D02*
G01*
X97633384Y-140942659D01*
X97881631Y-141163406D01*
X98063242Y-141452356D01*
X98172584Y-141802208D01*
X98211604Y-142183686D01*
X98182253Y-142567509D01*
X98086479Y-142924401D01*
X97926231Y-143225083D01*
X97731312Y-143421445D01*
X97521157Y-143534573D01*
X97261389Y-143626749D01*
X97014676Y-143677849D01*
X96920250Y-143681918D01*
X96772266Y-143660825D01*
X96585624Y-143616928D01*
X96573319Y-143613444D01*
X96243393Y-143456912D01*
X95982982Y-143206174D01*
X95799281Y-142877678D01*
X95699483Y-142487877D01*
X95693340Y-142180961D01*
X96188823Y-142180961D01*
X96215841Y-142491957D01*
X96277443Y-142771952D01*
X96368788Y-142973052D01*
X96578774Y-143167819D01*
X96841581Y-143261135D01*
X97127225Y-143247844D01*
X97371133Y-143145451D01*
X97522402Y-142984830D01*
X97634597Y-142735704D01*
X97701972Y-142432114D01*
X97718781Y-142108103D01*
X97679278Y-141797714D01*
X97626444Y-141632872D01*
X97462585Y-141377002D01*
X97242390Y-141217770D01*
X96991483Y-141154797D01*
X96735486Y-141187706D01*
X96500022Y-141316120D01*
X96310716Y-141539662D01*
X96254712Y-141653071D01*
X96200433Y-141885741D01*
X96188823Y-142180961D01*
X95693340Y-142180961D01*
X95690783Y-142053221D01*
X95745347Y-141720134D01*
X95892914Y-141340827D01*
X96127364Y-141051942D01*
X96440240Y-140860160D01*
X96823081Y-140772163D01*
X96952000Y-140767000D01*
X97328022Y-140808917D01*
G37*
X97328022Y-140808917D02*
X97633384Y-140942659D01*
X97881631Y-141163406D01*
X98063242Y-141452356D01*
X98172584Y-141802208D01*
X98211604Y-142183686D01*
X98182253Y-142567509D01*
X98086479Y-142924401D01*
X97926231Y-143225083D01*
X97731312Y-143421445D01*
X97521157Y-143534573D01*
X97261389Y-143626749D01*
X97014676Y-143677849D01*
X96920250Y-143681918D01*
X96772266Y-143660825D01*
X96585624Y-143616928D01*
X96573319Y-143613444D01*
X96243393Y-143456912D01*
X95982982Y-143206174D01*
X95799281Y-142877678D01*
X95699483Y-142487877D01*
X95693340Y-142180961D01*
X96188823Y-142180961D01*
X96215841Y-142491957D01*
X96277443Y-142771952D01*
X96368788Y-142973052D01*
X96578774Y-143167819D01*
X96841581Y-143261135D01*
X97127225Y-143247844D01*
X97371133Y-143145451D01*
X97522402Y-142984830D01*
X97634597Y-142735704D01*
X97701972Y-142432114D01*
X97718781Y-142108103D01*
X97679278Y-141797714D01*
X97626444Y-141632872D01*
X97462585Y-141377002D01*
X97242390Y-141217770D01*
X96991483Y-141154797D01*
X96735486Y-141187706D01*
X96500022Y-141316120D01*
X96310716Y-141539662D01*
X96254712Y-141653071D01*
X96200433Y-141885741D01*
X96188823Y-142180961D01*
X95693340Y-142180961D01*
X95690783Y-142053221D01*
X95745347Y-141720134D01*
X95892914Y-141340827D01*
X96127364Y-141051942D01*
X96440240Y-140860160D01*
X96823081Y-140772163D01*
X96952000Y-140767000D01*
X97328022Y-140808917D01*
G36*
X91094635Y-140822677D02*
G01*
X91418111Y-140984328D01*
X91668968Y-141243877D01*
X91838833Y-141593251D01*
X91910285Y-141927687D01*
X91952985Y-142291000D01*
X89823383Y-142291000D01*
X89860539Y-142519966D01*
X89964875Y-142838729D01*
X90159073Y-143068156D01*
X90441670Y-143207165D01*
X90811205Y-143254678D01*
X90853978Y-143254334D01*
X91252915Y-143217858D01*
X91623092Y-143113586D01*
X91702038Y-143082780D01*
X91778512Y-143067798D01*
X91803738Y-143128113D01*
X91797288Y-143250791D01*
X91763193Y-143404350D01*
X91672463Y-143491451D01*
X91553082Y-143538749D01*
X91188389Y-143622873D01*
X90803676Y-143653804D01*
X90454446Y-143628546D01*
X90344113Y-143604019D01*
X89958538Y-143442273D01*
X89669729Y-143198776D01*
X89477199Y-142872829D01*
X89380465Y-142463732D01*
X89367977Y-142195750D01*
X89403444Y-141907960D01*
X89840000Y-141907960D01*
X89901861Y-141937624D01*
X90081356Y-141958863D01*
X90369351Y-141970923D01*
X90633750Y-141973500D01*
X91427500Y-141973500D01*
X91427500Y-141776650D01*
X91382446Y-141586439D01*
X91236242Y-141389081D01*
X91211600Y-141363900D01*
X91048092Y-141223412D01*
X90892933Y-141160774D01*
X90719475Y-141148237D01*
X90405099Y-141200961D01*
X90141432Y-141346941D01*
X89957376Y-141568745D01*
X89931428Y-141623600D01*
X89871115Y-141784338D01*
X89840833Y-141897131D01*
X89840000Y-141907960D01*
X89403444Y-141907960D01*
X89423146Y-141748092D01*
X89573924Y-141373539D01*
X89811943Y-141081020D01*
X90128838Y-140879461D01*
X90516242Y-140777790D01*
X90706911Y-140767000D01*
X91094635Y-140822677D01*
G37*
X91094635Y-140822677D02*
X91418111Y-140984328D01*
X91668968Y-141243877D01*
X91838833Y-141593251D01*
X91910285Y-141927687D01*
X91952985Y-142291000D01*
X89823383Y-142291000D01*
X89860539Y-142519966D01*
X89964875Y-142838729D01*
X90159073Y-143068156D01*
X90441670Y-143207165D01*
X90811205Y-143254678D01*
X90853978Y-143254334D01*
X91252915Y-143217858D01*
X91623092Y-143113586D01*
X91702038Y-143082780D01*
X91778512Y-143067798D01*
X91803738Y-143128113D01*
X91797288Y-143250791D01*
X91763193Y-143404350D01*
X91672463Y-143491451D01*
X91553082Y-143538749D01*
X91188389Y-143622873D01*
X90803676Y-143653804D01*
X90454446Y-143628546D01*
X90344113Y-143604019D01*
X89958538Y-143442273D01*
X89669729Y-143198776D01*
X89477199Y-142872829D01*
X89380465Y-142463732D01*
X89367977Y-142195750D01*
X89403444Y-141907960D01*
X89840000Y-141907960D01*
X89901861Y-141937624D01*
X90081356Y-141958863D01*
X90369351Y-141970923D01*
X90633750Y-141973500D01*
X91427500Y-141973500D01*
X91427500Y-141776650D01*
X91382446Y-141586439D01*
X91236242Y-141389081D01*
X91211600Y-141363900D01*
X91048092Y-141223412D01*
X90892933Y-141160774D01*
X90719475Y-141148237D01*
X90405099Y-141200961D01*
X90141432Y-141346941D01*
X89957376Y-141568745D01*
X89931428Y-141623600D01*
X89871115Y-141784338D01*
X89840833Y-141897131D01*
X89840000Y-141907960D01*
X89403444Y-141907960D01*
X89423146Y-141748092D01*
X89573924Y-141373539D01*
X89811943Y-141081020D01*
X90128838Y-140879461D01*
X90516242Y-140777790D01*
X90706911Y-140767000D01*
X91094635Y-140822677D01*
G36*
X77632224Y-140805630D02*
G01*
X77889785Y-140870794D01*
X78011095Y-140934348D01*
X78157388Y-141055295D01*
X78267005Y-141183568D01*
X78345655Y-141339713D01*
X78399046Y-141544278D01*
X78432885Y-141817809D01*
X78452882Y-142180854D01*
X78462977Y-142560875D01*
X78484204Y-143624500D01*
X78256602Y-143624500D01*
X78105102Y-143614820D01*
X78042019Y-143563151D01*
X78029024Y-143435549D01*
X78029000Y-143422931D01*
X78029000Y-143221362D01*
X77886125Y-143351495D01*
X77577053Y-143551194D01*
X77216049Y-143650731D01*
X76839596Y-143641109D01*
X76770726Y-143626537D01*
X76502234Y-143502444D01*
X76301674Y-143294996D01*
X76176795Y-143032675D01*
X76138034Y-142762680D01*
X76606600Y-142762680D01*
X76659448Y-142998367D01*
X76802020Y-143168590D01*
X77010358Y-143264500D01*
X77260502Y-143277248D01*
X77528493Y-143197985D01*
X77631240Y-143141132D01*
X77837533Y-142945050D01*
X77966589Y-142660919D01*
X78003221Y-142490714D01*
X78047361Y-142214178D01*
X77468375Y-142236714D01*
X77110304Y-142265565D01*
X76861233Y-142326134D01*
X76705065Y-142428246D01*
X76625700Y-142581727D01*
X76606600Y-142762680D01*
X76138034Y-142762680D01*
X76135346Y-142743960D01*
X76185077Y-142457333D01*
X76333739Y-142201274D01*
X76371798Y-142160431D01*
X76576548Y-142008944D01*
X76845332Y-141910081D01*
X77198955Y-141858244D01*
X77536875Y-141846854D01*
X77785311Y-141843812D01*
X77932687Y-141830700D01*
X78004893Y-141800868D01*
X78027821Y-141747669D01*
X78029000Y-141720501D01*
X77988410Y-141594949D01*
X77887447Y-141438597D01*
X77852315Y-141396758D01*
X77626453Y-141236293D01*
X77322015Y-141160590D01*
X76955858Y-141170616D01*
X76544839Y-141267338D01*
X76413262Y-141314188D01*
X76341905Y-141322661D01*
X76319423Y-141253043D01*
X76325711Y-141140708D01*
X76348275Y-141011041D01*
X76406830Y-140933709D01*
X76535183Y-140879004D01*
X76663750Y-140843652D01*
X76980729Y-140789469D01*
X77316379Y-140777659D01*
X77632224Y-140805630D01*
G37*
X77632224Y-140805630D02*
X77889785Y-140870794D01*
X78011095Y-140934348D01*
X78157388Y-141055295D01*
X78267005Y-141183568D01*
X78345655Y-141339713D01*
X78399046Y-141544278D01*
X78432885Y-141817809D01*
X78452882Y-142180854D01*
X78462977Y-142560875D01*
X78484204Y-143624500D01*
X78256602Y-143624500D01*
X78105102Y-143614820D01*
X78042019Y-143563151D01*
X78029024Y-143435549D01*
X78029000Y-143422931D01*
X78029000Y-143221362D01*
X77886125Y-143351495D01*
X77577053Y-143551194D01*
X77216049Y-143650731D01*
X76839596Y-143641109D01*
X76770726Y-143626537D01*
X76502234Y-143502444D01*
X76301674Y-143294996D01*
X76176795Y-143032675D01*
X76138034Y-142762680D01*
X76606600Y-142762680D01*
X76659448Y-142998367D01*
X76802020Y-143168590D01*
X77010358Y-143264500D01*
X77260502Y-143277248D01*
X77528493Y-143197985D01*
X77631240Y-143141132D01*
X77837533Y-142945050D01*
X77966589Y-142660919D01*
X78003221Y-142490714D01*
X78047361Y-142214178D01*
X77468375Y-142236714D01*
X77110304Y-142265565D01*
X76861233Y-142326134D01*
X76705065Y-142428246D01*
X76625700Y-142581727D01*
X76606600Y-142762680D01*
X76138034Y-142762680D01*
X76135346Y-142743960D01*
X76185077Y-142457333D01*
X76333739Y-142201274D01*
X76371798Y-142160431D01*
X76576548Y-142008944D01*
X76845332Y-141910081D01*
X77198955Y-141858244D01*
X77536875Y-141846854D01*
X77785311Y-141843812D01*
X77932687Y-141830700D01*
X78004893Y-141800868D01*
X78027821Y-141747669D01*
X78029000Y-141720501D01*
X77988410Y-141594949D01*
X77887447Y-141438597D01*
X77852315Y-141396758D01*
X77626453Y-141236293D01*
X77322015Y-141160590D01*
X76955858Y-141170616D01*
X76544839Y-141267338D01*
X76413262Y-141314188D01*
X76341905Y-141322661D01*
X76319423Y-141253043D01*
X76325711Y-141140708D01*
X76348275Y-141011041D01*
X76406830Y-140933709D01*
X76535183Y-140879004D01*
X76663750Y-140843652D01*
X76980729Y-140789469D01*
X77316379Y-140777659D01*
X77632224Y-140805630D01*
G36*
X74631331Y-139864131D02*
G01*
X75060375Y-139948049D01*
X75215683Y-139999209D01*
X75282795Y-140074284D01*
X75298348Y-140220555D01*
X75298500Y-140255346D01*
X75298500Y-140500798D01*
X74980318Y-140379899D01*
X74640693Y-140288013D01*
X74300140Y-140260607D01*
X73986440Y-140294001D01*
X73727377Y-140384516D01*
X73550732Y-140528474D01*
X73522382Y-140572982D01*
X73473699Y-140727476D01*
X73457000Y-140885216D01*
X73500540Y-141063922D01*
X73638108Y-141209863D01*
X73880127Y-141330031D01*
X74237016Y-141431421D01*
X74287391Y-141442515D01*
X74737537Y-141562399D01*
X75073535Y-141709592D01*
X75307163Y-141894926D01*
X75450199Y-142129233D01*
X75514423Y-142423344D01*
X75520750Y-142576750D01*
X75491481Y-142908810D01*
X75391721Y-143154957D01*
X75203534Y-143344891D01*
X74977699Y-143476113D01*
X74680632Y-143578989D01*
X74322342Y-143642615D01*
X73964942Y-143658041D01*
X73806250Y-143644919D01*
X73633005Y-143611901D01*
X73405137Y-143557476D01*
X73282375Y-143524445D01*
X73091089Y-143466278D01*
X72991960Y-143410344D01*
X72954694Y-143325183D01*
X72949000Y-143179335D01*
X72949000Y-143178226D01*
X72952548Y-143019814D01*
X72961403Y-142932346D01*
X72964875Y-142926294D01*
X73026975Y-142948681D01*
X73173819Y-143006919D01*
X73361750Y-143083536D01*
X73747349Y-143202963D01*
X74115209Y-143244246D01*
X74445526Y-143211223D01*
X74718499Y-143107734D01*
X74914324Y-142937615D01*
X74999379Y-142766099D01*
X75023467Y-142509051D01*
X74933972Y-142295652D01*
X74728519Y-142123510D01*
X74404732Y-141990233D01*
X74170363Y-141931584D01*
X73769406Y-141824661D01*
X73438470Y-141690036D01*
X73198809Y-141537678D01*
X73098740Y-141428911D01*
X72998467Y-141183632D01*
X72962406Y-140885896D01*
X72996775Y-140596227D01*
X73009009Y-140555327D01*
X73167625Y-140265421D01*
X73421087Y-140047820D01*
X73757473Y-139906051D01*
X74164861Y-139843645D01*
X74631331Y-139864131D01*
G37*
X74631331Y-139864131D02*
X75060375Y-139948049D01*
X75215683Y-139999209D01*
X75282795Y-140074284D01*
X75298348Y-140220555D01*
X75298500Y-140255346D01*
X75298500Y-140500798D01*
X74980318Y-140379899D01*
X74640693Y-140288013D01*
X74300140Y-140260607D01*
X73986440Y-140294001D01*
X73727377Y-140384516D01*
X73550732Y-140528474D01*
X73522382Y-140572982D01*
X73473699Y-140727476D01*
X73457000Y-140885216D01*
X73500540Y-141063922D01*
X73638108Y-141209863D01*
X73880127Y-141330031D01*
X74237016Y-141431421D01*
X74287391Y-141442515D01*
X74737537Y-141562399D01*
X75073535Y-141709592D01*
X75307163Y-141894926D01*
X75450199Y-142129233D01*
X75514423Y-142423344D01*
X75520750Y-142576750D01*
X75491481Y-142908810D01*
X75391721Y-143154957D01*
X75203534Y-143344891D01*
X74977699Y-143476113D01*
X74680632Y-143578989D01*
X74322342Y-143642615D01*
X73964942Y-143658041D01*
X73806250Y-143644919D01*
X73633005Y-143611901D01*
X73405137Y-143557476D01*
X73282375Y-143524445D01*
X73091089Y-143466278D01*
X72991960Y-143410344D01*
X72954694Y-143325183D01*
X72949000Y-143179335D01*
X72949000Y-143178226D01*
X72952548Y-143019814D01*
X72961403Y-142932346D01*
X72964875Y-142926294D01*
X73026975Y-142948681D01*
X73173819Y-143006919D01*
X73361750Y-143083536D01*
X73747349Y-143202963D01*
X74115209Y-143244246D01*
X74445526Y-143211223D01*
X74718499Y-143107734D01*
X74914324Y-142937615D01*
X74999379Y-142766099D01*
X75023467Y-142509051D01*
X74933972Y-142295652D01*
X74728519Y-142123510D01*
X74404732Y-141990233D01*
X74170363Y-141931584D01*
X73769406Y-141824661D01*
X73438470Y-141690036D01*
X73198809Y-141537678D01*
X73098740Y-141428911D01*
X72998467Y-141183632D01*
X72962406Y-140885896D01*
X72996775Y-140596227D01*
X73009009Y-140555327D01*
X73167625Y-140265421D01*
X73421087Y-140047820D01*
X73757473Y-139906051D01*
X74164861Y-139843645D01*
X74631331Y-139864131D01*
G36*
X69996073Y-140779005D02*
G01*
X70241043Y-140808528D01*
X70361375Y-140833838D01*
X70517631Y-140889562D01*
X70584908Y-140966751D01*
X70599496Y-141107759D01*
X70599500Y-141111752D01*
X70599500Y-141323534D01*
X70361375Y-141238554D01*
X70158462Y-141189422D01*
X69901988Y-141157380D01*
X69755238Y-141150787D01*
X69526739Y-141158595D01*
X69377742Y-141195389D01*
X69261681Y-141274776D01*
X69231363Y-141303863D01*
X69102393Y-141479371D01*
X69092633Y-141632262D01*
X69204123Y-141765779D01*
X69438901Y-141883164D01*
X69635018Y-141945874D01*
X69957231Y-142037687D01*
X70181877Y-142109251D01*
X70334381Y-142171978D01*
X70440166Y-142237280D01*
X70524656Y-142316569D01*
X70565671Y-142363610D01*
X70701856Y-142614135D01*
X70729320Y-142887699D01*
X70654999Y-143154880D01*
X70485833Y-143386258D01*
X70292268Y-143523073D01*
X70091108Y-143590504D01*
X69819210Y-143637454D01*
X69532098Y-143657136D01*
X69297750Y-143644676D01*
X69102272Y-143608634D01*
X68884614Y-143558700D01*
X68869125Y-143554704D01*
X68713352Y-143502606D01*
X68646193Y-143427457D01*
X68631060Y-143284900D01*
X68631000Y-143266008D01*
X68640812Y-143118175D01*
X68681123Y-143069610D01*
X68742125Y-143082491D01*
X69145363Y-143208989D01*
X69509463Y-143266036D01*
X69819788Y-143256012D01*
X70061703Y-143181295D01*
X70220570Y-143044264D01*
X70281752Y-142847298D01*
X70282000Y-142832213D01*
X70247356Y-142697506D01*
X70133189Y-142585704D01*
X69924139Y-142487085D01*
X69604849Y-142391923D01*
X69574619Y-142384302D01*
X69218457Y-142279181D01*
X68969267Y-142162630D01*
X68807037Y-142021158D01*
X68711755Y-141841274D01*
X68697123Y-141792742D01*
X68665406Y-141476629D01*
X68745739Y-141207941D01*
X68929193Y-140995458D01*
X69206840Y-140847960D01*
X69569752Y-140774226D01*
X69739829Y-140767354D01*
X69996073Y-140779005D01*
G37*
X69996073Y-140779005D02*
X70241043Y-140808528D01*
X70361375Y-140833838D01*
X70517631Y-140889562D01*
X70584908Y-140966751D01*
X70599496Y-141107759D01*
X70599500Y-141111752D01*
X70599500Y-141323534D01*
X70361375Y-141238554D01*
X70158462Y-141189422D01*
X69901988Y-141157380D01*
X69755238Y-141150787D01*
X69526739Y-141158595D01*
X69377742Y-141195389D01*
X69261681Y-141274776D01*
X69231363Y-141303863D01*
X69102393Y-141479371D01*
X69092633Y-141632262D01*
X69204123Y-141765779D01*
X69438901Y-141883164D01*
X69635018Y-141945874D01*
X69957231Y-142037687D01*
X70181877Y-142109251D01*
X70334381Y-142171978D01*
X70440166Y-142237280D01*
X70524656Y-142316569D01*
X70565671Y-142363610D01*
X70701856Y-142614135D01*
X70729320Y-142887699D01*
X70654999Y-143154880D01*
X70485833Y-143386258D01*
X70292268Y-143523073D01*
X70091108Y-143590504D01*
X69819210Y-143637454D01*
X69532098Y-143657136D01*
X69297750Y-143644676D01*
X69102272Y-143608634D01*
X68884614Y-143558700D01*
X68869125Y-143554704D01*
X68713352Y-143502606D01*
X68646193Y-143427457D01*
X68631060Y-143284900D01*
X68631000Y-143266008D01*
X68640812Y-143118175D01*
X68681123Y-143069610D01*
X68742125Y-143082491D01*
X69145363Y-143208989D01*
X69509463Y-143266036D01*
X69819788Y-143256012D01*
X70061703Y-143181295D01*
X70220570Y-143044264D01*
X70281752Y-142847298D01*
X70282000Y-142832213D01*
X70247356Y-142697506D01*
X70133189Y-142585704D01*
X69924139Y-142487085D01*
X69604849Y-142391923D01*
X69574619Y-142384302D01*
X69218457Y-142279181D01*
X68969267Y-142162630D01*
X68807037Y-142021158D01*
X68711755Y-141841274D01*
X68697123Y-141792742D01*
X68665406Y-141476629D01*
X68745739Y-141207941D01*
X68929193Y-140995458D01*
X69206840Y-140847960D01*
X69569752Y-140774226D01*
X69739829Y-140767354D01*
X69996073Y-140779005D01*
G36*
X67079730Y-140781302D02*
G01*
X67368487Y-140848138D01*
X67379906Y-140852791D01*
X67606761Y-140995557D01*
X67814248Y-141207814D01*
X67966872Y-141447164D01*
X68024617Y-141622892D01*
X68060671Y-141854094D01*
X68094127Y-142068750D01*
X68128754Y-142291000D01*
X66027500Y-142291000D01*
X66027500Y-142472109D01*
X66078783Y-142689570D01*
X66210911Y-142915977D01*
X66391304Y-143103149D01*
X66501444Y-143172957D01*
X66725424Y-143234103D01*
X67020758Y-143252394D01*
X67339567Y-143228706D01*
X67633972Y-143163913D01*
X67670608Y-143151579D01*
X67862274Y-143084689D01*
X67960718Y-143066016D01*
X67993686Y-143105097D01*
X67988925Y-143211472D01*
X67984148Y-143259375D01*
X67948817Y-143408454D01*
X67853687Y-143493963D01*
X67742000Y-143537001D01*
X67356285Y-143623348D01*
X66953561Y-143650666D01*
X66590007Y-143616154D01*
X66514384Y-143598238D01*
X66172075Y-143467150D01*
X65917679Y-143273968D01*
X65721325Y-143000128D01*
X65581840Y-142644408D01*
X65533578Y-142264530D01*
X65569096Y-141884180D01*
X65587000Y-141827012D01*
X66018537Y-141827012D01*
X66046525Y-141902344D01*
X66155616Y-141946173D01*
X66359296Y-141966965D01*
X66671051Y-141973191D01*
X66829558Y-141973500D01*
X67631616Y-141973500D01*
X67593528Y-141738788D01*
X67496920Y-141480224D01*
X67319774Y-141294155D01*
X67088143Y-141184030D01*
X66828079Y-141153297D01*
X66565636Y-141205405D01*
X66326866Y-141343803D01*
X66151929Y-141547957D01*
X66058167Y-141711706D01*
X66018537Y-141827012D01*
X65587000Y-141827012D01*
X65680948Y-141527045D01*
X65861689Y-141216812D01*
X66103874Y-140977167D01*
X66400059Y-140831797D01*
X66403121Y-140830940D01*
X66738808Y-140775141D01*
X67079730Y-140781302D01*
G37*
X67079730Y-140781302D02*
X67368487Y-140848138D01*
X67379906Y-140852791D01*
X67606761Y-140995557D01*
X67814248Y-141207814D01*
X67966872Y-141447164D01*
X68024617Y-141622892D01*
X68060671Y-141854094D01*
X68094127Y-142068750D01*
X68128754Y-142291000D01*
X66027500Y-142291000D01*
X66027500Y-142472109D01*
X66078783Y-142689570D01*
X66210911Y-142915977D01*
X66391304Y-143103149D01*
X66501444Y-143172957D01*
X66725424Y-143234103D01*
X67020758Y-143252394D01*
X67339567Y-143228706D01*
X67633972Y-143163913D01*
X67670608Y-143151579D01*
X67862274Y-143084689D01*
X67960718Y-143066016D01*
X67993686Y-143105097D01*
X67988925Y-143211472D01*
X67984148Y-143259375D01*
X67948817Y-143408454D01*
X67853687Y-143493963D01*
X67742000Y-143537001D01*
X67356285Y-143623348D01*
X66953561Y-143650666D01*
X66590007Y-143616154D01*
X66514384Y-143598238D01*
X66172075Y-143467150D01*
X65917679Y-143273968D01*
X65721325Y-143000128D01*
X65581840Y-142644408D01*
X65533578Y-142264530D01*
X65569096Y-141884180D01*
X65587000Y-141827012D01*
X66018537Y-141827012D01*
X66046525Y-141902344D01*
X66155616Y-141946173D01*
X66359296Y-141966965D01*
X66671051Y-141973191D01*
X66829558Y-141973500D01*
X67631616Y-141973500D01*
X67593528Y-141738788D01*
X67496920Y-141480224D01*
X67319774Y-141294155D01*
X67088143Y-141184030D01*
X66828079Y-141153297D01*
X66565636Y-141205405D01*
X66326866Y-141343803D01*
X66151929Y-141547957D01*
X66058167Y-141711706D01*
X66018537Y-141827012D01*
X65587000Y-141827012D01*
X65680948Y-141527045D01*
X65861689Y-141216812D01*
X66103874Y-140977167D01*
X66400059Y-140831797D01*
X66403121Y-140830940D01*
X66738808Y-140775141D01*
X67079730Y-140781302D01*
G36*
X64757500Y-143632546D02*
G01*
X64551125Y-143612648D01*
X64403351Y-143579792D01*
X64339262Y-143495698D01*
X64324266Y-143414074D01*
X64303782Y-143235399D01*
X64141802Y-143397379D01*
X63872055Y-143581921D01*
X63550743Y-143665882D01*
X63213691Y-143640834D01*
X63164511Y-143627311D01*
X62880799Y-143495820D01*
X62658201Y-143281461D01*
X62494281Y-143008604D01*
X62363414Y-142626084D01*
X62317422Y-142213281D01*
X62317532Y-142212005D01*
X62789000Y-142212005D01*
X62831182Y-142595692D01*
X62949709Y-142902876D01*
X63132553Y-143123700D01*
X63367685Y-143248307D01*
X63643077Y-143266840D01*
X63946701Y-143169441D01*
X63953273Y-143166092D01*
X64092288Y-143031230D01*
X64201795Y-142804541D01*
X64275946Y-142518974D01*
X64308891Y-142207478D01*
X64294782Y-141903003D01*
X64227769Y-141638498D01*
X64225444Y-141632872D01*
X64060231Y-141377023D01*
X63827482Y-141209042D01*
X63553731Y-141148005D01*
X63551000Y-141148000D01*
X63269810Y-141204503D01*
X63046721Y-141367474D01*
X62888758Y-141627106D01*
X62802945Y-141973590D01*
X62789000Y-142212005D01*
X62317532Y-142212005D01*
X62353096Y-141803103D01*
X62467226Y-141428456D01*
X62656603Y-141122246D01*
X62680905Y-141095208D01*
X62955696Y-140886357D01*
X63276137Y-140778789D01*
X63612078Y-140773697D01*
X63933370Y-140872274D01*
X64170125Y-141036298D01*
X64313000Y-141170137D01*
X64313000Y-139751000D01*
X64757500Y-139751000D01*
X64757500Y-143632546D01*
G37*
X64757500Y-143632546D02*
X64551125Y-143612648D01*
X64403351Y-143579792D01*
X64339262Y-143495698D01*
X64324266Y-143414074D01*
X64303782Y-143235399D01*
X64141802Y-143397379D01*
X63872055Y-143581921D01*
X63550743Y-143665882D01*
X63213691Y-143640834D01*
X63164511Y-143627311D01*
X62880799Y-143495820D01*
X62658201Y-143281461D01*
X62494281Y-143008604D01*
X62363414Y-142626084D01*
X62317422Y-142213281D01*
X62317532Y-142212005D01*
X62789000Y-142212005D01*
X62831182Y-142595692D01*
X62949709Y-142902876D01*
X63132553Y-143123700D01*
X63367685Y-143248307D01*
X63643077Y-143266840D01*
X63946701Y-143169441D01*
X63953273Y-143166092D01*
X64092288Y-143031230D01*
X64201795Y-142804541D01*
X64275946Y-142518974D01*
X64308891Y-142207478D01*
X64294782Y-141903003D01*
X64227769Y-141638498D01*
X64225444Y-141632872D01*
X64060231Y-141377023D01*
X63827482Y-141209042D01*
X63553731Y-141148005D01*
X63551000Y-141148000D01*
X63269810Y-141204503D01*
X63046721Y-141367474D01*
X62888758Y-141627106D01*
X62802945Y-141973590D01*
X62789000Y-142212005D01*
X62317532Y-142212005D01*
X62353096Y-141803103D01*
X62467226Y-141428456D01*
X62656603Y-141122246D01*
X62680905Y-141095208D01*
X62955696Y-140886357D01*
X63276137Y-140778789D01*
X63612078Y-140773697D01*
X63933370Y-140872274D01*
X64170125Y-141036298D01*
X64313000Y-141170137D01*
X64313000Y-139751000D01*
X64757500Y-139751000D01*
X64757500Y-143632546D01*
G36*
X59350245Y-139862406D02*
G01*
X59746775Y-139923290D01*
X59788625Y-139933443D01*
X59980522Y-139986325D01*
X60079606Y-140039152D01*
X60116542Y-140121556D01*
X60122000Y-140255575D01*
X60122000Y-140493484D01*
X59788625Y-140378315D01*
X59396322Y-140279196D01*
X59038354Y-140257260D01*
X58729872Y-140306500D01*
X58486026Y-140420909D01*
X58321967Y-140594479D01*
X58252844Y-140821204D01*
X58263749Y-140982927D01*
X58309088Y-141110435D01*
X58403261Y-141212166D01*
X58566113Y-141299091D01*
X58817490Y-141382180D01*
X59128667Y-141461068D01*
X59511151Y-141562476D01*
X59790846Y-141667143D01*
X59991631Y-141787483D01*
X60137385Y-141935909D01*
X60189885Y-142012745D01*
X60284256Y-142262106D01*
X60315967Y-142568164D01*
X60285338Y-142877332D01*
X60192687Y-143136022D01*
X60183105Y-143152124D01*
X59983639Y-143362066D01*
X59690387Y-143520713D01*
X59328590Y-143621046D01*
X58923493Y-143656052D01*
X58502750Y-143619144D01*
X58199469Y-143562555D01*
X57999163Y-143512822D01*
X57879414Y-143456656D01*
X57817805Y-143380773D01*
X57791916Y-143271885D01*
X57784821Y-143193647D01*
X57765393Y-142929997D01*
X58059463Y-143060078D01*
X58308540Y-143146443D01*
X58589597Y-143210814D01*
X58691769Y-143225069D01*
X59106868Y-143233465D01*
X59428617Y-143164822D01*
X59653623Y-143021021D01*
X59778491Y-142803943D01*
X59804500Y-142608354D01*
X59770944Y-142385804D01*
X59660557Y-142214101D01*
X59458757Y-142081230D01*
X59150964Y-141975178D01*
X58988823Y-141936236D01*
X58544030Y-141819135D01*
X58213358Y-141682923D01*
X57984201Y-141516874D01*
X57843958Y-141310262D01*
X57780026Y-141052362D01*
X57772737Y-140901311D01*
X57815365Y-140545859D01*
X57949065Y-140271257D01*
X58183364Y-140060991D01*
X58293883Y-139998012D01*
X58583090Y-139901526D01*
X58948780Y-139855737D01*
X59350245Y-139862406D01*
G37*
X59350245Y-139862406D02*
X59746775Y-139923290D01*
X59788625Y-139933443D01*
X59980522Y-139986325D01*
X60079606Y-140039152D01*
X60116542Y-140121556D01*
X60122000Y-140255575D01*
X60122000Y-140493484D01*
X59788625Y-140378315D01*
X59396322Y-140279196D01*
X59038354Y-140257260D01*
X58729872Y-140306500D01*
X58486026Y-140420909D01*
X58321967Y-140594479D01*
X58252844Y-140821204D01*
X58263749Y-140982927D01*
X58309088Y-141110435D01*
X58403261Y-141212166D01*
X58566113Y-141299091D01*
X58817490Y-141382180D01*
X59128667Y-141461068D01*
X59511151Y-141562476D01*
X59790846Y-141667143D01*
X59991631Y-141787483D01*
X60137385Y-141935909D01*
X60189885Y-142012745D01*
X60284256Y-142262106D01*
X60315967Y-142568164D01*
X60285338Y-142877332D01*
X60192687Y-143136022D01*
X60183105Y-143152124D01*
X59983639Y-143362066D01*
X59690387Y-143520713D01*
X59328590Y-143621046D01*
X58923493Y-143656052D01*
X58502750Y-143619144D01*
X58199469Y-143562555D01*
X57999163Y-143512822D01*
X57879414Y-143456656D01*
X57817805Y-143380773D01*
X57791916Y-143271885D01*
X57784821Y-143193647D01*
X57765393Y-142929997D01*
X58059463Y-143060078D01*
X58308540Y-143146443D01*
X58589597Y-143210814D01*
X58691769Y-143225069D01*
X59106868Y-143233465D01*
X59428617Y-143164822D01*
X59653623Y-143021021D01*
X59778491Y-142803943D01*
X59804500Y-142608354D01*
X59770944Y-142385804D01*
X59660557Y-142214101D01*
X59458757Y-142081230D01*
X59150964Y-141975178D01*
X58988823Y-141936236D01*
X58544030Y-141819135D01*
X58213358Y-141682923D01*
X57984201Y-141516874D01*
X57843958Y-141310262D01*
X57780026Y-141052362D01*
X57772737Y-140901311D01*
X57815365Y-140545859D01*
X57949065Y-140271257D01*
X58183364Y-140060991D01*
X58293883Y-139998012D01*
X58583090Y-139901526D01*
X58948780Y-139855737D01*
X59350245Y-139862406D01*
G36*
X94089717Y-140869588D02*
G01*
X94332625Y-141036298D01*
X94475500Y-141170137D01*
X94475500Y-141000318D01*
X94489974Y-140886565D01*
X94558508Y-140839390D01*
X94701838Y-140830500D01*
X94928176Y-140830500D01*
X94908213Y-142370375D01*
X94899901Y-142899366D01*
X94887750Y-143317442D01*
X94868000Y-143640687D01*
X94836891Y-143885186D01*
X94790661Y-144067023D01*
X94725550Y-144202283D01*
X94637797Y-144307049D01*
X94523642Y-144397408D01*
X94418373Y-144465437D01*
X94217435Y-144544493D01*
X93935805Y-144598864D01*
X93618003Y-144625094D01*
X93308551Y-144619725D01*
X93051970Y-144579300D01*
X93030875Y-144573179D01*
X92887640Y-144511006D01*
X92831974Y-144412756D01*
X92824500Y-144296917D01*
X92824500Y-144083965D01*
X93062625Y-144168945D01*
X93398548Y-144243274D01*
X93747338Y-144244770D01*
X94050987Y-144173249D01*
X94053847Y-144172062D01*
X94256191Y-144022925D01*
X94401096Y-143784796D01*
X94471471Y-143489100D01*
X94475500Y-143396648D01*
X94475500Y-143156239D01*
X94283898Y-143339805D01*
X94153630Y-143445847D01*
X94011305Y-143507073D01*
X93810666Y-143539538D01*
X93679213Y-143549674D01*
X93436669Y-143557863D01*
X93269143Y-143537639D01*
X93125927Y-143478540D01*
X93021258Y-143413928D01*
X92756962Y-143168028D01*
X92582201Y-142837604D01*
X92495367Y-142418922D01*
X92486337Y-142211375D01*
X92955968Y-142211375D01*
X92987084Y-142525875D01*
X93074334Y-142807184D01*
X93218953Y-143025312D01*
X93291407Y-143086947D01*
X93460404Y-143151099D01*
X93692363Y-143177165D01*
X93928550Y-143163379D01*
X94104073Y-143111376D01*
X94252864Y-142967503D01*
X94367900Y-142733492D01*
X94442672Y-142443245D01*
X94470671Y-142130668D01*
X94445385Y-141829664D01*
X94387944Y-141632872D01*
X94219348Y-141373810D01*
X93983457Y-141209027D01*
X93705574Y-141148734D01*
X93410999Y-141203144D01*
X93368174Y-141221265D01*
X93187091Y-141368630D01*
X93057206Y-141602763D01*
X92979754Y-141893675D01*
X92955968Y-142211375D01*
X92486337Y-142211375D01*
X92484424Y-142167412D01*
X92511162Y-141777563D01*
X92598411Y-141467564D01*
X92758991Y-141199559D01*
X92847802Y-141094341D01*
X93116354Y-140886865D01*
X93433578Y-140779437D01*
X93768394Y-140773273D01*
X94089717Y-140869588D01*
G37*
X94089717Y-140869588D02*
X94332625Y-141036298D01*
X94475500Y-141170137D01*
X94475500Y-141000318D01*
X94489974Y-140886565D01*
X94558508Y-140839390D01*
X94701838Y-140830500D01*
X94928176Y-140830500D01*
X94908213Y-142370375D01*
X94899901Y-142899366D01*
X94887750Y-143317442D01*
X94868000Y-143640687D01*
X94836891Y-143885186D01*
X94790661Y-144067023D01*
X94725550Y-144202283D01*
X94637797Y-144307049D01*
X94523642Y-144397408D01*
X94418373Y-144465437D01*
X94217435Y-144544493D01*
X93935805Y-144598864D01*
X93618003Y-144625094D01*
X93308551Y-144619725D01*
X93051970Y-144579300D01*
X93030875Y-144573179D01*
X92887640Y-144511006D01*
X92831974Y-144412756D01*
X92824500Y-144296917D01*
X92824500Y-144083965D01*
X93062625Y-144168945D01*
X93398548Y-144243274D01*
X93747338Y-144244770D01*
X94050987Y-144173249D01*
X94053847Y-144172062D01*
X94256191Y-144022925D01*
X94401096Y-143784796D01*
X94471471Y-143489100D01*
X94475500Y-143396648D01*
X94475500Y-143156239D01*
X94283898Y-143339805D01*
X94153630Y-143445847D01*
X94011305Y-143507073D01*
X93810666Y-143539538D01*
X93679213Y-143549674D01*
X93436669Y-143557863D01*
X93269143Y-143537639D01*
X93125927Y-143478540D01*
X93021258Y-143413928D01*
X92756962Y-143168028D01*
X92582201Y-142837604D01*
X92495367Y-142418922D01*
X92486337Y-142211375D01*
X92955968Y-142211375D01*
X92987084Y-142525875D01*
X93074334Y-142807184D01*
X93218953Y-143025312D01*
X93291407Y-143086947D01*
X93460404Y-143151099D01*
X93692363Y-143177165D01*
X93928550Y-143163379D01*
X94104073Y-143111376D01*
X94252864Y-142967503D01*
X94367900Y-142733492D01*
X94442672Y-142443245D01*
X94470671Y-142130668D01*
X94445385Y-141829664D01*
X94387944Y-141632872D01*
X94219348Y-141373810D01*
X93983457Y-141209027D01*
X93705574Y-141148734D01*
X93410999Y-141203144D01*
X93368174Y-141221265D01*
X93187091Y-141368630D01*
X93057206Y-141602763D01*
X92979754Y-141893675D01*
X92955968Y-142211375D01*
X92486337Y-142211375D01*
X92484424Y-142167412D01*
X92511162Y-141777563D01*
X92598411Y-141467564D01*
X92758991Y-141199559D01*
X92847802Y-141094341D01*
X93116354Y-140886865D01*
X93433578Y-140779437D01*
X93768394Y-140773273D01*
X94089717Y-140869588D01*
D10*
X141100000Y-121000000D02*
X141100000Y-123200000D01*
X136700000Y-121000000D02*
X141100000Y-121000000D01*
X136100000Y-121700000D02*
X136700000Y-121000000D01*
X136100000Y-123200000D02*
X136100000Y-121700000D01*
X141100000Y-123200000D02*
X136100000Y-123200000D01*
X120600000Y-121000000D02*
X120600000Y-123200000D01*
X116200000Y-121000000D02*
X120600000Y-121000000D01*
X115600000Y-121700000D02*
X116200000Y-121000000D01*
X115600000Y-123200000D02*
X115600000Y-121700000D01*
X120600000Y-123200000D02*
X115600000Y-123200000D01*
X102600000Y-121000000D02*
X102600000Y-123200000D01*
X98200000Y-121000000D02*
X102600000Y-121000000D01*
X97600000Y-121700000D02*
X98200000Y-121000000D01*
X97600000Y-123200000D02*
X97600000Y-121700000D01*
X102600000Y-123200000D02*
X97600000Y-123200000D01*
X83100000Y-121000000D02*
X83100000Y-123200000D01*
X78700000Y-121000000D02*
X83100000Y-121000000D01*
X78100000Y-121700000D02*
X78700000Y-121000000D01*
X78100000Y-123200000D02*
X78100000Y-121700000D01*
X83100000Y-123200000D02*
X78100000Y-123200000D01*
X63600000Y-121000000D02*
X63600000Y-123200000D01*
X59200000Y-121000000D02*
X63600000Y-121000000D01*
X58600000Y-121700000D02*
X59200000Y-121000000D01*
X58600000Y-123200000D02*
X58600000Y-121700000D01*
X63600000Y-123200000D02*
X58600000Y-123200000D01*
D12*
X96375000Y-127600000D02*
X94950000Y-127600000D01*
X103625000Y-127375000D02*
X103300000Y-127375000D01*
X103625000Y-134625000D02*
X103300000Y-134625000D01*
X96375000Y-134625000D02*
X96700000Y-134625000D01*
X96375000Y-127375000D02*
X96700000Y-127375000D01*
X96375000Y-134625000D02*
X96375000Y-134300000D01*
X103625000Y-134625000D02*
X103625000Y-134300000D01*
X103625000Y-127375000D02*
X103625000Y-127700000D01*
X96375000Y-127375000D02*
X96375000Y-127600000D01*
D13*
X125700000Y-145800000D02*
X121300000Y-145800000D01*
X121300000Y-145800000D02*
X121300000Y-145920000D01*
X121300000Y-146930000D02*
X121300000Y-148070000D01*
X121300000Y-149080000D02*
X121300000Y-149200000D01*
X121300000Y-149200000D02*
X125700000Y-149200000D01*
X125700000Y-149200000D02*
X125700000Y-149080000D01*
X125700000Y-148070000D02*
X125700000Y-146930000D01*
X125700000Y-145920000D02*
X125700000Y-145800000D01*
X114300000Y-149200000D02*
X118700000Y-149200000D01*
X118700000Y-149200000D02*
X118700000Y-149080000D01*
X118700000Y-148070000D02*
X118700000Y-146930000D01*
X118700000Y-145920000D02*
X118700000Y-145800000D01*
X118700000Y-145800000D02*
X114300000Y-145800000D01*
X114300000Y-145800000D02*
X114300000Y-145920000D01*
X114300000Y-146930000D02*
X114300000Y-148070000D01*
X114300000Y-149080000D02*
X114300000Y-149200000D01*
X73241422Y-148710000D02*
X73758578Y-148710000D01*
X73241422Y-147290000D02*
X73758578Y-147290000D01*
X83741422Y-148710000D02*
X84258578Y-148710000D01*
X83741422Y-147290000D02*
X84258578Y-147290000D01*
X143670000Y-127170000D02*
X145000000Y-127170000D01*
X143670000Y-128500000D02*
X143670000Y-127170000D01*
X143670000Y-129770000D02*
X146330000Y-129770000D01*
X146330000Y-129770000D02*
X146330000Y-142530000D01*
X143670000Y-129770000D02*
X143670000Y-142530000D01*
X143670000Y-142530000D02*
X146330000Y-142530000D01*
X88510000Y-149330000D02*
X88510000Y-148000000D01*
X89840000Y-149330000D02*
X88510000Y-149330000D01*
X91110000Y-149330000D02*
X91110000Y-146670000D01*
X91110000Y-146670000D02*
X111490000Y-146670000D01*
X91110000Y-149330000D02*
X111490000Y-149330000D01*
X111490000Y-149330000D02*
X111490000Y-146670000D01*
X78485000Y-147265000D02*
X76200000Y-147265000D01*
X78485000Y-148735000D02*
X78485000Y-147265000D01*
X76200000Y-148735000D02*
X78485000Y-148735000D01*
X79015000Y-148735000D02*
X81300000Y-148735000D01*
X79015000Y-147265000D02*
X79015000Y-148735000D01*
X81300000Y-147265000D02*
X79015000Y-147265000D01*
X92258578Y-121790000D02*
X91741422Y-121790000D01*
X92258578Y-123210000D02*
X91741422Y-123210000D01*
X107241422Y-123210000D02*
X107758578Y-123210000D01*
X107241422Y-121790000D02*
X107758578Y-121790000D01*
D12*
X99238095Y-130452380D02*
X99238095Y-131261904D01*
X99285714Y-131357142D01*
X99333333Y-131404761D01*
X99428571Y-131452380D01*
X99619047Y-131452380D01*
X99714285Y-131404761D01*
X99761904Y-131357142D01*
X99809523Y-131261904D01*
X99809523Y-130452380D01*
X100809523Y-131452380D02*
X100238095Y-131452380D01*
X100523809Y-131452380D02*
X100523809Y-130452380D01*
X100428571Y-130595238D01*
X100333333Y-130690476D01*
X100238095Y-130738095D01*
X120547619Y-144352380D02*
X120547619Y-145161904D01*
X120595238Y-145257142D01*
X120642857Y-145304761D01*
X120738095Y-145352380D01*
X120928571Y-145352380D01*
X121023809Y-145304761D01*
X121071428Y-145257142D01*
X121119047Y-145161904D01*
X121119047Y-144352380D01*
X121547619Y-145304761D02*
X121642857Y-145352380D01*
X121833333Y-145352380D01*
X121928571Y-145304761D01*
X121976190Y-145209523D01*
X121976190Y-145161904D01*
X121928571Y-145066666D01*
X121833333Y-145019047D01*
X121690476Y-145019047D01*
X121595238Y-144971428D01*
X121547619Y-144876190D01*
X121547619Y-144828571D01*
X121595238Y-144733333D01*
X121690476Y-144685714D01*
X121833333Y-144685714D01*
X121928571Y-144733333D01*
X122785714Y-145304761D02*
X122690476Y-145352380D01*
X122500000Y-145352380D01*
X122404761Y-145304761D01*
X122357142Y-145209523D01*
X122357142Y-144828571D01*
X122404761Y-144733333D01*
X122500000Y-144685714D01*
X122690476Y-144685714D01*
X122785714Y-144733333D01*
X122833333Y-144828571D01*
X122833333Y-144923809D01*
X122357142Y-145019047D01*
X123261904Y-145352380D02*
X123261904Y-144685714D01*
X123261904Y-144876190D02*
X123309523Y-144780952D01*
X123357142Y-144733333D01*
X123452380Y-144685714D01*
X123547619Y-144685714D01*
X124928571Y-145685714D02*
X124690476Y-145685714D01*
X124690476Y-144257142D01*
X124928571Y-144257142D01*
X125833333Y-145352380D02*
X125261904Y-145352380D01*
X125547619Y-145352380D02*
X125547619Y-144352380D01*
X125452380Y-144495238D01*
X125357142Y-144590476D01*
X125261904Y-144638095D01*
X126166666Y-145685714D02*
X126404761Y-145685714D01*
X126404761Y-144257142D01*
X126166666Y-144257142D01*
X115261904Y-145452380D02*
X114928571Y-144976190D01*
X114690476Y-145452380D02*
X114690476Y-144452380D01*
X115071428Y-144452380D01*
X115166666Y-144500000D01*
X115214285Y-144547619D01*
X115261904Y-144642857D01*
X115261904Y-144785714D01*
X115214285Y-144880952D01*
X115166666Y-144928571D01*
X115071428Y-144976190D01*
X114690476Y-144976190D01*
X116071428Y-145404761D02*
X115976190Y-145452380D01*
X115785714Y-145452380D01*
X115690476Y-145404761D01*
X115642857Y-145309523D01*
X115642857Y-144928571D01*
X115690476Y-144833333D01*
X115785714Y-144785714D01*
X115976190Y-144785714D01*
X116071428Y-144833333D01*
X116119047Y-144928571D01*
X116119047Y-145023809D01*
X115642857Y-145119047D01*
X116500000Y-145404761D02*
X116595238Y-145452380D01*
X116785714Y-145452380D01*
X116880952Y-145404761D01*
X116928571Y-145309523D01*
X116928571Y-145261904D01*
X116880952Y-145166666D01*
X116785714Y-145119047D01*
X116642857Y-145119047D01*
X116547619Y-145071428D01*
X116500000Y-144976190D01*
X116500000Y-144928571D01*
X116547619Y-144833333D01*
X116642857Y-144785714D01*
X116785714Y-144785714D01*
X116880952Y-144833333D01*
X117738095Y-145404761D02*
X117642857Y-145452380D01*
X117452380Y-145452380D01*
X117357142Y-145404761D01*
X117309523Y-145309523D01*
X117309523Y-144928571D01*
X117357142Y-144833333D01*
X117452380Y-144785714D01*
X117642857Y-144785714D01*
X117738095Y-144833333D01*
X117785714Y-144928571D01*
X117785714Y-145023809D01*
X117309523Y-145119047D01*
X118071428Y-144785714D02*
X118452380Y-144785714D01*
X118214285Y-144452380D02*
X118214285Y-145309523D01*
X118261904Y-145404761D01*
X118357142Y-145452380D01*
X118452380Y-145452380D01*
X91833333Y-124507142D02*
X91785714Y-124554761D01*
X91642857Y-124602380D01*
X91547619Y-124602380D01*
X91404761Y-124554761D01*
X91309523Y-124459523D01*
X91261904Y-124364285D01*
X91214285Y-124173809D01*
X91214285Y-124030952D01*
X91261904Y-123840476D01*
X91309523Y-123745238D01*
X91404761Y-123650000D01*
X91547619Y-123602380D01*
X91642857Y-123602380D01*
X91785714Y-123650000D01*
X91833333Y-123697619D01*
X92214285Y-123697619D02*
X92261904Y-123650000D01*
X92357142Y-123602380D01*
X92595238Y-123602380D01*
X92690476Y-123650000D01*
X92738095Y-123697619D01*
X92785714Y-123792857D01*
X92785714Y-123888095D01*
X92738095Y-124030952D01*
X92166666Y-124602380D01*
X92785714Y-124602380D01*
X107333333Y-124357142D02*
X107285714Y-124404761D01*
X107142857Y-124452380D01*
X107047619Y-124452380D01*
X106904761Y-124404761D01*
X106809523Y-124309523D01*
X106761904Y-124214285D01*
X106714285Y-124023809D01*
X106714285Y-123880952D01*
X106761904Y-123690476D01*
X106809523Y-123595238D01*
X106904761Y-123500000D01*
X107047619Y-123452380D01*
X107142857Y-123452380D01*
X107285714Y-123500000D01*
X107333333Y-123547619D01*
X108285714Y-124452380D02*
X107714285Y-124452380D01*
X108000000Y-124452380D02*
X108000000Y-123452380D01*
X107904761Y-123595238D01*
X107809523Y-123690476D01*
X107714285Y-123738095D01*
M02*
