G04 #@! TF.GenerationSoftware,KiCad,Pcbnew,(5.0.2)-1*
G04 #@! TF.CreationDate,2019-11-27T21:51:56-08:00*
G04 #@! TF.ProjectId,bsidessd,62736964-6573-4736-942e-6b696361645f,rev?*
G04 #@! TF.SameCoordinates,Original*
G04 #@! TF.FileFunction,Copper,L1,Top*
G04 #@! TF.FilePolarity,Positive*
%FSLAX46Y46*%
G04 Gerber Fmt 4.6, Leading zero omitted, Abs format (unit mm)*
G04 Created by KiCad (PCBNEW (5.0.2)-1) date 11/27/2019 9:51:56 PM*
%MOMM*%
%LPD*%
G01*
G04 APERTURE LIST*
G04 #@! TA.AperFunction,Conductor*
%ADD10C,0.100000*%
G04 #@! TD*
G04 #@! TA.AperFunction,SMDPad,CuDef*
%ADD11C,0.975000*%
G04 #@! TD*
G04 #@! TA.AperFunction,SMDPad,CuDef*
%ADD12R,0.600000X0.450000*%
G04 #@! TD*
G04 #@! TA.AperFunction,SMDPad,CuDef*
%ADD13C,0.875000*%
G04 #@! TD*
G04 #@! TA.AperFunction,SMDPad,CuDef*
%ADD14R,1.500000X1.000000*%
G04 #@! TD*
G04 #@! TA.AperFunction,ComponentPad*
%ADD15R,1.700000X1.700000*%
G04 #@! TD*
G04 #@! TA.AperFunction,ComponentPad*
%ADD16O,1.700000X1.700000*%
G04 #@! TD*
G04 #@! TA.AperFunction,SMDPad,CuDef*
%ADD17R,2.000000X1.350000*%
G04 #@! TD*
G04 #@! TA.AperFunction,SMDPad,CuDef*
%ADD18R,0.700000X1.825000*%
G04 #@! TD*
G04 #@! TA.AperFunction,SMDPad,CuDef*
%ADD19R,1.500000X2.000000*%
G04 #@! TD*
G04 #@! TA.AperFunction,SMDPad,CuDef*
%ADD20R,1.650000X0.400000*%
G04 #@! TD*
G04 #@! TA.AperFunction,ComponentPad*
%ADD21O,1.500000X1.100000*%
G04 #@! TD*
G04 #@! TA.AperFunction,ComponentPad*
%ADD22O,1.700000X1.350000*%
G04 #@! TD*
G04 #@! TA.AperFunction,SMDPad,CuDef*
%ADD23R,2.500000X1.430000*%
G04 #@! TD*
G04 #@! TA.AperFunction,SMDPad,CuDef*
%ADD24R,1.600000X0.550000*%
G04 #@! TD*
G04 #@! TA.AperFunction,SMDPad,CuDef*
%ADD25R,0.550000X1.600000*%
G04 #@! TD*
G04 #@! TA.AperFunction,SMDPad,CuDef*
%ADD26R,0.650000X1.060000*%
G04 #@! TD*
G04 #@! TA.AperFunction,SMDPad,CuDef*
%ADD27R,1.050000X0.650000*%
G04 #@! TD*
G04 #@! TA.AperFunction,ViaPad*
%ADD28C,0.685800*%
G04 #@! TD*
G04 #@! TA.AperFunction,Conductor*
%ADD29C,0.300000*%
G04 #@! TD*
G04 #@! TA.AperFunction,Conductor*
%ADD30C,0.230000*%
G04 #@! TD*
G04 #@! TA.AperFunction,Conductor*
%ADD31C,0.152400*%
G04 #@! TD*
G04 #@! TA.AperFunction,Conductor*
%ADD32C,0.250000*%
G04 #@! TD*
G04 #@! TA.AperFunction,Conductor*
%ADD33C,0.254000*%
G04 #@! TD*
G04 APERTURE END LIST*
D10*
G04 #@! TO.N,+3V3*
G04 #@! TO.C,C1*
G36*
X172177142Y-117411174D02*
X172200803Y-117414684D01*
X172224007Y-117420496D01*
X172246529Y-117428554D01*
X172268153Y-117438782D01*
X172288670Y-117451079D01*
X172307883Y-117465329D01*
X172325607Y-117481393D01*
X172341671Y-117499117D01*
X172355921Y-117518330D01*
X172368218Y-117538847D01*
X172378446Y-117560471D01*
X172386504Y-117582993D01*
X172392316Y-117606197D01*
X172395826Y-117629858D01*
X172397000Y-117653750D01*
X172397000Y-118566250D01*
X172395826Y-118590142D01*
X172392316Y-118613803D01*
X172386504Y-118637007D01*
X172378446Y-118659529D01*
X172368218Y-118681153D01*
X172355921Y-118701670D01*
X172341671Y-118720883D01*
X172325607Y-118738607D01*
X172307883Y-118754671D01*
X172288670Y-118768921D01*
X172268153Y-118781218D01*
X172246529Y-118791446D01*
X172224007Y-118799504D01*
X172200803Y-118805316D01*
X172177142Y-118808826D01*
X172153250Y-118810000D01*
X171665750Y-118810000D01*
X171641858Y-118808826D01*
X171618197Y-118805316D01*
X171594993Y-118799504D01*
X171572471Y-118791446D01*
X171550847Y-118781218D01*
X171530330Y-118768921D01*
X171511117Y-118754671D01*
X171493393Y-118738607D01*
X171477329Y-118720883D01*
X171463079Y-118701670D01*
X171450782Y-118681153D01*
X171440554Y-118659529D01*
X171432496Y-118637007D01*
X171426684Y-118613803D01*
X171423174Y-118590142D01*
X171422000Y-118566250D01*
X171422000Y-117653750D01*
X171423174Y-117629858D01*
X171426684Y-117606197D01*
X171432496Y-117582993D01*
X171440554Y-117560471D01*
X171450782Y-117538847D01*
X171463079Y-117518330D01*
X171477329Y-117499117D01*
X171493393Y-117481393D01*
X171511117Y-117465329D01*
X171530330Y-117451079D01*
X171550847Y-117438782D01*
X171572471Y-117428554D01*
X171594993Y-117420496D01*
X171618197Y-117414684D01*
X171641858Y-117411174D01*
X171665750Y-117410000D01*
X172153250Y-117410000D01*
X172177142Y-117411174D01*
X172177142Y-117411174D01*
G37*
D11*
G04 #@! TD*
G04 #@! TO.P,C1,1*
G04 #@! TO.N,+3V3*
X171909500Y-118110000D03*
D10*
G04 #@! TO.N,GND*
G04 #@! TO.C,C1*
G36*
X174052142Y-117411174D02*
X174075803Y-117414684D01*
X174099007Y-117420496D01*
X174121529Y-117428554D01*
X174143153Y-117438782D01*
X174163670Y-117451079D01*
X174182883Y-117465329D01*
X174200607Y-117481393D01*
X174216671Y-117499117D01*
X174230921Y-117518330D01*
X174243218Y-117538847D01*
X174253446Y-117560471D01*
X174261504Y-117582993D01*
X174267316Y-117606197D01*
X174270826Y-117629858D01*
X174272000Y-117653750D01*
X174272000Y-118566250D01*
X174270826Y-118590142D01*
X174267316Y-118613803D01*
X174261504Y-118637007D01*
X174253446Y-118659529D01*
X174243218Y-118681153D01*
X174230921Y-118701670D01*
X174216671Y-118720883D01*
X174200607Y-118738607D01*
X174182883Y-118754671D01*
X174163670Y-118768921D01*
X174143153Y-118781218D01*
X174121529Y-118791446D01*
X174099007Y-118799504D01*
X174075803Y-118805316D01*
X174052142Y-118808826D01*
X174028250Y-118810000D01*
X173540750Y-118810000D01*
X173516858Y-118808826D01*
X173493197Y-118805316D01*
X173469993Y-118799504D01*
X173447471Y-118791446D01*
X173425847Y-118781218D01*
X173405330Y-118768921D01*
X173386117Y-118754671D01*
X173368393Y-118738607D01*
X173352329Y-118720883D01*
X173338079Y-118701670D01*
X173325782Y-118681153D01*
X173315554Y-118659529D01*
X173307496Y-118637007D01*
X173301684Y-118613803D01*
X173298174Y-118590142D01*
X173297000Y-118566250D01*
X173297000Y-117653750D01*
X173298174Y-117629858D01*
X173301684Y-117606197D01*
X173307496Y-117582993D01*
X173315554Y-117560471D01*
X173325782Y-117538847D01*
X173338079Y-117518330D01*
X173352329Y-117499117D01*
X173368393Y-117481393D01*
X173386117Y-117465329D01*
X173405330Y-117451079D01*
X173425847Y-117438782D01*
X173447471Y-117428554D01*
X173469993Y-117420496D01*
X173493197Y-117414684D01*
X173516858Y-117411174D01*
X173540750Y-117410000D01*
X174028250Y-117410000D01*
X174052142Y-117411174D01*
X174052142Y-117411174D01*
G37*
D11*
G04 #@! TD*
G04 #@! TO.P,C1,2*
G04 #@! TO.N,GND*
X173784500Y-118110000D03*
D10*
G04 #@! TO.N,GND*
G04 #@! TO.C,C2*
G36*
X177582742Y-101586974D02*
X177606403Y-101590484D01*
X177629607Y-101596296D01*
X177652129Y-101604354D01*
X177673753Y-101614582D01*
X177694270Y-101626879D01*
X177713483Y-101641129D01*
X177731207Y-101657193D01*
X177747271Y-101674917D01*
X177761521Y-101694130D01*
X177773818Y-101714647D01*
X177784046Y-101736271D01*
X177792104Y-101758793D01*
X177797916Y-101781997D01*
X177801426Y-101805658D01*
X177802600Y-101829550D01*
X177802600Y-102742050D01*
X177801426Y-102765942D01*
X177797916Y-102789603D01*
X177792104Y-102812807D01*
X177784046Y-102835329D01*
X177773818Y-102856953D01*
X177761521Y-102877470D01*
X177747271Y-102896683D01*
X177731207Y-102914407D01*
X177713483Y-102930471D01*
X177694270Y-102944721D01*
X177673753Y-102957018D01*
X177652129Y-102967246D01*
X177629607Y-102975304D01*
X177606403Y-102981116D01*
X177582742Y-102984626D01*
X177558850Y-102985800D01*
X177071350Y-102985800D01*
X177047458Y-102984626D01*
X177023797Y-102981116D01*
X177000593Y-102975304D01*
X176978071Y-102967246D01*
X176956447Y-102957018D01*
X176935930Y-102944721D01*
X176916717Y-102930471D01*
X176898993Y-102914407D01*
X176882929Y-102896683D01*
X176868679Y-102877470D01*
X176856382Y-102856953D01*
X176846154Y-102835329D01*
X176838096Y-102812807D01*
X176832284Y-102789603D01*
X176828774Y-102765942D01*
X176827600Y-102742050D01*
X176827600Y-101829550D01*
X176828774Y-101805658D01*
X176832284Y-101781997D01*
X176838096Y-101758793D01*
X176846154Y-101736271D01*
X176856382Y-101714647D01*
X176868679Y-101694130D01*
X176882929Y-101674917D01*
X176898993Y-101657193D01*
X176916717Y-101641129D01*
X176935930Y-101626879D01*
X176956447Y-101614582D01*
X176978071Y-101604354D01*
X177000593Y-101596296D01*
X177023797Y-101590484D01*
X177047458Y-101586974D01*
X177071350Y-101585800D01*
X177558850Y-101585800D01*
X177582742Y-101586974D01*
X177582742Y-101586974D01*
G37*
D11*
G04 #@! TD*
G04 #@! TO.P,C2,2*
G04 #@! TO.N,GND*
X177315100Y-102285800D03*
D10*
G04 #@! TO.N,Net-(C2-Pad1)*
G04 #@! TO.C,C2*
G36*
X175707742Y-101586974D02*
X175731403Y-101590484D01*
X175754607Y-101596296D01*
X175777129Y-101604354D01*
X175798753Y-101614582D01*
X175819270Y-101626879D01*
X175838483Y-101641129D01*
X175856207Y-101657193D01*
X175872271Y-101674917D01*
X175886521Y-101694130D01*
X175898818Y-101714647D01*
X175909046Y-101736271D01*
X175917104Y-101758793D01*
X175922916Y-101781997D01*
X175926426Y-101805658D01*
X175927600Y-101829550D01*
X175927600Y-102742050D01*
X175926426Y-102765942D01*
X175922916Y-102789603D01*
X175917104Y-102812807D01*
X175909046Y-102835329D01*
X175898818Y-102856953D01*
X175886521Y-102877470D01*
X175872271Y-102896683D01*
X175856207Y-102914407D01*
X175838483Y-102930471D01*
X175819270Y-102944721D01*
X175798753Y-102957018D01*
X175777129Y-102967246D01*
X175754607Y-102975304D01*
X175731403Y-102981116D01*
X175707742Y-102984626D01*
X175683850Y-102985800D01*
X175196350Y-102985800D01*
X175172458Y-102984626D01*
X175148797Y-102981116D01*
X175125593Y-102975304D01*
X175103071Y-102967246D01*
X175081447Y-102957018D01*
X175060930Y-102944721D01*
X175041717Y-102930471D01*
X175023993Y-102914407D01*
X175007929Y-102896683D01*
X174993679Y-102877470D01*
X174981382Y-102856953D01*
X174971154Y-102835329D01*
X174963096Y-102812807D01*
X174957284Y-102789603D01*
X174953774Y-102765942D01*
X174952600Y-102742050D01*
X174952600Y-101829550D01*
X174953774Y-101805658D01*
X174957284Y-101781997D01*
X174963096Y-101758793D01*
X174971154Y-101736271D01*
X174981382Y-101714647D01*
X174993679Y-101694130D01*
X175007929Y-101674917D01*
X175023993Y-101657193D01*
X175041717Y-101641129D01*
X175060930Y-101626879D01*
X175081447Y-101614582D01*
X175103071Y-101604354D01*
X175125593Y-101596296D01*
X175148797Y-101590484D01*
X175172458Y-101586974D01*
X175196350Y-101585800D01*
X175683850Y-101585800D01*
X175707742Y-101586974D01*
X175707742Y-101586974D01*
G37*
D11*
G04 #@! TD*
G04 #@! TO.P,C2,1*
G04 #@! TO.N,Net-(C2-Pad1)*
X175440100Y-102285800D03*
D10*
G04 #@! TO.N,GND*
G04 #@! TO.C,C3*
G36*
X175855542Y-144639974D02*
X175879203Y-144643484D01*
X175902407Y-144649296D01*
X175924929Y-144657354D01*
X175946553Y-144667582D01*
X175967070Y-144679879D01*
X175986283Y-144694129D01*
X176004007Y-144710193D01*
X176020071Y-144727917D01*
X176034321Y-144747130D01*
X176046618Y-144767647D01*
X176056846Y-144789271D01*
X176064904Y-144811793D01*
X176070716Y-144834997D01*
X176074226Y-144858658D01*
X176075400Y-144882550D01*
X176075400Y-145795050D01*
X176074226Y-145818942D01*
X176070716Y-145842603D01*
X176064904Y-145865807D01*
X176056846Y-145888329D01*
X176046618Y-145909953D01*
X176034321Y-145930470D01*
X176020071Y-145949683D01*
X176004007Y-145967407D01*
X175986283Y-145983471D01*
X175967070Y-145997721D01*
X175946553Y-146010018D01*
X175924929Y-146020246D01*
X175902407Y-146028304D01*
X175879203Y-146034116D01*
X175855542Y-146037626D01*
X175831650Y-146038800D01*
X175344150Y-146038800D01*
X175320258Y-146037626D01*
X175296597Y-146034116D01*
X175273393Y-146028304D01*
X175250871Y-146020246D01*
X175229247Y-146010018D01*
X175208730Y-145997721D01*
X175189517Y-145983471D01*
X175171793Y-145967407D01*
X175155729Y-145949683D01*
X175141479Y-145930470D01*
X175129182Y-145909953D01*
X175118954Y-145888329D01*
X175110896Y-145865807D01*
X175105084Y-145842603D01*
X175101574Y-145818942D01*
X175100400Y-145795050D01*
X175100400Y-144882550D01*
X175101574Y-144858658D01*
X175105084Y-144834997D01*
X175110896Y-144811793D01*
X175118954Y-144789271D01*
X175129182Y-144767647D01*
X175141479Y-144747130D01*
X175155729Y-144727917D01*
X175171793Y-144710193D01*
X175189517Y-144694129D01*
X175208730Y-144679879D01*
X175229247Y-144667582D01*
X175250871Y-144657354D01*
X175273393Y-144649296D01*
X175296597Y-144643484D01*
X175320258Y-144639974D01*
X175344150Y-144638800D01*
X175831650Y-144638800D01*
X175855542Y-144639974D01*
X175855542Y-144639974D01*
G37*
D11*
G04 #@! TD*
G04 #@! TO.P,C3,2*
G04 #@! TO.N,GND*
X175587900Y-145338800D03*
D10*
G04 #@! TO.N,Net-(C3-Pad1)*
G04 #@! TO.C,C3*
G36*
X173980542Y-144639974D02*
X174004203Y-144643484D01*
X174027407Y-144649296D01*
X174049929Y-144657354D01*
X174071553Y-144667582D01*
X174092070Y-144679879D01*
X174111283Y-144694129D01*
X174129007Y-144710193D01*
X174145071Y-144727917D01*
X174159321Y-144747130D01*
X174171618Y-144767647D01*
X174181846Y-144789271D01*
X174189904Y-144811793D01*
X174195716Y-144834997D01*
X174199226Y-144858658D01*
X174200400Y-144882550D01*
X174200400Y-145795050D01*
X174199226Y-145818942D01*
X174195716Y-145842603D01*
X174189904Y-145865807D01*
X174181846Y-145888329D01*
X174171618Y-145909953D01*
X174159321Y-145930470D01*
X174145071Y-145949683D01*
X174129007Y-145967407D01*
X174111283Y-145983471D01*
X174092070Y-145997721D01*
X174071553Y-146010018D01*
X174049929Y-146020246D01*
X174027407Y-146028304D01*
X174004203Y-146034116D01*
X173980542Y-146037626D01*
X173956650Y-146038800D01*
X173469150Y-146038800D01*
X173445258Y-146037626D01*
X173421597Y-146034116D01*
X173398393Y-146028304D01*
X173375871Y-146020246D01*
X173354247Y-146010018D01*
X173333730Y-145997721D01*
X173314517Y-145983471D01*
X173296793Y-145967407D01*
X173280729Y-145949683D01*
X173266479Y-145930470D01*
X173254182Y-145909953D01*
X173243954Y-145888329D01*
X173235896Y-145865807D01*
X173230084Y-145842603D01*
X173226574Y-145818942D01*
X173225400Y-145795050D01*
X173225400Y-144882550D01*
X173226574Y-144858658D01*
X173230084Y-144834997D01*
X173235896Y-144811793D01*
X173243954Y-144789271D01*
X173254182Y-144767647D01*
X173266479Y-144747130D01*
X173280729Y-144727917D01*
X173296793Y-144710193D01*
X173314517Y-144694129D01*
X173333730Y-144679879D01*
X173354247Y-144667582D01*
X173375871Y-144657354D01*
X173398393Y-144649296D01*
X173421597Y-144643484D01*
X173445258Y-144639974D01*
X173469150Y-144638800D01*
X173956650Y-144638800D01*
X173980542Y-144639974D01*
X173980542Y-144639974D01*
G37*
D11*
G04 #@! TD*
G04 #@! TO.P,C3,1*
G04 #@! TO.N,Net-(C3-Pad1)*
X173712900Y-145338800D03*
D10*
G04 #@! TO.N,GND*
G04 #@! TO.C,C4*
G36*
X196942142Y-140017174D02*
X196965803Y-140020684D01*
X196989007Y-140026496D01*
X197011529Y-140034554D01*
X197033153Y-140044782D01*
X197053670Y-140057079D01*
X197072883Y-140071329D01*
X197090607Y-140087393D01*
X197106671Y-140105117D01*
X197120921Y-140124330D01*
X197133218Y-140144847D01*
X197143446Y-140166471D01*
X197151504Y-140188993D01*
X197157316Y-140212197D01*
X197160826Y-140235858D01*
X197162000Y-140259750D01*
X197162000Y-141172250D01*
X197160826Y-141196142D01*
X197157316Y-141219803D01*
X197151504Y-141243007D01*
X197143446Y-141265529D01*
X197133218Y-141287153D01*
X197120921Y-141307670D01*
X197106671Y-141326883D01*
X197090607Y-141344607D01*
X197072883Y-141360671D01*
X197053670Y-141374921D01*
X197033153Y-141387218D01*
X197011529Y-141397446D01*
X196989007Y-141405504D01*
X196965803Y-141411316D01*
X196942142Y-141414826D01*
X196918250Y-141416000D01*
X196430750Y-141416000D01*
X196406858Y-141414826D01*
X196383197Y-141411316D01*
X196359993Y-141405504D01*
X196337471Y-141397446D01*
X196315847Y-141387218D01*
X196295330Y-141374921D01*
X196276117Y-141360671D01*
X196258393Y-141344607D01*
X196242329Y-141326883D01*
X196228079Y-141307670D01*
X196215782Y-141287153D01*
X196205554Y-141265529D01*
X196197496Y-141243007D01*
X196191684Y-141219803D01*
X196188174Y-141196142D01*
X196187000Y-141172250D01*
X196187000Y-140259750D01*
X196188174Y-140235858D01*
X196191684Y-140212197D01*
X196197496Y-140188993D01*
X196205554Y-140166471D01*
X196215782Y-140144847D01*
X196228079Y-140124330D01*
X196242329Y-140105117D01*
X196258393Y-140087393D01*
X196276117Y-140071329D01*
X196295330Y-140057079D01*
X196315847Y-140044782D01*
X196337471Y-140034554D01*
X196359993Y-140026496D01*
X196383197Y-140020684D01*
X196406858Y-140017174D01*
X196430750Y-140016000D01*
X196918250Y-140016000D01*
X196942142Y-140017174D01*
X196942142Y-140017174D01*
G37*
D11*
G04 #@! TD*
G04 #@! TO.P,C4,1*
G04 #@! TO.N,GND*
X196674500Y-140716000D03*
D10*
G04 #@! TO.N,GND*
G04 #@! TO.C,C4*
G36*
X198817142Y-140017174D02*
X198840803Y-140020684D01*
X198864007Y-140026496D01*
X198886529Y-140034554D01*
X198908153Y-140044782D01*
X198928670Y-140057079D01*
X198947883Y-140071329D01*
X198965607Y-140087393D01*
X198981671Y-140105117D01*
X198995921Y-140124330D01*
X199008218Y-140144847D01*
X199018446Y-140166471D01*
X199026504Y-140188993D01*
X199032316Y-140212197D01*
X199035826Y-140235858D01*
X199037000Y-140259750D01*
X199037000Y-141172250D01*
X199035826Y-141196142D01*
X199032316Y-141219803D01*
X199026504Y-141243007D01*
X199018446Y-141265529D01*
X199008218Y-141287153D01*
X198995921Y-141307670D01*
X198981671Y-141326883D01*
X198965607Y-141344607D01*
X198947883Y-141360671D01*
X198928670Y-141374921D01*
X198908153Y-141387218D01*
X198886529Y-141397446D01*
X198864007Y-141405504D01*
X198840803Y-141411316D01*
X198817142Y-141414826D01*
X198793250Y-141416000D01*
X198305750Y-141416000D01*
X198281858Y-141414826D01*
X198258197Y-141411316D01*
X198234993Y-141405504D01*
X198212471Y-141397446D01*
X198190847Y-141387218D01*
X198170330Y-141374921D01*
X198151117Y-141360671D01*
X198133393Y-141344607D01*
X198117329Y-141326883D01*
X198103079Y-141307670D01*
X198090782Y-141287153D01*
X198080554Y-141265529D01*
X198072496Y-141243007D01*
X198066684Y-141219803D01*
X198063174Y-141196142D01*
X198062000Y-141172250D01*
X198062000Y-140259750D01*
X198063174Y-140235858D01*
X198066684Y-140212197D01*
X198072496Y-140188993D01*
X198080554Y-140166471D01*
X198090782Y-140144847D01*
X198103079Y-140124330D01*
X198117329Y-140105117D01*
X198133393Y-140087393D01*
X198151117Y-140071329D01*
X198170330Y-140057079D01*
X198190847Y-140044782D01*
X198212471Y-140034554D01*
X198234993Y-140026496D01*
X198258197Y-140020684D01*
X198281858Y-140017174D01*
X198305750Y-140016000D01*
X198793250Y-140016000D01*
X198817142Y-140017174D01*
X198817142Y-140017174D01*
G37*
D11*
G04 #@! TD*
G04 #@! TO.P,C4,2*
G04 #@! TO.N,GND*
X198549500Y-140716000D03*
D10*
G04 #@! TO.N,+3V3*
G04 #@! TO.C,C5*
G36*
X174160642Y-136080174D02*
X174184303Y-136083684D01*
X174207507Y-136089496D01*
X174230029Y-136097554D01*
X174251653Y-136107782D01*
X174272170Y-136120079D01*
X174291383Y-136134329D01*
X174309107Y-136150393D01*
X174325171Y-136168117D01*
X174339421Y-136187330D01*
X174351718Y-136207847D01*
X174361946Y-136229471D01*
X174370004Y-136251993D01*
X174375816Y-136275197D01*
X174379326Y-136298858D01*
X174380500Y-136322750D01*
X174380500Y-137235250D01*
X174379326Y-137259142D01*
X174375816Y-137282803D01*
X174370004Y-137306007D01*
X174361946Y-137328529D01*
X174351718Y-137350153D01*
X174339421Y-137370670D01*
X174325171Y-137389883D01*
X174309107Y-137407607D01*
X174291383Y-137423671D01*
X174272170Y-137437921D01*
X174251653Y-137450218D01*
X174230029Y-137460446D01*
X174207507Y-137468504D01*
X174184303Y-137474316D01*
X174160642Y-137477826D01*
X174136750Y-137479000D01*
X173649250Y-137479000D01*
X173625358Y-137477826D01*
X173601697Y-137474316D01*
X173578493Y-137468504D01*
X173555971Y-137460446D01*
X173534347Y-137450218D01*
X173513830Y-137437921D01*
X173494617Y-137423671D01*
X173476893Y-137407607D01*
X173460829Y-137389883D01*
X173446579Y-137370670D01*
X173434282Y-137350153D01*
X173424054Y-137328529D01*
X173415996Y-137306007D01*
X173410184Y-137282803D01*
X173406674Y-137259142D01*
X173405500Y-137235250D01*
X173405500Y-136322750D01*
X173406674Y-136298858D01*
X173410184Y-136275197D01*
X173415996Y-136251993D01*
X173424054Y-136229471D01*
X173434282Y-136207847D01*
X173446579Y-136187330D01*
X173460829Y-136168117D01*
X173476893Y-136150393D01*
X173494617Y-136134329D01*
X173513830Y-136120079D01*
X173534347Y-136107782D01*
X173555971Y-136097554D01*
X173578493Y-136089496D01*
X173601697Y-136083684D01*
X173625358Y-136080174D01*
X173649250Y-136079000D01*
X174136750Y-136079000D01*
X174160642Y-136080174D01*
X174160642Y-136080174D01*
G37*
D11*
G04 #@! TD*
G04 #@! TO.P,C5,1*
G04 #@! TO.N,+3V3*
X173893000Y-136779000D03*
D10*
G04 #@! TO.N,GND*
G04 #@! TO.C,C5*
G36*
X176035642Y-136080174D02*
X176059303Y-136083684D01*
X176082507Y-136089496D01*
X176105029Y-136097554D01*
X176126653Y-136107782D01*
X176147170Y-136120079D01*
X176166383Y-136134329D01*
X176184107Y-136150393D01*
X176200171Y-136168117D01*
X176214421Y-136187330D01*
X176226718Y-136207847D01*
X176236946Y-136229471D01*
X176245004Y-136251993D01*
X176250816Y-136275197D01*
X176254326Y-136298858D01*
X176255500Y-136322750D01*
X176255500Y-137235250D01*
X176254326Y-137259142D01*
X176250816Y-137282803D01*
X176245004Y-137306007D01*
X176236946Y-137328529D01*
X176226718Y-137350153D01*
X176214421Y-137370670D01*
X176200171Y-137389883D01*
X176184107Y-137407607D01*
X176166383Y-137423671D01*
X176147170Y-137437921D01*
X176126653Y-137450218D01*
X176105029Y-137460446D01*
X176082507Y-137468504D01*
X176059303Y-137474316D01*
X176035642Y-137477826D01*
X176011750Y-137479000D01*
X175524250Y-137479000D01*
X175500358Y-137477826D01*
X175476697Y-137474316D01*
X175453493Y-137468504D01*
X175430971Y-137460446D01*
X175409347Y-137450218D01*
X175388830Y-137437921D01*
X175369617Y-137423671D01*
X175351893Y-137407607D01*
X175335829Y-137389883D01*
X175321579Y-137370670D01*
X175309282Y-137350153D01*
X175299054Y-137328529D01*
X175290996Y-137306007D01*
X175285184Y-137282803D01*
X175281674Y-137259142D01*
X175280500Y-137235250D01*
X175280500Y-136322750D01*
X175281674Y-136298858D01*
X175285184Y-136275197D01*
X175290996Y-136251993D01*
X175299054Y-136229471D01*
X175309282Y-136207847D01*
X175321579Y-136187330D01*
X175335829Y-136168117D01*
X175351893Y-136150393D01*
X175369617Y-136134329D01*
X175388830Y-136120079D01*
X175409347Y-136107782D01*
X175430971Y-136097554D01*
X175453493Y-136089496D01*
X175476697Y-136083684D01*
X175500358Y-136080174D01*
X175524250Y-136079000D01*
X176011750Y-136079000D01*
X176035642Y-136080174D01*
X176035642Y-136080174D01*
G37*
D11*
G04 #@! TD*
G04 #@! TO.P,C5,2*
G04 #@! TO.N,GND*
X175768000Y-136779000D03*
D12*
G04 #@! TO.P,D1,2*
G04 #@! TO.N,VBAT*
X181390000Y-144526000D03*
G04 #@! TO.P,D1,1*
G04 #@! TO.N,Net-(C3-Pad1)*
X179290000Y-144526000D03*
G04 #@! TD*
D10*
G04 #@! TO.N,Net-(D2-Pad2)*
G04 #@! TO.C,D2*
G36*
X180046691Y-117636053D02*
X180067926Y-117639203D01*
X180088750Y-117644419D01*
X180108962Y-117651651D01*
X180128368Y-117660830D01*
X180146781Y-117671866D01*
X180164024Y-117684654D01*
X180179930Y-117699070D01*
X180194346Y-117714976D01*
X180207134Y-117732219D01*
X180218170Y-117750632D01*
X180227349Y-117770038D01*
X180234581Y-117790250D01*
X180239797Y-117811074D01*
X180242947Y-117832309D01*
X180244000Y-117853750D01*
X180244000Y-118366250D01*
X180242947Y-118387691D01*
X180239797Y-118408926D01*
X180234581Y-118429750D01*
X180227349Y-118449962D01*
X180218170Y-118469368D01*
X180207134Y-118487781D01*
X180194346Y-118505024D01*
X180179930Y-118520930D01*
X180164024Y-118535346D01*
X180146781Y-118548134D01*
X180128368Y-118559170D01*
X180108962Y-118568349D01*
X180088750Y-118575581D01*
X180067926Y-118580797D01*
X180046691Y-118583947D01*
X180025250Y-118585000D01*
X179587750Y-118585000D01*
X179566309Y-118583947D01*
X179545074Y-118580797D01*
X179524250Y-118575581D01*
X179504038Y-118568349D01*
X179484632Y-118559170D01*
X179466219Y-118548134D01*
X179448976Y-118535346D01*
X179433070Y-118520930D01*
X179418654Y-118505024D01*
X179405866Y-118487781D01*
X179394830Y-118469368D01*
X179385651Y-118449962D01*
X179378419Y-118429750D01*
X179373203Y-118408926D01*
X179370053Y-118387691D01*
X179369000Y-118366250D01*
X179369000Y-117853750D01*
X179370053Y-117832309D01*
X179373203Y-117811074D01*
X179378419Y-117790250D01*
X179385651Y-117770038D01*
X179394830Y-117750632D01*
X179405866Y-117732219D01*
X179418654Y-117714976D01*
X179433070Y-117699070D01*
X179448976Y-117684654D01*
X179466219Y-117671866D01*
X179484632Y-117660830D01*
X179504038Y-117651651D01*
X179524250Y-117644419D01*
X179545074Y-117639203D01*
X179566309Y-117636053D01*
X179587750Y-117635000D01*
X180025250Y-117635000D01*
X180046691Y-117636053D01*
X180046691Y-117636053D01*
G37*
D13*
G04 #@! TD*
G04 #@! TO.P,D2,2*
G04 #@! TO.N,Net-(D2-Pad2)*
X179806500Y-118110000D03*
D10*
G04 #@! TO.N,GND*
G04 #@! TO.C,D2*
G36*
X181621691Y-117636053D02*
X181642926Y-117639203D01*
X181663750Y-117644419D01*
X181683962Y-117651651D01*
X181703368Y-117660830D01*
X181721781Y-117671866D01*
X181739024Y-117684654D01*
X181754930Y-117699070D01*
X181769346Y-117714976D01*
X181782134Y-117732219D01*
X181793170Y-117750632D01*
X181802349Y-117770038D01*
X181809581Y-117790250D01*
X181814797Y-117811074D01*
X181817947Y-117832309D01*
X181819000Y-117853750D01*
X181819000Y-118366250D01*
X181817947Y-118387691D01*
X181814797Y-118408926D01*
X181809581Y-118429750D01*
X181802349Y-118449962D01*
X181793170Y-118469368D01*
X181782134Y-118487781D01*
X181769346Y-118505024D01*
X181754930Y-118520930D01*
X181739024Y-118535346D01*
X181721781Y-118548134D01*
X181703368Y-118559170D01*
X181683962Y-118568349D01*
X181663750Y-118575581D01*
X181642926Y-118580797D01*
X181621691Y-118583947D01*
X181600250Y-118585000D01*
X181162750Y-118585000D01*
X181141309Y-118583947D01*
X181120074Y-118580797D01*
X181099250Y-118575581D01*
X181079038Y-118568349D01*
X181059632Y-118559170D01*
X181041219Y-118548134D01*
X181023976Y-118535346D01*
X181008070Y-118520930D01*
X180993654Y-118505024D01*
X180980866Y-118487781D01*
X180969830Y-118469368D01*
X180960651Y-118449962D01*
X180953419Y-118429750D01*
X180948203Y-118408926D01*
X180945053Y-118387691D01*
X180944000Y-118366250D01*
X180944000Y-117853750D01*
X180945053Y-117832309D01*
X180948203Y-117811074D01*
X180953419Y-117790250D01*
X180960651Y-117770038D01*
X180969830Y-117750632D01*
X180980866Y-117732219D01*
X180993654Y-117714976D01*
X181008070Y-117699070D01*
X181023976Y-117684654D01*
X181041219Y-117671866D01*
X181059632Y-117660830D01*
X181079038Y-117651651D01*
X181099250Y-117644419D01*
X181120074Y-117639203D01*
X181141309Y-117636053D01*
X181162750Y-117635000D01*
X181600250Y-117635000D01*
X181621691Y-117636053D01*
X181621691Y-117636053D01*
G37*
D13*
G04 #@! TD*
G04 #@! TO.P,D2,1*
G04 #@! TO.N,GND*
X181381500Y-118110000D03*
D14*
G04 #@! TO.P,D3,3*
G04 #@! TO.N,GND*
X161708000Y-126568000D03*
G04 #@! TO.P,D3,4*
G04 #@! TO.N,/LED*
X161708000Y-123368000D03*
G04 #@! TO.P,D3,2*
G04 #@! TO.N,Net-(D3-Pad2)*
X156808000Y-126568000D03*
G04 #@! TO.P,D3,1*
G04 #@! TO.N,+3V3*
X156808000Y-123368000D03*
G04 #@! TD*
D12*
G04 #@! TO.P,D4,1*
G04 #@! TO.N,Net-(C3-Pad1)*
X179188400Y-140970000D03*
G04 #@! TO.P,D4,2*
G04 #@! TO.N,VBUS*
X181288400Y-140970000D03*
G04 #@! TD*
D14*
G04 #@! TO.P,D5,3*
G04 #@! TO.N,GND*
X169582000Y-126568000D03*
G04 #@! TO.P,D5,4*
G04 #@! TO.N,Net-(D3-Pad2)*
X169582000Y-123368000D03*
G04 #@! TO.P,D5,2*
G04 #@! TO.N,Net-(D5-Pad2)*
X164682000Y-126568000D03*
G04 #@! TO.P,D5,1*
G04 #@! TO.N,+3V3*
X164682000Y-123368000D03*
G04 #@! TD*
D10*
G04 #@! TO.N,GND*
G04 #@! TO.C,D6*
G36*
X168032691Y-144737853D02*
X168053926Y-144741003D01*
X168074750Y-144746219D01*
X168094962Y-144753451D01*
X168114368Y-144762630D01*
X168132781Y-144773666D01*
X168150024Y-144786454D01*
X168165930Y-144800870D01*
X168180346Y-144816776D01*
X168193134Y-144834019D01*
X168204170Y-144852432D01*
X168213349Y-144871838D01*
X168220581Y-144892050D01*
X168225797Y-144912874D01*
X168228947Y-144934109D01*
X168230000Y-144955550D01*
X168230000Y-145468050D01*
X168228947Y-145489491D01*
X168225797Y-145510726D01*
X168220581Y-145531550D01*
X168213349Y-145551762D01*
X168204170Y-145571168D01*
X168193134Y-145589581D01*
X168180346Y-145606824D01*
X168165930Y-145622730D01*
X168150024Y-145637146D01*
X168132781Y-145649934D01*
X168114368Y-145660970D01*
X168094962Y-145670149D01*
X168074750Y-145677381D01*
X168053926Y-145682597D01*
X168032691Y-145685747D01*
X168011250Y-145686800D01*
X167573750Y-145686800D01*
X167552309Y-145685747D01*
X167531074Y-145682597D01*
X167510250Y-145677381D01*
X167490038Y-145670149D01*
X167470632Y-145660970D01*
X167452219Y-145649934D01*
X167434976Y-145637146D01*
X167419070Y-145622730D01*
X167404654Y-145606824D01*
X167391866Y-145589581D01*
X167380830Y-145571168D01*
X167371651Y-145551762D01*
X167364419Y-145531550D01*
X167359203Y-145510726D01*
X167356053Y-145489491D01*
X167355000Y-145468050D01*
X167355000Y-144955550D01*
X167356053Y-144934109D01*
X167359203Y-144912874D01*
X167364419Y-144892050D01*
X167371651Y-144871838D01*
X167380830Y-144852432D01*
X167391866Y-144834019D01*
X167404654Y-144816776D01*
X167419070Y-144800870D01*
X167434976Y-144786454D01*
X167452219Y-144773666D01*
X167470632Y-144762630D01*
X167490038Y-144753451D01*
X167510250Y-144746219D01*
X167531074Y-144741003D01*
X167552309Y-144737853D01*
X167573750Y-144736800D01*
X168011250Y-144736800D01*
X168032691Y-144737853D01*
X168032691Y-144737853D01*
G37*
D13*
G04 #@! TD*
G04 #@! TO.P,D6,1*
G04 #@! TO.N,GND*
X167792500Y-145211800D03*
D10*
G04 #@! TO.N,Net-(D6-Pad2)*
G04 #@! TO.C,D6*
G36*
X166457691Y-144737853D02*
X166478926Y-144741003D01*
X166499750Y-144746219D01*
X166519962Y-144753451D01*
X166539368Y-144762630D01*
X166557781Y-144773666D01*
X166575024Y-144786454D01*
X166590930Y-144800870D01*
X166605346Y-144816776D01*
X166618134Y-144834019D01*
X166629170Y-144852432D01*
X166638349Y-144871838D01*
X166645581Y-144892050D01*
X166650797Y-144912874D01*
X166653947Y-144934109D01*
X166655000Y-144955550D01*
X166655000Y-145468050D01*
X166653947Y-145489491D01*
X166650797Y-145510726D01*
X166645581Y-145531550D01*
X166638349Y-145551762D01*
X166629170Y-145571168D01*
X166618134Y-145589581D01*
X166605346Y-145606824D01*
X166590930Y-145622730D01*
X166575024Y-145637146D01*
X166557781Y-145649934D01*
X166539368Y-145660970D01*
X166519962Y-145670149D01*
X166499750Y-145677381D01*
X166478926Y-145682597D01*
X166457691Y-145685747D01*
X166436250Y-145686800D01*
X165998750Y-145686800D01*
X165977309Y-145685747D01*
X165956074Y-145682597D01*
X165935250Y-145677381D01*
X165915038Y-145670149D01*
X165895632Y-145660970D01*
X165877219Y-145649934D01*
X165859976Y-145637146D01*
X165844070Y-145622730D01*
X165829654Y-145606824D01*
X165816866Y-145589581D01*
X165805830Y-145571168D01*
X165796651Y-145551762D01*
X165789419Y-145531550D01*
X165784203Y-145510726D01*
X165781053Y-145489491D01*
X165780000Y-145468050D01*
X165780000Y-144955550D01*
X165781053Y-144934109D01*
X165784203Y-144912874D01*
X165789419Y-144892050D01*
X165796651Y-144871838D01*
X165805830Y-144852432D01*
X165816866Y-144834019D01*
X165829654Y-144816776D01*
X165844070Y-144800870D01*
X165859976Y-144786454D01*
X165877219Y-144773666D01*
X165895632Y-144762630D01*
X165915038Y-144753451D01*
X165935250Y-144746219D01*
X165956074Y-144741003D01*
X165977309Y-144737853D01*
X165998750Y-144736800D01*
X166436250Y-144736800D01*
X166457691Y-144737853D01*
X166457691Y-144737853D01*
G37*
D13*
G04 #@! TD*
G04 #@! TO.P,D6,2*
G04 #@! TO.N,Net-(D6-Pad2)*
X166217500Y-145211800D03*
D14*
G04 #@! TO.P,D7,1*
G04 #@! TO.N,+3V3*
X172556000Y-123368000D03*
G04 #@! TO.P,D7,2*
G04 #@! TO.N,Net-(D7-Pad2)*
X172556000Y-126568000D03*
G04 #@! TO.P,D7,4*
G04 #@! TO.N,Net-(D5-Pad2)*
X177456000Y-123368000D03*
G04 #@! TO.P,D7,3*
G04 #@! TO.N,GND*
X177456000Y-126568000D03*
G04 #@! TD*
G04 #@! TO.P,D8,3*
G04 #@! TO.N,GND*
X185330000Y-126568000D03*
G04 #@! TO.P,D8,4*
G04 #@! TO.N,Net-(D7-Pad2)*
X185330000Y-123368000D03*
G04 #@! TO.P,D8,2*
G04 #@! TO.N,Net-(D8-Pad2)*
X180430000Y-126568000D03*
G04 #@! TO.P,D8,1*
G04 #@! TO.N,+3V3*
X180430000Y-123368000D03*
G04 #@! TD*
G04 #@! TO.P,D9,1*
G04 #@! TO.N,+3V3*
X188278600Y-123368000D03*
G04 #@! TO.P,D9,2*
G04 #@! TO.N,Net-(D9-Pad2)*
X188278600Y-126568000D03*
G04 #@! TO.P,D9,4*
G04 #@! TO.N,Net-(D8-Pad2)*
X193178600Y-123368000D03*
G04 #@! TO.P,D9,3*
G04 #@! TO.N,GND*
X193178600Y-126568000D03*
G04 #@! TD*
D15*
G04 #@! TO.P,J1,1*
G04 #@! TO.N,VBAT*
X157556200Y-102260400D03*
D16*
G04 #@! TO.P,J1,2*
G04 #@! TO.N,GND*
X160096200Y-102260400D03*
G04 #@! TO.P,J1,3*
G04 #@! TO.N,/D4_A2_PAU06_TXD_MOSI*
X162636200Y-102260400D03*
G04 #@! TO.P,J1,4*
G04 #@! TO.N,/D3_A3_PAU07_RXD_SCK*
X165176200Y-102260400D03*
G04 #@! TO.P,J1,5*
G04 #@! TO.N,/~RESET*
X167716200Y-102260400D03*
G04 #@! TD*
G04 #@! TO.P,J2,5*
G04 #@! TO.N,VBUS*
X152654000Y-113792000D03*
G04 #@! TO.P,J2,4*
G04 #@! TO.N,/D0_A4_PAU08_SDA*
X152654000Y-111252000D03*
G04 #@! TO.P,J2,3*
G04 #@! TO.N,/D1_A0_PAU02*
X152654000Y-108712000D03*
G04 #@! TO.P,J2,2*
G04 #@! TO.N,/D2_A1_PAU09_SCL_MISO*
X152654000Y-106172000D03*
D15*
G04 #@! TO.P,J2,1*
G04 #@! TO.N,+3V3*
X152654000Y-103632000D03*
G04 #@! TD*
D17*
G04 #@! TO.P,J3,6*
G04 #@! TO.N,GND*
X196157000Y-137853000D03*
X196157000Y-132373000D03*
D18*
X196907000Y-132153000D03*
X196907000Y-138103000D03*
D19*
X198207000Y-132253000D03*
X198227000Y-138003000D03*
D20*
G04 #@! TO.P,J3,1*
G04 #@! TO.N,VBUS*
X198107000Y-133803000D03*
G04 #@! TO.P,J3,2*
G04 #@! TO.N,/D-*
X198107000Y-134453000D03*
G04 #@! TO.P,J3,3*
G04 #@! TO.N,/D+*
X198107000Y-135103000D03*
G04 #@! TO.P,J3,4*
G04 #@! TO.N,Net-(J3-Pad4)*
X198107000Y-135753000D03*
G04 #@! TO.P,J3,5*
G04 #@! TO.N,GND*
X198107000Y-136403000D03*
D21*
G04 #@! TO.P,J3,6*
X198227000Y-132683000D03*
X198227000Y-137523000D03*
D22*
X195227000Y-132373000D03*
X195227000Y-137833000D03*
D23*
X194957000Y-134143000D03*
X194957000Y-136063000D03*
G04 #@! TD*
D10*
G04 #@! TO.N,Net-(R1-Pad2)*
G04 #@! TO.C,R1*
G36*
X176368142Y-117411174D02*
X176391803Y-117414684D01*
X176415007Y-117420496D01*
X176437529Y-117428554D01*
X176459153Y-117438782D01*
X176479670Y-117451079D01*
X176498883Y-117465329D01*
X176516607Y-117481393D01*
X176532671Y-117499117D01*
X176546921Y-117518330D01*
X176559218Y-117538847D01*
X176569446Y-117560471D01*
X176577504Y-117582993D01*
X176583316Y-117606197D01*
X176586826Y-117629858D01*
X176588000Y-117653750D01*
X176588000Y-118566250D01*
X176586826Y-118590142D01*
X176583316Y-118613803D01*
X176577504Y-118637007D01*
X176569446Y-118659529D01*
X176559218Y-118681153D01*
X176546921Y-118701670D01*
X176532671Y-118720883D01*
X176516607Y-118738607D01*
X176498883Y-118754671D01*
X176479670Y-118768921D01*
X176459153Y-118781218D01*
X176437529Y-118791446D01*
X176415007Y-118799504D01*
X176391803Y-118805316D01*
X176368142Y-118808826D01*
X176344250Y-118810000D01*
X175856750Y-118810000D01*
X175832858Y-118808826D01*
X175809197Y-118805316D01*
X175785993Y-118799504D01*
X175763471Y-118791446D01*
X175741847Y-118781218D01*
X175721330Y-118768921D01*
X175702117Y-118754671D01*
X175684393Y-118738607D01*
X175668329Y-118720883D01*
X175654079Y-118701670D01*
X175641782Y-118681153D01*
X175631554Y-118659529D01*
X175623496Y-118637007D01*
X175617684Y-118613803D01*
X175614174Y-118590142D01*
X175613000Y-118566250D01*
X175613000Y-117653750D01*
X175614174Y-117629858D01*
X175617684Y-117606197D01*
X175623496Y-117582993D01*
X175631554Y-117560471D01*
X175641782Y-117538847D01*
X175654079Y-117518330D01*
X175668329Y-117499117D01*
X175684393Y-117481393D01*
X175702117Y-117465329D01*
X175721330Y-117451079D01*
X175741847Y-117438782D01*
X175763471Y-117428554D01*
X175785993Y-117420496D01*
X175809197Y-117414684D01*
X175832858Y-117411174D01*
X175856750Y-117410000D01*
X176344250Y-117410000D01*
X176368142Y-117411174D01*
X176368142Y-117411174D01*
G37*
D11*
G04 #@! TD*
G04 #@! TO.P,R1,2*
G04 #@! TO.N,Net-(R1-Pad2)*
X176100500Y-118110000D03*
D10*
G04 #@! TO.N,Net-(D2-Pad2)*
G04 #@! TO.C,R1*
G36*
X178243142Y-117411174D02*
X178266803Y-117414684D01*
X178290007Y-117420496D01*
X178312529Y-117428554D01*
X178334153Y-117438782D01*
X178354670Y-117451079D01*
X178373883Y-117465329D01*
X178391607Y-117481393D01*
X178407671Y-117499117D01*
X178421921Y-117518330D01*
X178434218Y-117538847D01*
X178444446Y-117560471D01*
X178452504Y-117582993D01*
X178458316Y-117606197D01*
X178461826Y-117629858D01*
X178463000Y-117653750D01*
X178463000Y-118566250D01*
X178461826Y-118590142D01*
X178458316Y-118613803D01*
X178452504Y-118637007D01*
X178444446Y-118659529D01*
X178434218Y-118681153D01*
X178421921Y-118701670D01*
X178407671Y-118720883D01*
X178391607Y-118738607D01*
X178373883Y-118754671D01*
X178354670Y-118768921D01*
X178334153Y-118781218D01*
X178312529Y-118791446D01*
X178290007Y-118799504D01*
X178266803Y-118805316D01*
X178243142Y-118808826D01*
X178219250Y-118810000D01*
X177731750Y-118810000D01*
X177707858Y-118808826D01*
X177684197Y-118805316D01*
X177660993Y-118799504D01*
X177638471Y-118791446D01*
X177616847Y-118781218D01*
X177596330Y-118768921D01*
X177577117Y-118754671D01*
X177559393Y-118738607D01*
X177543329Y-118720883D01*
X177529079Y-118701670D01*
X177516782Y-118681153D01*
X177506554Y-118659529D01*
X177498496Y-118637007D01*
X177492684Y-118613803D01*
X177489174Y-118590142D01*
X177488000Y-118566250D01*
X177488000Y-117653750D01*
X177489174Y-117629858D01*
X177492684Y-117606197D01*
X177498496Y-117582993D01*
X177506554Y-117560471D01*
X177516782Y-117538847D01*
X177529079Y-117518330D01*
X177543329Y-117499117D01*
X177559393Y-117481393D01*
X177577117Y-117465329D01*
X177596330Y-117451079D01*
X177616847Y-117438782D01*
X177638471Y-117428554D01*
X177660993Y-117420496D01*
X177684197Y-117414684D01*
X177707858Y-117411174D01*
X177731750Y-117410000D01*
X178219250Y-117410000D01*
X178243142Y-117411174D01*
X178243142Y-117411174D01*
G37*
D11*
G04 #@! TD*
G04 #@! TO.P,R1,1*
G04 #@! TO.N,Net-(D2-Pad2)*
X177975500Y-118110000D03*
D10*
G04 #@! TO.N,+3V3*
G04 #@! TO.C,R2*
G36*
X162779142Y-144512974D02*
X162802803Y-144516484D01*
X162826007Y-144522296D01*
X162848529Y-144530354D01*
X162870153Y-144540582D01*
X162890670Y-144552879D01*
X162909883Y-144567129D01*
X162927607Y-144583193D01*
X162943671Y-144600917D01*
X162957921Y-144620130D01*
X162970218Y-144640647D01*
X162980446Y-144662271D01*
X162988504Y-144684793D01*
X162994316Y-144707997D01*
X162997826Y-144731658D01*
X162999000Y-144755550D01*
X162999000Y-145668050D01*
X162997826Y-145691942D01*
X162994316Y-145715603D01*
X162988504Y-145738807D01*
X162980446Y-145761329D01*
X162970218Y-145782953D01*
X162957921Y-145803470D01*
X162943671Y-145822683D01*
X162927607Y-145840407D01*
X162909883Y-145856471D01*
X162890670Y-145870721D01*
X162870153Y-145883018D01*
X162848529Y-145893246D01*
X162826007Y-145901304D01*
X162802803Y-145907116D01*
X162779142Y-145910626D01*
X162755250Y-145911800D01*
X162267750Y-145911800D01*
X162243858Y-145910626D01*
X162220197Y-145907116D01*
X162196993Y-145901304D01*
X162174471Y-145893246D01*
X162152847Y-145883018D01*
X162132330Y-145870721D01*
X162113117Y-145856471D01*
X162095393Y-145840407D01*
X162079329Y-145822683D01*
X162065079Y-145803470D01*
X162052782Y-145782953D01*
X162042554Y-145761329D01*
X162034496Y-145738807D01*
X162028684Y-145715603D01*
X162025174Y-145691942D01*
X162024000Y-145668050D01*
X162024000Y-144755550D01*
X162025174Y-144731658D01*
X162028684Y-144707997D01*
X162034496Y-144684793D01*
X162042554Y-144662271D01*
X162052782Y-144640647D01*
X162065079Y-144620130D01*
X162079329Y-144600917D01*
X162095393Y-144583193D01*
X162113117Y-144567129D01*
X162132330Y-144552879D01*
X162152847Y-144540582D01*
X162174471Y-144530354D01*
X162196993Y-144522296D01*
X162220197Y-144516484D01*
X162243858Y-144512974D01*
X162267750Y-144511800D01*
X162755250Y-144511800D01*
X162779142Y-144512974D01*
X162779142Y-144512974D01*
G37*
D11*
G04 #@! TD*
G04 #@! TO.P,R2,1*
G04 #@! TO.N,+3V3*
X162511500Y-145211800D03*
D10*
G04 #@! TO.N,Net-(D6-Pad2)*
G04 #@! TO.C,R2*
G36*
X164654142Y-144512974D02*
X164677803Y-144516484D01*
X164701007Y-144522296D01*
X164723529Y-144530354D01*
X164745153Y-144540582D01*
X164765670Y-144552879D01*
X164784883Y-144567129D01*
X164802607Y-144583193D01*
X164818671Y-144600917D01*
X164832921Y-144620130D01*
X164845218Y-144640647D01*
X164855446Y-144662271D01*
X164863504Y-144684793D01*
X164869316Y-144707997D01*
X164872826Y-144731658D01*
X164874000Y-144755550D01*
X164874000Y-145668050D01*
X164872826Y-145691942D01*
X164869316Y-145715603D01*
X164863504Y-145738807D01*
X164855446Y-145761329D01*
X164845218Y-145782953D01*
X164832921Y-145803470D01*
X164818671Y-145822683D01*
X164802607Y-145840407D01*
X164784883Y-145856471D01*
X164765670Y-145870721D01*
X164745153Y-145883018D01*
X164723529Y-145893246D01*
X164701007Y-145901304D01*
X164677803Y-145907116D01*
X164654142Y-145910626D01*
X164630250Y-145911800D01*
X164142750Y-145911800D01*
X164118858Y-145910626D01*
X164095197Y-145907116D01*
X164071993Y-145901304D01*
X164049471Y-145893246D01*
X164027847Y-145883018D01*
X164007330Y-145870721D01*
X163988117Y-145856471D01*
X163970393Y-145840407D01*
X163954329Y-145822683D01*
X163940079Y-145803470D01*
X163927782Y-145782953D01*
X163917554Y-145761329D01*
X163909496Y-145738807D01*
X163903684Y-145715603D01*
X163900174Y-145691942D01*
X163899000Y-145668050D01*
X163899000Y-144755550D01*
X163900174Y-144731658D01*
X163903684Y-144707997D01*
X163909496Y-144684793D01*
X163917554Y-144662271D01*
X163927782Y-144640647D01*
X163940079Y-144620130D01*
X163954329Y-144600917D01*
X163970393Y-144583193D01*
X163988117Y-144567129D01*
X164007330Y-144552879D01*
X164027847Y-144540582D01*
X164049471Y-144530354D01*
X164071993Y-144522296D01*
X164095197Y-144516484D01*
X164118858Y-144512974D01*
X164142750Y-144511800D01*
X164630250Y-144511800D01*
X164654142Y-144512974D01*
X164654142Y-144512974D01*
G37*
D11*
G04 #@! TD*
G04 #@! TO.P,R2,2*
G04 #@! TO.N,Net-(D6-Pad2)*
X164386500Y-145211800D03*
D15*
G04 #@! TO.P,TP1,1*
G04 #@! TO.N,Net-(TP1-Pad1)*
X165608000Y-109728000D03*
G04 #@! TD*
G04 #@! TO.P,TP2,1*
G04 #@! TO.N,Net-(TP2-Pad1)*
X161925000Y-109728000D03*
G04 #@! TD*
G04 #@! TO.P,TP3,1*
G04 #@! TO.N,VBAT*
X192278000Y-146786600D03*
G04 #@! TD*
G04 #@! TO.P,TP4,1*
G04 #@! TO.N,GND*
X197231000Y-146812000D03*
G04 #@! TD*
D24*
G04 #@! TO.P,U1,1*
G04 #@! TO.N,/LED*
X171518000Y-107182000D03*
G04 #@! TO.P,U1,2*
G04 #@! TO.N,Net-(U1-Pad2)*
X171518000Y-107982000D03*
G04 #@! TO.P,U1,3*
G04 #@! TO.N,/D1_A0_PAU02*
X171518000Y-108782000D03*
G04 #@! TO.P,U1,4*
G04 #@! TO.N,Net-(U1-Pad4)*
X171518000Y-109582000D03*
G04 #@! TO.P,U1,5*
G04 #@! TO.N,Net-(U1-Pad5)*
X171518000Y-110382000D03*
G04 #@! TO.P,U1,6*
G04 #@! TO.N,Net-(U1-Pad6)*
X171518000Y-111182000D03*
G04 #@! TO.P,U1,7*
G04 #@! TO.N,/D4_A2_PAU06_TXD_MOSI*
X171518000Y-111982000D03*
G04 #@! TO.P,U1,8*
G04 #@! TO.N,/D3_A3_PAU07_RXD_SCK*
X171518000Y-112782000D03*
D25*
G04 #@! TO.P,U1,9*
G04 #@! TO.N,+3V3*
X172968000Y-114232000D03*
G04 #@! TO.P,U1,10*
G04 #@! TO.N,GND*
X173768000Y-114232000D03*
G04 #@! TO.P,U1,11*
G04 #@! TO.N,/D0_A4_PAU08_SDA*
X174568000Y-114232000D03*
G04 #@! TO.P,U1,12*
G04 #@! TO.N,/D2_A1_PAU09_SCL_MISO*
X175368000Y-114232000D03*
G04 #@! TO.P,U1,13*
G04 #@! TO.N,Net-(R1-Pad2)*
X176168000Y-114232000D03*
G04 #@! TO.P,U1,14*
G04 #@! TO.N,Net-(U1-Pad14)*
X176968000Y-114232000D03*
G04 #@! TO.P,U1,15*
G04 #@! TO.N,Net-(U1-Pad15)*
X177768000Y-114232000D03*
G04 #@! TO.P,U1,16*
G04 #@! TO.N,Net-(U1-Pad16)*
X178568000Y-114232000D03*
D24*
G04 #@! TO.P,U1,17*
G04 #@! TO.N,Net-(U1-Pad17)*
X180018000Y-112782000D03*
G04 #@! TO.P,U1,18*
G04 #@! TO.N,Net-(U1-Pad18)*
X180018000Y-111982000D03*
G04 #@! TO.P,U1,19*
G04 #@! TO.N,Net-(U1-Pad19)*
X180018000Y-111182000D03*
G04 #@! TO.P,U1,20*
G04 #@! TO.N,Net-(U1-Pad20)*
X180018000Y-110382000D03*
G04 #@! TO.P,U1,21*
G04 #@! TO.N,Net-(U1-Pad21)*
X180018000Y-109582000D03*
G04 #@! TO.P,U1,22*
G04 #@! TO.N,Net-(U1-Pad22)*
X180018000Y-108782000D03*
G04 #@! TO.P,U1,23*
G04 #@! TO.N,/D-*
X180018000Y-107982000D03*
G04 #@! TO.P,U1,24*
G04 #@! TO.N,/D+*
X180018000Y-107182000D03*
D25*
G04 #@! TO.P,U1,25*
G04 #@! TO.N,Net-(U1-Pad25)*
X178568000Y-105732000D03*
G04 #@! TO.P,U1,26*
G04 #@! TO.N,/~RESET*
X177768000Y-105732000D03*
G04 #@! TO.P,U1,27*
G04 #@! TO.N,Net-(U1-Pad27)*
X176968000Y-105732000D03*
G04 #@! TO.P,U1,28*
G04 #@! TO.N,GND*
X176168000Y-105732000D03*
G04 #@! TO.P,U1,29*
G04 #@! TO.N,Net-(C2-Pad1)*
X175368000Y-105732000D03*
G04 #@! TO.P,U1,30*
G04 #@! TO.N,+3V3*
X174568000Y-105732000D03*
G04 #@! TO.P,U1,31*
G04 #@! TO.N,Net-(TP2-Pad1)*
X173768000Y-105732000D03*
G04 #@! TO.P,U1,32*
G04 #@! TO.N,Net-(TP1-Pad1)*
X172968000Y-105732000D03*
G04 #@! TD*
D26*
G04 #@! TO.P,U2,1*
G04 #@! TO.N,Net-(C3-Pad1)*
X173776600Y-142120800D03*
G04 #@! TO.P,U2,2*
G04 #@! TO.N,GND*
X174726600Y-142120800D03*
G04 #@! TO.P,U2,3*
G04 #@! TO.N,Net-(C3-Pad1)*
X175676600Y-142120800D03*
G04 #@! TO.P,U2,4*
G04 #@! TO.N,Net-(U2-Pad4)*
X175676600Y-139920800D03*
G04 #@! TO.P,U2,5*
G04 #@! TO.N,+3V3*
X173776600Y-139920800D03*
G04 #@! TD*
D27*
G04 #@! TO.P,SW1,1*
G04 #@! TO.N,/~RESET*
X184361000Y-103573000D03*
X188511000Y-103573000D03*
G04 #@! TO.P,SW1,2*
G04 #@! TO.N,GND*
X184361000Y-105723000D03*
X188511000Y-105723000D03*
G04 #@! TD*
D28*
G04 #@! TO.N,GND*
X188976000Y-104775000D03*
X181229000Y-116967000D03*
X178435000Y-102870000D03*
X192151000Y-127381000D03*
X186309000Y-125476000D03*
X177038000Y-127889000D03*
X170053000Y-127762000D03*
X162433000Y-127762000D03*
X174752000Y-140970000D03*
X176530000Y-146304000D03*
X168783000Y-144145000D03*
X176403000Y-137922000D03*
X174371000Y-119380000D03*
G04 #@! TO.N,VBAT*
X180721000Y-143510000D03*
X159131000Y-121031000D03*
G04 #@! TO.N,/LED*
X169799000Y-106807000D03*
X167132000Y-109474000D03*
G04 #@! TO.N,Net-(D3-Pad2)*
X158165800Y-125831600D03*
X168173400Y-122809000D03*
G04 #@! TO.N,VBUS*
X192024000Y-134493000D03*
X199429700Y-133858000D03*
X181356000Y-139319000D03*
G04 #@! TO.N,/D4_A2_PAU06_TXD_MOSI*
X167894000Y-107442000D03*
G04 #@! TO.N,/D3_A3_PAU07_RXD_SCK*
X172974000Y-109136178D03*
G04 #@! TO.N,/~RESET*
X178054000Y-107188000D03*
X181229000Y-103759000D03*
G04 #@! TO.N,/D0_A4_PAU08_SDA*
X174879000Y-115697000D03*
X157226000Y-114681000D03*
G04 #@! TO.N,/D1_A0_PAU02*
X169418000Y-109347000D03*
X157353000Y-112522000D03*
G04 #@! TO.N,/D2_A1_PAU09_SCL_MISO*
X158496000Y-108585000D03*
X158496000Y-116205000D03*
X175514000Y-116586000D03*
G04 #@! TO.N,/D-*
X196702302Y-134620000D03*
X186817000Y-133604000D03*
X186690000Y-128397000D03*
X184785000Y-109220000D03*
G04 #@! TO.N,/D+*
X196723000Y-135509000D03*
X185166000Y-134747000D03*
X182118000Y-128524000D03*
X183134000Y-107188000D03*
G04 #@! TD*
D29*
G04 #@! TO.N,+3V3*
X174568000Y-105732000D02*
X174568000Y-104337000D01*
X174568000Y-104337000D02*
X173482000Y-103251000D01*
D30*
G04 #@! TO.N,GND*
X176168000Y-103432900D02*
X177315100Y-102285800D01*
X176168000Y-105732000D02*
X176168000Y-103432900D01*
D31*
X184361000Y-105723000D02*
X188511000Y-105723000D01*
X188511000Y-105723000D02*
X188511000Y-105240000D01*
X188511000Y-105240000D02*
X188976000Y-104775000D01*
D32*
X173784500Y-114248500D02*
X173768000Y-114232000D01*
X173784500Y-118110000D02*
X173784500Y-114248500D01*
X181381500Y-118110000D02*
X181381500Y-117119500D01*
X181381500Y-117119500D02*
X181229000Y-116967000D01*
D31*
X177315100Y-102285800D02*
X177850800Y-102285800D01*
X177850800Y-102285800D02*
X178435000Y-102870000D01*
X193178600Y-126568000D02*
X192964000Y-126568000D01*
X192964000Y-126568000D02*
X192151000Y-127381000D01*
X186309000Y-125839000D02*
X186309000Y-125476000D01*
X185330000Y-126568000D02*
X185580000Y-126568000D01*
X185580000Y-126568000D02*
X186309000Y-125839000D01*
X177456000Y-126568000D02*
X177456000Y-127471000D01*
X177456000Y-127471000D02*
X177038000Y-127889000D01*
X169582000Y-126568000D02*
X169582000Y-127291000D01*
X169582000Y-127291000D02*
X170053000Y-127762000D01*
X162249600Y-127762000D02*
X162433000Y-127762000D01*
X161708000Y-126568000D02*
X161708000Y-127220400D01*
X161708000Y-127220400D02*
X162249600Y-127762000D01*
X174726600Y-142120800D02*
X174726600Y-140995400D01*
X174726600Y-140995400D02*
X174752000Y-140970000D01*
X175587900Y-145338800D02*
X175587900Y-145361900D01*
X175587900Y-145361900D02*
X176530000Y-146304000D01*
X167792500Y-145211800D02*
X167792500Y-145135500D01*
X167792500Y-145135500D02*
X168783000Y-144145000D01*
X175768000Y-136779000D02*
X175768000Y-137287000D01*
X175768000Y-137287000D02*
X176403000Y-137922000D01*
X195402000Y-137833000D02*
X195227000Y-137833000D01*
X196674500Y-139105500D02*
X195402000Y-137833000D01*
X196674500Y-140716000D02*
X196674500Y-139105500D01*
X198549500Y-137845500D02*
X198227000Y-137523000D01*
X198549500Y-140716000D02*
X198549500Y-137845500D01*
X194957000Y-136063000D02*
X194957000Y-134143000D01*
X195227000Y-133873000D02*
X194957000Y-134143000D01*
X195227000Y-132373000D02*
X195227000Y-133873000D01*
X198107000Y-137403000D02*
X198227000Y-137523000D01*
X198107000Y-136403000D02*
X198107000Y-137403000D01*
D29*
X173784500Y-118110000D02*
X173784500Y-118793500D01*
X173784500Y-118793500D02*
X174371000Y-119380000D01*
D30*
G04 #@! TO.N,Net-(C2-Pad1)*
X175440100Y-105659900D02*
X175368000Y-105732000D01*
X175440100Y-102285800D02*
X175440100Y-105659900D01*
D29*
G04 #@! TO.N,Net-(C3-Pad1)*
X175676600Y-141915800D02*
X175676600Y-142120800D01*
X176622400Y-140970000D02*
X175676600Y-141915800D01*
X179188400Y-140970000D02*
X176622400Y-140970000D01*
X175676600Y-142325800D02*
X175676600Y-142120800D01*
X177876800Y-144526000D02*
X175676600Y-142325800D01*
X179290000Y-144526000D02*
X177876800Y-144526000D01*
X173712900Y-142184500D02*
X173776600Y-142120800D01*
X173712900Y-145338800D02*
X173712900Y-142184500D01*
X175676600Y-143375100D02*
X175676600Y-142120800D01*
X173712900Y-145338800D02*
X175676600Y-143375100D01*
G04 #@! TO.N,VBAT*
X181390000Y-145051000D02*
X181390000Y-144526000D01*
X183125600Y-146786600D02*
X181390000Y-145051000D01*
X192278000Y-146786600D02*
X183125600Y-146786600D01*
X181390000Y-144526000D02*
X181390000Y-144179000D01*
X181390000Y-144179000D02*
X180721000Y-143510000D01*
X157556200Y-103410400D02*
X157556200Y-102260400D01*
X159893000Y-105747200D02*
X157556200Y-103410400D01*
X159893000Y-120269000D02*
X159893000Y-105747200D01*
X159131000Y-121031000D02*
X159893000Y-120269000D01*
D31*
G04 #@! TO.N,Net-(D2-Pad2)*
X179806500Y-118110000D02*
X177975500Y-118110000D01*
G04 #@! TO.N,/LED*
X171518000Y-107182000D02*
X170174000Y-107182000D01*
X170174000Y-107182000D02*
X169799000Y-106807000D01*
X161708000Y-115914000D02*
X161708000Y-123368000D01*
X167132000Y-109474000D02*
X167132000Y-110490000D01*
X167132000Y-110490000D02*
X161708000Y-115914000D01*
G04 #@! TO.N,Net-(D3-Pad2)*
X158165800Y-126112600D02*
X158165800Y-125831600D01*
X156808000Y-126568000D02*
X157710400Y-126568000D01*
X157710400Y-126568000D02*
X158165800Y-126112600D01*
X168732400Y-123368000D02*
X169582000Y-123368000D01*
X168173400Y-122809000D02*
X168732400Y-123368000D01*
D29*
G04 #@! TO.N,VBUS*
X181288400Y-140970000D02*
X185547000Y-140970000D01*
X185547000Y-140970000D02*
X192024000Y-134493000D01*
X198162000Y-133858000D02*
X198107000Y-133803000D01*
X199429700Y-133858000D02*
X198162000Y-133858000D01*
X181356000Y-140902400D02*
X181288400Y-140970000D01*
X181356000Y-139319000D02*
X181356000Y-140902400D01*
D31*
G04 #@! TO.N,Net-(D5-Pad2)*
X176553600Y-123368000D02*
X177456000Y-123368000D01*
X175824999Y-124096601D02*
X176553600Y-123368000D01*
X168382065Y-124096601D02*
X175824999Y-124096601D01*
X165910666Y-126568000D02*
X168382065Y-124096601D01*
X164682000Y-126568000D02*
X165910666Y-126568000D01*
G04 #@! TO.N,Net-(D6-Pad2)*
X164974000Y-145211800D02*
X166217500Y-145211800D01*
X164386500Y-145211800D02*
X164974000Y-145211800D01*
G04 #@! TO.N,Net-(D7-Pad2)*
X184427600Y-123368000D02*
X185330000Y-123368000D01*
X183698999Y-124096601D02*
X184427600Y-123368000D01*
X176256065Y-124096601D02*
X183698999Y-124096601D01*
X173784666Y-126568000D02*
X176256065Y-124096601D01*
X172556000Y-126568000D02*
X173784666Y-126568000D01*
G04 #@! TO.N,Net-(D8-Pad2)*
X192276200Y-123368000D02*
X193178600Y-123368000D01*
X191547599Y-124096601D02*
X192276200Y-123368000D01*
X184130065Y-124096601D02*
X191547599Y-124096601D01*
X181658666Y-126568000D02*
X184130065Y-124096601D01*
X180430000Y-126568000D02*
X181658666Y-126568000D01*
G04 #@! TO.N,/D4_A2_PAU06_TXD_MOSI*
X167894000Y-109310400D02*
X167894000Y-107442000D01*
X171518000Y-111982000D02*
X170565600Y-111982000D01*
X170565600Y-111982000D02*
X167894000Y-109310400D01*
G04 #@! TO.N,/D3_A3_PAU07_RXD_SCK*
X172333000Y-112782000D02*
X171518000Y-112782000D01*
X172974000Y-112141000D02*
X172333000Y-112782000D01*
X172974000Y-112141000D02*
X172974000Y-109136178D01*
G04 #@! TO.N,/~RESET*
X177768000Y-105732000D02*
X177768000Y-106902000D01*
X177768000Y-106902000D02*
X178054000Y-107188000D01*
X184175000Y-103759000D02*
X184361000Y-103573000D01*
X181229000Y-103759000D02*
X184175000Y-103759000D01*
X187833600Y-103573000D02*
X184361000Y-103573000D01*
X188511000Y-103573000D02*
X187833600Y-103573000D01*
G04 #@! TO.N,/D0_A4_PAU08_SDA*
X174568000Y-114232000D02*
X174568000Y-115386000D01*
X174568000Y-115386000D02*
X174879000Y-115697000D01*
X156083000Y-114681000D02*
X152654000Y-111252000D01*
X157226000Y-114681000D02*
X156083000Y-114681000D01*
G04 #@! TO.N,/D1_A0_PAU02*
X171518000Y-108782000D02*
X169983000Y-108782000D01*
X169983000Y-108782000D02*
X169418000Y-109347000D01*
X156464000Y-112522000D02*
X152654000Y-108712000D01*
X156464000Y-112522000D02*
X157353000Y-112522000D01*
G04 #@! TO.N,/D2_A1_PAU09_SCL_MISO*
X158496000Y-108585000D02*
X158496000Y-116205000D01*
X175514000Y-114378000D02*
X175368000Y-114232000D01*
X175514000Y-116586000D02*
X175514000Y-114378000D01*
G04 #@! TO.N,/D-*
X198107000Y-134453000D02*
X196869302Y-134453000D01*
X196869302Y-134453000D02*
X196702302Y-134620000D01*
X186817000Y-133604000D02*
X186817000Y-128524000D01*
X186817000Y-128524000D02*
X186690000Y-128397000D01*
X180970400Y-107982000D02*
X180018000Y-107982000D01*
X183062067Y-107982000D02*
X180970400Y-107982000D01*
X184300067Y-109220000D02*
X183062067Y-107982000D01*
X184785000Y-109220000D02*
X184300067Y-109220000D01*
G04 #@! TO.N,/D+*
X198107000Y-135103000D02*
X197129000Y-135103000D01*
X197129000Y-135103000D02*
X196723000Y-135509000D01*
X185166000Y-134747000D02*
X182118000Y-131699000D01*
X182118000Y-131699000D02*
X182118000Y-128524000D01*
X180024000Y-107188000D02*
X180018000Y-107182000D01*
X183134000Y-107188000D02*
X180024000Y-107188000D01*
G04 #@! TO.N,Net-(R1-Pad2)*
X176100500Y-114299500D02*
X176168000Y-114232000D01*
X176100500Y-118110000D02*
X176100500Y-114299500D01*
G04 #@! TO.N,Net-(TP1-Pad1)*
X165608000Y-108725600D02*
X165608000Y-109728000D01*
X168601600Y-105732000D02*
X165608000Y-108725600D01*
X172968000Y-105732000D02*
X168601600Y-105732000D01*
G04 #@! TO.N,Net-(TP2-Pad1)*
X173691799Y-104703399D02*
X169108601Y-104703399D01*
X173768000Y-105732000D02*
X173768000Y-104779600D01*
X173768000Y-104779600D02*
X173691799Y-104703399D01*
X169108601Y-104703399D02*
X165989000Y-107823000D01*
X162927400Y-109728000D02*
X161925000Y-109728000D01*
X164832400Y-107823000D02*
X162927400Y-109728000D01*
X165989000Y-107823000D02*
X164832400Y-107823000D01*
G04 #@! TD*
D33*
G04 #@! TO.N,+3V3*
G36*
X199290001Y-130711796D02*
X199204765Y-130654843D01*
X198957000Y-130605560D01*
X197457000Y-130605560D01*
X197388421Y-130619201D01*
X197257000Y-130593060D01*
X196557000Y-130593060D01*
X196309235Y-130642343D01*
X196099191Y-130782691D01*
X195958843Y-130992735D01*
X195947341Y-131050560D01*
X195157000Y-131050560D01*
X195094459Y-131063000D01*
X194922978Y-131063000D01*
X194540864Y-131139007D01*
X194107543Y-131428543D01*
X193818007Y-131861864D01*
X193716336Y-132373000D01*
X193797405Y-132780560D01*
X193707000Y-132780560D01*
X193459235Y-132829843D01*
X193249191Y-132970191D01*
X193108843Y-133180235D01*
X193059560Y-133428000D01*
X193059560Y-134858000D01*
X193108293Y-135103000D01*
X193059560Y-135348000D01*
X193059560Y-136778000D01*
X193108843Y-137025765D01*
X193249191Y-137235809D01*
X193459235Y-137376157D01*
X193707000Y-137425440D01*
X193797405Y-137425440D01*
X193716336Y-137833000D01*
X193818007Y-138344136D01*
X194107543Y-138777457D01*
X194540864Y-139066993D01*
X194922978Y-139143000D01*
X194993911Y-139143000D01*
X195157000Y-139175440D01*
X195738651Y-139175440D01*
X195963301Y-139400090D01*
X195963301Y-139520860D01*
X195800584Y-139629584D01*
X195607398Y-139918706D01*
X195539560Y-140259750D01*
X195539560Y-141172250D01*
X195607398Y-141513294D01*
X195800584Y-141802416D01*
X196089706Y-141995602D01*
X196430750Y-142063440D01*
X196918250Y-142063440D01*
X197259294Y-141995602D01*
X197548416Y-141802416D01*
X197612000Y-141707256D01*
X197675584Y-141802416D01*
X197964706Y-141995602D01*
X198305750Y-142063440D01*
X198793250Y-142063440D01*
X199134294Y-141995602D01*
X199290001Y-141891562D01*
X199290001Y-149290000D01*
X150710000Y-149290000D01*
X150710000Y-145497550D01*
X161389000Y-145497550D01*
X161389000Y-146038110D01*
X161485673Y-146271499D01*
X161664302Y-146450127D01*
X161897691Y-146546800D01*
X162225750Y-146546800D01*
X162384500Y-146388050D01*
X162384500Y-145338800D01*
X161547750Y-145338800D01*
X161389000Y-145497550D01*
X150710000Y-145497550D01*
X150710000Y-144385490D01*
X161389000Y-144385490D01*
X161389000Y-144926050D01*
X161547750Y-145084800D01*
X162384500Y-145084800D01*
X162384500Y-144035550D01*
X162638500Y-144035550D01*
X162638500Y-145084800D01*
X162658500Y-145084800D01*
X162658500Y-145338800D01*
X162638500Y-145338800D01*
X162638500Y-146388050D01*
X162797250Y-146546800D01*
X163125309Y-146546800D01*
X163358698Y-146450127D01*
X163511793Y-146297033D01*
X163512584Y-146298216D01*
X163801706Y-146491402D01*
X164142750Y-146559240D01*
X164630250Y-146559240D01*
X164971294Y-146491402D01*
X165260416Y-146298216D01*
X165399813Y-146089594D01*
X165667273Y-146268305D01*
X165998750Y-146334240D01*
X166436250Y-146334240D01*
X166767727Y-146268305D01*
X167005000Y-146109764D01*
X167242273Y-146268305D01*
X167573750Y-146334240D01*
X168011250Y-146334240D01*
X168342727Y-146268305D01*
X168623739Y-146080539D01*
X168811505Y-145799527D01*
X168877440Y-145468050D01*
X168877440Y-145122900D01*
X168977516Y-145122900D01*
X169336936Y-144974023D01*
X169428409Y-144882550D01*
X172577960Y-144882550D01*
X172577960Y-145795050D01*
X172645798Y-146136094D01*
X172838984Y-146425216D01*
X173128106Y-146618402D01*
X173469150Y-146686240D01*
X173956650Y-146686240D01*
X174297694Y-146618402D01*
X174586816Y-146425216D01*
X174650400Y-146330056D01*
X174713984Y-146425216D01*
X175003106Y-146618402D01*
X175344150Y-146686240D01*
X175629858Y-146686240D01*
X175700977Y-146857936D01*
X175976064Y-147133023D01*
X176335484Y-147281900D01*
X176724516Y-147281900D01*
X177083936Y-147133023D01*
X177359023Y-146857936D01*
X177507900Y-146498516D01*
X177507900Y-146109484D01*
X177359023Y-145750064D01*
X177083936Y-145474977D01*
X176724516Y-145326100D01*
X176722840Y-145326100D01*
X176722840Y-144882550D01*
X176655002Y-144541506D01*
X176461816Y-144252384D01*
X176172694Y-144059198D01*
X176114279Y-144047579D01*
X176177011Y-143984847D01*
X176206072Y-143965429D01*
X177267051Y-145026408D01*
X177310847Y-145091953D01*
X177570508Y-145265454D01*
X177799484Y-145311000D01*
X177799488Y-145311000D01*
X177876800Y-145326378D01*
X177954112Y-145311000D01*
X178685129Y-145311000D01*
X178742235Y-145349157D01*
X178990000Y-145398440D01*
X179590000Y-145398440D01*
X179837765Y-145349157D01*
X180047809Y-145208809D01*
X180188157Y-144998765D01*
X180237440Y-144751000D01*
X180237440Y-144368174D01*
X180442560Y-144453137D01*
X180442560Y-144751000D01*
X180491843Y-144998765D01*
X180616272Y-145184985D01*
X180650546Y-145357291D01*
X180824047Y-145616953D01*
X180889592Y-145660749D01*
X182515853Y-147287011D01*
X182559647Y-147352553D01*
X182625189Y-147396347D01*
X182625191Y-147396349D01*
X182819308Y-147526054D01*
X183048284Y-147571600D01*
X183048287Y-147571600D01*
X183125599Y-147586978D01*
X183202911Y-147571600D01*
X190780560Y-147571600D01*
X190780560Y-147636600D01*
X190829843Y-147884365D01*
X190970191Y-148094409D01*
X191180235Y-148234757D01*
X191428000Y-148284040D01*
X193128000Y-148284040D01*
X193375765Y-148234757D01*
X193585809Y-148094409D01*
X193726157Y-147884365D01*
X193775440Y-147636600D01*
X193775440Y-145962000D01*
X195733560Y-145962000D01*
X195733560Y-147662000D01*
X195782843Y-147909765D01*
X195923191Y-148119809D01*
X196133235Y-148260157D01*
X196381000Y-148309440D01*
X198081000Y-148309440D01*
X198328765Y-148260157D01*
X198538809Y-148119809D01*
X198679157Y-147909765D01*
X198728440Y-147662000D01*
X198728440Y-145962000D01*
X198679157Y-145714235D01*
X198538809Y-145504191D01*
X198328765Y-145363843D01*
X198081000Y-145314560D01*
X196381000Y-145314560D01*
X196133235Y-145363843D01*
X195923191Y-145504191D01*
X195782843Y-145714235D01*
X195733560Y-145962000D01*
X193775440Y-145962000D01*
X193775440Y-145936600D01*
X193726157Y-145688835D01*
X193585809Y-145478791D01*
X193375765Y-145338443D01*
X193128000Y-145289160D01*
X191428000Y-145289160D01*
X191180235Y-145338443D01*
X190970191Y-145478791D01*
X190829843Y-145688835D01*
X190780560Y-145936600D01*
X190780560Y-146001600D01*
X183450758Y-146001600D01*
X182314664Y-144865506D01*
X182337440Y-144751000D01*
X182337440Y-144301000D01*
X182288157Y-144053235D01*
X182147809Y-143843191D01*
X182079018Y-143797226D01*
X182031173Y-143725621D01*
X181999749Y-143678591D01*
X181999747Y-143678589D01*
X181955953Y-143613047D01*
X181890410Y-143569253D01*
X181698900Y-143377742D01*
X181698900Y-143315484D01*
X181550023Y-142956064D01*
X181274936Y-142680977D01*
X180915516Y-142532100D01*
X180526484Y-142532100D01*
X180167064Y-142680977D01*
X179891977Y-142956064D01*
X179743100Y-143315484D01*
X179743100Y-143684013D01*
X179590000Y-143653560D01*
X178990000Y-143653560D01*
X178742235Y-143702843D01*
X178685129Y-143741000D01*
X178201957Y-143741000D01*
X176649040Y-142188083D01*
X176649040Y-142053517D01*
X176947558Y-141755000D01*
X178583529Y-141755000D01*
X178640635Y-141793157D01*
X178888400Y-141842440D01*
X179488400Y-141842440D01*
X179736165Y-141793157D01*
X179946209Y-141652809D01*
X180086557Y-141442765D01*
X180135840Y-141195000D01*
X180135840Y-140745000D01*
X180340960Y-140745000D01*
X180340960Y-141195000D01*
X180390243Y-141442765D01*
X180530591Y-141652809D01*
X180740635Y-141793157D01*
X180988400Y-141842440D01*
X181588400Y-141842440D01*
X181836165Y-141793157D01*
X181893271Y-141755000D01*
X185469688Y-141755000D01*
X185547000Y-141770378D01*
X185624312Y-141755000D01*
X185624316Y-141755000D01*
X185853292Y-141709454D01*
X186112953Y-141535953D01*
X186156749Y-141470408D01*
X192156258Y-135470900D01*
X192218516Y-135470900D01*
X192577936Y-135322023D01*
X192853023Y-135046936D01*
X193001900Y-134687516D01*
X193001900Y-134298484D01*
X192853023Y-133939064D01*
X192577936Y-133663977D01*
X192218516Y-133515100D01*
X191829484Y-133515100D01*
X191470064Y-133663977D01*
X191194977Y-133939064D01*
X191046100Y-134298484D01*
X191046100Y-134360742D01*
X185221843Y-140185000D01*
X182141000Y-140185000D01*
X182141000Y-139916959D01*
X182185023Y-139872936D01*
X182333900Y-139513516D01*
X182333900Y-139124484D01*
X182185023Y-138765064D01*
X181909936Y-138489977D01*
X181550516Y-138341100D01*
X181161484Y-138341100D01*
X180802064Y-138489977D01*
X180526977Y-138765064D01*
X180378100Y-139124484D01*
X180378100Y-139513516D01*
X180526977Y-139872936D01*
X180571000Y-139916959D01*
X180571001Y-140260190D01*
X180530591Y-140287191D01*
X180390243Y-140497235D01*
X180340960Y-140745000D01*
X180135840Y-140745000D01*
X180086557Y-140497235D01*
X179946209Y-140287191D01*
X179736165Y-140146843D01*
X179488400Y-140097560D01*
X178888400Y-140097560D01*
X178640635Y-140146843D01*
X178583529Y-140185000D01*
X176699710Y-140185000D01*
X176649040Y-140174921D01*
X176649040Y-139390800D01*
X176599757Y-139143035D01*
X176459409Y-138932991D01*
X176409885Y-138899900D01*
X176597516Y-138899900D01*
X176956936Y-138751023D01*
X177232023Y-138475936D01*
X177380900Y-138116516D01*
X177380900Y-137727484D01*
X177232023Y-137368064D01*
X176956936Y-137092977D01*
X176902940Y-137070611D01*
X176902940Y-136322750D01*
X176835102Y-135981706D01*
X176641916Y-135692584D01*
X176352794Y-135499398D01*
X176011750Y-135431560D01*
X175524250Y-135431560D01*
X175183206Y-135499398D01*
X174894084Y-135692584D01*
X174893293Y-135693767D01*
X174740198Y-135540673D01*
X174506809Y-135444000D01*
X174178750Y-135444000D01*
X174020000Y-135602750D01*
X174020000Y-136652000D01*
X174040000Y-136652000D01*
X174040000Y-136906000D01*
X174020000Y-136906000D01*
X174020000Y-137955250D01*
X174178750Y-138114000D01*
X174506809Y-138114000D01*
X174740198Y-138017327D01*
X174893293Y-137864233D01*
X174894084Y-137865416D01*
X175183206Y-138058602D01*
X175425100Y-138106718D01*
X175425100Y-138116516D01*
X175573977Y-138475936D01*
X175841401Y-138743360D01*
X175351600Y-138743360D01*
X175103835Y-138792643D01*
X174893791Y-138932991D01*
X174753443Y-139143035D01*
X174731658Y-139252559D01*
X174639927Y-139031102D01*
X174461299Y-138852473D01*
X174227910Y-138755800D01*
X174062350Y-138755800D01*
X173903600Y-138914550D01*
X173903600Y-139793800D01*
X173923600Y-139793800D01*
X173923600Y-140047800D01*
X173903600Y-140047800D01*
X173903600Y-140067800D01*
X173649600Y-140067800D01*
X173649600Y-140047800D01*
X172975350Y-140047800D01*
X172816600Y-140206550D01*
X172816600Y-140577109D01*
X172913273Y-140810498D01*
X173091901Y-140989127D01*
X173164248Y-141019094D01*
X172993791Y-141132991D01*
X172853443Y-141343035D01*
X172804160Y-141590800D01*
X172804160Y-142650800D01*
X172853443Y-142898565D01*
X172927901Y-143009998D01*
X172927900Y-144192972D01*
X172838984Y-144252384D01*
X172645798Y-144541506D01*
X172577960Y-144882550D01*
X169428409Y-144882550D01*
X169612023Y-144698936D01*
X169760900Y-144339516D01*
X169760900Y-143950484D01*
X169612023Y-143591064D01*
X169336936Y-143315977D01*
X168977516Y-143167100D01*
X168588484Y-143167100D01*
X168229064Y-143315977D01*
X167953977Y-143591064D01*
X167805100Y-143950484D01*
X167805100Y-144089360D01*
X167573750Y-144089360D01*
X167242273Y-144155295D01*
X167005000Y-144313836D01*
X166767727Y-144155295D01*
X166436250Y-144089360D01*
X165998750Y-144089360D01*
X165667273Y-144155295D01*
X165399813Y-144334006D01*
X165260416Y-144125384D01*
X164971294Y-143932198D01*
X164630250Y-143864360D01*
X164142750Y-143864360D01*
X163801706Y-143932198D01*
X163512584Y-144125384D01*
X163511793Y-144126567D01*
X163358698Y-143973473D01*
X163125309Y-143876800D01*
X162797250Y-143876800D01*
X162638500Y-144035550D01*
X162384500Y-144035550D01*
X162225750Y-143876800D01*
X161897691Y-143876800D01*
X161664302Y-143973473D01*
X161485673Y-144152101D01*
X161389000Y-144385490D01*
X150710000Y-144385490D01*
X150710000Y-139264491D01*
X172816600Y-139264491D01*
X172816600Y-139635050D01*
X172975350Y-139793800D01*
X173649600Y-139793800D01*
X173649600Y-138914550D01*
X173490850Y-138755800D01*
X173325290Y-138755800D01*
X173091901Y-138852473D01*
X172913273Y-139031102D01*
X172816600Y-139264491D01*
X150710000Y-139264491D01*
X150710000Y-137064750D01*
X172770500Y-137064750D01*
X172770500Y-137605310D01*
X172867173Y-137838699D01*
X173045802Y-138017327D01*
X173279191Y-138114000D01*
X173607250Y-138114000D01*
X173766000Y-137955250D01*
X173766000Y-136906000D01*
X172929250Y-136906000D01*
X172770500Y-137064750D01*
X150710000Y-137064750D01*
X150710000Y-135952690D01*
X172770500Y-135952690D01*
X172770500Y-136493250D01*
X172929250Y-136652000D01*
X173766000Y-136652000D01*
X173766000Y-135602750D01*
X173607250Y-135444000D01*
X173279191Y-135444000D01*
X173045802Y-135540673D01*
X172867173Y-135719301D01*
X172770500Y-135952690D01*
X150710000Y-135952690D01*
X150710000Y-125033352D01*
X150770204Y-125033352D01*
X150889288Y-125798175D01*
X151218246Y-126498832D01*
X151730633Y-127079000D01*
X152385258Y-127492037D01*
X153129496Y-127704742D01*
X153903520Y-127700013D01*
X154645104Y-127478233D01*
X155294634Y-127057228D01*
X155410560Y-126922689D01*
X155410560Y-127068000D01*
X155459843Y-127315765D01*
X155600191Y-127525809D01*
X155810235Y-127666157D01*
X156058000Y-127715440D01*
X157558000Y-127715440D01*
X157805765Y-127666157D01*
X158015809Y-127525809D01*
X158156157Y-127315765D01*
X158199802Y-127096344D01*
X158223146Y-127080746D01*
X158262824Y-127021364D01*
X158555563Y-126728626D01*
X158719736Y-126660623D01*
X158994823Y-126385536D01*
X159126351Y-126068000D01*
X160310560Y-126068000D01*
X160310560Y-127068000D01*
X160359843Y-127315765D01*
X160500191Y-127525809D01*
X160710235Y-127666157D01*
X160958000Y-127715440D01*
X161183424Y-127715440D01*
X161195255Y-127733146D01*
X161254634Y-127772822D01*
X161466960Y-127985148D01*
X161603977Y-128315936D01*
X161879064Y-128591023D01*
X162238484Y-128739900D01*
X162627516Y-128739900D01*
X162986936Y-128591023D01*
X163262023Y-128315936D01*
X163410900Y-127956516D01*
X163410900Y-127567484D01*
X163262023Y-127208064D01*
X163105440Y-127051481D01*
X163105440Y-126068000D01*
X163284560Y-126068000D01*
X163284560Y-127068000D01*
X163333843Y-127315765D01*
X163474191Y-127525809D01*
X163684235Y-127666157D01*
X163932000Y-127715440D01*
X165432000Y-127715440D01*
X165679765Y-127666157D01*
X165889809Y-127525809D01*
X166030157Y-127315765D01*
X166039767Y-127267453D01*
X166188162Y-127237936D01*
X166423412Y-127080746D01*
X166463090Y-127021364D01*
X167416454Y-126068000D01*
X168184560Y-126068000D01*
X168184560Y-127068000D01*
X168233843Y-127315765D01*
X168374191Y-127525809D01*
X168584235Y-127666157D01*
X168832000Y-127715440D01*
X169010250Y-127715440D01*
X169029576Y-127744364D01*
X169029579Y-127744367D01*
X169069255Y-127803746D01*
X169075100Y-127807652D01*
X169075100Y-127956516D01*
X169223977Y-128315936D01*
X169499064Y-128591023D01*
X169858484Y-128739900D01*
X170247516Y-128739900D01*
X170606936Y-128591023D01*
X170882023Y-128315936D01*
X171030900Y-127956516D01*
X171030900Y-127567484D01*
X170927982Y-127319020D01*
X170930157Y-127315765D01*
X170979440Y-127068000D01*
X170979440Y-126068000D01*
X170930157Y-125820235D01*
X170789809Y-125610191D01*
X170579765Y-125469843D01*
X170332000Y-125420560D01*
X168832000Y-125420560D01*
X168584235Y-125469843D01*
X168374191Y-125610191D01*
X168233843Y-125820235D01*
X168184560Y-126068000D01*
X167416454Y-126068000D01*
X168676654Y-124807801D01*
X174539076Y-124807801D01*
X173747550Y-125599327D01*
X173553765Y-125469843D01*
X173306000Y-125420560D01*
X171806000Y-125420560D01*
X171558235Y-125469843D01*
X171348191Y-125610191D01*
X171207843Y-125820235D01*
X171158560Y-126068000D01*
X171158560Y-127068000D01*
X171207843Y-127315765D01*
X171348191Y-127525809D01*
X171558235Y-127666157D01*
X171806000Y-127715440D01*
X173306000Y-127715440D01*
X173553765Y-127666157D01*
X173763809Y-127525809D01*
X173904157Y-127315765D01*
X173913767Y-127267453D01*
X174062162Y-127237936D01*
X174297412Y-127080746D01*
X174337090Y-127021364D01*
X175290454Y-126068000D01*
X176058560Y-126068000D01*
X176058560Y-127068000D01*
X176107843Y-127315765D01*
X176175210Y-127416585D01*
X176060100Y-127694484D01*
X176060100Y-128083516D01*
X176208977Y-128442936D01*
X176484064Y-128718023D01*
X176843484Y-128866900D01*
X177232516Y-128866900D01*
X177591936Y-128718023D01*
X177867023Y-128442936D01*
X177914016Y-128329484D01*
X181140100Y-128329484D01*
X181140100Y-128718516D01*
X181288977Y-129077936D01*
X181406801Y-129195760D01*
X181406800Y-131628958D01*
X181392868Y-131699000D01*
X181406800Y-131769041D01*
X181406800Y-131769045D01*
X181448064Y-131976495D01*
X181448065Y-131976496D01*
X181565576Y-132152364D01*
X181565578Y-132152366D01*
X181605254Y-132211745D01*
X181664634Y-132251422D01*
X184188100Y-134774889D01*
X184188100Y-134941516D01*
X184336977Y-135300936D01*
X184612064Y-135576023D01*
X184971484Y-135724900D01*
X185360516Y-135724900D01*
X185719936Y-135576023D01*
X185995023Y-135300936D01*
X186143900Y-134941516D01*
X186143900Y-134552484D01*
X185995023Y-134193064D01*
X185719936Y-133917977D01*
X185360516Y-133769100D01*
X185193889Y-133769100D01*
X182829200Y-131404412D01*
X182829200Y-129195759D01*
X182947023Y-129077936D01*
X183095900Y-128718516D01*
X183095900Y-128329484D01*
X182947023Y-127970064D01*
X182671936Y-127694977D01*
X182312516Y-127546100D01*
X181923484Y-127546100D01*
X181564064Y-127694977D01*
X181288977Y-127970064D01*
X181140100Y-128329484D01*
X177914016Y-128329484D01*
X178015900Y-128083516D01*
X178015900Y-127913175D01*
X178125936Y-127748496D01*
X178132511Y-127715440D01*
X178206000Y-127715440D01*
X178453765Y-127666157D01*
X178663809Y-127525809D01*
X178804157Y-127315765D01*
X178853440Y-127068000D01*
X178853440Y-126068000D01*
X178804157Y-125820235D01*
X178663809Y-125610191D01*
X178453765Y-125469843D01*
X178206000Y-125420560D01*
X176706000Y-125420560D01*
X176458235Y-125469843D01*
X176248191Y-125610191D01*
X176107843Y-125820235D01*
X176058560Y-126068000D01*
X175290454Y-126068000D01*
X176550654Y-124807801D01*
X182413076Y-124807801D01*
X181621550Y-125599327D01*
X181427765Y-125469843D01*
X181180000Y-125420560D01*
X179680000Y-125420560D01*
X179432235Y-125469843D01*
X179222191Y-125610191D01*
X179081843Y-125820235D01*
X179032560Y-126068000D01*
X179032560Y-127068000D01*
X179081843Y-127315765D01*
X179222191Y-127525809D01*
X179432235Y-127666157D01*
X179680000Y-127715440D01*
X181180000Y-127715440D01*
X181427765Y-127666157D01*
X181637809Y-127525809D01*
X181778157Y-127315765D01*
X181787767Y-127267453D01*
X181936162Y-127237936D01*
X182171412Y-127080746D01*
X182211090Y-127021364D01*
X184424654Y-124807801D01*
X185594240Y-124807801D01*
X185479977Y-124922064D01*
X185331100Y-125281484D01*
X185331100Y-125420560D01*
X184580000Y-125420560D01*
X184332235Y-125469843D01*
X184122191Y-125610191D01*
X183981843Y-125820235D01*
X183932560Y-126068000D01*
X183932560Y-127068000D01*
X183981843Y-127315765D01*
X184122191Y-127525809D01*
X184332235Y-127666157D01*
X184580000Y-127715440D01*
X185988601Y-127715440D01*
X185860977Y-127843064D01*
X185712100Y-128202484D01*
X185712100Y-128591516D01*
X185860977Y-128950936D01*
X186105801Y-129195760D01*
X186105800Y-132932241D01*
X185987977Y-133050064D01*
X185839100Y-133409484D01*
X185839100Y-133798516D01*
X185987977Y-134157936D01*
X186263064Y-134433023D01*
X186622484Y-134581900D01*
X187011516Y-134581900D01*
X187370936Y-134433023D01*
X187646023Y-134157936D01*
X187794900Y-133798516D01*
X187794900Y-133409484D01*
X187646023Y-133050064D01*
X187528200Y-132932241D01*
X187528200Y-128928781D01*
X187667900Y-128591516D01*
X187667900Y-128202484D01*
X187519023Y-127843064D01*
X187357332Y-127681373D01*
X187528600Y-127715440D01*
X189028600Y-127715440D01*
X189276365Y-127666157D01*
X189486409Y-127525809D01*
X189626757Y-127315765D01*
X189676040Y-127068000D01*
X189676040Y-126068000D01*
X189626757Y-125820235D01*
X189486409Y-125610191D01*
X189276365Y-125469843D01*
X189028600Y-125420560D01*
X187528600Y-125420560D01*
X187286900Y-125468637D01*
X187286900Y-125281484D01*
X187138023Y-124922064D01*
X187023760Y-124807801D01*
X191477558Y-124807801D01*
X191547599Y-124821733D01*
X191617640Y-124807801D01*
X191617645Y-124807801D01*
X191825095Y-124766537D01*
X192060345Y-124609347D01*
X192100023Y-124549965D01*
X192183334Y-124466654D01*
X192428600Y-124515440D01*
X193837928Y-124515440D01*
X193770204Y-125033352D01*
X193830493Y-125420560D01*
X192428600Y-125420560D01*
X192180835Y-125469843D01*
X191970791Y-125610191D01*
X191830443Y-125820235D01*
X191781160Y-126068000D01*
X191781160Y-126475722D01*
X191597064Y-126551977D01*
X191321977Y-126827064D01*
X191173100Y-127186484D01*
X191173100Y-127575516D01*
X191321977Y-127934936D01*
X191597064Y-128210023D01*
X191956484Y-128358900D01*
X192345516Y-128358900D01*
X192704936Y-128210023D01*
X192980023Y-127934936D01*
X193070941Y-127715440D01*
X193928600Y-127715440D01*
X194176365Y-127666157D01*
X194386409Y-127525809D01*
X194526757Y-127315765D01*
X194576040Y-127068000D01*
X194576040Y-126903957D01*
X194730633Y-127079000D01*
X195385258Y-127492037D01*
X196129496Y-127704742D01*
X196903520Y-127700013D01*
X197645104Y-127478233D01*
X198294634Y-127057228D01*
X198799895Y-126470844D01*
X199120268Y-125766220D01*
X199230000Y-125000000D01*
X199229185Y-124933300D01*
X199100766Y-124169990D01*
X198763273Y-123473403D01*
X198243836Y-122899539D01*
X197584214Y-122494530D01*
X196837432Y-122290934D01*
X196063524Y-122305118D01*
X195324705Y-122535942D01*
X194680366Y-122964851D01*
X194576040Y-123088962D01*
X194576040Y-122868000D01*
X194526757Y-122620235D01*
X194386409Y-122410191D01*
X194176365Y-122269843D01*
X193928600Y-122220560D01*
X192428600Y-122220560D01*
X192180835Y-122269843D01*
X191970791Y-122410191D01*
X191830443Y-122620235D01*
X191786798Y-122839656D01*
X191763454Y-122855254D01*
X191723778Y-122914633D01*
X191253011Y-123385401D01*
X186727440Y-123385401D01*
X186727440Y-122868000D01*
X186702316Y-122741690D01*
X186893600Y-122741690D01*
X186893600Y-123082250D01*
X187052350Y-123241000D01*
X188151600Y-123241000D01*
X188151600Y-122391750D01*
X188405600Y-122391750D01*
X188405600Y-123241000D01*
X189504850Y-123241000D01*
X189663600Y-123082250D01*
X189663600Y-122741690D01*
X189566927Y-122508301D01*
X189388298Y-122329673D01*
X189154909Y-122233000D01*
X188564350Y-122233000D01*
X188405600Y-122391750D01*
X188151600Y-122391750D01*
X187992850Y-122233000D01*
X187402291Y-122233000D01*
X187168902Y-122329673D01*
X186990273Y-122508301D01*
X186893600Y-122741690D01*
X186702316Y-122741690D01*
X186678157Y-122620235D01*
X186537809Y-122410191D01*
X186327765Y-122269843D01*
X186080000Y-122220560D01*
X184580000Y-122220560D01*
X184332235Y-122269843D01*
X184122191Y-122410191D01*
X183981843Y-122620235D01*
X183938198Y-122839656D01*
X183914854Y-122855254D01*
X183875178Y-122914633D01*
X183404411Y-123385401D01*
X178853440Y-123385401D01*
X178853440Y-122868000D01*
X178828316Y-122741690D01*
X179045000Y-122741690D01*
X179045000Y-123082250D01*
X179203750Y-123241000D01*
X180303000Y-123241000D01*
X180303000Y-122391750D01*
X180557000Y-122391750D01*
X180557000Y-123241000D01*
X181656250Y-123241000D01*
X181815000Y-123082250D01*
X181815000Y-122741690D01*
X181718327Y-122508301D01*
X181539698Y-122329673D01*
X181306309Y-122233000D01*
X180715750Y-122233000D01*
X180557000Y-122391750D01*
X180303000Y-122391750D01*
X180144250Y-122233000D01*
X179553691Y-122233000D01*
X179320302Y-122329673D01*
X179141673Y-122508301D01*
X179045000Y-122741690D01*
X178828316Y-122741690D01*
X178804157Y-122620235D01*
X178663809Y-122410191D01*
X178453765Y-122269843D01*
X178206000Y-122220560D01*
X176706000Y-122220560D01*
X176458235Y-122269843D01*
X176248191Y-122410191D01*
X176107843Y-122620235D01*
X176064198Y-122839656D01*
X176040854Y-122855254D01*
X176001178Y-122914633D01*
X175530411Y-123385401D01*
X170979440Y-123385401D01*
X170979440Y-122868000D01*
X170954316Y-122741690D01*
X171171000Y-122741690D01*
X171171000Y-123082250D01*
X171329750Y-123241000D01*
X172429000Y-123241000D01*
X172429000Y-122391750D01*
X172683000Y-122391750D01*
X172683000Y-123241000D01*
X173782250Y-123241000D01*
X173941000Y-123082250D01*
X173941000Y-122741690D01*
X173844327Y-122508301D01*
X173665698Y-122329673D01*
X173432309Y-122233000D01*
X172841750Y-122233000D01*
X172683000Y-122391750D01*
X172429000Y-122391750D01*
X172270250Y-122233000D01*
X171679691Y-122233000D01*
X171446302Y-122329673D01*
X171267673Y-122508301D01*
X171171000Y-122741690D01*
X170954316Y-122741690D01*
X170930157Y-122620235D01*
X170789809Y-122410191D01*
X170579765Y-122269843D01*
X170332000Y-122220560D01*
X168967919Y-122220560D01*
X168727336Y-121979977D01*
X168367916Y-121831100D01*
X167978884Y-121831100D01*
X167619464Y-121979977D01*
X167344377Y-122255064D01*
X167195500Y-122614484D01*
X167195500Y-123003516D01*
X167344377Y-123362936D01*
X167619464Y-123638023D01*
X167771768Y-123701109D01*
X165873550Y-125599327D01*
X165679765Y-125469843D01*
X165432000Y-125420560D01*
X163932000Y-125420560D01*
X163684235Y-125469843D01*
X163474191Y-125610191D01*
X163333843Y-125820235D01*
X163284560Y-126068000D01*
X163105440Y-126068000D01*
X163056157Y-125820235D01*
X162915809Y-125610191D01*
X162705765Y-125469843D01*
X162458000Y-125420560D01*
X160958000Y-125420560D01*
X160710235Y-125469843D01*
X160500191Y-125610191D01*
X160359843Y-125820235D01*
X160310560Y-126068000D01*
X159126351Y-126068000D01*
X159143700Y-126026116D01*
X159143700Y-125637084D01*
X158994823Y-125277664D01*
X158719736Y-125002577D01*
X158360316Y-124853700D01*
X157971284Y-124853700D01*
X157611864Y-125002577D01*
X157336777Y-125277664D01*
X157277587Y-125420560D01*
X156169771Y-125420560D01*
X156230000Y-125000000D01*
X156229185Y-124933300D01*
X156156791Y-124503000D01*
X156522250Y-124503000D01*
X156681000Y-124344250D01*
X156681000Y-123495000D01*
X156935000Y-123495000D01*
X156935000Y-124344250D01*
X157093750Y-124503000D01*
X157684309Y-124503000D01*
X157917698Y-124406327D01*
X158096327Y-124227699D01*
X158193000Y-123994310D01*
X158193000Y-123653750D01*
X158034250Y-123495000D01*
X156935000Y-123495000D01*
X156681000Y-123495000D01*
X156661000Y-123495000D01*
X156661000Y-123241000D01*
X156681000Y-123241000D01*
X156681000Y-122391750D01*
X156935000Y-122391750D01*
X156935000Y-123241000D01*
X158034250Y-123241000D01*
X158193000Y-123082250D01*
X158193000Y-122741690D01*
X158096327Y-122508301D01*
X157917698Y-122329673D01*
X157684309Y-122233000D01*
X157093750Y-122233000D01*
X156935000Y-122391750D01*
X156681000Y-122391750D01*
X156522250Y-122233000D01*
X155931691Y-122233000D01*
X155698302Y-122329673D01*
X155519673Y-122508301D01*
X155423000Y-122741690D01*
X155423000Y-123082250D01*
X155581748Y-123240998D01*
X155552910Y-123240998D01*
X155243836Y-122899539D01*
X154584214Y-122494530D01*
X153837432Y-122290934D01*
X153063524Y-122305118D01*
X152324705Y-122535942D01*
X151680366Y-122964851D01*
X151182307Y-123557363D01*
X150870566Y-124265849D01*
X150770204Y-125033352D01*
X150710000Y-125033352D01*
X150710000Y-106172000D01*
X151139908Y-106172000D01*
X151255161Y-106751418D01*
X151583375Y-107242625D01*
X151881761Y-107442000D01*
X151583375Y-107641375D01*
X151255161Y-108132582D01*
X151139908Y-108712000D01*
X151255161Y-109291418D01*
X151583375Y-109782625D01*
X151881761Y-109982000D01*
X151583375Y-110181375D01*
X151255161Y-110672582D01*
X151139908Y-111252000D01*
X151255161Y-111831418D01*
X151583375Y-112322625D01*
X151881761Y-112522000D01*
X151583375Y-112721375D01*
X151255161Y-113212582D01*
X151139908Y-113792000D01*
X151255161Y-114371418D01*
X151583375Y-114862625D01*
X152074582Y-115190839D01*
X152507744Y-115277000D01*
X152800256Y-115277000D01*
X153233418Y-115190839D01*
X153724625Y-114862625D01*
X154052839Y-114371418D01*
X154168092Y-113792000D01*
X154163096Y-113766885D01*
X155530578Y-115134367D01*
X155570254Y-115193746D01*
X155629633Y-115233422D01*
X155629635Y-115233424D01*
X155805502Y-115350935D01*
X155805503Y-115350935D01*
X155805504Y-115350936D01*
X156012954Y-115392200D01*
X156012957Y-115392200D01*
X156082999Y-115406132D01*
X156153041Y-115392200D01*
X156554241Y-115392200D01*
X156672064Y-115510023D01*
X157031484Y-115658900D01*
X157420516Y-115658900D01*
X157779936Y-115510023D01*
X157784801Y-115505158D01*
X157784801Y-115533240D01*
X157666977Y-115651064D01*
X157518100Y-116010484D01*
X157518100Y-116399516D01*
X157666977Y-116758936D01*
X157942064Y-117034023D01*
X158301484Y-117182900D01*
X158690516Y-117182900D01*
X159049936Y-117034023D01*
X159108000Y-116975959D01*
X159108000Y-119943843D01*
X158998743Y-120053100D01*
X158936484Y-120053100D01*
X158577064Y-120201977D01*
X158301977Y-120477064D01*
X158153100Y-120836484D01*
X158153100Y-121225516D01*
X158301977Y-121584936D01*
X158577064Y-121860023D01*
X158936484Y-122008900D01*
X159325516Y-122008900D01*
X159684936Y-121860023D01*
X159960023Y-121584936D01*
X160108900Y-121225516D01*
X160108900Y-121163257D01*
X160393408Y-120878749D01*
X160458953Y-120834953D01*
X160632454Y-120575292D01*
X160678000Y-120346316D01*
X160678000Y-120346312D01*
X160693378Y-120269000D01*
X160678000Y-120191688D01*
X160678000Y-111076441D01*
X160827235Y-111176157D01*
X161075000Y-111225440D01*
X162775000Y-111225440D01*
X163022765Y-111176157D01*
X163232809Y-111035809D01*
X163373157Y-110825765D01*
X163422440Y-110578000D01*
X163422440Y-110252577D01*
X163440146Y-110240746D01*
X163479824Y-110181364D01*
X164110560Y-109550628D01*
X164110560Y-110578000D01*
X164159843Y-110825765D01*
X164300191Y-111035809D01*
X164510235Y-111176157D01*
X164758000Y-111225440D01*
X165390771Y-111225440D01*
X161254634Y-115361578D01*
X161195254Y-115401255D01*
X161155578Y-115460634D01*
X161155576Y-115460636D01*
X161122577Y-115510023D01*
X161038064Y-115636505D01*
X160996800Y-115843955D01*
X160996800Y-115843959D01*
X160982868Y-115914000D01*
X160996800Y-115984041D01*
X160996801Y-122220560D01*
X160958000Y-122220560D01*
X160710235Y-122269843D01*
X160500191Y-122410191D01*
X160359843Y-122620235D01*
X160310560Y-122868000D01*
X160310560Y-123868000D01*
X160359843Y-124115765D01*
X160500191Y-124325809D01*
X160710235Y-124466157D01*
X160958000Y-124515440D01*
X162458000Y-124515440D01*
X162705765Y-124466157D01*
X162915809Y-124325809D01*
X163056157Y-124115765D01*
X163105440Y-123868000D01*
X163105440Y-123653750D01*
X163297000Y-123653750D01*
X163297000Y-123994310D01*
X163393673Y-124227699D01*
X163572302Y-124406327D01*
X163805691Y-124503000D01*
X164396250Y-124503000D01*
X164555000Y-124344250D01*
X164555000Y-123495000D01*
X164809000Y-123495000D01*
X164809000Y-124344250D01*
X164967750Y-124503000D01*
X165558309Y-124503000D01*
X165791698Y-124406327D01*
X165970327Y-124227699D01*
X166067000Y-123994310D01*
X166067000Y-123653750D01*
X165908250Y-123495000D01*
X164809000Y-123495000D01*
X164555000Y-123495000D01*
X163455750Y-123495000D01*
X163297000Y-123653750D01*
X163105440Y-123653750D01*
X163105440Y-122868000D01*
X163080316Y-122741690D01*
X163297000Y-122741690D01*
X163297000Y-123082250D01*
X163455750Y-123241000D01*
X164555000Y-123241000D01*
X164555000Y-122391750D01*
X164809000Y-122391750D01*
X164809000Y-123241000D01*
X165908250Y-123241000D01*
X166067000Y-123082250D01*
X166067000Y-122741690D01*
X165970327Y-122508301D01*
X165791698Y-122329673D01*
X165558309Y-122233000D01*
X164967750Y-122233000D01*
X164809000Y-122391750D01*
X164555000Y-122391750D01*
X164396250Y-122233000D01*
X163805691Y-122233000D01*
X163572302Y-122329673D01*
X163393673Y-122508301D01*
X163297000Y-122741690D01*
X163080316Y-122741690D01*
X163056157Y-122620235D01*
X162915809Y-122410191D01*
X162705765Y-122269843D01*
X162458000Y-122220560D01*
X162419200Y-122220560D01*
X162419200Y-118395750D01*
X170787000Y-118395750D01*
X170787000Y-118936310D01*
X170883673Y-119169699D01*
X171062302Y-119348327D01*
X171295691Y-119445000D01*
X171623750Y-119445000D01*
X171782500Y-119286250D01*
X171782500Y-118237000D01*
X170945750Y-118237000D01*
X170787000Y-118395750D01*
X162419200Y-118395750D01*
X162419200Y-117283690D01*
X170787000Y-117283690D01*
X170787000Y-117824250D01*
X170945750Y-117983000D01*
X171782500Y-117983000D01*
X171782500Y-116933750D01*
X171623750Y-116775000D01*
X171295691Y-116775000D01*
X171062302Y-116871673D01*
X170883673Y-117050301D01*
X170787000Y-117283690D01*
X162419200Y-117283690D01*
X162419200Y-116208588D01*
X164110038Y-114517750D01*
X172058000Y-114517750D01*
X172058000Y-115158309D01*
X172154673Y-115391698D01*
X172333301Y-115570327D01*
X172566690Y-115667000D01*
X172682250Y-115667000D01*
X172841000Y-115508250D01*
X172841000Y-114359000D01*
X172216750Y-114359000D01*
X172058000Y-114517750D01*
X164110038Y-114517750D01*
X167585367Y-111042422D01*
X167644746Y-111002746D01*
X167684422Y-110943367D01*
X167684424Y-110943365D01*
X167801935Y-110767498D01*
X167801935Y-110767497D01*
X167801936Y-110767496D01*
X167843200Y-110560046D01*
X167843200Y-110560043D01*
X167857132Y-110490001D01*
X167843200Y-110419959D01*
X167843200Y-110265388D01*
X170013178Y-112435367D01*
X170052854Y-112494746D01*
X170070634Y-112506626D01*
X170070560Y-112507000D01*
X170070560Y-113057000D01*
X170119843Y-113304765D01*
X170260191Y-113514809D01*
X170470235Y-113655157D01*
X170718000Y-113704440D01*
X172058000Y-113704440D01*
X172058000Y-113946250D01*
X172216750Y-114105000D01*
X172841000Y-114105000D01*
X172841000Y-114085000D01*
X172845560Y-114085000D01*
X172845560Y-115032000D01*
X172894843Y-115279765D01*
X173024501Y-115473810D01*
X173024500Y-116947467D01*
X172910584Y-117023584D01*
X172909793Y-117024767D01*
X172756698Y-116871673D01*
X172523309Y-116775000D01*
X172195250Y-116775000D01*
X172036500Y-116933750D01*
X172036500Y-117983000D01*
X172056500Y-117983000D01*
X172056500Y-118237000D01*
X172036500Y-118237000D01*
X172036500Y-119286250D01*
X172195250Y-119445000D01*
X172523309Y-119445000D01*
X172756698Y-119348327D01*
X172909793Y-119195233D01*
X172910584Y-119196416D01*
X173199706Y-119389602D01*
X173288010Y-119407167D01*
X173393100Y-119512257D01*
X173393100Y-119574516D01*
X173541977Y-119933936D01*
X173817064Y-120209023D01*
X174176484Y-120357900D01*
X174565516Y-120357900D01*
X174924936Y-120209023D01*
X175200023Y-119933936D01*
X175348900Y-119574516D01*
X175348900Y-119278145D01*
X175515706Y-119389602D01*
X175856750Y-119457440D01*
X176344250Y-119457440D01*
X176685294Y-119389602D01*
X176974416Y-119196416D01*
X177038000Y-119101256D01*
X177101584Y-119196416D01*
X177390706Y-119389602D01*
X177731750Y-119457440D01*
X178219250Y-119457440D01*
X178560294Y-119389602D01*
X178849416Y-119196416D01*
X178988813Y-118987794D01*
X179256273Y-119166505D01*
X179587750Y-119232440D01*
X180025250Y-119232440D01*
X180356727Y-119166505D01*
X180594000Y-119007964D01*
X180831273Y-119166505D01*
X181162750Y-119232440D01*
X181600250Y-119232440D01*
X181931727Y-119166505D01*
X182212739Y-118978739D01*
X182400505Y-118697727D01*
X182466440Y-118366250D01*
X182466440Y-117853750D01*
X182400505Y-117522273D01*
X182212739Y-117241261D01*
X182182295Y-117220919D01*
X182206900Y-117161516D01*
X182206900Y-116772484D01*
X182058023Y-116413064D01*
X181782936Y-116137977D01*
X181423516Y-115989100D01*
X181034484Y-115989100D01*
X180675064Y-116137977D01*
X180399977Y-116413064D01*
X180251100Y-116772484D01*
X180251100Y-117032484D01*
X180025250Y-116987560D01*
X179587750Y-116987560D01*
X179256273Y-117053495D01*
X178988813Y-117232206D01*
X178849416Y-117023584D01*
X178560294Y-116830398D01*
X178219250Y-116762560D01*
X177731750Y-116762560D01*
X177390706Y-116830398D01*
X177101584Y-117023584D01*
X177038000Y-117118744D01*
X176974416Y-117023584D01*
X176811700Y-116914860D01*
X176811700Y-115679440D01*
X177243000Y-115679440D01*
X177368000Y-115654576D01*
X177493000Y-115679440D01*
X178043000Y-115679440D01*
X178168000Y-115654576D01*
X178293000Y-115679440D01*
X178843000Y-115679440D01*
X179090765Y-115630157D01*
X179300809Y-115489809D01*
X179441157Y-115279765D01*
X179490440Y-115032000D01*
X179490440Y-113704440D01*
X180818000Y-113704440D01*
X181065765Y-113655157D01*
X181275809Y-113514809D01*
X181416157Y-113304765D01*
X181465440Y-113057000D01*
X181465440Y-112507000D01*
X181440576Y-112382000D01*
X181465440Y-112257000D01*
X181465440Y-111707000D01*
X181440576Y-111582000D01*
X181465440Y-111457000D01*
X181465440Y-110907000D01*
X181440576Y-110782000D01*
X181465440Y-110657000D01*
X181465440Y-110107000D01*
X181440576Y-109982000D01*
X181465440Y-109857000D01*
X181465440Y-109307000D01*
X181440576Y-109182000D01*
X181465440Y-109057000D01*
X181465440Y-108693200D01*
X182767479Y-108693200D01*
X183747645Y-109673367D01*
X183787321Y-109732746D01*
X183846700Y-109772422D01*
X183846702Y-109772424D01*
X184022569Y-109889935D01*
X184022570Y-109889935D01*
X184022571Y-109889936D01*
X184084245Y-109902204D01*
X184231064Y-110049023D01*
X184590484Y-110197900D01*
X184979516Y-110197900D01*
X185338936Y-110049023D01*
X185614023Y-109773936D01*
X185762900Y-109414516D01*
X185762900Y-109025484D01*
X185614023Y-108666064D01*
X185338936Y-108390977D01*
X184979516Y-108242100D01*
X184590484Y-108242100D01*
X184404849Y-108318993D01*
X183895407Y-107809552D01*
X183963023Y-107741936D01*
X184111900Y-107382516D01*
X184111900Y-106993484D01*
X183988446Y-106695440D01*
X184886000Y-106695440D01*
X185133765Y-106646157D01*
X185343809Y-106505809D01*
X185391657Y-106434200D01*
X187480343Y-106434200D01*
X187528191Y-106505809D01*
X187738235Y-106646157D01*
X187986000Y-106695440D01*
X189036000Y-106695440D01*
X189283765Y-106646157D01*
X189493809Y-106505809D01*
X189634157Y-106295765D01*
X189683440Y-106048000D01*
X189683440Y-105450519D01*
X189805023Y-105328936D01*
X189953900Y-104969516D01*
X189953900Y-104580484D01*
X189805023Y-104221064D01*
X189650012Y-104066053D01*
X189683440Y-103898000D01*
X189683440Y-103248000D01*
X189634157Y-103000235D01*
X189493809Y-102790191D01*
X189283765Y-102649843D01*
X189036000Y-102600560D01*
X187986000Y-102600560D01*
X187738235Y-102649843D01*
X187528191Y-102790191D01*
X187480343Y-102861800D01*
X185391657Y-102861800D01*
X185343809Y-102790191D01*
X185133765Y-102649843D01*
X184886000Y-102600560D01*
X183836000Y-102600560D01*
X183588235Y-102649843D01*
X183378191Y-102790191D01*
X183237843Y-103000235D01*
X183228382Y-103047800D01*
X181900759Y-103047800D01*
X181782936Y-102929977D01*
X181423516Y-102781100D01*
X181034484Y-102781100D01*
X180675064Y-102929977D01*
X180399977Y-103205064D01*
X180251100Y-103564484D01*
X180251100Y-103953516D01*
X180399977Y-104312936D01*
X180675064Y-104588023D01*
X181034484Y-104736900D01*
X181423516Y-104736900D01*
X181782936Y-104588023D01*
X181900759Y-104470200D01*
X183549388Y-104470200D01*
X183588235Y-104496157D01*
X183836000Y-104545440D01*
X184886000Y-104545440D01*
X185133765Y-104496157D01*
X185343809Y-104355809D01*
X185391657Y-104284200D01*
X187480343Y-104284200D01*
X187528191Y-104355809D01*
X187738235Y-104496157D01*
X187986000Y-104545440D01*
X188012616Y-104545440D01*
X187998100Y-104580484D01*
X187998100Y-104727486D01*
X187982174Y-104751321D01*
X187738235Y-104799843D01*
X187528191Y-104940191D01*
X187480343Y-105011800D01*
X185391657Y-105011800D01*
X185343809Y-104940191D01*
X185133765Y-104799843D01*
X184886000Y-104750560D01*
X183836000Y-104750560D01*
X183588235Y-104799843D01*
X183378191Y-104940191D01*
X183237843Y-105150235D01*
X183188560Y-105398000D01*
X183188560Y-106048000D01*
X183220803Y-106210100D01*
X182939484Y-106210100D01*
X182580064Y-106358977D01*
X182462241Y-106476800D01*
X181294257Y-106476800D01*
X181275809Y-106449191D01*
X181065765Y-106308843D01*
X180818000Y-106259560D01*
X179490440Y-106259560D01*
X179490440Y-104932000D01*
X179441157Y-104684235D01*
X179300809Y-104474191D01*
X179090765Y-104333843D01*
X178843000Y-104284560D01*
X178293000Y-104284560D01*
X178168000Y-104309424D01*
X178043000Y-104284560D01*
X177493000Y-104284560D01*
X177368000Y-104309424D01*
X177243000Y-104284560D01*
X176918000Y-104284560D01*
X176918000Y-103743559D01*
X177035459Y-103626101D01*
X177071350Y-103633240D01*
X177558850Y-103633240D01*
X177772736Y-103590695D01*
X177881064Y-103699023D01*
X178240484Y-103847900D01*
X178629516Y-103847900D01*
X178988936Y-103699023D01*
X179264023Y-103423936D01*
X179412900Y-103064516D01*
X179412900Y-102675484D01*
X179264023Y-102316064D01*
X178988936Y-102040977D01*
X178629516Y-101892100D01*
X178462888Y-101892100D01*
X178450040Y-101879252D01*
X178450040Y-101829550D01*
X178382202Y-101488506D01*
X178189016Y-101199384D01*
X177899894Y-101006198D01*
X177558850Y-100938360D01*
X177071350Y-100938360D01*
X176730306Y-101006198D01*
X176441184Y-101199384D01*
X176377600Y-101294544D01*
X176314016Y-101199384D01*
X176024894Y-101006198D01*
X175683850Y-100938360D01*
X175196350Y-100938360D01*
X174855306Y-101006198D01*
X174566184Y-101199384D01*
X174372998Y-101488506D01*
X174305160Y-101829550D01*
X174305160Y-102742050D01*
X174372998Y-103083094D01*
X174566184Y-103372216D01*
X174690100Y-103455015D01*
X174690101Y-104437501D01*
X174635191Y-104474191D01*
X174568000Y-104574749D01*
X174500809Y-104474191D01*
X174376138Y-104390888D01*
X174338423Y-104353173D01*
X174280746Y-104266854D01*
X174235067Y-104236332D01*
X174204545Y-104190653D01*
X173969295Y-104033463D01*
X173761845Y-103992199D01*
X173761840Y-103992199D01*
X173691799Y-103978267D01*
X173621758Y-103992199D01*
X169178642Y-103992199D01*
X169108600Y-103978267D01*
X169038558Y-103992199D01*
X169038555Y-103992199D01*
X168831105Y-104033463D01*
X168831104Y-104033464D01*
X168831103Y-104033464D01*
X168655236Y-104150975D01*
X168655234Y-104150977D01*
X168595855Y-104190653D01*
X168556179Y-104250032D01*
X165694412Y-107111800D01*
X164902442Y-107111800D01*
X164832400Y-107097868D01*
X164762358Y-107111800D01*
X164762354Y-107111800D01*
X164554904Y-107153064D01*
X164502620Y-107187999D01*
X164379035Y-107270576D01*
X164379033Y-107270578D01*
X164319654Y-107310254D01*
X164279978Y-107369633D01*
X163230778Y-108418834D01*
X163022765Y-108279843D01*
X162775000Y-108230560D01*
X161075000Y-108230560D01*
X160827235Y-108279843D01*
X160678000Y-108379559D01*
X160678000Y-105824510D01*
X160693378Y-105747199D01*
X160678000Y-105669888D01*
X160678000Y-105669884D01*
X160632454Y-105440908D01*
X160552885Y-105321825D01*
X160502749Y-105246791D01*
X160502747Y-105246789D01*
X160458953Y-105181247D01*
X160393411Y-105137453D01*
X158840125Y-103584168D01*
X158864009Y-103568209D01*
X159004357Y-103358165D01*
X159013384Y-103312781D01*
X159025575Y-103331025D01*
X159516782Y-103659239D01*
X159949944Y-103745400D01*
X160242456Y-103745400D01*
X160675618Y-103659239D01*
X161166825Y-103331025D01*
X161366200Y-103032639D01*
X161565575Y-103331025D01*
X162056782Y-103659239D01*
X162489944Y-103745400D01*
X162782456Y-103745400D01*
X163215618Y-103659239D01*
X163706825Y-103331025D01*
X163906200Y-103032639D01*
X164105575Y-103331025D01*
X164596782Y-103659239D01*
X165029944Y-103745400D01*
X165322456Y-103745400D01*
X165755618Y-103659239D01*
X166246825Y-103331025D01*
X166446200Y-103032639D01*
X166645575Y-103331025D01*
X167136782Y-103659239D01*
X167569944Y-103745400D01*
X167862456Y-103745400D01*
X168295618Y-103659239D01*
X168786825Y-103331025D01*
X169115039Y-102839818D01*
X169230292Y-102260400D01*
X169115039Y-101680982D01*
X168786825Y-101189775D01*
X168295618Y-100861561D01*
X167862456Y-100775400D01*
X167569944Y-100775400D01*
X167136782Y-100861561D01*
X166645575Y-101189775D01*
X166446200Y-101488161D01*
X166246825Y-101189775D01*
X165755618Y-100861561D01*
X165322456Y-100775400D01*
X165029944Y-100775400D01*
X164596782Y-100861561D01*
X164105575Y-101189775D01*
X163906200Y-101488161D01*
X163706825Y-101189775D01*
X163215618Y-100861561D01*
X162782456Y-100775400D01*
X162489944Y-100775400D01*
X162056782Y-100861561D01*
X161565575Y-101189775D01*
X161366200Y-101488161D01*
X161166825Y-101189775D01*
X160675618Y-100861561D01*
X160242456Y-100775400D01*
X159949944Y-100775400D01*
X159516782Y-100861561D01*
X159025575Y-101189775D01*
X159013384Y-101208019D01*
X159004357Y-101162635D01*
X158864009Y-100952591D01*
X158653965Y-100812243D01*
X158406200Y-100762960D01*
X156706200Y-100762960D01*
X156458435Y-100812243D01*
X156248391Y-100952591D01*
X156108043Y-101162635D01*
X156058760Y-101410400D01*
X156058760Y-103110400D01*
X156108043Y-103358165D01*
X156248391Y-103568209D01*
X156458435Y-103708557D01*
X156706200Y-103757840D01*
X156844241Y-103757840D01*
X156990247Y-103976353D01*
X157055792Y-104020149D01*
X159108001Y-106072359D01*
X159108001Y-107814042D01*
X159049936Y-107755977D01*
X158690516Y-107607100D01*
X158301484Y-107607100D01*
X157942064Y-107755977D01*
X157666977Y-108031064D01*
X157518100Y-108390484D01*
X157518100Y-108779516D01*
X157666977Y-109138936D01*
X157784800Y-109256759D01*
X157784800Y-111642387D01*
X157547516Y-111544100D01*
X157158484Y-111544100D01*
X156799064Y-111692977D01*
X156719915Y-111772126D01*
X154083759Y-109135971D01*
X154168092Y-108712000D01*
X154052839Y-108132582D01*
X153724625Y-107641375D01*
X153426239Y-107442000D01*
X153724625Y-107242625D01*
X154052839Y-106751418D01*
X154168092Y-106172000D01*
X154052839Y-105592582D01*
X153724625Y-105101375D01*
X153702967Y-105086904D01*
X153863698Y-105020327D01*
X154042327Y-104841699D01*
X154139000Y-104608310D01*
X154139000Y-103917750D01*
X153980250Y-103759000D01*
X152781000Y-103759000D01*
X152781000Y-103779000D01*
X152527000Y-103779000D01*
X152527000Y-103759000D01*
X151327750Y-103759000D01*
X151169000Y-103917750D01*
X151169000Y-104608310D01*
X151265673Y-104841699D01*
X151444302Y-105020327D01*
X151605033Y-105086904D01*
X151583375Y-105101375D01*
X151255161Y-105592582D01*
X151139908Y-106172000D01*
X150710000Y-106172000D01*
X150710000Y-102655690D01*
X151169000Y-102655690D01*
X151169000Y-103346250D01*
X151327750Y-103505000D01*
X152527000Y-103505000D01*
X152527000Y-102305750D01*
X152781000Y-102305750D01*
X152781000Y-103505000D01*
X153980250Y-103505000D01*
X154139000Y-103346250D01*
X154139000Y-102655690D01*
X154042327Y-102422301D01*
X153863698Y-102243673D01*
X153630309Y-102147000D01*
X152939750Y-102147000D01*
X152781000Y-102305750D01*
X152527000Y-102305750D01*
X152368250Y-102147000D01*
X151677691Y-102147000D01*
X151444302Y-102243673D01*
X151265673Y-102422301D01*
X151169000Y-102655690D01*
X150710000Y-102655690D01*
X150710000Y-100710000D01*
X199290000Y-100710000D01*
X199290001Y-130711796D01*
X199290001Y-130711796D01*
G37*
X199290001Y-130711796D02*
X199204765Y-130654843D01*
X198957000Y-130605560D01*
X197457000Y-130605560D01*
X197388421Y-130619201D01*
X197257000Y-130593060D01*
X196557000Y-130593060D01*
X196309235Y-130642343D01*
X196099191Y-130782691D01*
X195958843Y-130992735D01*
X195947341Y-131050560D01*
X195157000Y-131050560D01*
X195094459Y-131063000D01*
X194922978Y-131063000D01*
X194540864Y-131139007D01*
X194107543Y-131428543D01*
X193818007Y-131861864D01*
X193716336Y-132373000D01*
X193797405Y-132780560D01*
X193707000Y-132780560D01*
X193459235Y-132829843D01*
X193249191Y-132970191D01*
X193108843Y-133180235D01*
X193059560Y-133428000D01*
X193059560Y-134858000D01*
X193108293Y-135103000D01*
X193059560Y-135348000D01*
X193059560Y-136778000D01*
X193108843Y-137025765D01*
X193249191Y-137235809D01*
X193459235Y-137376157D01*
X193707000Y-137425440D01*
X193797405Y-137425440D01*
X193716336Y-137833000D01*
X193818007Y-138344136D01*
X194107543Y-138777457D01*
X194540864Y-139066993D01*
X194922978Y-139143000D01*
X194993911Y-139143000D01*
X195157000Y-139175440D01*
X195738651Y-139175440D01*
X195963301Y-139400090D01*
X195963301Y-139520860D01*
X195800584Y-139629584D01*
X195607398Y-139918706D01*
X195539560Y-140259750D01*
X195539560Y-141172250D01*
X195607398Y-141513294D01*
X195800584Y-141802416D01*
X196089706Y-141995602D01*
X196430750Y-142063440D01*
X196918250Y-142063440D01*
X197259294Y-141995602D01*
X197548416Y-141802416D01*
X197612000Y-141707256D01*
X197675584Y-141802416D01*
X197964706Y-141995602D01*
X198305750Y-142063440D01*
X198793250Y-142063440D01*
X199134294Y-141995602D01*
X199290001Y-141891562D01*
X199290001Y-149290000D01*
X150710000Y-149290000D01*
X150710000Y-145497550D01*
X161389000Y-145497550D01*
X161389000Y-146038110D01*
X161485673Y-146271499D01*
X161664302Y-146450127D01*
X161897691Y-146546800D01*
X162225750Y-146546800D01*
X162384500Y-146388050D01*
X162384500Y-145338800D01*
X161547750Y-145338800D01*
X161389000Y-145497550D01*
X150710000Y-145497550D01*
X150710000Y-144385490D01*
X161389000Y-144385490D01*
X161389000Y-144926050D01*
X161547750Y-145084800D01*
X162384500Y-145084800D01*
X162384500Y-144035550D01*
X162638500Y-144035550D01*
X162638500Y-145084800D01*
X162658500Y-145084800D01*
X162658500Y-145338800D01*
X162638500Y-145338800D01*
X162638500Y-146388050D01*
X162797250Y-146546800D01*
X163125309Y-146546800D01*
X163358698Y-146450127D01*
X163511793Y-146297033D01*
X163512584Y-146298216D01*
X163801706Y-146491402D01*
X164142750Y-146559240D01*
X164630250Y-146559240D01*
X164971294Y-146491402D01*
X165260416Y-146298216D01*
X165399813Y-146089594D01*
X165667273Y-146268305D01*
X165998750Y-146334240D01*
X166436250Y-146334240D01*
X166767727Y-146268305D01*
X167005000Y-146109764D01*
X167242273Y-146268305D01*
X167573750Y-146334240D01*
X168011250Y-146334240D01*
X168342727Y-146268305D01*
X168623739Y-146080539D01*
X168811505Y-145799527D01*
X168877440Y-145468050D01*
X168877440Y-145122900D01*
X168977516Y-145122900D01*
X169336936Y-144974023D01*
X169428409Y-144882550D01*
X172577960Y-144882550D01*
X172577960Y-145795050D01*
X172645798Y-146136094D01*
X172838984Y-146425216D01*
X173128106Y-146618402D01*
X173469150Y-146686240D01*
X173956650Y-146686240D01*
X174297694Y-146618402D01*
X174586816Y-146425216D01*
X174650400Y-146330056D01*
X174713984Y-146425216D01*
X175003106Y-146618402D01*
X175344150Y-146686240D01*
X175629858Y-146686240D01*
X175700977Y-146857936D01*
X175976064Y-147133023D01*
X176335484Y-147281900D01*
X176724516Y-147281900D01*
X177083936Y-147133023D01*
X177359023Y-146857936D01*
X177507900Y-146498516D01*
X177507900Y-146109484D01*
X177359023Y-145750064D01*
X177083936Y-145474977D01*
X176724516Y-145326100D01*
X176722840Y-145326100D01*
X176722840Y-144882550D01*
X176655002Y-144541506D01*
X176461816Y-144252384D01*
X176172694Y-144059198D01*
X176114279Y-144047579D01*
X176177011Y-143984847D01*
X176206072Y-143965429D01*
X177267051Y-145026408D01*
X177310847Y-145091953D01*
X177570508Y-145265454D01*
X177799484Y-145311000D01*
X177799488Y-145311000D01*
X177876800Y-145326378D01*
X177954112Y-145311000D01*
X178685129Y-145311000D01*
X178742235Y-145349157D01*
X178990000Y-145398440D01*
X179590000Y-145398440D01*
X179837765Y-145349157D01*
X180047809Y-145208809D01*
X180188157Y-144998765D01*
X180237440Y-144751000D01*
X180237440Y-144368174D01*
X180442560Y-144453137D01*
X180442560Y-144751000D01*
X180491843Y-144998765D01*
X180616272Y-145184985D01*
X180650546Y-145357291D01*
X180824047Y-145616953D01*
X180889592Y-145660749D01*
X182515853Y-147287011D01*
X182559647Y-147352553D01*
X182625189Y-147396347D01*
X182625191Y-147396349D01*
X182819308Y-147526054D01*
X183048284Y-147571600D01*
X183048287Y-147571600D01*
X183125599Y-147586978D01*
X183202911Y-147571600D01*
X190780560Y-147571600D01*
X190780560Y-147636600D01*
X190829843Y-147884365D01*
X190970191Y-148094409D01*
X191180235Y-148234757D01*
X191428000Y-148284040D01*
X193128000Y-148284040D01*
X193375765Y-148234757D01*
X193585809Y-148094409D01*
X193726157Y-147884365D01*
X193775440Y-147636600D01*
X193775440Y-145962000D01*
X195733560Y-145962000D01*
X195733560Y-147662000D01*
X195782843Y-147909765D01*
X195923191Y-148119809D01*
X196133235Y-148260157D01*
X196381000Y-148309440D01*
X198081000Y-148309440D01*
X198328765Y-148260157D01*
X198538809Y-148119809D01*
X198679157Y-147909765D01*
X198728440Y-147662000D01*
X198728440Y-145962000D01*
X198679157Y-145714235D01*
X198538809Y-145504191D01*
X198328765Y-145363843D01*
X198081000Y-145314560D01*
X196381000Y-145314560D01*
X196133235Y-145363843D01*
X195923191Y-145504191D01*
X195782843Y-145714235D01*
X195733560Y-145962000D01*
X193775440Y-145962000D01*
X193775440Y-145936600D01*
X193726157Y-145688835D01*
X193585809Y-145478791D01*
X193375765Y-145338443D01*
X193128000Y-145289160D01*
X191428000Y-145289160D01*
X191180235Y-145338443D01*
X190970191Y-145478791D01*
X190829843Y-145688835D01*
X190780560Y-145936600D01*
X190780560Y-146001600D01*
X183450758Y-146001600D01*
X182314664Y-144865506D01*
X182337440Y-144751000D01*
X182337440Y-144301000D01*
X182288157Y-144053235D01*
X182147809Y-143843191D01*
X182079018Y-143797226D01*
X182031173Y-143725621D01*
X181999749Y-143678591D01*
X181999747Y-143678589D01*
X181955953Y-143613047D01*
X181890410Y-143569253D01*
X181698900Y-143377742D01*
X181698900Y-143315484D01*
X181550023Y-142956064D01*
X181274936Y-142680977D01*
X180915516Y-142532100D01*
X180526484Y-142532100D01*
X180167064Y-142680977D01*
X179891977Y-142956064D01*
X179743100Y-143315484D01*
X179743100Y-143684013D01*
X179590000Y-143653560D01*
X178990000Y-143653560D01*
X178742235Y-143702843D01*
X178685129Y-143741000D01*
X178201957Y-143741000D01*
X176649040Y-142188083D01*
X176649040Y-142053517D01*
X176947558Y-141755000D01*
X178583529Y-141755000D01*
X178640635Y-141793157D01*
X178888400Y-141842440D01*
X179488400Y-141842440D01*
X179736165Y-141793157D01*
X179946209Y-141652809D01*
X180086557Y-141442765D01*
X180135840Y-141195000D01*
X180135840Y-140745000D01*
X180340960Y-140745000D01*
X180340960Y-141195000D01*
X180390243Y-141442765D01*
X180530591Y-141652809D01*
X180740635Y-141793157D01*
X180988400Y-141842440D01*
X181588400Y-141842440D01*
X181836165Y-141793157D01*
X181893271Y-141755000D01*
X185469688Y-141755000D01*
X185547000Y-141770378D01*
X185624312Y-141755000D01*
X185624316Y-141755000D01*
X185853292Y-141709454D01*
X186112953Y-141535953D01*
X186156749Y-141470408D01*
X192156258Y-135470900D01*
X192218516Y-135470900D01*
X192577936Y-135322023D01*
X192853023Y-135046936D01*
X193001900Y-134687516D01*
X193001900Y-134298484D01*
X192853023Y-133939064D01*
X192577936Y-133663977D01*
X192218516Y-133515100D01*
X191829484Y-133515100D01*
X191470064Y-133663977D01*
X191194977Y-133939064D01*
X191046100Y-134298484D01*
X191046100Y-134360742D01*
X185221843Y-140185000D01*
X182141000Y-140185000D01*
X182141000Y-139916959D01*
X182185023Y-139872936D01*
X182333900Y-139513516D01*
X182333900Y-139124484D01*
X182185023Y-138765064D01*
X181909936Y-138489977D01*
X181550516Y-138341100D01*
X181161484Y-138341100D01*
X180802064Y-138489977D01*
X180526977Y-138765064D01*
X180378100Y-139124484D01*
X180378100Y-139513516D01*
X180526977Y-139872936D01*
X180571000Y-139916959D01*
X180571001Y-140260190D01*
X180530591Y-140287191D01*
X180390243Y-140497235D01*
X180340960Y-140745000D01*
X180135840Y-140745000D01*
X180086557Y-140497235D01*
X179946209Y-140287191D01*
X179736165Y-140146843D01*
X179488400Y-140097560D01*
X178888400Y-140097560D01*
X178640635Y-140146843D01*
X178583529Y-140185000D01*
X176699710Y-140185000D01*
X176649040Y-140174921D01*
X176649040Y-139390800D01*
X176599757Y-139143035D01*
X176459409Y-138932991D01*
X176409885Y-138899900D01*
X176597516Y-138899900D01*
X176956936Y-138751023D01*
X177232023Y-138475936D01*
X177380900Y-138116516D01*
X177380900Y-137727484D01*
X177232023Y-137368064D01*
X176956936Y-137092977D01*
X176902940Y-137070611D01*
X176902940Y-136322750D01*
X176835102Y-135981706D01*
X176641916Y-135692584D01*
X176352794Y-135499398D01*
X176011750Y-135431560D01*
X175524250Y-135431560D01*
X175183206Y-135499398D01*
X174894084Y-135692584D01*
X174893293Y-135693767D01*
X174740198Y-135540673D01*
X174506809Y-135444000D01*
X174178750Y-135444000D01*
X174020000Y-135602750D01*
X174020000Y-136652000D01*
X174040000Y-136652000D01*
X174040000Y-136906000D01*
X174020000Y-136906000D01*
X174020000Y-137955250D01*
X174178750Y-138114000D01*
X174506809Y-138114000D01*
X174740198Y-138017327D01*
X174893293Y-137864233D01*
X174894084Y-137865416D01*
X175183206Y-138058602D01*
X175425100Y-138106718D01*
X175425100Y-138116516D01*
X175573977Y-138475936D01*
X175841401Y-138743360D01*
X175351600Y-138743360D01*
X175103835Y-138792643D01*
X174893791Y-138932991D01*
X174753443Y-139143035D01*
X174731658Y-139252559D01*
X174639927Y-139031102D01*
X174461299Y-138852473D01*
X174227910Y-138755800D01*
X174062350Y-138755800D01*
X173903600Y-138914550D01*
X173903600Y-139793800D01*
X173923600Y-139793800D01*
X173923600Y-140047800D01*
X173903600Y-140047800D01*
X173903600Y-140067800D01*
X173649600Y-140067800D01*
X173649600Y-140047800D01*
X172975350Y-140047800D01*
X172816600Y-140206550D01*
X172816600Y-140577109D01*
X172913273Y-140810498D01*
X173091901Y-140989127D01*
X173164248Y-141019094D01*
X172993791Y-141132991D01*
X172853443Y-141343035D01*
X172804160Y-141590800D01*
X172804160Y-142650800D01*
X172853443Y-142898565D01*
X172927901Y-143009998D01*
X172927900Y-144192972D01*
X172838984Y-144252384D01*
X172645798Y-144541506D01*
X172577960Y-144882550D01*
X169428409Y-144882550D01*
X169612023Y-144698936D01*
X169760900Y-144339516D01*
X169760900Y-143950484D01*
X169612023Y-143591064D01*
X169336936Y-143315977D01*
X168977516Y-143167100D01*
X168588484Y-143167100D01*
X168229064Y-143315977D01*
X167953977Y-143591064D01*
X167805100Y-143950484D01*
X167805100Y-144089360D01*
X167573750Y-144089360D01*
X167242273Y-144155295D01*
X167005000Y-144313836D01*
X166767727Y-144155295D01*
X166436250Y-144089360D01*
X165998750Y-144089360D01*
X165667273Y-144155295D01*
X165399813Y-144334006D01*
X165260416Y-144125384D01*
X164971294Y-143932198D01*
X164630250Y-143864360D01*
X164142750Y-143864360D01*
X163801706Y-143932198D01*
X163512584Y-144125384D01*
X163511793Y-144126567D01*
X163358698Y-143973473D01*
X163125309Y-143876800D01*
X162797250Y-143876800D01*
X162638500Y-144035550D01*
X162384500Y-144035550D01*
X162225750Y-143876800D01*
X161897691Y-143876800D01*
X161664302Y-143973473D01*
X161485673Y-144152101D01*
X161389000Y-144385490D01*
X150710000Y-144385490D01*
X150710000Y-139264491D01*
X172816600Y-139264491D01*
X172816600Y-139635050D01*
X172975350Y-139793800D01*
X173649600Y-139793800D01*
X173649600Y-138914550D01*
X173490850Y-138755800D01*
X173325290Y-138755800D01*
X173091901Y-138852473D01*
X172913273Y-139031102D01*
X172816600Y-139264491D01*
X150710000Y-139264491D01*
X150710000Y-137064750D01*
X172770500Y-137064750D01*
X172770500Y-137605310D01*
X172867173Y-137838699D01*
X173045802Y-138017327D01*
X173279191Y-138114000D01*
X173607250Y-138114000D01*
X173766000Y-137955250D01*
X173766000Y-136906000D01*
X172929250Y-136906000D01*
X172770500Y-137064750D01*
X150710000Y-137064750D01*
X150710000Y-135952690D01*
X172770500Y-135952690D01*
X172770500Y-136493250D01*
X172929250Y-136652000D01*
X173766000Y-136652000D01*
X173766000Y-135602750D01*
X173607250Y-135444000D01*
X173279191Y-135444000D01*
X173045802Y-135540673D01*
X172867173Y-135719301D01*
X172770500Y-135952690D01*
X150710000Y-135952690D01*
X150710000Y-125033352D01*
X150770204Y-125033352D01*
X150889288Y-125798175D01*
X151218246Y-126498832D01*
X151730633Y-127079000D01*
X152385258Y-127492037D01*
X153129496Y-127704742D01*
X153903520Y-127700013D01*
X154645104Y-127478233D01*
X155294634Y-127057228D01*
X155410560Y-126922689D01*
X155410560Y-127068000D01*
X155459843Y-127315765D01*
X155600191Y-127525809D01*
X155810235Y-127666157D01*
X156058000Y-127715440D01*
X157558000Y-127715440D01*
X157805765Y-127666157D01*
X158015809Y-127525809D01*
X158156157Y-127315765D01*
X158199802Y-127096344D01*
X158223146Y-127080746D01*
X158262824Y-127021364D01*
X158555563Y-126728626D01*
X158719736Y-126660623D01*
X158994823Y-126385536D01*
X159126351Y-126068000D01*
X160310560Y-126068000D01*
X160310560Y-127068000D01*
X160359843Y-127315765D01*
X160500191Y-127525809D01*
X160710235Y-127666157D01*
X160958000Y-127715440D01*
X161183424Y-127715440D01*
X161195255Y-127733146D01*
X161254634Y-127772822D01*
X161466960Y-127985148D01*
X161603977Y-128315936D01*
X161879064Y-128591023D01*
X162238484Y-128739900D01*
X162627516Y-128739900D01*
X162986936Y-128591023D01*
X163262023Y-128315936D01*
X163410900Y-127956516D01*
X163410900Y-127567484D01*
X163262023Y-127208064D01*
X163105440Y-127051481D01*
X163105440Y-126068000D01*
X163284560Y-126068000D01*
X163284560Y-127068000D01*
X163333843Y-127315765D01*
X163474191Y-127525809D01*
X163684235Y-127666157D01*
X163932000Y-127715440D01*
X165432000Y-127715440D01*
X165679765Y-127666157D01*
X165889809Y-127525809D01*
X166030157Y-127315765D01*
X166039767Y-127267453D01*
X166188162Y-127237936D01*
X166423412Y-127080746D01*
X166463090Y-127021364D01*
X167416454Y-126068000D01*
X168184560Y-126068000D01*
X168184560Y-127068000D01*
X168233843Y-127315765D01*
X168374191Y-127525809D01*
X168584235Y-127666157D01*
X168832000Y-127715440D01*
X169010250Y-127715440D01*
X169029576Y-127744364D01*
X169029579Y-127744367D01*
X169069255Y-127803746D01*
X169075100Y-127807652D01*
X169075100Y-127956516D01*
X169223977Y-128315936D01*
X169499064Y-128591023D01*
X169858484Y-128739900D01*
X170247516Y-128739900D01*
X170606936Y-128591023D01*
X170882023Y-128315936D01*
X171030900Y-127956516D01*
X171030900Y-127567484D01*
X170927982Y-127319020D01*
X170930157Y-127315765D01*
X170979440Y-127068000D01*
X170979440Y-126068000D01*
X170930157Y-125820235D01*
X170789809Y-125610191D01*
X170579765Y-125469843D01*
X170332000Y-125420560D01*
X168832000Y-125420560D01*
X168584235Y-125469843D01*
X168374191Y-125610191D01*
X168233843Y-125820235D01*
X168184560Y-126068000D01*
X167416454Y-126068000D01*
X168676654Y-124807801D01*
X174539076Y-124807801D01*
X173747550Y-125599327D01*
X173553765Y-125469843D01*
X173306000Y-125420560D01*
X171806000Y-125420560D01*
X171558235Y-125469843D01*
X171348191Y-125610191D01*
X171207843Y-125820235D01*
X171158560Y-126068000D01*
X171158560Y-127068000D01*
X171207843Y-127315765D01*
X171348191Y-127525809D01*
X171558235Y-127666157D01*
X171806000Y-127715440D01*
X173306000Y-127715440D01*
X173553765Y-127666157D01*
X173763809Y-127525809D01*
X173904157Y-127315765D01*
X173913767Y-127267453D01*
X174062162Y-127237936D01*
X174297412Y-127080746D01*
X174337090Y-127021364D01*
X175290454Y-126068000D01*
X176058560Y-126068000D01*
X176058560Y-127068000D01*
X176107843Y-127315765D01*
X176175210Y-127416585D01*
X176060100Y-127694484D01*
X176060100Y-128083516D01*
X176208977Y-128442936D01*
X176484064Y-128718023D01*
X176843484Y-128866900D01*
X177232516Y-128866900D01*
X177591936Y-128718023D01*
X177867023Y-128442936D01*
X177914016Y-128329484D01*
X181140100Y-128329484D01*
X181140100Y-128718516D01*
X181288977Y-129077936D01*
X181406801Y-129195760D01*
X181406800Y-131628958D01*
X181392868Y-131699000D01*
X181406800Y-131769041D01*
X181406800Y-131769045D01*
X181448064Y-131976495D01*
X181448065Y-131976496D01*
X181565576Y-132152364D01*
X181565578Y-132152366D01*
X181605254Y-132211745D01*
X181664634Y-132251422D01*
X184188100Y-134774889D01*
X184188100Y-134941516D01*
X184336977Y-135300936D01*
X184612064Y-135576023D01*
X184971484Y-135724900D01*
X185360516Y-135724900D01*
X185719936Y-135576023D01*
X185995023Y-135300936D01*
X186143900Y-134941516D01*
X186143900Y-134552484D01*
X185995023Y-134193064D01*
X185719936Y-133917977D01*
X185360516Y-133769100D01*
X185193889Y-133769100D01*
X182829200Y-131404412D01*
X182829200Y-129195759D01*
X182947023Y-129077936D01*
X183095900Y-128718516D01*
X183095900Y-128329484D01*
X182947023Y-127970064D01*
X182671936Y-127694977D01*
X182312516Y-127546100D01*
X181923484Y-127546100D01*
X181564064Y-127694977D01*
X181288977Y-127970064D01*
X181140100Y-128329484D01*
X177914016Y-128329484D01*
X178015900Y-128083516D01*
X178015900Y-127913175D01*
X178125936Y-127748496D01*
X178132511Y-127715440D01*
X178206000Y-127715440D01*
X178453765Y-127666157D01*
X178663809Y-127525809D01*
X178804157Y-127315765D01*
X178853440Y-127068000D01*
X178853440Y-126068000D01*
X178804157Y-125820235D01*
X178663809Y-125610191D01*
X178453765Y-125469843D01*
X178206000Y-125420560D01*
X176706000Y-125420560D01*
X176458235Y-125469843D01*
X176248191Y-125610191D01*
X176107843Y-125820235D01*
X176058560Y-126068000D01*
X175290454Y-126068000D01*
X176550654Y-124807801D01*
X182413076Y-124807801D01*
X181621550Y-125599327D01*
X181427765Y-125469843D01*
X181180000Y-125420560D01*
X179680000Y-125420560D01*
X179432235Y-125469843D01*
X179222191Y-125610191D01*
X179081843Y-125820235D01*
X179032560Y-126068000D01*
X179032560Y-127068000D01*
X179081843Y-127315765D01*
X179222191Y-127525809D01*
X179432235Y-127666157D01*
X179680000Y-127715440D01*
X181180000Y-127715440D01*
X181427765Y-127666157D01*
X181637809Y-127525809D01*
X181778157Y-127315765D01*
X181787767Y-127267453D01*
X181936162Y-127237936D01*
X182171412Y-127080746D01*
X182211090Y-127021364D01*
X184424654Y-124807801D01*
X185594240Y-124807801D01*
X185479977Y-124922064D01*
X185331100Y-125281484D01*
X185331100Y-125420560D01*
X184580000Y-125420560D01*
X184332235Y-125469843D01*
X184122191Y-125610191D01*
X183981843Y-125820235D01*
X183932560Y-126068000D01*
X183932560Y-127068000D01*
X183981843Y-127315765D01*
X184122191Y-127525809D01*
X184332235Y-127666157D01*
X184580000Y-127715440D01*
X185988601Y-127715440D01*
X185860977Y-127843064D01*
X185712100Y-128202484D01*
X185712100Y-128591516D01*
X185860977Y-128950936D01*
X186105801Y-129195760D01*
X186105800Y-132932241D01*
X185987977Y-133050064D01*
X185839100Y-133409484D01*
X185839100Y-133798516D01*
X185987977Y-134157936D01*
X186263064Y-134433023D01*
X186622484Y-134581900D01*
X187011516Y-134581900D01*
X187370936Y-134433023D01*
X187646023Y-134157936D01*
X187794900Y-133798516D01*
X187794900Y-133409484D01*
X187646023Y-133050064D01*
X187528200Y-132932241D01*
X187528200Y-128928781D01*
X187667900Y-128591516D01*
X187667900Y-128202484D01*
X187519023Y-127843064D01*
X187357332Y-127681373D01*
X187528600Y-127715440D01*
X189028600Y-127715440D01*
X189276365Y-127666157D01*
X189486409Y-127525809D01*
X189626757Y-127315765D01*
X189676040Y-127068000D01*
X189676040Y-126068000D01*
X189626757Y-125820235D01*
X189486409Y-125610191D01*
X189276365Y-125469843D01*
X189028600Y-125420560D01*
X187528600Y-125420560D01*
X187286900Y-125468637D01*
X187286900Y-125281484D01*
X187138023Y-124922064D01*
X187023760Y-124807801D01*
X191477558Y-124807801D01*
X191547599Y-124821733D01*
X191617640Y-124807801D01*
X191617645Y-124807801D01*
X191825095Y-124766537D01*
X192060345Y-124609347D01*
X192100023Y-124549965D01*
X192183334Y-124466654D01*
X192428600Y-124515440D01*
X193837928Y-124515440D01*
X193770204Y-125033352D01*
X193830493Y-125420560D01*
X192428600Y-125420560D01*
X192180835Y-125469843D01*
X191970791Y-125610191D01*
X191830443Y-125820235D01*
X191781160Y-126068000D01*
X191781160Y-126475722D01*
X191597064Y-126551977D01*
X191321977Y-126827064D01*
X191173100Y-127186484D01*
X191173100Y-127575516D01*
X191321977Y-127934936D01*
X191597064Y-128210023D01*
X191956484Y-128358900D01*
X192345516Y-128358900D01*
X192704936Y-128210023D01*
X192980023Y-127934936D01*
X193070941Y-127715440D01*
X193928600Y-127715440D01*
X194176365Y-127666157D01*
X194386409Y-127525809D01*
X194526757Y-127315765D01*
X194576040Y-127068000D01*
X194576040Y-126903957D01*
X194730633Y-127079000D01*
X195385258Y-127492037D01*
X196129496Y-127704742D01*
X196903520Y-127700013D01*
X197645104Y-127478233D01*
X198294634Y-127057228D01*
X198799895Y-126470844D01*
X199120268Y-125766220D01*
X199230000Y-125000000D01*
X199229185Y-124933300D01*
X199100766Y-124169990D01*
X198763273Y-123473403D01*
X198243836Y-122899539D01*
X197584214Y-122494530D01*
X196837432Y-122290934D01*
X196063524Y-122305118D01*
X195324705Y-122535942D01*
X194680366Y-122964851D01*
X194576040Y-123088962D01*
X194576040Y-122868000D01*
X194526757Y-122620235D01*
X194386409Y-122410191D01*
X194176365Y-122269843D01*
X193928600Y-122220560D01*
X192428600Y-122220560D01*
X192180835Y-122269843D01*
X191970791Y-122410191D01*
X191830443Y-122620235D01*
X191786798Y-122839656D01*
X191763454Y-122855254D01*
X191723778Y-122914633D01*
X191253011Y-123385401D01*
X186727440Y-123385401D01*
X186727440Y-122868000D01*
X186702316Y-122741690D01*
X186893600Y-122741690D01*
X186893600Y-123082250D01*
X187052350Y-123241000D01*
X188151600Y-123241000D01*
X188151600Y-122391750D01*
X188405600Y-122391750D01*
X188405600Y-123241000D01*
X189504850Y-123241000D01*
X189663600Y-123082250D01*
X189663600Y-122741690D01*
X189566927Y-122508301D01*
X189388298Y-122329673D01*
X189154909Y-122233000D01*
X188564350Y-122233000D01*
X188405600Y-122391750D01*
X188151600Y-122391750D01*
X187992850Y-122233000D01*
X187402291Y-122233000D01*
X187168902Y-122329673D01*
X186990273Y-122508301D01*
X186893600Y-122741690D01*
X186702316Y-122741690D01*
X186678157Y-122620235D01*
X186537809Y-122410191D01*
X186327765Y-122269843D01*
X186080000Y-122220560D01*
X184580000Y-122220560D01*
X184332235Y-122269843D01*
X184122191Y-122410191D01*
X183981843Y-122620235D01*
X183938198Y-122839656D01*
X183914854Y-122855254D01*
X183875178Y-122914633D01*
X183404411Y-123385401D01*
X178853440Y-123385401D01*
X178853440Y-122868000D01*
X178828316Y-122741690D01*
X179045000Y-122741690D01*
X179045000Y-123082250D01*
X179203750Y-123241000D01*
X180303000Y-123241000D01*
X180303000Y-122391750D01*
X180557000Y-122391750D01*
X180557000Y-123241000D01*
X181656250Y-123241000D01*
X181815000Y-123082250D01*
X181815000Y-122741690D01*
X181718327Y-122508301D01*
X181539698Y-122329673D01*
X181306309Y-122233000D01*
X180715750Y-122233000D01*
X180557000Y-122391750D01*
X180303000Y-122391750D01*
X180144250Y-122233000D01*
X179553691Y-122233000D01*
X179320302Y-122329673D01*
X179141673Y-122508301D01*
X179045000Y-122741690D01*
X178828316Y-122741690D01*
X178804157Y-122620235D01*
X178663809Y-122410191D01*
X178453765Y-122269843D01*
X178206000Y-122220560D01*
X176706000Y-122220560D01*
X176458235Y-122269843D01*
X176248191Y-122410191D01*
X176107843Y-122620235D01*
X176064198Y-122839656D01*
X176040854Y-122855254D01*
X176001178Y-122914633D01*
X175530411Y-123385401D01*
X170979440Y-123385401D01*
X170979440Y-122868000D01*
X170954316Y-122741690D01*
X171171000Y-122741690D01*
X171171000Y-123082250D01*
X171329750Y-123241000D01*
X172429000Y-123241000D01*
X172429000Y-122391750D01*
X172683000Y-122391750D01*
X172683000Y-123241000D01*
X173782250Y-123241000D01*
X173941000Y-123082250D01*
X173941000Y-122741690D01*
X173844327Y-122508301D01*
X173665698Y-122329673D01*
X173432309Y-122233000D01*
X172841750Y-122233000D01*
X172683000Y-122391750D01*
X172429000Y-122391750D01*
X172270250Y-122233000D01*
X171679691Y-122233000D01*
X171446302Y-122329673D01*
X171267673Y-122508301D01*
X171171000Y-122741690D01*
X170954316Y-122741690D01*
X170930157Y-122620235D01*
X170789809Y-122410191D01*
X170579765Y-122269843D01*
X170332000Y-122220560D01*
X168967919Y-122220560D01*
X168727336Y-121979977D01*
X168367916Y-121831100D01*
X167978884Y-121831100D01*
X167619464Y-121979977D01*
X167344377Y-122255064D01*
X167195500Y-122614484D01*
X167195500Y-123003516D01*
X167344377Y-123362936D01*
X167619464Y-123638023D01*
X167771768Y-123701109D01*
X165873550Y-125599327D01*
X165679765Y-125469843D01*
X165432000Y-125420560D01*
X163932000Y-125420560D01*
X163684235Y-125469843D01*
X163474191Y-125610191D01*
X163333843Y-125820235D01*
X163284560Y-126068000D01*
X163105440Y-126068000D01*
X163056157Y-125820235D01*
X162915809Y-125610191D01*
X162705765Y-125469843D01*
X162458000Y-125420560D01*
X160958000Y-125420560D01*
X160710235Y-125469843D01*
X160500191Y-125610191D01*
X160359843Y-125820235D01*
X160310560Y-126068000D01*
X159126351Y-126068000D01*
X159143700Y-126026116D01*
X159143700Y-125637084D01*
X158994823Y-125277664D01*
X158719736Y-125002577D01*
X158360316Y-124853700D01*
X157971284Y-124853700D01*
X157611864Y-125002577D01*
X157336777Y-125277664D01*
X157277587Y-125420560D01*
X156169771Y-125420560D01*
X156230000Y-125000000D01*
X156229185Y-124933300D01*
X156156791Y-124503000D01*
X156522250Y-124503000D01*
X156681000Y-124344250D01*
X156681000Y-123495000D01*
X156935000Y-123495000D01*
X156935000Y-124344250D01*
X157093750Y-124503000D01*
X157684309Y-124503000D01*
X157917698Y-124406327D01*
X158096327Y-124227699D01*
X158193000Y-123994310D01*
X158193000Y-123653750D01*
X158034250Y-123495000D01*
X156935000Y-123495000D01*
X156681000Y-123495000D01*
X156661000Y-123495000D01*
X156661000Y-123241000D01*
X156681000Y-123241000D01*
X156681000Y-122391750D01*
X156935000Y-122391750D01*
X156935000Y-123241000D01*
X158034250Y-123241000D01*
X158193000Y-123082250D01*
X158193000Y-122741690D01*
X158096327Y-122508301D01*
X157917698Y-122329673D01*
X157684309Y-122233000D01*
X157093750Y-122233000D01*
X156935000Y-122391750D01*
X156681000Y-122391750D01*
X156522250Y-122233000D01*
X155931691Y-122233000D01*
X155698302Y-122329673D01*
X155519673Y-122508301D01*
X155423000Y-122741690D01*
X155423000Y-123082250D01*
X155581748Y-123240998D01*
X155552910Y-123240998D01*
X155243836Y-122899539D01*
X154584214Y-122494530D01*
X153837432Y-122290934D01*
X153063524Y-122305118D01*
X152324705Y-122535942D01*
X151680366Y-122964851D01*
X151182307Y-123557363D01*
X150870566Y-124265849D01*
X150770204Y-125033352D01*
X150710000Y-125033352D01*
X150710000Y-106172000D01*
X151139908Y-106172000D01*
X151255161Y-106751418D01*
X151583375Y-107242625D01*
X151881761Y-107442000D01*
X151583375Y-107641375D01*
X151255161Y-108132582D01*
X151139908Y-108712000D01*
X151255161Y-109291418D01*
X151583375Y-109782625D01*
X151881761Y-109982000D01*
X151583375Y-110181375D01*
X151255161Y-110672582D01*
X151139908Y-111252000D01*
X151255161Y-111831418D01*
X151583375Y-112322625D01*
X151881761Y-112522000D01*
X151583375Y-112721375D01*
X151255161Y-113212582D01*
X151139908Y-113792000D01*
X151255161Y-114371418D01*
X151583375Y-114862625D01*
X152074582Y-115190839D01*
X152507744Y-115277000D01*
X152800256Y-115277000D01*
X153233418Y-115190839D01*
X153724625Y-114862625D01*
X154052839Y-114371418D01*
X154168092Y-113792000D01*
X154163096Y-113766885D01*
X155530578Y-115134367D01*
X155570254Y-115193746D01*
X155629633Y-115233422D01*
X155629635Y-115233424D01*
X155805502Y-115350935D01*
X155805503Y-115350935D01*
X155805504Y-115350936D01*
X156012954Y-115392200D01*
X156012957Y-115392200D01*
X156082999Y-115406132D01*
X156153041Y-115392200D01*
X156554241Y-115392200D01*
X156672064Y-115510023D01*
X157031484Y-115658900D01*
X157420516Y-115658900D01*
X157779936Y-115510023D01*
X157784801Y-115505158D01*
X157784801Y-115533240D01*
X157666977Y-115651064D01*
X157518100Y-116010484D01*
X157518100Y-116399516D01*
X157666977Y-116758936D01*
X157942064Y-117034023D01*
X158301484Y-117182900D01*
X158690516Y-117182900D01*
X159049936Y-117034023D01*
X159108000Y-116975959D01*
X159108000Y-119943843D01*
X158998743Y-120053100D01*
X158936484Y-120053100D01*
X158577064Y-120201977D01*
X158301977Y-120477064D01*
X158153100Y-120836484D01*
X158153100Y-121225516D01*
X158301977Y-121584936D01*
X158577064Y-121860023D01*
X158936484Y-122008900D01*
X159325516Y-122008900D01*
X159684936Y-121860023D01*
X159960023Y-121584936D01*
X160108900Y-121225516D01*
X160108900Y-121163257D01*
X160393408Y-120878749D01*
X160458953Y-120834953D01*
X160632454Y-120575292D01*
X160678000Y-120346316D01*
X160678000Y-120346312D01*
X160693378Y-120269000D01*
X160678000Y-120191688D01*
X160678000Y-111076441D01*
X160827235Y-111176157D01*
X161075000Y-111225440D01*
X162775000Y-111225440D01*
X163022765Y-111176157D01*
X163232809Y-111035809D01*
X163373157Y-110825765D01*
X163422440Y-110578000D01*
X163422440Y-110252577D01*
X163440146Y-110240746D01*
X163479824Y-110181364D01*
X164110560Y-109550628D01*
X164110560Y-110578000D01*
X164159843Y-110825765D01*
X164300191Y-111035809D01*
X164510235Y-111176157D01*
X164758000Y-111225440D01*
X165390771Y-111225440D01*
X161254634Y-115361578D01*
X161195254Y-115401255D01*
X161155578Y-115460634D01*
X161155576Y-115460636D01*
X161122577Y-115510023D01*
X161038064Y-115636505D01*
X160996800Y-115843955D01*
X160996800Y-115843959D01*
X160982868Y-115914000D01*
X160996800Y-115984041D01*
X160996801Y-122220560D01*
X160958000Y-122220560D01*
X160710235Y-122269843D01*
X160500191Y-122410191D01*
X160359843Y-122620235D01*
X160310560Y-122868000D01*
X160310560Y-123868000D01*
X160359843Y-124115765D01*
X160500191Y-124325809D01*
X160710235Y-124466157D01*
X160958000Y-124515440D01*
X162458000Y-124515440D01*
X162705765Y-124466157D01*
X162915809Y-124325809D01*
X163056157Y-124115765D01*
X163105440Y-123868000D01*
X163105440Y-123653750D01*
X163297000Y-123653750D01*
X163297000Y-123994310D01*
X163393673Y-124227699D01*
X163572302Y-124406327D01*
X163805691Y-124503000D01*
X164396250Y-124503000D01*
X164555000Y-124344250D01*
X164555000Y-123495000D01*
X164809000Y-123495000D01*
X164809000Y-124344250D01*
X164967750Y-124503000D01*
X165558309Y-124503000D01*
X165791698Y-124406327D01*
X165970327Y-124227699D01*
X166067000Y-123994310D01*
X166067000Y-123653750D01*
X165908250Y-123495000D01*
X164809000Y-123495000D01*
X164555000Y-123495000D01*
X163455750Y-123495000D01*
X163297000Y-123653750D01*
X163105440Y-123653750D01*
X163105440Y-122868000D01*
X163080316Y-122741690D01*
X163297000Y-122741690D01*
X163297000Y-123082250D01*
X163455750Y-123241000D01*
X164555000Y-123241000D01*
X164555000Y-122391750D01*
X164809000Y-122391750D01*
X164809000Y-123241000D01*
X165908250Y-123241000D01*
X166067000Y-123082250D01*
X166067000Y-122741690D01*
X165970327Y-122508301D01*
X165791698Y-122329673D01*
X165558309Y-122233000D01*
X164967750Y-122233000D01*
X164809000Y-122391750D01*
X164555000Y-122391750D01*
X164396250Y-122233000D01*
X163805691Y-122233000D01*
X163572302Y-122329673D01*
X163393673Y-122508301D01*
X163297000Y-122741690D01*
X163080316Y-122741690D01*
X163056157Y-122620235D01*
X162915809Y-122410191D01*
X162705765Y-122269843D01*
X162458000Y-122220560D01*
X162419200Y-122220560D01*
X162419200Y-118395750D01*
X170787000Y-118395750D01*
X170787000Y-118936310D01*
X170883673Y-119169699D01*
X171062302Y-119348327D01*
X171295691Y-119445000D01*
X171623750Y-119445000D01*
X171782500Y-119286250D01*
X171782500Y-118237000D01*
X170945750Y-118237000D01*
X170787000Y-118395750D01*
X162419200Y-118395750D01*
X162419200Y-117283690D01*
X170787000Y-117283690D01*
X170787000Y-117824250D01*
X170945750Y-117983000D01*
X171782500Y-117983000D01*
X171782500Y-116933750D01*
X171623750Y-116775000D01*
X171295691Y-116775000D01*
X171062302Y-116871673D01*
X170883673Y-117050301D01*
X170787000Y-117283690D01*
X162419200Y-117283690D01*
X162419200Y-116208588D01*
X164110038Y-114517750D01*
X172058000Y-114517750D01*
X172058000Y-115158309D01*
X172154673Y-115391698D01*
X172333301Y-115570327D01*
X172566690Y-115667000D01*
X172682250Y-115667000D01*
X172841000Y-115508250D01*
X172841000Y-114359000D01*
X172216750Y-114359000D01*
X172058000Y-114517750D01*
X164110038Y-114517750D01*
X167585367Y-111042422D01*
X167644746Y-111002746D01*
X167684422Y-110943367D01*
X167684424Y-110943365D01*
X167801935Y-110767498D01*
X167801935Y-110767497D01*
X167801936Y-110767496D01*
X167843200Y-110560046D01*
X167843200Y-110560043D01*
X167857132Y-110490001D01*
X167843200Y-110419959D01*
X167843200Y-110265388D01*
X170013178Y-112435367D01*
X170052854Y-112494746D01*
X170070634Y-112506626D01*
X170070560Y-112507000D01*
X170070560Y-113057000D01*
X170119843Y-113304765D01*
X170260191Y-113514809D01*
X170470235Y-113655157D01*
X170718000Y-113704440D01*
X172058000Y-113704440D01*
X172058000Y-113946250D01*
X172216750Y-114105000D01*
X172841000Y-114105000D01*
X172841000Y-114085000D01*
X172845560Y-114085000D01*
X172845560Y-115032000D01*
X172894843Y-115279765D01*
X173024501Y-115473810D01*
X173024500Y-116947467D01*
X172910584Y-117023584D01*
X172909793Y-117024767D01*
X172756698Y-116871673D01*
X172523309Y-116775000D01*
X172195250Y-116775000D01*
X172036500Y-116933750D01*
X172036500Y-117983000D01*
X172056500Y-117983000D01*
X172056500Y-118237000D01*
X172036500Y-118237000D01*
X172036500Y-119286250D01*
X172195250Y-119445000D01*
X172523309Y-119445000D01*
X172756698Y-119348327D01*
X172909793Y-119195233D01*
X172910584Y-119196416D01*
X173199706Y-119389602D01*
X173288010Y-119407167D01*
X173393100Y-119512257D01*
X173393100Y-119574516D01*
X173541977Y-119933936D01*
X173817064Y-120209023D01*
X174176484Y-120357900D01*
X174565516Y-120357900D01*
X174924936Y-120209023D01*
X175200023Y-119933936D01*
X175348900Y-119574516D01*
X175348900Y-119278145D01*
X175515706Y-119389602D01*
X175856750Y-119457440D01*
X176344250Y-119457440D01*
X176685294Y-119389602D01*
X176974416Y-119196416D01*
X177038000Y-119101256D01*
X177101584Y-119196416D01*
X177390706Y-119389602D01*
X177731750Y-119457440D01*
X178219250Y-119457440D01*
X178560294Y-119389602D01*
X178849416Y-119196416D01*
X178988813Y-118987794D01*
X179256273Y-119166505D01*
X179587750Y-119232440D01*
X180025250Y-119232440D01*
X180356727Y-119166505D01*
X180594000Y-119007964D01*
X180831273Y-119166505D01*
X181162750Y-119232440D01*
X181600250Y-119232440D01*
X181931727Y-119166505D01*
X182212739Y-118978739D01*
X182400505Y-118697727D01*
X182466440Y-118366250D01*
X182466440Y-117853750D01*
X182400505Y-117522273D01*
X182212739Y-117241261D01*
X182182295Y-117220919D01*
X182206900Y-117161516D01*
X182206900Y-116772484D01*
X182058023Y-116413064D01*
X181782936Y-116137977D01*
X181423516Y-115989100D01*
X181034484Y-115989100D01*
X180675064Y-116137977D01*
X180399977Y-116413064D01*
X180251100Y-116772484D01*
X180251100Y-117032484D01*
X180025250Y-116987560D01*
X179587750Y-116987560D01*
X179256273Y-117053495D01*
X178988813Y-117232206D01*
X178849416Y-117023584D01*
X178560294Y-116830398D01*
X178219250Y-116762560D01*
X177731750Y-116762560D01*
X177390706Y-116830398D01*
X177101584Y-117023584D01*
X177038000Y-117118744D01*
X176974416Y-117023584D01*
X176811700Y-116914860D01*
X176811700Y-115679440D01*
X177243000Y-115679440D01*
X177368000Y-115654576D01*
X177493000Y-115679440D01*
X178043000Y-115679440D01*
X178168000Y-115654576D01*
X178293000Y-115679440D01*
X178843000Y-115679440D01*
X179090765Y-115630157D01*
X179300809Y-115489809D01*
X179441157Y-115279765D01*
X179490440Y-115032000D01*
X179490440Y-113704440D01*
X180818000Y-113704440D01*
X181065765Y-113655157D01*
X181275809Y-113514809D01*
X181416157Y-113304765D01*
X181465440Y-113057000D01*
X181465440Y-112507000D01*
X181440576Y-112382000D01*
X181465440Y-112257000D01*
X181465440Y-111707000D01*
X181440576Y-111582000D01*
X181465440Y-111457000D01*
X181465440Y-110907000D01*
X181440576Y-110782000D01*
X181465440Y-110657000D01*
X181465440Y-110107000D01*
X181440576Y-109982000D01*
X181465440Y-109857000D01*
X181465440Y-109307000D01*
X181440576Y-109182000D01*
X181465440Y-109057000D01*
X181465440Y-108693200D01*
X182767479Y-108693200D01*
X183747645Y-109673367D01*
X183787321Y-109732746D01*
X183846700Y-109772422D01*
X183846702Y-109772424D01*
X184022569Y-109889935D01*
X184022570Y-109889935D01*
X184022571Y-109889936D01*
X184084245Y-109902204D01*
X184231064Y-110049023D01*
X184590484Y-110197900D01*
X184979516Y-110197900D01*
X185338936Y-110049023D01*
X185614023Y-109773936D01*
X185762900Y-109414516D01*
X185762900Y-109025484D01*
X185614023Y-108666064D01*
X185338936Y-108390977D01*
X184979516Y-108242100D01*
X184590484Y-108242100D01*
X184404849Y-108318993D01*
X183895407Y-107809552D01*
X183963023Y-107741936D01*
X184111900Y-107382516D01*
X184111900Y-106993484D01*
X183988446Y-106695440D01*
X184886000Y-106695440D01*
X185133765Y-106646157D01*
X185343809Y-106505809D01*
X185391657Y-106434200D01*
X187480343Y-106434200D01*
X187528191Y-106505809D01*
X187738235Y-106646157D01*
X187986000Y-106695440D01*
X189036000Y-106695440D01*
X189283765Y-106646157D01*
X189493809Y-106505809D01*
X189634157Y-106295765D01*
X189683440Y-106048000D01*
X189683440Y-105450519D01*
X189805023Y-105328936D01*
X189953900Y-104969516D01*
X189953900Y-104580484D01*
X189805023Y-104221064D01*
X189650012Y-104066053D01*
X189683440Y-103898000D01*
X189683440Y-103248000D01*
X189634157Y-103000235D01*
X189493809Y-102790191D01*
X189283765Y-102649843D01*
X189036000Y-102600560D01*
X187986000Y-102600560D01*
X187738235Y-102649843D01*
X187528191Y-102790191D01*
X187480343Y-102861800D01*
X185391657Y-102861800D01*
X185343809Y-102790191D01*
X185133765Y-102649843D01*
X184886000Y-102600560D01*
X183836000Y-102600560D01*
X183588235Y-102649843D01*
X183378191Y-102790191D01*
X183237843Y-103000235D01*
X183228382Y-103047800D01*
X181900759Y-103047800D01*
X181782936Y-102929977D01*
X181423516Y-102781100D01*
X181034484Y-102781100D01*
X180675064Y-102929977D01*
X180399977Y-103205064D01*
X180251100Y-103564484D01*
X180251100Y-103953516D01*
X180399977Y-104312936D01*
X180675064Y-104588023D01*
X181034484Y-104736900D01*
X181423516Y-104736900D01*
X181782936Y-104588023D01*
X181900759Y-104470200D01*
X183549388Y-104470200D01*
X183588235Y-104496157D01*
X183836000Y-104545440D01*
X184886000Y-104545440D01*
X185133765Y-104496157D01*
X185343809Y-104355809D01*
X185391657Y-104284200D01*
X187480343Y-104284200D01*
X187528191Y-104355809D01*
X187738235Y-104496157D01*
X187986000Y-104545440D01*
X188012616Y-104545440D01*
X187998100Y-104580484D01*
X187998100Y-104727486D01*
X187982174Y-104751321D01*
X187738235Y-104799843D01*
X187528191Y-104940191D01*
X187480343Y-105011800D01*
X185391657Y-105011800D01*
X185343809Y-104940191D01*
X185133765Y-104799843D01*
X184886000Y-104750560D01*
X183836000Y-104750560D01*
X183588235Y-104799843D01*
X183378191Y-104940191D01*
X183237843Y-105150235D01*
X183188560Y-105398000D01*
X183188560Y-106048000D01*
X183220803Y-106210100D01*
X182939484Y-106210100D01*
X182580064Y-106358977D01*
X182462241Y-106476800D01*
X181294257Y-106476800D01*
X181275809Y-106449191D01*
X181065765Y-106308843D01*
X180818000Y-106259560D01*
X179490440Y-106259560D01*
X179490440Y-104932000D01*
X179441157Y-104684235D01*
X179300809Y-104474191D01*
X179090765Y-104333843D01*
X178843000Y-104284560D01*
X178293000Y-104284560D01*
X178168000Y-104309424D01*
X178043000Y-104284560D01*
X177493000Y-104284560D01*
X177368000Y-104309424D01*
X177243000Y-104284560D01*
X176918000Y-104284560D01*
X176918000Y-103743559D01*
X177035459Y-103626101D01*
X177071350Y-103633240D01*
X177558850Y-103633240D01*
X177772736Y-103590695D01*
X177881064Y-103699023D01*
X178240484Y-103847900D01*
X178629516Y-103847900D01*
X178988936Y-103699023D01*
X179264023Y-103423936D01*
X179412900Y-103064516D01*
X179412900Y-102675484D01*
X179264023Y-102316064D01*
X178988936Y-102040977D01*
X178629516Y-101892100D01*
X178462888Y-101892100D01*
X178450040Y-101879252D01*
X178450040Y-101829550D01*
X178382202Y-101488506D01*
X178189016Y-101199384D01*
X177899894Y-101006198D01*
X177558850Y-100938360D01*
X177071350Y-100938360D01*
X176730306Y-101006198D01*
X176441184Y-101199384D01*
X176377600Y-101294544D01*
X176314016Y-101199384D01*
X176024894Y-101006198D01*
X175683850Y-100938360D01*
X175196350Y-100938360D01*
X174855306Y-101006198D01*
X174566184Y-101199384D01*
X174372998Y-101488506D01*
X174305160Y-101829550D01*
X174305160Y-102742050D01*
X174372998Y-103083094D01*
X174566184Y-103372216D01*
X174690100Y-103455015D01*
X174690101Y-104437501D01*
X174635191Y-104474191D01*
X174568000Y-104574749D01*
X174500809Y-104474191D01*
X174376138Y-104390888D01*
X174338423Y-104353173D01*
X174280746Y-104266854D01*
X174235067Y-104236332D01*
X174204545Y-104190653D01*
X173969295Y-104033463D01*
X173761845Y-103992199D01*
X173761840Y-103992199D01*
X173691799Y-103978267D01*
X173621758Y-103992199D01*
X169178642Y-103992199D01*
X169108600Y-103978267D01*
X169038558Y-103992199D01*
X169038555Y-103992199D01*
X168831105Y-104033463D01*
X168831104Y-104033464D01*
X168831103Y-104033464D01*
X168655236Y-104150975D01*
X168655234Y-104150977D01*
X168595855Y-104190653D01*
X168556179Y-104250032D01*
X165694412Y-107111800D01*
X164902442Y-107111800D01*
X164832400Y-107097868D01*
X164762358Y-107111800D01*
X164762354Y-107111800D01*
X164554904Y-107153064D01*
X164502620Y-107187999D01*
X164379035Y-107270576D01*
X164379033Y-107270578D01*
X164319654Y-107310254D01*
X164279978Y-107369633D01*
X163230778Y-108418834D01*
X163022765Y-108279843D01*
X162775000Y-108230560D01*
X161075000Y-108230560D01*
X160827235Y-108279843D01*
X160678000Y-108379559D01*
X160678000Y-105824510D01*
X160693378Y-105747199D01*
X160678000Y-105669888D01*
X160678000Y-105669884D01*
X160632454Y-105440908D01*
X160552885Y-105321825D01*
X160502749Y-105246791D01*
X160502747Y-105246789D01*
X160458953Y-105181247D01*
X160393411Y-105137453D01*
X158840125Y-103584168D01*
X158864009Y-103568209D01*
X159004357Y-103358165D01*
X159013384Y-103312781D01*
X159025575Y-103331025D01*
X159516782Y-103659239D01*
X159949944Y-103745400D01*
X160242456Y-103745400D01*
X160675618Y-103659239D01*
X161166825Y-103331025D01*
X161366200Y-103032639D01*
X161565575Y-103331025D01*
X162056782Y-103659239D01*
X162489944Y-103745400D01*
X162782456Y-103745400D01*
X163215618Y-103659239D01*
X163706825Y-103331025D01*
X163906200Y-103032639D01*
X164105575Y-103331025D01*
X164596782Y-103659239D01*
X165029944Y-103745400D01*
X165322456Y-103745400D01*
X165755618Y-103659239D01*
X166246825Y-103331025D01*
X166446200Y-103032639D01*
X166645575Y-103331025D01*
X167136782Y-103659239D01*
X167569944Y-103745400D01*
X167862456Y-103745400D01*
X168295618Y-103659239D01*
X168786825Y-103331025D01*
X169115039Y-102839818D01*
X169230292Y-102260400D01*
X169115039Y-101680982D01*
X168786825Y-101189775D01*
X168295618Y-100861561D01*
X167862456Y-100775400D01*
X167569944Y-100775400D01*
X167136782Y-100861561D01*
X166645575Y-101189775D01*
X166446200Y-101488161D01*
X166246825Y-101189775D01*
X165755618Y-100861561D01*
X165322456Y-100775400D01*
X165029944Y-100775400D01*
X164596782Y-100861561D01*
X164105575Y-101189775D01*
X163906200Y-101488161D01*
X163706825Y-101189775D01*
X163215618Y-100861561D01*
X162782456Y-100775400D01*
X162489944Y-100775400D01*
X162056782Y-100861561D01*
X161565575Y-101189775D01*
X161366200Y-101488161D01*
X161166825Y-101189775D01*
X160675618Y-100861561D01*
X160242456Y-100775400D01*
X159949944Y-100775400D01*
X159516782Y-100861561D01*
X159025575Y-101189775D01*
X159013384Y-101208019D01*
X159004357Y-101162635D01*
X158864009Y-100952591D01*
X158653965Y-100812243D01*
X158406200Y-100762960D01*
X156706200Y-100762960D01*
X156458435Y-100812243D01*
X156248391Y-100952591D01*
X156108043Y-101162635D01*
X156058760Y-101410400D01*
X156058760Y-103110400D01*
X156108043Y-103358165D01*
X156248391Y-103568209D01*
X156458435Y-103708557D01*
X156706200Y-103757840D01*
X156844241Y-103757840D01*
X156990247Y-103976353D01*
X157055792Y-104020149D01*
X159108001Y-106072359D01*
X159108001Y-107814042D01*
X159049936Y-107755977D01*
X158690516Y-107607100D01*
X158301484Y-107607100D01*
X157942064Y-107755977D01*
X157666977Y-108031064D01*
X157518100Y-108390484D01*
X157518100Y-108779516D01*
X157666977Y-109138936D01*
X157784800Y-109256759D01*
X157784800Y-111642387D01*
X157547516Y-111544100D01*
X157158484Y-111544100D01*
X156799064Y-111692977D01*
X156719915Y-111772126D01*
X154083759Y-109135971D01*
X154168092Y-108712000D01*
X154052839Y-108132582D01*
X153724625Y-107641375D01*
X153426239Y-107442000D01*
X153724625Y-107242625D01*
X154052839Y-106751418D01*
X154168092Y-106172000D01*
X154052839Y-105592582D01*
X153724625Y-105101375D01*
X153702967Y-105086904D01*
X153863698Y-105020327D01*
X154042327Y-104841699D01*
X154139000Y-104608310D01*
X154139000Y-103917750D01*
X153980250Y-103759000D01*
X152781000Y-103759000D01*
X152781000Y-103779000D01*
X152527000Y-103779000D01*
X152527000Y-103759000D01*
X151327750Y-103759000D01*
X151169000Y-103917750D01*
X151169000Y-104608310D01*
X151265673Y-104841699D01*
X151444302Y-105020327D01*
X151605033Y-105086904D01*
X151583375Y-105101375D01*
X151255161Y-105592582D01*
X151139908Y-106172000D01*
X150710000Y-106172000D01*
X150710000Y-102655690D01*
X151169000Y-102655690D01*
X151169000Y-103346250D01*
X151327750Y-103505000D01*
X152527000Y-103505000D01*
X152527000Y-102305750D01*
X152781000Y-102305750D01*
X152781000Y-103505000D01*
X153980250Y-103505000D01*
X154139000Y-103346250D01*
X154139000Y-102655690D01*
X154042327Y-102422301D01*
X153863698Y-102243673D01*
X153630309Y-102147000D01*
X152939750Y-102147000D01*
X152781000Y-102305750D01*
X152527000Y-102305750D01*
X152368250Y-102147000D01*
X151677691Y-102147000D01*
X151444302Y-102243673D01*
X151265673Y-102422301D01*
X151169000Y-102655690D01*
X150710000Y-102655690D01*
X150710000Y-100710000D01*
X199290000Y-100710000D01*
X199290001Y-130711796D01*
G04 #@! TD*
M02*
