G04 #@! TF.GenerationSoftware,KiCad,Pcbnew,(5.0.2)-1*
G04 #@! TF.CreationDate,2019-11-27T21:51:56-08:00*
G04 #@! TF.ProjectId,bsidessd,62736964-6573-4736-942e-6b696361645f,rev?*
G04 #@! TF.SameCoordinates,Original*
G04 #@! TF.FileFunction,Soldermask,Bot*
G04 #@! TF.FilePolarity,Negative*
%FSLAX46Y46*%
G04 Gerber Fmt 4.6, Leading zero omitted, Abs format (unit mm)*
G04 Created by KiCad (PCBNEW (5.0.2)-1) date 11/27/2019 9:51:56 PM*
%MOMM*%
%LPD*%
G01*
G04 APERTURE LIST*
%ADD10C,0.100000*%
G04 APERTURE END LIST*
D10*
G36*
X198132000Y-147713000D02*
X196330000Y-147713000D01*
X196330000Y-145911000D01*
X198132000Y-145911000D01*
X198132000Y-147713000D01*
X198132000Y-147713000D01*
G37*
G36*
X193179000Y-147687600D02*
X191377000Y-147687600D01*
X191377000Y-145885600D01*
X193179000Y-145885600D01*
X193179000Y-147687600D01*
X193179000Y-147687600D01*
G37*
G36*
X195458991Y-137109101D02*
X195544321Y-137117505D01*
X195681172Y-137159019D01*
X195681174Y-137159020D01*
X195681177Y-137159021D01*
X195807296Y-137226432D01*
X195917843Y-137317157D01*
X196008568Y-137427704D01*
X196075979Y-137553823D01*
X196075980Y-137553826D01*
X196075981Y-137553828D01*
X196117495Y-137690679D01*
X196131512Y-137833000D01*
X196117495Y-137975321D01*
X196075981Y-138112172D01*
X196075979Y-138112177D01*
X196008568Y-138238296D01*
X195917843Y-138348843D01*
X195807296Y-138439568D01*
X195681177Y-138506979D01*
X195681174Y-138506980D01*
X195681172Y-138506981D01*
X195544321Y-138548495D01*
X195458991Y-138556899D01*
X195437660Y-138559000D01*
X195016340Y-138559000D01*
X194995009Y-138556899D01*
X194909679Y-138548495D01*
X194772828Y-138506981D01*
X194772826Y-138506980D01*
X194772823Y-138506979D01*
X194646704Y-138439568D01*
X194536157Y-138348843D01*
X194445432Y-138238296D01*
X194378021Y-138112177D01*
X194378019Y-138112172D01*
X194336505Y-137975321D01*
X194322488Y-137833000D01*
X194336505Y-137690679D01*
X194378019Y-137553828D01*
X194378020Y-137553826D01*
X194378021Y-137553823D01*
X194445432Y-137427704D01*
X194536157Y-137317157D01*
X194646704Y-137226432D01*
X194772823Y-137159021D01*
X194772826Y-137159020D01*
X194772828Y-137159019D01*
X194909679Y-137117505D01*
X194995009Y-137109101D01*
X195016340Y-137107000D01*
X195437660Y-137107000D01*
X195458991Y-137109101D01*
X195458991Y-137109101D01*
G37*
G36*
X198544818Y-136930696D02*
X198658105Y-136965062D01*
X198762513Y-137020869D01*
X198854027Y-137095973D01*
X198929131Y-137187487D01*
X198984938Y-137291895D01*
X199019304Y-137405182D01*
X199030907Y-137523000D01*
X199019304Y-137640818D01*
X198984938Y-137754105D01*
X198929131Y-137858513D01*
X198854027Y-137950027D01*
X198762513Y-138025131D01*
X198658105Y-138080938D01*
X198544818Y-138115304D01*
X198456519Y-138124000D01*
X197997481Y-138124000D01*
X197909182Y-138115304D01*
X197795895Y-138080938D01*
X197691487Y-138025131D01*
X197599973Y-137950027D01*
X197524869Y-137858513D01*
X197469062Y-137754105D01*
X197434696Y-137640818D01*
X197423093Y-137523000D01*
X197434696Y-137405182D01*
X197469062Y-137291895D01*
X197524869Y-137187487D01*
X197599973Y-137095973D01*
X197691487Y-137020869D01*
X197795895Y-136965062D01*
X197909182Y-136930696D01*
X197997481Y-136922000D01*
X198456519Y-136922000D01*
X198544818Y-136930696D01*
X198544818Y-136930696D01*
G37*
G36*
X198544818Y-132090696D02*
X198658105Y-132125062D01*
X198762513Y-132180869D01*
X198854027Y-132255973D01*
X198929131Y-132347487D01*
X198984938Y-132451895D01*
X199019304Y-132565182D01*
X199030907Y-132683000D01*
X199019304Y-132800818D01*
X198984938Y-132914105D01*
X198929131Y-133018513D01*
X198854027Y-133110027D01*
X198762513Y-133185131D01*
X198658105Y-133240938D01*
X198544818Y-133275304D01*
X198456519Y-133284000D01*
X197997481Y-133284000D01*
X197909182Y-133275304D01*
X197795895Y-133240938D01*
X197691487Y-133185131D01*
X197599973Y-133110027D01*
X197524869Y-133018513D01*
X197469062Y-132914105D01*
X197434696Y-132800818D01*
X197423093Y-132683000D01*
X197434696Y-132565182D01*
X197469062Y-132451895D01*
X197524869Y-132347487D01*
X197599973Y-132255973D01*
X197691487Y-132180869D01*
X197795895Y-132125062D01*
X197909182Y-132090696D01*
X197997481Y-132082000D01*
X198456519Y-132082000D01*
X198544818Y-132090696D01*
X198544818Y-132090696D01*
G37*
G36*
X195458991Y-131649101D02*
X195544321Y-131657505D01*
X195681172Y-131699019D01*
X195681174Y-131699020D01*
X195681177Y-131699021D01*
X195807296Y-131766432D01*
X195917843Y-131857157D01*
X196008568Y-131967704D01*
X196075979Y-132093823D01*
X196075980Y-132093826D01*
X196075981Y-132093828D01*
X196117495Y-132230679D01*
X196131512Y-132373000D01*
X196117495Y-132515321D01*
X196075981Y-132652172D01*
X196075979Y-132652177D01*
X196008568Y-132778296D01*
X195917843Y-132888843D01*
X195807296Y-132979568D01*
X195681177Y-133046979D01*
X195681174Y-133046980D01*
X195681172Y-133046981D01*
X195544321Y-133088495D01*
X195458991Y-133096899D01*
X195437660Y-133099000D01*
X195016340Y-133099000D01*
X194995009Y-133096899D01*
X194909679Y-133088495D01*
X194772828Y-133046981D01*
X194772826Y-133046980D01*
X194772823Y-133046979D01*
X194646704Y-132979568D01*
X194536157Y-132888843D01*
X194445432Y-132778296D01*
X194378021Y-132652177D01*
X194378019Y-132652172D01*
X194336505Y-132515321D01*
X194322488Y-132373000D01*
X194336505Y-132230679D01*
X194378019Y-132093828D01*
X194378020Y-132093826D01*
X194378021Y-132093823D01*
X194445432Y-131967704D01*
X194536157Y-131857157D01*
X194646704Y-131766432D01*
X194772823Y-131699021D01*
X194772826Y-131699020D01*
X194772828Y-131699019D01*
X194909679Y-131657505D01*
X194995009Y-131649101D01*
X195016340Y-131647000D01*
X195437660Y-131647000D01*
X195458991Y-131649101D01*
X195458991Y-131649101D01*
G37*
G36*
X152764442Y-112897518D02*
X152830627Y-112904037D01*
X152943853Y-112938384D01*
X153000467Y-112955557D01*
X153139087Y-113029652D01*
X153156991Y-113039222D01*
X153192729Y-113068552D01*
X153294186Y-113151814D01*
X153377448Y-113253271D01*
X153406778Y-113289009D01*
X153406779Y-113289011D01*
X153490443Y-113445533D01*
X153490443Y-113445534D01*
X153541963Y-113615373D01*
X153559359Y-113792000D01*
X153541963Y-113968627D01*
X153507616Y-114081853D01*
X153490443Y-114138467D01*
X153416348Y-114277087D01*
X153406778Y-114294991D01*
X153377448Y-114330729D01*
X153294186Y-114432186D01*
X153192729Y-114515448D01*
X153156991Y-114544778D01*
X153156989Y-114544779D01*
X153000467Y-114628443D01*
X152943853Y-114645616D01*
X152830627Y-114679963D01*
X152764443Y-114686481D01*
X152698260Y-114693000D01*
X152609740Y-114693000D01*
X152543557Y-114686481D01*
X152477373Y-114679963D01*
X152364147Y-114645616D01*
X152307533Y-114628443D01*
X152151011Y-114544779D01*
X152151009Y-114544778D01*
X152115271Y-114515448D01*
X152013814Y-114432186D01*
X151930552Y-114330729D01*
X151901222Y-114294991D01*
X151891652Y-114277087D01*
X151817557Y-114138467D01*
X151800384Y-114081853D01*
X151766037Y-113968627D01*
X151748641Y-113792000D01*
X151766037Y-113615373D01*
X151817557Y-113445534D01*
X151817557Y-113445533D01*
X151901221Y-113289011D01*
X151901222Y-113289009D01*
X151930552Y-113253271D01*
X152013814Y-113151814D01*
X152115271Y-113068552D01*
X152151009Y-113039222D01*
X152168913Y-113029652D01*
X152307533Y-112955557D01*
X152364147Y-112938384D01*
X152477373Y-112904037D01*
X152543558Y-112897518D01*
X152609740Y-112891000D01*
X152698260Y-112891000D01*
X152764442Y-112897518D01*
X152764442Y-112897518D01*
G37*
G36*
X152764443Y-110357519D02*
X152830627Y-110364037D01*
X152943853Y-110398384D01*
X153000467Y-110415557D01*
X153139087Y-110489652D01*
X153156991Y-110499222D01*
X153192729Y-110528552D01*
X153294186Y-110611814D01*
X153377448Y-110713271D01*
X153406778Y-110749009D01*
X153406779Y-110749011D01*
X153490443Y-110905533D01*
X153490443Y-110905534D01*
X153541963Y-111075373D01*
X153559359Y-111252000D01*
X153541963Y-111428627D01*
X153507616Y-111541853D01*
X153490443Y-111598467D01*
X153416348Y-111737087D01*
X153406778Y-111754991D01*
X153377448Y-111790729D01*
X153294186Y-111892186D01*
X153192729Y-111975448D01*
X153156991Y-112004778D01*
X153156989Y-112004779D01*
X153000467Y-112088443D01*
X152943853Y-112105616D01*
X152830627Y-112139963D01*
X152764443Y-112146481D01*
X152698260Y-112153000D01*
X152609740Y-112153000D01*
X152543557Y-112146481D01*
X152477373Y-112139963D01*
X152364147Y-112105616D01*
X152307533Y-112088443D01*
X152151011Y-112004779D01*
X152151009Y-112004778D01*
X152115271Y-111975448D01*
X152013814Y-111892186D01*
X151930552Y-111790729D01*
X151901222Y-111754991D01*
X151891652Y-111737087D01*
X151817557Y-111598467D01*
X151800384Y-111541853D01*
X151766037Y-111428627D01*
X151748641Y-111252000D01*
X151766037Y-111075373D01*
X151817557Y-110905534D01*
X151817557Y-110905533D01*
X151901221Y-110749011D01*
X151901222Y-110749009D01*
X151930552Y-110713271D01*
X152013814Y-110611814D01*
X152115271Y-110528552D01*
X152151009Y-110499222D01*
X152168913Y-110489652D01*
X152307533Y-110415557D01*
X152364147Y-110398384D01*
X152477373Y-110364037D01*
X152543557Y-110357519D01*
X152609740Y-110351000D01*
X152698260Y-110351000D01*
X152764443Y-110357519D01*
X152764443Y-110357519D01*
G37*
G36*
X166509000Y-110629000D02*
X164707000Y-110629000D01*
X164707000Y-108827000D01*
X166509000Y-108827000D01*
X166509000Y-110629000D01*
X166509000Y-110629000D01*
G37*
G36*
X162826000Y-110629000D02*
X161024000Y-110629000D01*
X161024000Y-108827000D01*
X162826000Y-108827000D01*
X162826000Y-110629000D01*
X162826000Y-110629000D01*
G37*
G36*
X152764443Y-107817519D02*
X152830627Y-107824037D01*
X152943853Y-107858384D01*
X153000467Y-107875557D01*
X153139087Y-107949652D01*
X153156991Y-107959222D01*
X153192729Y-107988552D01*
X153294186Y-108071814D01*
X153377448Y-108173271D01*
X153406778Y-108209009D01*
X153406779Y-108209011D01*
X153490443Y-108365533D01*
X153490443Y-108365534D01*
X153541963Y-108535373D01*
X153559359Y-108712000D01*
X153541963Y-108888627D01*
X153507616Y-109001853D01*
X153490443Y-109058467D01*
X153416348Y-109197087D01*
X153406778Y-109214991D01*
X153377448Y-109250729D01*
X153294186Y-109352186D01*
X153192729Y-109435448D01*
X153156991Y-109464778D01*
X153156989Y-109464779D01*
X153000467Y-109548443D01*
X152943853Y-109565616D01*
X152830627Y-109599963D01*
X152764442Y-109606482D01*
X152698260Y-109613000D01*
X152609740Y-109613000D01*
X152543558Y-109606482D01*
X152477373Y-109599963D01*
X152364147Y-109565616D01*
X152307533Y-109548443D01*
X152151011Y-109464779D01*
X152151009Y-109464778D01*
X152115271Y-109435448D01*
X152013814Y-109352186D01*
X151930552Y-109250729D01*
X151901222Y-109214991D01*
X151891652Y-109197087D01*
X151817557Y-109058467D01*
X151800384Y-109001853D01*
X151766037Y-108888627D01*
X151748641Y-108712000D01*
X151766037Y-108535373D01*
X151817557Y-108365534D01*
X151817557Y-108365533D01*
X151901221Y-108209011D01*
X151901222Y-108209009D01*
X151930552Y-108173271D01*
X152013814Y-108071814D01*
X152115271Y-107988552D01*
X152151009Y-107959222D01*
X152168913Y-107949652D01*
X152307533Y-107875557D01*
X152364147Y-107858384D01*
X152477373Y-107824037D01*
X152543557Y-107817519D01*
X152609740Y-107811000D01*
X152698260Y-107811000D01*
X152764443Y-107817519D01*
X152764443Y-107817519D01*
G37*
G36*
X152764443Y-105277519D02*
X152830627Y-105284037D01*
X152943853Y-105318384D01*
X153000467Y-105335557D01*
X153139087Y-105409652D01*
X153156991Y-105419222D01*
X153192729Y-105448552D01*
X153294186Y-105531814D01*
X153377448Y-105633271D01*
X153406778Y-105669009D01*
X153406779Y-105669011D01*
X153490443Y-105825533D01*
X153490443Y-105825534D01*
X153541963Y-105995373D01*
X153559359Y-106172000D01*
X153541963Y-106348627D01*
X153507616Y-106461853D01*
X153490443Y-106518467D01*
X153416348Y-106657087D01*
X153406778Y-106674991D01*
X153377448Y-106710729D01*
X153294186Y-106812186D01*
X153192729Y-106895448D01*
X153156991Y-106924778D01*
X153156989Y-106924779D01*
X153000467Y-107008443D01*
X152943853Y-107025616D01*
X152830627Y-107059963D01*
X152764443Y-107066481D01*
X152698260Y-107073000D01*
X152609740Y-107073000D01*
X152543557Y-107066481D01*
X152477373Y-107059963D01*
X152364147Y-107025616D01*
X152307533Y-107008443D01*
X152151011Y-106924779D01*
X152151009Y-106924778D01*
X152115271Y-106895448D01*
X152013814Y-106812186D01*
X151930552Y-106710729D01*
X151901222Y-106674991D01*
X151891652Y-106657087D01*
X151817557Y-106518467D01*
X151800384Y-106461853D01*
X151766037Y-106348627D01*
X151748641Y-106172000D01*
X151766037Y-105995373D01*
X151817557Y-105825534D01*
X151817557Y-105825533D01*
X151901221Y-105669011D01*
X151901222Y-105669009D01*
X151930552Y-105633271D01*
X152013814Y-105531814D01*
X152115271Y-105448552D01*
X152151009Y-105419222D01*
X152168913Y-105409652D01*
X152307533Y-105335557D01*
X152364147Y-105318384D01*
X152477373Y-105284037D01*
X152543557Y-105277519D01*
X152609740Y-105271000D01*
X152698260Y-105271000D01*
X152764443Y-105277519D01*
X152764443Y-105277519D01*
G37*
G36*
X153555000Y-104533000D02*
X151753000Y-104533000D01*
X151753000Y-102731000D01*
X153555000Y-102731000D01*
X153555000Y-104533000D01*
X153555000Y-104533000D01*
G37*
G36*
X167826643Y-101365919D02*
X167892827Y-101372437D01*
X168006053Y-101406784D01*
X168062667Y-101423957D01*
X168201287Y-101498052D01*
X168219191Y-101507622D01*
X168254929Y-101536952D01*
X168356386Y-101620214D01*
X168439648Y-101721671D01*
X168468978Y-101757409D01*
X168468979Y-101757411D01*
X168552643Y-101913933D01*
X168552643Y-101913934D01*
X168604163Y-102083773D01*
X168621559Y-102260400D01*
X168604163Y-102437027D01*
X168569816Y-102550253D01*
X168552643Y-102606867D01*
X168478548Y-102745487D01*
X168468978Y-102763391D01*
X168439648Y-102799129D01*
X168356386Y-102900586D01*
X168254929Y-102983848D01*
X168219191Y-103013178D01*
X168219189Y-103013179D01*
X168062667Y-103096843D01*
X168006053Y-103114016D01*
X167892827Y-103148363D01*
X167826643Y-103154881D01*
X167760460Y-103161400D01*
X167671940Y-103161400D01*
X167605757Y-103154881D01*
X167539573Y-103148363D01*
X167426347Y-103114016D01*
X167369733Y-103096843D01*
X167213211Y-103013179D01*
X167213209Y-103013178D01*
X167177471Y-102983848D01*
X167076014Y-102900586D01*
X166992752Y-102799129D01*
X166963422Y-102763391D01*
X166953852Y-102745487D01*
X166879757Y-102606867D01*
X166862584Y-102550253D01*
X166828237Y-102437027D01*
X166810841Y-102260400D01*
X166828237Y-102083773D01*
X166879757Y-101913934D01*
X166879757Y-101913933D01*
X166963421Y-101757411D01*
X166963422Y-101757409D01*
X166992752Y-101721671D01*
X167076014Y-101620214D01*
X167177471Y-101536952D01*
X167213209Y-101507622D01*
X167231113Y-101498052D01*
X167369733Y-101423957D01*
X167426347Y-101406784D01*
X167539573Y-101372437D01*
X167605757Y-101365919D01*
X167671940Y-101359400D01*
X167760460Y-101359400D01*
X167826643Y-101365919D01*
X167826643Y-101365919D01*
G37*
G36*
X160206643Y-101365919D02*
X160272827Y-101372437D01*
X160386053Y-101406784D01*
X160442667Y-101423957D01*
X160581287Y-101498052D01*
X160599191Y-101507622D01*
X160634929Y-101536952D01*
X160736386Y-101620214D01*
X160819648Y-101721671D01*
X160848978Y-101757409D01*
X160848979Y-101757411D01*
X160932643Y-101913933D01*
X160932643Y-101913934D01*
X160984163Y-102083773D01*
X161001559Y-102260400D01*
X160984163Y-102437027D01*
X160949816Y-102550253D01*
X160932643Y-102606867D01*
X160858548Y-102745487D01*
X160848978Y-102763391D01*
X160819648Y-102799129D01*
X160736386Y-102900586D01*
X160634929Y-102983848D01*
X160599191Y-103013178D01*
X160599189Y-103013179D01*
X160442667Y-103096843D01*
X160386053Y-103114016D01*
X160272827Y-103148363D01*
X160206643Y-103154881D01*
X160140460Y-103161400D01*
X160051940Y-103161400D01*
X159985757Y-103154881D01*
X159919573Y-103148363D01*
X159806347Y-103114016D01*
X159749733Y-103096843D01*
X159593211Y-103013179D01*
X159593209Y-103013178D01*
X159557471Y-102983848D01*
X159456014Y-102900586D01*
X159372752Y-102799129D01*
X159343422Y-102763391D01*
X159333852Y-102745487D01*
X159259757Y-102606867D01*
X159242584Y-102550253D01*
X159208237Y-102437027D01*
X159190841Y-102260400D01*
X159208237Y-102083773D01*
X159259757Y-101913934D01*
X159259757Y-101913933D01*
X159343421Y-101757411D01*
X159343422Y-101757409D01*
X159372752Y-101721671D01*
X159456014Y-101620214D01*
X159557471Y-101536952D01*
X159593209Y-101507622D01*
X159611113Y-101498052D01*
X159749733Y-101423957D01*
X159806347Y-101406784D01*
X159919573Y-101372437D01*
X159985757Y-101365919D01*
X160051940Y-101359400D01*
X160140460Y-101359400D01*
X160206643Y-101365919D01*
X160206643Y-101365919D01*
G37*
G36*
X165286643Y-101365919D02*
X165352827Y-101372437D01*
X165466053Y-101406784D01*
X165522667Y-101423957D01*
X165661287Y-101498052D01*
X165679191Y-101507622D01*
X165714929Y-101536952D01*
X165816386Y-101620214D01*
X165899648Y-101721671D01*
X165928978Y-101757409D01*
X165928979Y-101757411D01*
X166012643Y-101913933D01*
X166012643Y-101913934D01*
X166064163Y-102083773D01*
X166081559Y-102260400D01*
X166064163Y-102437027D01*
X166029816Y-102550253D01*
X166012643Y-102606867D01*
X165938548Y-102745487D01*
X165928978Y-102763391D01*
X165899648Y-102799129D01*
X165816386Y-102900586D01*
X165714929Y-102983848D01*
X165679191Y-103013178D01*
X165679189Y-103013179D01*
X165522667Y-103096843D01*
X165466053Y-103114016D01*
X165352827Y-103148363D01*
X165286643Y-103154881D01*
X165220460Y-103161400D01*
X165131940Y-103161400D01*
X165065757Y-103154881D01*
X164999573Y-103148363D01*
X164886347Y-103114016D01*
X164829733Y-103096843D01*
X164673211Y-103013179D01*
X164673209Y-103013178D01*
X164637471Y-102983848D01*
X164536014Y-102900586D01*
X164452752Y-102799129D01*
X164423422Y-102763391D01*
X164413852Y-102745487D01*
X164339757Y-102606867D01*
X164322584Y-102550253D01*
X164288237Y-102437027D01*
X164270841Y-102260400D01*
X164288237Y-102083773D01*
X164339757Y-101913934D01*
X164339757Y-101913933D01*
X164423421Y-101757411D01*
X164423422Y-101757409D01*
X164452752Y-101721671D01*
X164536014Y-101620214D01*
X164637471Y-101536952D01*
X164673209Y-101507622D01*
X164691113Y-101498052D01*
X164829733Y-101423957D01*
X164886347Y-101406784D01*
X164999573Y-101372437D01*
X165065757Y-101365919D01*
X165131940Y-101359400D01*
X165220460Y-101359400D01*
X165286643Y-101365919D01*
X165286643Y-101365919D01*
G37*
G36*
X162746643Y-101365919D02*
X162812827Y-101372437D01*
X162926053Y-101406784D01*
X162982667Y-101423957D01*
X163121287Y-101498052D01*
X163139191Y-101507622D01*
X163174929Y-101536952D01*
X163276386Y-101620214D01*
X163359648Y-101721671D01*
X163388978Y-101757409D01*
X163388979Y-101757411D01*
X163472643Y-101913933D01*
X163472643Y-101913934D01*
X163524163Y-102083773D01*
X163541559Y-102260400D01*
X163524163Y-102437027D01*
X163489816Y-102550253D01*
X163472643Y-102606867D01*
X163398548Y-102745487D01*
X163388978Y-102763391D01*
X163359648Y-102799129D01*
X163276386Y-102900586D01*
X163174929Y-102983848D01*
X163139191Y-103013178D01*
X163139189Y-103013179D01*
X162982667Y-103096843D01*
X162926053Y-103114016D01*
X162812827Y-103148363D01*
X162746643Y-103154881D01*
X162680460Y-103161400D01*
X162591940Y-103161400D01*
X162525757Y-103154881D01*
X162459573Y-103148363D01*
X162346347Y-103114016D01*
X162289733Y-103096843D01*
X162133211Y-103013179D01*
X162133209Y-103013178D01*
X162097471Y-102983848D01*
X161996014Y-102900586D01*
X161912752Y-102799129D01*
X161883422Y-102763391D01*
X161873852Y-102745487D01*
X161799757Y-102606867D01*
X161782584Y-102550253D01*
X161748237Y-102437027D01*
X161730841Y-102260400D01*
X161748237Y-102083773D01*
X161799757Y-101913934D01*
X161799757Y-101913933D01*
X161883421Y-101757411D01*
X161883422Y-101757409D01*
X161912752Y-101721671D01*
X161996014Y-101620214D01*
X162097471Y-101536952D01*
X162133209Y-101507622D01*
X162151113Y-101498052D01*
X162289733Y-101423957D01*
X162346347Y-101406784D01*
X162459573Y-101372437D01*
X162525757Y-101365919D01*
X162591940Y-101359400D01*
X162680460Y-101359400D01*
X162746643Y-101365919D01*
X162746643Y-101365919D01*
G37*
G36*
X158457200Y-103161400D02*
X156655200Y-103161400D01*
X156655200Y-101359400D01*
X158457200Y-101359400D01*
X158457200Y-103161400D01*
X158457200Y-103161400D01*
G37*
M02*
