M48
;DRILL file {KiCad (5.0.2)-1} date 11/27/2019 9:51:53 PM
;FORMAT={2:4/ absolute / inch / suppress trailing zeros}
FMAT,2
INCH,LZ
T1C0.0130
T2C0.0256
T3C0.0276
T4C0.0394
%
G90
G05
T1
X0619Y-04515
X06195Y-0443
X06227Y-04954
X0624Y-04275
X0624Y-04575
X06265Y-04765
X06395Y-0503
X0658Y-0431
X0661Y-0423
X06621Y-04835
X06645Y-05675
X0667Y-04305
X06685Y-04205
X06695Y-0503
X0681Y-042967
X06865Y-047
X0688Y-0555
X06885Y-04555
X0691Y-0459
X06945Y-0543
X0695Y-0576
X0697Y-05035
X0701Y-0422
X07025Y-0405
X07115Y-0565
X07135Y-04085
X07135Y-04605
X0714Y-05485
X0717Y-0506
X0721Y-0422
X07275Y-043
X0729Y-05305
X07335Y-0494
X0735Y-05055
X07355Y-0526
X0744Y-04125
X0756Y-05295
X07565Y-05015
X077442Y-053
X07745Y-05335
X078516Y-0527
T4
X0757Y-05779
X0652Y-0432
X06203Y-04026
X06303Y-04026
X06403Y-04026
X06503Y-04026
X06603Y-04026
X06375Y-0432
X0601Y-0408
X0601Y-0418
X0601Y-0428
X0601Y-0438
X0601Y-0448
X07765Y-0578
T2
X077963Y-052237G85X078121Y-052237
G05
X077963Y-054143G85X078121Y-054143
G05
T3
X076763Y-052115G85X076959Y-052115
G05
X076763Y-054265G85X076959Y-054265
G05
T0
M30
